<svg width="308" height="270" viewBox="0 0 308 270" fill="none" xmlns="http://www.w3.org/2000/svg">
<g clip-path="url(#clip0_84_1374)">
<path opacity="0.998" d="M278.473 97.4333H260.684V106.696H278.473V97.4333Z" fill="#F2F2F2"/>
<path opacity="0.998" d="M265.473 29.8475H247.684V39.1106H265.473V29.8475Z" fill="#F2F2F2"/>
<path opacity="0.998" d="M278.131 40.4828H260.341V49.7458H278.131V40.4828Z" fill="#F2F2F2"/>
<path opacity="0.998" d="M243.92 30.5337H226.131V39.7967H243.92V30.5337Z" fill="#F2F2F2"/>
<path opacity="0.998" d="M17.7894 130.025H0V139.288H17.7894V130.025Z" fill="#F2F2F2"/>
<path opacity="0.998" d="M279.499 51.8043H261.71V61.0673H279.499V51.8043Z" fill="#F2F2F2"/>
<path opacity="0.998" d="M256.578 41.1689H238.789V50.432H256.578V41.1689Z" fill="#F2F2F2"/>
<path opacity="0.998" d="M300.026 122.478H282.236V131.741H300.026V122.478Z" fill="#F2F2F2"/>
<path opacity="0.998" d="M278.473 123.164H260.684V132.427H278.473V123.164Z" fill="#F2F2F2"/>
<path opacity="0.998" d="M17.7894 97.4333H0V106.696H17.7894V97.4333Z" fill="#F2F2F2"/>
<path opacity="0.998" d="M30.4471 108.069H12.6577V117.332H30.4471V108.069Z" fill="#F2F2F2"/>
<path opacity="0.998" d="M126.578 0H108.789V9.26302H126.578V0Z" fill="#F2F2F2"/>
<path opacity="0.998" d="M266.842 170.851H249.052V180.114H266.842V170.851Z" fill="#F2F2F2"/>
<path opacity="0.998" d="M31.8158 119.39H14.0264V128.653H31.8158V119.39Z" fill="#F2F2F2"/>
<path opacity="0.998" d="M139.237 10.6354H121.447V19.8984H139.237V10.6354Z" fill="#F2F2F2"/>
<path opacity="0.998" d="M74.2367 73.4181H56.4473V82.6811H74.2367V73.4181Z" fill="#F2F2F2"/>
<path opacity="0.998" d="M86.8944 84.0533H69.105V93.3164H86.8944V84.0533Z" fill="#F2F2F2"/>
<path opacity="0.998" d="M120.763 78.2211H102.974V87.4841H120.763V78.2211Z" fill="#F2F2F2"/>
<path opacity="0.998" d="M88.2631 95.3749H70.4736V104.638H88.2631V95.3749Z" fill="#F2F2F2"/>
<path opacity="0.998" d="M290.789 170.851H273V180.114H290.789V170.851Z" fill="#F2F2F2"/>
<path d="M172.106 19.7509C178.962 19.7509 185.538 22.4824 190.386 27.3445C195.235 32.2066 197.959 38.801 197.959 45.677V56.7378H146.253V45.677C146.253 38.801 148.977 32.2066 153.825 27.3445C158.673 22.4824 165.249 19.7509 172.106 19.7509Z" fill="#CACACA"/>
<path d="M172.287 80.6707C188.562 80.6707 201.756 71.5791 201.756 60.3641C201.756 49.1491 188.562 40.0575 172.287 40.0575C156.012 40.0575 142.818 49.1491 142.818 60.3641C142.818 71.5791 156.012 80.6707 172.287 80.6707Z" fill="#CACACA"/>
<path d="M153.396 80.036C153.396 80.036 159.554 112.309 153.396 121.013C147.238 129.717 172.212 133.161 172.212 133.161L198.061 123.733L201.677 100.524C201.677 100.524 185.941 91.6388 189.201 73.6891L153.396 80.036Z" fill="#FFB9B9"/>
<path d="M229.692 188.825C229.692 188.825 231.321 195.896 222.46 197.165C217.229 197.937 211.908 197.873 206.696 196.976L204.743 179.215H225.354L229.692 188.825Z" fill="#FFB9B9"/>
<path d="M73.2341 179.775C73.2341 179.775 69.3204 195.724 78.1809 197.165C87.0414 198.606 119.576 198.616 119.576 198.616V179.747L104.845 182.904L91.0167 169.606L73.2341 179.775Z" fill="#FFB9B9"/>
<path opacity="0.1" d="M155.298 90.462L120.674 97.8038C120.674 97.8038 107.476 98.3493 98.9778 115.935C90.48 133.521 72.0371 183.748 72.0371 183.748C72.0371 183.748 87.7739 167.791 106.21 184.835L118.505 162.535L115.792 197.892H211.061V181.209C211.061 181.209 230.948 191.906 229.504 197.889C229.504 197.889 246.524 153.914 242.846 133.93C241.739 127.752 241.06 121.504 240.814 115.232C240.597 110.066 238.791 105.095 235.644 100.999C232.497 96.904 228.163 93.8859 223.237 92.3592C221.444 91.8068 219.474 91.2888 217.284 90.8256C196.854 86.4754 191.627 90.8256 191.627 90.8256C191.627 90.8256 187.668 103.739 187.74 109.592C187.829 117.115 177.073 122.104 177.073 122.104C177.073 122.104 161.162 118.296 160.44 115.215C159.718 112.134 154.026 94.0883 155.298 90.462Z" fill="black"/>
<path d="M155.298 89.7381L120.674 97.0799C120.674 97.0799 107.476 97.6254 98.9778 115.211C90.48 132.797 72.0337 183.03 72.0337 183.03C72.0337 183.03 87.7705 167.074 106.207 184.118L118.502 161.818L115.789 197.165H211.061V180.485C211.061 180.485 230.948 191.182 229.504 197.165C229.504 197.165 246.524 153.19 242.846 133.206C241.739 127.028 241.06 120.78 240.814 114.508C240.597 109.342 238.791 104.371 235.644 100.275C232.497 96.1801 228.163 93.162 223.237 91.6353C221.444 91.0829 219.474 90.5649 217.284 90.1018C196.854 85.7516 191.627 90.1018 191.627 90.1018C191.627 90.1018 187.668 103.015 187.74 108.868C187.829 116.392 177.073 121.38 177.073 121.38C177.073 121.38 161.162 117.572 160.44 114.491C159.718 111.41 154.026 93.3644 155.298 89.7381Z" fill="#ED862D"/>
<path opacity="0.1" d="M190.679 88.1977C189.224 84.0684 188.898 79.6239 189.734 75.3256L153.93 81.669C153.93 81.669 154.446 84.3827 155.031 88.4482C157.345 90.8555 160.122 92.7659 163.195 94.063C166.268 95.3601 169.571 96.017 172.905 95.9935C176.239 95.9701 179.533 95.2669 182.587 93.9268C185.642 92.5866 188.392 90.6374 190.672 88.1977H190.679Z" fill="black"/>
<path d="M196.785 69.7026C196.824 72.9405 196.227 76.1545 195.028 79.161C193.828 82.1675 192.05 84.9077 189.794 87.225C187.539 89.5423 184.85 91.3914 181.882 92.6667C178.914 93.9421 175.725 94.6186 172.496 94.6578C169.267 94.697 166.062 94.0981 163.064 92.8952C160.066 91.6923 157.334 89.909 155.023 87.6471C150.356 83.079 147.69 76.8389 147.611 70.2995C147.615 70.1005 147.615 69.9015 147.615 69.7026C147.613 66.1136 148.393 62.5675 149.899 59.3121C151.406 56.0567 153.603 53.1704 156.338 50.855C159.072 48.5396 162.277 46.8508 165.73 45.9066C169.183 44.9625 172.8 44.7858 176.328 45.3888C181.774 46.3189 186.749 49.0628 190.449 53.1775C194.15 57.2921 196.359 62.5373 196.72 68.0661C196.764 68.6082 196.785 69.1536 196.785 69.7026Z" fill="#FFB9B9"/>
<path d="M163.632 46.5896L163.666 46.569C158.952 48.3154 154.885 51.4696 152.015 55.6062C149.144 59.7427 147.607 64.6627 147.611 69.7025C147.611 69.9015 147.611 70.1005 147.611 70.2995C148.376 70.2787 149.127 70.0976 149.818 69.7677C155.812 66.9613 159.397 58.3776 160.82 52.391C161.333 50.2605 161.815 47.8349 163.632 46.5896Z" fill="#090814"/>
<path d="M182.451 47.2826C180.505 46.3859 178.449 45.7504 176.338 45.3922C178.07 45.7919 179.616 46.7662 180.727 48.1574C181.271 48.8998 181.723 49.7063 182.071 50.5589C178.799 49.1241 175.255 48.4193 171.684 48.4933C168.114 48.5674 164.601 49.4185 161.391 50.9878C162.934 54.3808 167.72 56.2299 170.915 57.4685C174.414 58.8225 177.949 60.061 181.521 61.184L178.359 58.6109L185.499 59.7499C185.576 58.325 185.407 56.8974 185 55.5301C186.368 56.6348 188.181 57.0053 189.666 57.9316C192.447 59.6916 193.607 63.0777 195.123 66.011C195.523 66.7864 195.995 67.5789 196.717 68.0695C196.425 63.6377 194.946 59.3671 192.435 55.7085C189.924 52.0498 186.475 49.1388 182.451 47.2826Z" fill="#090814"/>
<path d="M144.806 65.0779C144.806 65.0779 170.122 33.515 199.409 65.0779L196.878 58.0071C196.878 58.0071 183.136 37.8823 173.375 42.2257C163.615 46.569 154.029 49.6601 154.029 49.6601L144.806 65.0779Z" fill="#CACACA"/>
<path opacity="0.1" d="M124.013 133.072C124.013 133.072 118.591 147.577 126.182 160.631C133.773 173.685 119.494 179.126 119.494 179.126" fill="black"/>
<path opacity="0.1" d="M211.882 120.018C211.882 120.018 221.283 131.984 215.136 142.681C208.988 153.379 209.351 179.126 209.351 179.126" fill="black"/>
<path d="M115.696 189.823H220.199C222.501 189.823 224.708 190.74 226.336 192.373C227.964 194.005 228.878 196.219 228.878 198.527H107.021C107.021 196.219 107.934 194.006 109.561 192.374C111.188 190.742 113.395 189.824 115.696 189.823Z" fill="#090814"/>
<path d="M126.329 129.988H209.57C211.322 129.988 213.057 130.334 214.676 131.006C216.294 131.679 217.765 132.664 219.004 133.907C220.243 135.149 221.226 136.624 221.896 138.247C222.567 139.871 222.912 141.611 222.912 143.368V191.817H112.987V143.368C112.987 139.819 114.393 136.416 116.895 133.907C119.397 131.397 122.79 129.988 126.329 129.988Z" fill="#090814"/>
<path d="M167.857 170.151C171.452 170.151 174.367 167.228 174.367 163.623C174.367 160.017 171.452 157.094 167.857 157.094C164.261 157.094 161.347 160.017 161.347 163.623C161.347 167.228 164.261 170.151 167.857 170.151Z" fill="white"/>
<path opacity="0.1" d="M146.253 50.8437C146.253 50.8437 171.131 25.909 197.962 50.3874" stroke="black" stroke-miterlimit="10"/>
<path d="M204.246 49.2552H201.749V63.4551H204.246V49.2552Z" fill="#CACACA"/>
<path d="M198.417 58.4429C200.7 58.4429 202.889 59.3523 204.503 60.9711C206.118 62.5898 207.024 64.7853 207.024 67.0746V67.6304C207.024 69.9197 206.118 72.1152 204.503 73.734C202.889 75.3528 200.7 76.2622 198.417 76.2622V58.4429Z" fill="#ED862D"/>
<path d="M200.637 59.5578C200.637 58.4816 199.767 57.6091 198.694 57.6091C197.621 57.6091 196.751 58.4816 196.751 59.5578V75.1506C196.751 76.2268 197.621 77.0992 198.694 77.0992C199.767 77.0992 200.637 76.2268 200.637 75.1506V59.5578Z" fill="#090814"/>
<path d="M139.712 63.733H142.209V49.5332H139.712V63.733Z" fill="#CACACA"/>
<path d="M145.542 76.54C143.259 76.54 141.069 75.6306 139.455 74.0119C137.841 72.3931 136.934 70.1976 136.934 67.9083V67.3525C136.934 66.219 137.157 65.0965 137.589 64.0493C138.022 63.002 138.656 62.0504 139.455 61.2489C140.254 60.4474 141.203 59.8116 142.248 59.3778C143.292 58.944 144.411 58.7207 145.542 58.7207V76.54Z" fill="#ED862D"/>
<path d="M143.321 75.425C143.321 76.5012 144.191 77.3737 145.264 77.3737C146.338 77.3737 147.208 76.5012 147.208 75.425V59.8322C147.208 58.756 146.338 57.8836 145.264 57.8836C144.191 57.8836 143.321 58.756 143.321 59.8322V75.425Z" fill="#090814"/>
<path d="M201.455 34.0776C198.072 27.024 190.703 18.4952 174.819 17.8125V17.7919H174.627L169 18.0595V18.0869C153.222 18.8142 145.887 27.3122 142.514 34.3418C140.267 39.1073 139.075 44.3035 139.018 49.5743L140.961 49.5263L142.904 49.4817C142.988 44.7891 144.064 40.1678 146.062 35.9234C150.345 27.0995 158.227 22.4097 169.485 21.974L174.463 21.6961C185.729 22.1283 193.614 26.825 197.894 35.6455C199.895 39.8915 200.973 44.5152 201.058 49.2107L203.001 49.2553L204.945 49.3033C204.889 44.0353 203.698 38.8415 201.455 34.0776Z" fill="#ED862D"/>
<path d="M290.228 198.64H25.1958V270H290.228V198.64Z" fill="#D6D6E3"/>
<path opacity="0.1" d="M290.228 203.443H25.1958V210.991H290.228V203.443Z" fill="black"/>
<path d="M308 197.611H7.41699V206.874H308V197.611Z" fill="#D6D6E3"/>
</g>
<defs>
<clipPath id="clip0_84_1374">
<rect width="308" height="270" fill="white"/>
</clipPath>
</defs>
</svg>
