<svg width="346" height="245" viewBox="0 0 346 245" fill="none" xmlns="http://www.w3.org/2000/svg">
<g clip-path="url(#clip0_84_1424)">
<path opacity="0.1" d="M115.031 244.862C131.88 244.862 145.54 242.669 145.54 239.964C145.54 237.258 131.88 235.065 115.031 235.065C98.1806 235.065 84.521 237.258 84.521 239.964C84.521 242.669 98.1806 244.862 115.031 244.862Z" fill="#ED862D"/>
<path opacity="0.1" d="M280.876 245C301.902 245 318.947 242.807 318.947 240.102C318.947 237.396 301.902 235.203 280.876 235.203C259.85 235.203 242.805 237.396 242.805 240.102C242.805 242.807 259.85 245 280.876 245Z" fill="#ED862D"/>
<path opacity="0.1" d="M4.3334 105.858H36.111V149.155H6.65981C6.58154 149.6 6.50639 150.047 6.42498 150.495H36.111V185.414C36.0578 185.398 36.0108 185.379 35.9607 185.36C35.1216 185.029 34.2887 184.678 33.4558 184.302L32.9235 184.061C32.0886 183.667 31.2536 183.25 30.4187 182.809C30.1275 182.656 29.8363 182.496 29.5482 182.334C24.9129 179.738 20.7019 176.449 17.0614 172.581C16.9549 172.477 16.8547 172.368 16.7482 172.268C16.241 171.717 15.7432 171.16 15.261 170.59L14.7287 169.964C14.1588 169.266 13.6077 168.549 13.0723 167.823C12.994 167.716 12.9189 167.61 12.8375 167.51C10.66 164.492 8.8519 161.224 7.45198 157.775C7.40815 157.672 7.37057 157.56 7.32987 157.462C6.89986 156.357 6.51891 155.24 6.18702 154.113C6.04298 153.641 5.90522 153.174 5.78623 152.683C5.7424 152.539 5.70482 152.398 5.67038 152.257C3.89191 145.318 3.68213 138.11 3.68213 130.951C3.68213 130.115 3.68213 129.277 3.68213 128.447C3.68213 125.552 3.71657 122.638 3.76667 119.727C3.76667 118.973 3.79798 118.221 3.81363 117.464C3.85747 115.542 3.92009 113.62 4.0015 111.698C4.02029 111.163 4.04534 110.631 4.07352 110.099C4.07352 109.792 4.08917 109.485 4.12048 109.179C4.19563 108.064 4.25825 106.959 4.3334 105.858Z" fill="#ED862D"/>
<path opacity="0.1" d="M36.1111 57.6489H18.6802C21.5137 53.2154 24.6096 48.9552 27.9514 44.8909C30.5408 41.7108 33.2743 38.612 36.1111 35.626V57.6489Z" fill="#ED862D"/>
<path opacity="0.1" d="M36.111 58.9885V104.518H4.43359C4.43359 104.386 4.45551 104.252 4.4649 104.12C4.49308 103.76 4.52126 103.401 4.55258 103.044C4.58702 102.624 4.62459 102.202 4.6653 101.792C4.706 101.382 4.74984 100.881 4.7968 100.427C4.84377 99.9731 4.8876 99.513 4.94083 99.0592C4.99406 98.6053 5.04103 98.1515 5.09739 97.7007C5.15375 97.25 5.20385 96.793 5.26334 96.3423C5.3103 95.9667 5.3604 95.5942 5.4105 95.2186C5.48251 94.6897 5.55766 94.1575 5.63907 93.6317C5.63907 93.5534 5.66099 93.4721 5.67351 93.3969C6.245 89.5475 7.02369 85.7317 8.00619 81.9661C9.03463 78.0159 10.3479 74.1454 11.9357 70.385C13.6233 66.4511 15.5992 62.6471 17.8473 59.0042L36.111 58.9885Z" fill="#ED862D"/>
<path opacity="0.1" d="M43.6978 105.855V149.155H111.571V105.855H43.6978ZM43.6978 150.492V187.677C44.086 187.758 44.4711 187.836 44.8531 187.902C45.3729 188.002 45.8895 188.093 46.4187 188.171C46.5189 188.187 46.6222 188.203 46.7318 188.212C46.9385 188.246 47.1514 188.275 47.358 188.303C47.8809 188.375 48.4007 188.434 48.9236 188.481C49.1709 188.506 49.4214 188.528 49.6719 188.547L50.2762 188.594C50.605 188.619 50.9306 188.638 51.2531 188.647C51.4535 188.647 51.6539 188.666 51.8606 188.672C52.0171 188.672 52.1737 188.672 52.3365 188.672C52.4993 188.672 52.731 188.672 52.9283 188.672C53.1975 188.672 53.4668 188.672 53.733 188.672H54.093C54.3623 188.672 54.6316 188.672 54.8977 188.647H54.9165C55.1013 188.647 55.2891 188.647 55.477 188.622C55.5291 188.625 55.5814 188.625 55.6335 188.622C55.7901 188.622 55.9466 188.622 56.0969 188.6H56.2065L57.2555 188.519C57.5999 188.487 57.9474 188.447 58.2981 188.409L59.012 188.325C61.9164 187.918 64.7884 187.307 67.6069 186.497C73.938 184.731 80.1313 182.262 86.4593 180.453C94.6409 178.121 103.68 176.975 111.586 179.827V150.492H43.6978ZM111.571 57.6489V0.00316568C104.14 -0.0773148 96.7291 0.79152 89.5184 2.58857C72.3317 6.90488 56.911 16.2668 43.6978 28.2235V57.6458H47.1044V58.9823H43.6978V104.518H111.571V58.9855H61.0911V57.6489H111.571ZM198.75 38.177C194.498 38.0268 190.271 36.6809 186.448 34.6025C179.137 30.6274 173.297 24.4894 166.772 19.3092C153.215 8.51998 136.4 2.00952 119.151 0.39442V57.6489H216.043L216.284 57.3954L198.75 38.177ZM207.577 36.612L216.936 46.8785V33.9202C213.801 34.3083 211.055 35.2317 207.589 36.5995L207.577 36.612ZM216.936 196.91V150.492H196.994C196.94 150.295 196.887 150.094 196.825 149.894C196.884 150.094 196.934 150.295 196.991 150.492H119.164V184.061C119.903 184.609 120.632 185.185 121.355 185.77C122.135 186.396 122.905 187.057 123.679 187.705L124.458 188.35C124.831 188.663 125.207 188.976 125.586 189.27C126.337 189.879 127.096 190.48 127.862 191.073C128.241 191.386 128.629 191.667 129.014 191.962C135.128 196.635 141.578 200.852 148.311 204.579C149.82 205.413 151.343 206.228 152.88 207.023C153.903 207.546 154.934 208.066 155.967 208.57C157.52 209.327 159.085 210.057 160.663 210.761C175.213 217.289 190.597 221.769 206.378 224.073C209.882 224.59 213.401 224.997 216.933 225.293V196.907H217.246L216.936 196.91ZM119.164 58.9855V104.518H216.948V58.9855H119.164ZM119.164 105.855V149.155H216.948V105.855H119.164ZM224.538 33.8638V48.3183L236.483 35.216C232.526 34.5775 228.544 34.1215 224.538 33.8482V33.8638ZM224.538 105.87V149.155H319.645V105.855L224.538 105.87ZM319.298 200.347L319.633 150.492H224.538V225.791C230.664 226.048 236.8 225.975 242.918 225.572H243.024C245.946 225.388 248.855 225.121 251.751 224.771H251.816C267.262 222.974 282.365 218.945 296.654 212.811M337.984 112.985C337.627 112.143 337.255 111.307 336.876 110.481C336.168 108.916 335.42 107.395 334.65 105.873H327.229V149.155H345.991C345.981 136.898 342.878 124.378 337.994 112.969L337.984 112.985ZM327.229 150.508V193.389C332.514 188.325 336.979 182.531 340.195 175.908C344.062 167.932 345.831 159.297 345.975 150.501L327.229 150.508ZM327.229 93.253V104.521H333.955C331.92 100.642 329.678 96.8755 327.238 93.2374L327.229 93.253ZM262.728 42.3587C262.233 42.1709 261.739 41.98 261.241 41.7953C255.99 39.857 250.625 38.2451 245.175 36.9688L226.896 57.0229L226.545 57.3954L226.78 57.6521H291.838C282.777 51.4172 273.009 46.2783 262.738 42.3431L262.728 42.3587ZM293.745 59.0011H225.872L224.538 60.2218V104.518H236.23H236.248H319.658V83.0617C312.113 73.9394 303.404 65.8451 293.754 58.9855L293.745 59.0011Z" fill="#ED862D"/>
<path opacity="0.1" d="M36.111 81.9536V104.518H4.43359C4.43359 104.387 4.45551 104.252 4.4649 104.12C4.49308 103.761 4.52126 103.401 4.55258 103.044C4.58702 102.624 4.62459 102.202 4.6653 101.792C4.706 101.382 4.74984 100.881 4.7968 100.427C4.84377 99.9732 4.8876 99.5131 4.94083 99.0592C4.99406 98.6054 5.04103 98.1515 5.09739 97.7008C5.15375 97.2501 5.20385 96.7931 5.26334 96.3424C5.3103 95.9668 5.3604 95.5943 5.4105 95.2187C5.48251 94.6897 5.55766 94.1576 5.63907 93.6318C5.63907 93.5535 5.66099 93.4721 5.67351 93.397C6.245 89.5476 7.02369 85.7317 8.00619 81.9661L36.111 81.9536Z" fill="#ED862D"/>
<path opacity="0.1" d="M4.3334 105.858H36.111V149.155H6.65981C6.58154 149.6 6.50639 150.047 6.42498 150.495H36.111V185.414C36.0578 185.398 36.0108 185.379 35.9607 185.36C35.1216 185.029 34.2887 184.678 33.4558 184.302L32.9235 184.061C32.0886 183.667 31.2536 183.25 30.4187 182.809C30.1275 182.656 29.8363 182.496 29.5482 182.334C24.9129 179.738 20.7019 176.449 17.0614 172.581C16.9549 172.477 16.8547 172.368 16.7482 172.268C16.241 171.717 15.7432 171.16 15.261 170.59L14.7287 169.964C14.1588 169.266 13.6077 168.549 13.0723 167.823C12.994 167.716 12.9189 167.61 12.8375 167.51C10.66 164.492 8.8519 161.224 7.45198 157.775C7.40815 157.672 7.37057 157.56 7.32987 157.462C6.89986 156.357 6.51891 155.24 6.18702 154.113C6.04298 153.641 5.90522 153.174 5.78623 152.683C5.7424 152.539 5.70482 152.398 5.67038 152.257C3.89191 145.318 3.68213 138.11 3.68213 130.951C3.68213 130.115 3.68213 129.277 3.68213 128.447C3.68213 125.552 3.71657 122.638 3.76667 119.727C3.76667 118.973 3.79798 118.221 3.81363 117.464C3.85747 115.542 3.92009 113.62 4.0015 111.698C4.02029 111.163 4.04534 110.631 4.07352 110.099C4.07352 109.792 4.08917 109.485 4.12048 109.179C4.19563 108.064 4.25825 106.959 4.3334 105.858Z" fill="#ED862D"/>
<path opacity="0.1" d="M67.5912 65.5052V104.518H43.6978V65.5052H47.1044V52.2965H61.0879V65.5052H67.5912Z" fill="#ED862D"/>
<path opacity="0.1" d="M67.591 105.854H43.7007V149.152H67.591V105.854Z" fill="#ED862D"/>
<path opacity="0.1" d="M43.6978 150.495H67.5912V186.49C64.7728 187.3 61.9007 187.91 58.9963 188.315L58.2825 188.403C57.9318 188.443 57.5842 188.478 57.2398 188.512C56.8954 188.547 56.5384 188.572 56.1909 188.594H56.0813C55.931 188.594 55.7682 188.612 55.621 188.616H55.4613C55.2735 188.616 55.0856 188.634 54.8977 188.641C54.6316 188.656 54.3654 188.659 54.093 188.663C53.9772 188.663 53.8676 188.663 53.7517 188.663C53.4825 188.663 53.2163 188.663 52.947 188.663H52.3553C52.1956 188.663 52.0422 188.663 51.8762 188.663L51.2719 188.641C50.9588 188.641 50.6206 188.606 50.295 188.584L49.6938 188.541L48.9455 188.472C48.4195 188.425 47.8966 188.365 47.3799 188.293L46.7537 188.206L46.4406 188.162C45.9177 188.08 45.4011 187.993 44.875 187.893C44.4899 187.827 44.1079 187.745 43.7197 187.667L43.6978 150.495Z" fill="#ED862D"/>
<path opacity="0.1" d="M216.948 60.8978H197.247V104.515H216.948V60.8978Z" fill="#ED862D"/>
<path opacity="0.1" d="M216.951 105.854V149.155H119.164V130.478H171.25V141.496H197.247V105.854H216.951Z" fill="#ED862D"/>
<path opacity="0.1" d="M217.261 196.92H216.948V225.325C213.42 225.026 209.903 224.62 206.396 224.107C190.608 221.796 175.217 217.307 160.663 210.767C156.461 208.876 152.345 206.813 148.314 204.576C141.581 200.847 135.131 196.63 129.014 191.959C127.478 190.782 125.961 189.578 124.465 188.347C123.428 187.492 122.398 186.616 121.355 185.764C120.632 185.179 119.903 184.603 119.164 184.052V150.495H196.987C196.934 150.295 196.881 150.094 196.824 149.897C196.884 150.094 196.94 150.295 196.994 150.495H216.948V196.901C217.055 196.904 217.158 196.913 217.261 196.92Z" fill="#ED862D"/>
<path opacity="0.1" d="M268.33 57.6488H255.492V53.6612H261.247V41.7827C261.746 41.9643 262.243 42.151 262.738 42.343V53.6612H268.33V57.6488Z" fill="#ED862D"/>
<path opacity="0.1" d="M299.259 104.518H236.236C236.236 104.518 236.236 104.518 236.258 104.534L236.23 104.518H224.538V60.901H227.851V93.1403H242.99V74.0471H255.495V58.9885H268.333V74.0596H280.839V93.1528H299.259V104.518Z" fill="#ED862D"/>
<path opacity="0.1" d="M224.538 105.854V149.155H299.259V105.854H224.538ZM319.542 200.125L319.646 165.851H299.259V150.514H224.538V225.791C230.664 226.048 236.8 225.975 242.918 225.572H243.024C245.947 225.388 248.855 225.121 251.751 224.771H251.816C267.262 222.974 282.366 218.945 296.654 212.811" fill="#ED862D"/>
<path opacity="0.1" d="M328.557 150.495H345.988C345.834 159.287 344.068 167.923 340.204 175.898C336.989 182.525 332.521 188.318 327.242 193.38V165.835H328.557V150.495Z" fill="#ED862D"/>
<path opacity="0.1" d="M345.997 149.155H328.557V112.969H337.994C342.878 124.378 345.981 136.898 345.997 149.155Z" fill="#ED862D"/>
<path opacity="0.1" d="M216.951 73.0236H206.396V86.6987H216.951V73.0236Z" fill="#ED862D"/>
<path opacity="0.1" d="M216.951 101.369H206.396V104.518H216.951V101.369Z" fill="#ED862D"/>
<path opacity="0.1" d="M216.951 105.854H206.396V115.041H216.951V105.854Z" fill="#ED862D"/>
<path opacity="0.1" d="M216.951 129.715H206.396V143.39H216.951V129.715Z" fill="#ED862D"/>
<path opacity="0.1" d="M216.951 158.06H206.396V171.735H216.951V158.06Z" fill="#ED862D"/>
<path opacity="0.1" d="M216.948 196.901C217.055 196.901 217.158 196.901 217.261 196.92H216.948V200.097H206.396V186.406H216.948V196.901Z" fill="#ED862D"/>
<path opacity="0.1" d="M216.948 214.745V225.309C213.421 225.011 209.903 224.605 206.396 224.091V214.745H216.948Z" fill="#ED862D"/>
<path opacity="0.1" d="M164.399 148.151H119.164V149.155H164.399V148.151Z" fill="#ED862D"/>
<path opacity="0.1" d="M164.399 150.492H119.164V154.342H164.399V150.492Z" fill="#ED862D"/>
<path opacity="0.1" d="M164.399 166.962H119.164V173.153H164.399V166.962Z" fill="#ED862D"/>
<path opacity="0.1" d="M164.396 185.774V191.965H129.014C127.478 190.792 125.96 189.588 124.462 188.353C123.425 187.498 122.398 186.622 121.353 185.774H164.396Z" fill="#ED862D"/>
<path opacity="0.1" d="M164.396 204.582V210.767H160.66C156.463 208.874 152.347 206.809 148.314 204.573L164.396 204.582Z" fill="#ED862D"/>
<path opacity="0.1" d="M251.826 110.052H242.921V118.954H251.826V110.052Z" fill="#ED862D"/>
<path opacity="0.1" d="M59.0182 68.5758H50.1133V77.4776H59.0182V68.5758Z" fill="#ED862D"/>
<path opacity="0.1" d="M59.0182 89.2528H50.1133V98.1546H59.0182V89.2528Z" fill="#ED862D"/>
<path opacity="0.1" d="M59.0182 109.93H50.1133V118.832H59.0182V109.93Z" fill="#ED862D"/>
<path opacity="0.1" d="M59.0182 130.604H50.1133V139.505H59.0182V130.604Z" fill="#ED862D"/>
<path opacity="0.1" d="M59.0182 151.281H50.1133V160.182H59.0182V151.281Z" fill="#ED862D"/>
<path opacity="0.1" d="M59.0182 171.958H50.1133V180.859H59.0182V171.958Z" fill="#ED862D"/>
<path opacity="0.1" d="M285.82 110.052H276.915V118.954H285.82V110.052Z" fill="#ED862D"/>
<path opacity="0.1" d="M251.826 132.009H242.921V140.911H251.826V132.009Z" fill="#ED862D"/>
<path opacity="0.1" d="M285.82 132.009H276.915V140.911H285.82V132.009Z" fill="#ED862D"/>
<path opacity="0.1" d="M251.826 153.963H242.921V162.865H251.826V153.963Z" fill="#ED862D"/>
<path opacity="0.1" d="M285.82 153.963H276.915V162.865H285.82V153.963Z" fill="#ED862D"/>
<path opacity="0.1" d="M251.826 175.92H242.921V184.822H251.826V175.92Z" fill="#ED862D"/>
<path opacity="0.1" d="M285.82 175.92H276.915V184.822H285.82V175.92Z" fill="#ED862D"/>
<path opacity="0.1" d="M251.826 197.877H242.921V206.779H251.826V197.877Z" fill="#ED862D"/>
<path opacity="0.1" d="M285.82 197.877H276.915V206.779H285.82V197.877Z" fill="#ED862D"/>
<path opacity="0.1" d="M242.921 225.572V219.831H251.823V224.755L242.921 225.572Z" fill="#ED862D"/>
<path opacity="0.1" d="M5.63623 93.3907V98.4833H36.1113V93.3907H5.63623ZM8.67341 98.164H6.18731V93.7038H8.69219L8.67341 98.164ZM11.7074 98.164H9.20256V93.7038H11.7074V98.164ZM14.7352 98.164H12.2303V93.7038H14.7352V98.164ZM17.7693 98.164H15.2675V93.7038H17.7724L17.7693 98.164ZM20.8002 98.164H18.2953V93.7038H20.8002V98.164ZM23.8342 98.164H21.3293V93.7038H23.8342V98.164ZM26.8683 98.164H24.3634V93.7038H26.8683V98.164ZM29.8992 98.164H27.3943V93.7038H29.8992V98.164ZM32.9301 98.164H30.4252V93.7038H32.9301V98.164ZM35.961 98.164H33.4561V93.7038H35.961V98.164Z" fill="#ED862D"/>
<path opacity="0.1" d="M5.63623 108.208V113.301H36.1113V108.208H5.63623ZM8.67341 112.978H6.18731V108.531H8.69219L8.67341 112.978ZM11.7074 112.978H9.20256V108.531H11.7074V112.978ZM14.7352 112.978H12.2303V108.531H14.7352V112.978ZM17.7693 112.978H15.2675V108.531H17.7724L17.7693 112.978ZM20.8002 112.978H18.2953V108.531H20.8002V112.978ZM23.8342 112.978H21.3293V108.531H23.8342V112.978ZM26.8683 112.978H24.3634V108.531H26.8683V112.978ZM29.8992 112.978H27.3943V108.531H29.8992V112.978ZM32.9301 112.978H30.4252V108.531H32.9301V112.978ZM35.961 112.978H33.4561V108.531H35.961V112.978Z" fill="#ED862D"/>
<path opacity="0.1" d="M5.63623 123.032V128.134H36.1113V123.032H5.63623ZM8.67341 127.802H6.18731V123.351H8.69219L8.67341 127.802ZM11.7074 127.802H9.20256V123.351H11.7074V127.802ZM14.7352 127.802H12.2303V123.351H14.7352V127.802ZM17.7693 127.802H15.2675V123.351H17.7724L17.7693 127.802ZM20.8002 127.802H18.2953V123.351H20.8002V127.802ZM23.8342 127.802H21.3293V123.351H23.8342V127.802ZM26.8683 127.802H24.3634V123.351H26.8683V127.802ZM29.8992 127.802H27.3943V123.351H29.8992V127.802ZM32.9301 127.802H30.4252V123.351H32.9301V127.802ZM35.961 127.802H33.4561V123.351H35.961V127.802Z" fill="#ED862D"/>
<path opacity="0.1" d="M5.63623 137.856V142.942H36.1113V137.856H5.63623ZM8.67341 142.626H6.18731V138.172H8.69219L8.67341 142.626ZM11.7074 142.626H9.20256V138.172H11.7074V142.626ZM14.7352 142.626H12.2303V138.172H14.7352V142.626ZM17.7693 142.626H15.2675V138.172H17.7724L17.7693 142.626ZM20.8002 142.626H18.2953V138.172H20.8002V142.626ZM23.8342 142.626H21.3293V138.172H23.8342V142.626ZM26.8683 142.626H24.3634V138.172H26.8683V142.626ZM29.8992 142.626H27.3943V138.172H29.8992V142.626ZM32.9301 142.626H30.4252V138.172H32.9301V142.626ZM35.961 142.626H33.4561V138.172H35.961V142.626Z" fill="#ED862D"/>
<path opacity="0.1" d="M5.76758 152.677C5.88969 153.156 6.02746 153.634 6.17149 154.107V152.996H8.67638V157.447H7.33626C7.37697 157.55 7.41767 157.663 7.45837 157.76H36.1111V152.677H5.76758ZM11.7167 157.447H9.2118V152.996H11.7167V157.447ZM14.7445 157.447H12.2396V152.996H14.7445V157.447ZM17.7785 157.447H15.2674V152.996H17.7722L17.7785 157.447ZM20.8094 157.447H18.3045V152.996H20.8094V157.447ZM23.8435 157.447H21.3386V152.996H23.8435V157.447ZM26.8775 157.447H24.3726V152.996H26.8775V157.447ZM29.9084 157.447H27.4035V152.996H29.9084V157.447ZM32.9393 157.447H30.4344V152.996H32.9393V157.447ZM35.9702 157.447H33.4654V152.996H35.9702V157.447Z" fill="#ED862D"/>
<path opacity="0.1" d="M12.8438 167.5C12.922 167.601 12.9972 167.713 13.0786 167.813H14.7349V169.951C14.9134 170.164 15.0888 170.377 15.2704 170.577V167.801H17.7752V172.268H16.7608C16.861 172.371 16.958 172.48 17.0739 172.581H36.1204V167.5H12.8438ZM20.7999 172.268H18.295V167.82H20.7999V172.268ZM23.8339 172.268H21.3291V167.82H23.8339V172.268ZM26.868 172.268H24.3631V167.82H26.868V172.268ZM29.8989 172.268H27.394V167.82H29.8989V172.268ZM32.9298 172.268H30.4249V167.82H32.9298V172.268ZM35.9607 172.268H33.4558V167.82H35.9607V172.268Z" fill="#ED862D"/>
<path opacity="0.1" d="M29.5605 182.321C29.8455 182.484 30.1367 182.634 30.431 182.797V182.64H32.9359V184.049L33.4682 184.296V182.64H35.9731V185.348C36.0211 185.372 36.0715 185.391 36.1234 185.404V182.321H29.5605Z" fill="#ED862D"/>
<path opacity="0.1" d="M196.824 149.894C196.884 150.094 196.934 150.295 196.99 150.492C196.94 150.295 196.887 150.094 196.824 149.894ZM47.1167 57.6395V58.9761H61.1034V57.6395H47.1167ZM196.824 149.894C196.884 150.094 196.934 150.295 196.99 150.492C196.94 150.295 196.887 150.094 196.824 149.894ZM196.824 149.894C196.884 150.094 196.934 150.295 196.99 150.492C196.94 150.295 196.887 150.094 196.824 149.894Z" fill="#ED862D"/>
<path d="M144.532 118.838C144.532 118.838 143.298 118.666 143.298 116.869C143.298 115.072 142.415 111.717 142.415 111.717C142.415 111.701 141.651 105.873 140.596 104.947C139.541 104.02 138.185 98.5803 138.185 98.5803C138.185 98.5803 137.954 95.6286 137.481 94.9932C137.008 94.3578 136.369 92.8022 135.427 90.583C134.484 88.3638 130.555 86.827 130.555 86.827C130.555 86.827 123.45 82.7079 121.437 81.3651C121.254 81.2548 121.083 81.1257 120.927 80.9801C120.576 80.52 119.048 80.5106 119.048 80.5106C118.888 79.5027 118.735 78.3446 118.685 77.2961C118.685 77.1834 118.685 77.0707 118.669 76.958C120.914 75.6314 122.605 73.5399 123.431 71.0673C123.469 70.9484 123.5 70.8232 123.535 70.7042C123.669 70.6599 123.793 70.588 123.898 70.4932C124.003 70.3983 124.088 70.2826 124.145 70.1533C124.327 69.7496 124.33 69.2769 124.556 68.9013C124.819 68.4569 125.32 68.219 125.714 67.8841C126.71 67.0389 126.966 65.6148 126.92 64.3189C126.888 63.2704 126.719 62.2124 126.785 61.1701L126.804 60.9072C126.822 60.7507 126.844 60.5942 126.873 60.444C127.026 59.6677 127.361 58.9353 127.549 58.1653C127.737 57.3953 127.756 56.5283 127.317 55.8647C126.675 54.8913 125.338 54.6972 124.164 54.5971C122.833 54.4844 121.644 54.6315 120.792 53.5266C120.393 52.9491 119.945 52.4076 119.452 51.9084C119.276 51.7456 117.573 50.7064 117.573 50.6376C115.911 49.8679 114.026 49.7234 112.266 50.2307C111.383 50.4873 110.55 50.9068 109.655 51.1165C107.723 51.5735 105.5 51.0789 103.859 52.1838C102.945 52.8098 102.397 53.8052 101.883 54.7755C101.466 55.5747 101.042 56.3728 100.612 57.17C99.92 58.4814 99.2155 59.8148 98.9243 61.2672C98.863 61.5832 98.8254 61.9033 98.8116 62.225V62.2406C98.8116 62.3564 98.8116 62.4722 98.8116 62.588V62.7352C98.8116 62.8447 98.8116 62.9511 98.8303 63.0482C98.8491 63.1452 98.846 63.1765 98.8554 63.2422C98.8648 63.3079 98.8804 63.4551 98.8992 63.5552C98.918 63.6554 98.9556 63.8307 98.9932 63.9684C99.0088 64.0279 99.0307 64.0842 99.0495 64.1405C99.0808 64.247 99.1184 64.3502 99.1591 64.4535C99.181 64.5067 99.2029 64.5631 99.228 64.6163C99.275 64.7259 99.3313 64.8323 99.3877 64.9293C99.4127 64.9731 99.4315 65.0138 99.4566 65.0545C99.5439 65.2001 99.6401 65.3401 99.7446 65.4739C100.415 66.3096 101.401 66.8418 102.131 67.6243C102.131 67.6556 102.131 67.6869 102.131 67.715C102.131 67.8027 102.131 67.8872 102.131 67.9748C102.169 69.72 102.634 71.4293 103.484 72.954C104.334 74.4787 105.544 75.7726 107.009 76.7233C107.009 76.8422 107.024 76.9643 107.031 77.0832C107.092 78.0123 107.08 78.9448 106.996 79.8721C106.869 79.722 106.709 79.6024 106.529 79.5222C106.349 79.442 106.154 79.4033 105.957 79.4088C105.822 79.4023 105.687 79.4138 105.556 79.4433L105.528 79.4213V79.4495C104.839 79.6185 103.99 80.3353 103.179 82.373C103.179 82.373 100.712 85.1524 98.8335 85.0366C96.9548 84.9208 92.1987 87.9288 92.1987 87.9288C92.1987 87.9288 87.5584 90.9399 86.5627 94.0073C86.0061 95.7467 85.3389 97.4487 84.565 99.103L78.8288 110.919L77.7705 120.293C77.7705 120.293 78.356 124.462 78.2402 125.098C78.1243 125.733 80.648 131.464 80.648 131.464C80.648 131.464 88.9861 146.11 92.3928 146.861L92.637 146.689C92.7828 146.765 92.9374 146.823 93.0973 146.861L93.7987 146.366C93.8408 146.918 93.8229 147.472 93.7454 148.019C93.2758 149.465 93.9208 158.902 94.7411 160.752C95.5615 162.602 95.2703 186.856 95.2703 186.856L95.1544 188.997C95.1544 188.997 95.1544 189.066 95.1826 189.185L95.1544 189.692L95.239 189.736C95.3267 190.415 95.2982 191.104 95.1544 191.774C94.8601 192.713 94.7411 195.367 94.7411 195.367C94.7411 195.367 92.3959 210.354 93.5075 213.365C94.619 216.376 95.5646 219.675 95.5646 219.675C95.5646 219.675 96.7388 223.431 95.621 224.073C94.5032 224.714 91.3251 225.791 91.9795 227.356C92.5744 228.802 94.8319 232.677 95.1669 233.244L95.1388 233.541L94.6785 238.527C94.753 239.185 94.9316 239.828 95.2077 240.43C95.7118 241.516 96.6918 242.643 98.5548 242.521C98.8679 242.499 99.2311 242.462 99.5818 242.415C102.992 241.958 107.19 240.436 107.19 240.436C106.972 240.298 106.773 240.133 106.595 239.945C106.428 239.783 106.295 239.588 106.205 239.373C106.115 239.157 106.07 238.926 106.073 238.693C106.123 237.785 104.423 233.46 104 232.395C103.934 232.242 103.9 232.154 103.9 232.154C103.9 232.154 107.776 228.104 107.131 224.514C107.131 224.514 102.841 222.01 104.253 220.636C105.666 219.262 108.189 215.315 108.189 215.315C108.189 215.315 108.305 200.557 108.189 198.353C108.068 196.824 108.141 195.285 108.405 193.774C108.452 193.545 108.509 193.323 108.568 193.104C110.521 193.395 112.493 193.545 114.467 193.552C115.187 193.552 115.92 193.552 116.659 193.508C116.659 193.716 116.668 193.942 116.687 194.184C116.85 197.84 117.154 204.25 117.401 206.632C117.752 210.047 119.69 219.249 119.69 219.249C119.69 219.249 115.992 221.622 120.335 227.469C120.335 227.469 120.335 229.588 120.047 229.894C119.739 230.897 119.491 231.917 119.305 232.949C119.123 234.051 119.048 235.165 119.342 235.744C120.047 237.128 124.274 237.015 124.274 237.015L124.377 236.996C125.175 236.914 125.982 236.991 126.75 237.222C127.518 237.454 128.232 237.836 128.851 238.346C130.458 239.635 136.554 239.069 139.854 238.659C141.147 238.496 142.011 238.346 142.011 238.346C142.053 238.199 142.068 238.046 142.055 237.895C142.021 237.084 141.385 235.306 137.077 233.719C137.077 233.719 133.025 230.996 133.082 228.624H132.997H132.527C132.869 228.605 133.088 228.624 133.088 228.624C133.088 228.624 131.5 222.833 132.148 222.364C132.797 221.894 130.855 215.478 130.855 215.478C130.855 215.478 129.744 204.71 129.684 203.956C129.687 203.309 129.785 202.665 129.975 202.047L129.684 196.143C129.684 196.143 129.628 194.181 129.684 193.542C129.675 192.988 129.63 192.435 129.55 191.886C129.521 191.667 129.493 191.439 129.462 191.214C130.981 190.829 131.967 190.472 131.967 190.472L131.792 169.923C133.082 167.419 133.32 161.926 133.313 158.029C133.313 155.525 133.201 153.672 133.201 153.672L134.963 150.795C134.963 150.795 135.37 147.352 134.725 146.598C134.44 146.257 134.569 145.903 134.804 145.612C134.926 145.515 135.054 145.428 135.189 145.349C135.189 145.349 135.17 145.321 135.148 145.28C135.271 145.178 135.402 145.084 135.539 145.002C135.539 145.002 134.913 144.031 135.474 143.621C136 143.978 136.469 144.247 136.826 144.466C136.801 144.695 136.776 144.826 136.776 144.826L136.927 144.513C137.271 144.708 137.481 144.826 137.481 144.826C137.481 144.826 140.242 139.327 140.183 138.516C140.123 137.706 142.062 134.291 142.062 134.291C142.062 134.291 142.296 132.497 143.355 131.746C144.413 130.995 144.175 125.552 144.175 125.552C144.175 125.552 144.469 122.716 145.174 121.558C145.878 120.4 144.532 118.838 144.532 118.838ZM91.6914 116.425L91.7446 117.736C91.4315 117.232 91.2061 116.869 91.2061 116.869L91.6914 116.425Z" fill="url(#paint0_linear_84_1424)"/>
<path d="M137.631 142.451L136.955 145.33C136.955 145.33 131.538 142.567 130.561 139.055C129.584 135.543 132.196 134.209 132.196 134.209L137.243 136.347L137.631 142.451Z" fill="white"/>
<path opacity="0.1" d="M137.631 142.451L136.955 145.33C136.955 145.33 131.538 142.567 130.561 139.055C129.584 135.543 132.196 134.209 132.196 134.209L137.243 136.347L137.631 142.451Z" fill="black"/>
<path d="M107.231 240.455C107.231 240.455 102.221 242.296 98.7772 242.527C96.9487 242.649 95.9874 241.529 95.4927 240.449C95.2224 239.849 95.0481 239.21 94.9761 238.555L95.4238 233.594L95.6618 230.952L102.979 229.052L104.016 232.22L104.113 232.461C104.529 233.519 106.198 237.823 106.148 238.721C106.146 238.951 106.19 239.179 106.278 239.392C106.367 239.604 106.497 239.797 106.661 239.958C106.829 240.147 107.021 240.314 107.231 240.455Z" fill="white"/>
<path d="M141.451 237.932C141.464 238.083 141.449 238.235 141.407 238.38C141.407 238.38 130.693 240.167 128.501 238.38C127.883 237.858 127.162 237.471 126.386 237.243C125.61 237.016 124.794 236.953 123.992 237.059C123.992 237.059 119.846 237.172 119.154 235.807C118.866 235.234 118.941 234.123 119.12 233.028C119.302 232.001 119.545 230.986 119.846 229.988L120.012 229.857L120.999 229.065L132.546 228.724H132.634C132.577 231.084 136.554 233.791 136.554 233.791C140.778 235.356 141.401 237.125 141.451 237.932Z" fill="white"/>
<path opacity="0.1" d="M141.451 237.932C141.462 238.083 141.446 238.235 141.404 238.38C141.404 238.38 130.692 240.167 128.501 238.38C127.883 237.858 127.163 237.471 126.387 237.244C125.611 237.016 124.797 236.953 123.995 237.059C123.995 237.059 119.846 237.172 119.157 235.807C118.869 235.231 118.941 234.123 119.12 233.028C120.717 233.187 123.237 233.585 124.227 234.533C125.723 235.976 128.259 237.416 129.816 237.529C131.034 237.607 138.32 237.838 141.451 237.932Z" fill="black"/>
<path opacity="0.1" d="M107.231 240.455C107.231 240.455 102.221 242.296 98.777 242.527C96.9484 242.649 95.9872 241.529 95.4956 240.446C96.77 240.875 98.539 241.325 99.469 240.912C100.571 240.424 104.479 240.108 106.671 239.973C106.837 240.156 107.026 240.318 107.231 240.455Z" fill="black"/>
<path d="M114.664 92.1387C110.531 90.533 105.214 85.2276 106.542 82.7486C106.837 82.123 107.012 81.4479 107.059 80.7579C107.144 79.8213 107.157 78.8795 107.096 77.9409C107.003 76.4037 106.818 74.8735 106.542 73.3585C106.542 73.3585 119.445 73.6496 118.694 75.5495C118.475 76.1067 118.44 77.0739 118.5 78.1569C118.559 79.2398 118.716 80.4637 118.879 81.4997C119.104 82.9208 119.329 84.0038 119.329 84.0038C119.329 84.0038 118.54 85.1087 118.077 85.1681C117.614 85.2276 120.594 94.4268 114.664 92.1387Z" fill="#CF6F80"/>
<path opacity="0.1" d="M104.103 232.461L104.006 232.568C100.148 227.904 95.4829 233.716 95.4829 233.716L95.4141 233.594L95.652 230.952L102.969 229.052L104.006 232.22L104.103 232.461Z" fill="black"/>
<path opacity="0.1" d="M132.637 229.052C132.637 229.052 129.819 228.993 128.316 230.32C126.813 231.647 119.549 230.608 119.862 230.32C119.955 230.177 120.011 230.014 120.025 229.844L121.011 229.052L132.559 228.711C132.602 228.921 132.637 229.052 132.637 229.052Z" fill="black"/>
<path d="M108.903 192.428C108.693 192.947 108.534 193.484 108.427 194.034C108.166 195.538 108.093 197.069 108.211 198.591C108.327 200.782 108.211 215.465 108.211 215.465C108.211 215.465 105.734 219.381 104.353 220.761C102.973 222.141 107.171 224.62 107.171 224.62C107.798 228.189 104.003 232.22 104.003 232.22C100.145 227.556 95.4798 233.372 95.4798 233.372C95.4798 233.372 92.9436 228.99 92.3111 227.425C91.6786 225.86 94.7878 224.777 95.8806 224.141C96.9733 223.506 95.8273 219.759 95.8273 219.759C95.8273 219.759 94.9037 216.476 93.8078 213.481C92.7119 210.485 95.0164 195.574 95.0164 195.574C95.0164 195.574 95.1354 192.926 95.4203 192.002C95.5641 191.336 95.5927 190.65 95.5048 189.974C95.4861 189.746 95.4641 189.555 95.4485 189.426C95.4328 189.298 95.4203 189.239 95.4203 189.239L95.4641 189.163L97.0297 186.246C97.0297 186.246 109.654 190.591 108.903 192.428Z" fill="#ED862D"/>
<path d="M132.637 228.708C132.637 228.708 129.819 228.649 128.316 229.96C126.813 231.272 119.549 230.248 119.862 229.96C120.175 229.672 120.15 227.541 120.15 227.541C115.889 221.725 119.524 219.365 119.524 219.365C119.524 219.365 117.62 210.21 117.276 206.814C117.035 204.441 116.737 198.065 116.577 194.425C116.508 192.86 116.468 191.783 116.468 191.783L119.95 191.082L120.397 190.991L128.795 189.307C128.795 189.307 129.027 190.872 129.183 192.153C129.261 192.699 129.305 193.25 129.315 193.802C129.258 194.428 129.315 196.388 129.315 196.388L129.6 202.263C129.413 202.879 129.318 203.519 129.315 204.163C129.371 204.911 130.464 215.622 130.464 215.622C130.464 215.622 132.364 222.013 131.716 222.473C131.068 222.933 132.637 228.708 132.637 228.708Z" fill="#ED862D"/>
<path opacity="0.1" d="M118.694 75.5495C118.475 76.1067 118.44 77.0739 118.5 78.1569C116.771 79.1973 114.784 79.7292 112.767 79.6916C110.75 79.6539 108.784 79.0482 107.096 77.944C107.003 76.4058 106.818 74.8746 106.542 73.3585C106.542 73.3585 119.445 73.6434 118.694 75.5495Z" fill="black"/>
<path d="M123.682 68.6322C123.684 69.7601 123.507 70.8812 123.156 71.9532C122.371 74.3551 120.763 76.4024 118.614 77.7333C116.466 79.0642 113.916 79.5931 111.415 79.2264C108.915 78.8597 106.624 77.621 104.948 75.7294C103.273 73.8377 102.32 71.4148 102.259 68.8889C102.259 68.8012 102.259 68.7199 102.259 68.6322C102.235 67.2104 102.494 65.798 103.021 64.4774C103.549 63.1568 104.334 61.9544 105.331 60.9403C106.328 59.9263 107.518 59.1209 108.829 58.5711C110.141 58.0213 111.55 57.7382 112.972 57.7382C114.394 57.7382 115.803 58.0213 117.115 58.5711C118.426 59.1209 119.616 59.9263 120.613 60.9403C121.61 61.9544 122.395 63.1568 122.923 64.4774C123.45 65.798 123.709 67.2104 123.685 68.6322H123.682Z" fill="#CF6F80"/>
<path opacity="0.1" d="M114.664 92.1387C110.531 90.533 105.214 85.2276 106.542 82.7486C106.837 82.1231 107.012 81.4479 107.059 80.7579L112.717 85.406L116.217 88.2763L118.879 81.5029C119.104 82.9239 119.329 84.0069 119.329 84.0069C119.329 84.0069 118.54 85.1118 118.077 85.1713C117.614 85.2307 120.594 94.4268 114.664 92.1387Z" fill="black"/>
<path d="M129.296 112.681L124.571 192.027L118.409 192.431L102.453 146.423L105.071 91.8007L105.622 80.2603L112.717 86.0852L116.221 88.9555L118.96 81.9849L124.055 86.4233L129.296 112.681Z" fill="#ED862D"/>
<path opacity="0.1" d="M108.903 192.428C108.693 192.947 108.534 193.484 108.427 194.034C103.944 193.342 99.5888 191.982 95.5084 189.999L95.4238 189.955L95.452 189.451L95.4677 189.188L97.0332 186.271C97.0332 186.271 109.655 190.591 108.903 192.428Z" fill="black"/>
<path opacity="0.1" d="M120.022 194.046C118.876 194.241 117.72 194.373 116.559 194.441C116.49 192.876 116.449 191.799 116.449 191.799L119.931 191.098L120.022 194.046Z" fill="black"/>
<path opacity="0.1" d="M129.164 192.168C126.938 192.747 123.5 193.398 120.422 192.991L120.378 191.007L128.776 189.323C128.776 189.323 129.008 190.872 129.164 192.168Z" fill="black"/>
<path opacity="0.1" d="M120.366 193.354C107.528 195.545 95.7712 189.264 95.7712 189.264L95.8839 187.135C95.8839 187.135 96.1751 163.006 95.3673 161.156C94.5594 159.306 93.9301 149.925 94.3872 148.485C94.8444 147.046 92.7183 125.455 92.7183 125.455L92.3739 116.691L79.7681 111.586L85.4041 99.8417C86.1653 98.1951 86.82 96.5014 87.3641 94.771C88.3442 91.7224 92.8937 88.7269 92.8937 88.7269C92.8937 88.7269 97.559 85.7346 99.4032 85.8473C101.247 85.96 103.665 83.1993 103.665 83.1993C105.449 78.6514 107.065 80.7109 107.065 80.7109C107.065 80.9269 107.065 80.7109 106.977 81.3839C106.351 86.3763 117.103 102.152 117.257 102.43L118.281 127.364L119.317 158.918L120.366 193.354Z" fill="black"/>
<path d="M120.021 193.354C107.184 195.545 95.4234 189.263 95.4234 189.263L95.5393 187.135C95.5393 187.135 95.8305 163.006 95.0195 161.156C94.2085 159.306 93.5823 149.925 94.0426 148.485C94.5029 147.046 92.3737 125.455 92.3737 125.455L92.0262 116.691L79.4141 111.567L85.0501 99.8229C85.8096 98.1756 86.4643 96.482 87.0101 94.7522C87.987 91.7036 92.5397 88.7081 92.5397 88.7081C92.5397 88.7081 97.205 85.7158 99.0461 85.8285C100.887 85.9412 103.308 83.1805 103.308 83.1805C105.095 78.6326 107.065 80.6921 107.065 80.6921C107.065 80.9081 106.877 81.0051 106.977 81.3651C108.355 86.2072 116.759 102.133 116.912 102.411L117.949 127.345L118.985 158.899L120.021 193.354Z" fill="white"/>
<path opacity="0.1" d="M116.562 103.122C115.181 102.546 107.866 94.1983 107.866 94.1983V92.2984C107.6 91.6724 106.019 92.0542 104.735 92.4924L105.286 80.952L105.913 81.4716C107.284 86.3106 116.402 102.843 116.562 103.122Z" fill="black"/>
<path d="M116.909 102.43C115.525 101.854 108.211 93.5065 108.211 93.5065V91.6066C107.945 90.9806 106.364 91.3625 105.08 91.8007L105.634 80.2603L106.261 80.7798C107.635 85.6189 116.756 102.155 116.909 102.43Z" fill="white"/>
<path opacity="0.1" d="M95.7714 144.063C95.9436 144.063 104.698 143.143 104.698 143.143C104.698 143.143 109.999 153.562 109.652 156.098C109.304 158.633 108.675 160.877 106.542 160.48C104.41 160.082 95.0669 160.793 95.0669 160.793L95.7714 144.063Z" fill="black"/>
<path d="M95.4237 143.371C95.5959 143.371 104.351 142.451 104.351 142.451C104.351 142.451 109.648 152.874 109.304 155.406C108.96 157.938 108.324 160.186 106.195 159.788C104.066 159.391 94.7192 160.101 94.7192 160.101L95.4237 143.371Z" fill="white"/>
<path d="M102.021 138.479C102.021 138.479 110.055 142.795 110.227 144.113C110.4 145.431 106.138 143.537 105.218 143.308C104.612 143.162 103.995 143.066 103.374 143.02L97.2334 143.186L102.021 138.479Z" fill="#CF6F80"/>
<path opacity="0.1" d="M114.32 103.66C114.787 103.66 115.165 103.282 115.165 102.815C115.165 102.348 114.787 101.97 114.32 101.97C113.853 101.97 113.475 102.348 113.475 102.815C113.475 103.282 113.853 103.66 114.32 103.66Z" fill="black"/>
<path d="M114.32 103.316C114.787 103.316 115.165 102.938 115.165 102.471C115.165 102.004 114.787 101.626 114.32 101.626C113.853 101.626 113.475 102.004 113.475 102.471C113.475 102.938 113.853 103.316 114.32 103.316Z" fill="#3F3D56"/>
<path opacity="0.1" d="M115.876 140.244C116.343 140.244 116.722 139.866 116.722 139.399C116.722 138.932 116.343 138.554 115.876 138.554C115.409 138.554 115.031 138.932 115.031 139.399C115.031 139.866 115.409 140.244 115.876 140.244Z" fill="black"/>
<path d="M115.876 139.897C116.343 139.897 116.722 139.518 116.722 139.052C116.722 138.585 116.343 138.207 115.876 138.207C115.409 138.207 115.031 138.585 115.031 139.052C115.031 139.518 115.409 139.897 115.876 139.897Z" fill="#3F3D56"/>
<path opacity="0.1" d="M115.162 121.952C115.629 121.952 116.008 121.574 116.008 121.107C116.008 120.64 115.629 120.262 115.162 120.262C114.695 120.262 114.317 120.64 114.317 121.107C114.317 121.574 114.695 121.952 115.162 121.952Z" fill="black"/>
<path d="M115.162 121.608C115.629 121.608 116.008 121.23 116.008 120.763C116.008 120.296 115.629 119.918 115.162 119.918C114.695 119.918 114.317 120.296 114.317 120.763C114.317 121.23 114.695 121.608 115.162 121.608Z" fill="#3F3D56"/>
<path d="M134.65 142.845C134.65 142.845 135.226 143.709 134.65 144.113C134.074 144.517 134.706 145.493 134.706 145.493C134.706 145.493 133.269 146.335 133.902 147.093C134.534 147.85 134.133 151.271 134.133 151.271L132.405 154.132C132.405 154.132 132.508 155.976 132.515 158.467C132.515 162.355 132.286 167.82 131.021 170.311L131.196 190.753C131.196 190.753 125.144 192.963 120.078 192.29L119.326 159.488C119.326 159.488 120.422 140.886 120.826 137.318C121.063 135.465 121.159 133.597 121.114 131.73C121.114 131.73 120.942 126.146 120.363 123.555C120.363 123.555 119.737 112.327 119.674 109.219C119.646 107.732 119.724 103.394 119.812 99.2689C119.909 94.7585 120.018 90.5048 120.018 90.5048L118.875 81.4653C118.875 81.4653 120.018 81.3494 120.363 81.8096C120.517 81.9536 120.685 82.0826 120.864 82.1946C122.836 83.528 129.806 87.6283 129.806 87.6283C129.806 87.6283 133.664 89.162 134.587 91.3593C135.511 93.5566 136.153 95.1153 136.601 95.7413C137.048 96.3673 137.293 99.3096 137.293 99.3096C137.293 99.3096 138.62 104.725 139.657 105.642C140.693 106.559 141.451 112.393 141.451 112.393L132.292 119.592C132.292 119.592 131.488 131.568 131.315 132.031C131.143 132.494 134.65 142.845 134.65 142.845Z" fill="white"/>
<path d="M134.998 142.845C134.998 142.845 135.571 143.709 134.998 144.113C134.425 144.517 135.051 145.493 135.051 145.493C135.051 145.493 133.623 146.345 134.249 147.102C134.875 147.86 134.481 151.281 134.481 151.281L132.753 154.142C132.753 154.142 132.856 155.985 132.865 158.477C132.865 162.364 132.637 167.829 131.372 170.321L131.544 190.763C131.544 190.763 125.482 192.973 120.422 192.3L119.674 159.497C119.674 159.497 120.77 140.895 121.174 137.327C121.41 135.475 121.506 133.607 121.459 131.74C121.459 131.74 121.286 126.156 120.71 123.564C120.71 123.564 120.084 112.337 120.018 109.229C119.99 107.742 120.072 103.404 120.156 99.2783C120.253 94.768 120.363 90.5143 120.363 90.5143L118.854 81.3527C118.854 81.3527 120.363 81.3527 120.71 81.819C120.863 81.9648 121.031 82.0939 121.211 82.204C123.184 83.5374 130.157 87.6378 130.157 87.6378C130.157 87.6378 134.011 89.1715 134.935 91.3688C135.859 93.566 136.5 95.1248 136.951 95.7508C137.402 96.3768 137.64 99.319 137.64 99.319C137.64 99.319 138.968 104.734 140.004 105.651C141.041 106.568 141.789 112.39 141.789 112.39L132.63 119.589C132.63 119.589 131.826 131.565 131.65 132.028C131.475 132.491 134.998 142.845 134.998 142.845Z" fill="white"/>
<path opacity="0.1" d="M124.029 93.1716L124.856 95.5817L120.504 99.9638C120.601 95.4565 120.71 91.1997 120.71 91.1997L119.201 82.0381C119.201 82.0381 120.71 82.0381 121.058 82.5045C121.21 82.6498 121.378 82.7779 121.559 82.8863L125.26 93.5597L124.029 93.1716Z" fill="black"/>
<path d="M123.682 92.4798L124.511 94.89L120.159 99.272C120.256 94.7616 120.366 90.5079 120.366 90.5079L118.854 81.3463C118.854 81.3463 120.366 81.3463 120.71 81.8127C120.864 81.9576 121.032 82.0866 121.211 82.1977L124.915 92.868L123.682 92.4798Z" fill="white"/>
<path opacity="0.1" d="M123.682 68.6322C123.684 69.7601 123.507 70.8812 123.156 71.9532C123.097 71.9624 123.036 71.9597 122.978 71.9452C122.92 71.9307 122.866 71.9046 122.818 71.8687C122.736 69.0516 121.349 66.4068 119.643 64.1563C119.164 63.4768 118.583 62.875 117.921 62.3722C117.251 61.8695 116.419 61.6341 115.585 61.7117C114.646 61.84 113.816 62.4786 112.867 62.56C111.615 62.6632 110.494 61.7962 109.251 61.7524C108.745 61.7572 108.247 61.8697 107.788 62.0824C107.33 62.295 106.922 62.603 106.592 62.9856C105.939 63.7579 105.454 64.6576 105.168 65.6274C104.675 67.098 104.407 68.6343 104.372 70.1847C104.357 71.0611 104.272 72.1598 103.458 72.479C103.519 71.8345 103.446 71.1842 103.243 70.5695C103.04 69.9547 102.711 69.3888 102.278 68.9077L102.259 68.8889C102.259 68.8012 102.259 68.7199 102.259 68.6322C102.235 67.2104 102.494 65.798 103.021 64.4774C103.549 63.1568 104.334 61.9544 105.331 60.9403C106.328 59.9263 107.518 59.1209 108.829 58.5711C110.141 58.0213 111.55 57.7382 112.972 57.7382C114.394 57.7382 115.803 58.0213 117.115 58.5711C118.426 59.1209 119.616 59.9263 120.613 60.9403C121.61 61.9544 122.395 63.1568 122.923 64.4774C123.45 65.798 123.709 67.2104 123.685 68.6322H123.682Z" fill="black"/>
<path d="M117.407 51.6267C115.78 50.8616 113.929 50.7169 112.203 51.2198C111.336 51.4765 110.519 51.8928 109.639 52.1025C107.76 52.5563 105.568 52.0649 103.956 53.1635C103.06 53.7895 102.522 54.7786 102.021 55.7396L100.768 58.1246C100.086 59.4299 99.397 60.757 99.112 62.1937C98.8271 63.6304 98.9993 65.2392 99.9105 66.3942C100.574 67.2362 101.554 67.7651 102.274 68.557C102.706 69.0387 103.033 69.6043 103.236 70.2183C103.438 70.8323 103.512 71.4815 103.452 72.1253C104.269 71.8123 104.347 70.7105 104.366 69.8341C104.401 68.2837 104.669 66.7474 105.161 65.2768C105.447 64.3067 105.932 63.4069 106.586 62.635C106.916 62.2526 107.324 61.9449 107.782 61.7323C108.241 61.5196 108.739 61.407 109.244 61.4018C110.497 61.4456 111.621 62.3095 112.861 62.2062C113.8 62.1279 114.633 61.4863 115.579 61.3611C116.412 61.2822 117.245 61.5178 117.914 62.0215C118.576 62.5236 119.156 63.1255 119.633 63.8057C121.343 66.0561 122.73 68.6948 122.811 71.518C123.165 71.7778 123.676 71.4398 123.851 71.0391C124.026 70.6385 124.033 70.169 124.255 69.7871C124.512 69.3458 125.003 69.111 125.388 68.7793C126.365 67.9373 126.609 66.5194 126.572 65.2329C126.534 63.9465 126.284 62.6413 126.528 61.3767C126.675 60.6005 127.007 59.8743 127.189 59.1075C127.37 58.3406 127.392 57.4799 126.963 56.8194C126.337 55.8491 125.019 55.6582 123.87 55.5674C122.564 55.4547 121.396 55.5987 120.563 54.5001C120.172 53.9268 119.732 53.3885 119.248 52.8912C119.082 52.7285 117.407 51.6956 117.407 51.6267Z" fill="#512E4E"/>
<path opacity="0.1" d="M83.3753 117.633L80.1033 111.586L79.0669 120.916C79.0669 120.916 79.643 125.06 79.5272 125.696C79.4113 126.331 81.888 132.028 81.888 132.028C81.888 132.028 90.0696 146.595 93.4105 147.346L104.698 139.283L101.705 135.483C101.705 135.483 100.668 135.08 100.409 135.483C100.409 135.483 94.8508 125.924 94.2747 125.233C93.6986 124.541 93.8113 123.16 93.8113 123.16C93.8113 123.16 92.9471 122.24 93.2352 121.376C93.5232 120.512 91.5663 117.517 91.5663 117.517L93.351 115.849L83.3753 117.633Z" fill="black"/>
<path d="M80.2756 110.897L79.4114 111.586L78.375 120.916C78.375 120.916 78.9511 125.06 78.8353 125.696C78.7194 126.331 81.1993 132.028 81.1993 132.028C81.1993 132.028 89.3777 146.595 92.7186 147.346L104.009 139.283L101.013 135.483C101.013 135.483 99.9765 135.08 99.7166 135.483C99.7166 135.483 94.1589 125.924 93.5828 125.233C93.0067 124.541 93.1225 123.16 93.1225 123.16C93.1225 123.16 92.2583 122.24 92.5464 121.376C92.8345 120.512 90.8744 117.517 90.8744 117.517L92.6591 115.849L80.2756 110.897Z" fill="white"/>
<path opacity="0.1" d="M133.902 147.449C134.528 148.21 134.134 151.625 134.134 151.625L132.405 154.486C132.405 154.486 132.509 156.332 132.515 158.821L129.609 159.729C129.347 159.811 129.068 159.829 128.797 159.781C128.526 159.734 128.271 159.622 128.051 159.456C127.832 159.289 127.656 159.073 127.538 158.825C127.419 158.577 127.362 158.304 127.37 158.029L127.871 141.875L134.65 144.467C134.074 144.867 134.707 145.85 134.707 145.85C134.707 145.85 133.269 146.689 133.902 147.449Z" fill="black"/>
<path d="M134.249 147.102C134.875 147.863 134.481 151.281 134.481 151.281L132.753 154.141C132.753 154.141 132.856 155.985 132.865 158.477L129.906 159.4C129.649 159.48 129.377 159.497 129.111 159.45C128.846 159.404 128.596 159.294 128.382 159.131C128.167 158.969 127.995 158.757 127.879 158.514C127.763 158.271 127.706 158.004 127.715 157.735L128.219 141.531L135.001 144.122C134.421 144.523 135.054 145.503 135.054 145.503C135.054 145.503 133.623 146.345 134.249 147.102Z" fill="white"/>
<path d="M136.494 139.402C136.494 139.402 136.034 142.341 134.882 142.513C133.73 142.686 133.213 147.268 132.064 147.105C130.915 146.942 131.676 142.845 131.716 142.05C131.757 141.255 130.464 137.962 131.431 137.214C132.399 136.466 135.461 137.214 135.461 137.214L136.494 139.402Z" fill="#CF6F80"/>
<path opacity="0.1" d="M138.946 116.769L141.119 112.387C141.119 112.387 141.983 115.727 141.983 117.511C141.983 119.295 143.192 119.47 143.192 119.47C143.192 119.47 144.516 121.035 143.818 122.174C143.12 123.314 142.838 126.15 142.838 126.15C142.838 126.15 143.067 131.561 142.03 132.309C140.994 133.058 140.778 134.845 140.778 134.845C140.778 134.845 138.874 138.241 138.934 139.048C138.993 139.856 136.285 145.324 136.285 145.324C136.285 145.324 137.609 138.529 129.891 135.593C129.891 135.593 129.831 133.286 130.408 132.654C130.984 132.022 131.882 131.734 131.319 128.538C130.755 125.342 131.156 121.523 131.156 120.757C131.156 119.99 132.884 115.207 132.884 115.207L138.946 116.769Z" fill="black"/>
<path d="M139.886 111.761L141.783 112.387C141.783 112.387 142.65 115.727 142.65 117.511C142.65 119.295 143.859 119.47 143.859 119.47C143.859 119.47 145.183 121.035 144.485 122.174C143.787 123.314 143.508 126.15 143.508 126.15C143.508 126.15 143.737 131.561 142.7 132.31C141.664 133.058 141.432 134.845 141.432 134.845C141.432 134.845 139.532 138.241 139.591 139.048C139.651 139.856 136.939 145.324 136.939 145.324C136.939 145.324 138.267 138.529 130.545 135.593C130.545 135.593 130.489 133.286 131.065 132.654C131.641 132.022 132.54 131.734 131.976 128.538C131.413 125.342 131.814 121.523 131.814 120.757C131.814 119.99 133.542 115.207 133.542 115.207L139.886 111.761Z" fill="white"/>
<path opacity="0.1" d="M97.9756 225.34C97.9756 225.34 101 223.44 102.985 224.821C104.97 226.201 97.9756 225.34 97.9756 225.34Z" fill="black"/>
<path opacity="0.1" d="M121.478 219.465C121.478 219.465 124.155 219.121 126.403 221.54C128.651 223.96 121.478 219.465 121.478 219.465Z" fill="black"/>
<g opacity="0.1">
<path d="M125.395 68.0937C125.01 68.4255 124.515 68.6634 124.258 69.1047C124.039 69.4835 124.033 69.9499 123.857 70.3568C123.682 70.7637 123.172 71.0955 122.818 70.8388C122.736 68.0218 121.346 65.3769 119.64 63.1233C119.163 62.4431 118.583 61.8413 117.921 61.3391C117.251 60.8355 116.416 60.6 115.582 60.6787C114.642 60.807 113.816 61.4456 112.867 61.5238C111.615 61.6302 110.491 60.7632 109.248 60.7194C108.742 60.7244 108.244 60.8373 107.786 61.0506C107.328 61.2638 106.921 61.5724 106.592 61.9558C105.939 62.7264 105.453 63.6252 105.168 64.5944C104.676 66.0651 104.408 67.6013 104.372 69.1517C104.354 70.025 104.272 71.1142 103.464 71.4397C103.483 71.671 103.483 71.9034 103.464 72.1346C104.278 71.8216 104.36 70.7198 104.379 69.8434C104.414 68.293 104.682 66.7567 105.174 65.2861C105.46 64.316 105.945 63.4162 106.599 62.6444C106.928 62.2621 107.335 61.9544 107.793 61.7417C108.251 61.5291 108.749 61.4164 109.254 61.4111C110.506 61.455 111.633 62.3188 112.873 62.2155C113.813 62.1373 114.646 61.4956 115.588 61.3704C116.423 61.2917 117.257 61.5272 117.927 62.0309C118.589 62.533 119.169 63.1349 119.646 63.815C121.352 66.0655 122.743 68.7041 122.824 71.5274C123.178 71.7872 123.688 71.4491 123.864 71.0485C124.039 70.6479 124.045 70.1783 124.264 69.7965C124.521 69.3551 125.016 69.1204 125.401 68.7886C126.378 67.9466 126.622 66.5287 126.584 65.2423C126.584 65.2016 126.584 65.1609 126.584 65.1234C126.525 66.2376 126.228 67.3738 125.395 68.0937Z" fill="black"/>
<path d="M102.281 67.8715C101.561 67.0796 100.577 66.5507 99.9168 65.7118C99.3605 64.9692 99.0428 64.0753 99.0056 63.1483C98.9071 64.3067 99.2307 65.4617 99.9168 66.4004C100.577 67.2424 101.561 67.7714 102.281 68.5633C102.972 69.3379 103.387 70.3197 103.461 71.3553C103.509 70.725 103.429 70.0916 103.226 69.493C103.024 68.8944 102.702 68.3429 102.281 67.8715Z" fill="black"/>
<path d="M127.195 58.422C127.01 59.1888 126.682 59.9181 126.531 60.6913C126.442 61.2079 126.41 61.7326 126.434 62.2563C126.445 61.958 126.477 61.6609 126.531 61.3674C126.682 60.5911 127.01 59.8649 127.195 59.0981C127.303 58.6751 127.338 58.2369 127.298 57.8022C127.279 58.011 127.244 58.2182 127.195 58.422Z" fill="black"/>
</g>
<path opacity="0.1" d="M41.5593 238.067C58.4093 238.067 72.0688 235.874 72.0688 233.169C72.0688 230.463 58.4093 228.27 41.5593 228.27C24.7094 228.27 11.0498 230.463 11.0498 233.169C11.0498 235.874 24.7094 238.067 41.5593 238.067Z" fill="#ED862D"/>
<path d="M42.5423 139.33H40.5791V183.517H42.5423V139.33Z" fill="#535461"/>
<path d="M54.8787 183.382L54.7566 185.373L54.5813 188.19L54.5093 189.361L54.3371 192.178L54.2619 193.348L54.0866 196.165L52.1077 228.114C52.0217 229.488 51.415 230.778 50.411 231.721C49.407 232.665 48.0812 233.19 46.7034 233.19H36.4146C35.0372 233.19 33.7117 232.664 32.7082 231.721C31.7048 230.778 31.0987 229.488 31.0134 228.114L29.044 196.143L28.8686 193.326L28.7966 192.156L28.6213 189.339L28.5493 188.168L28.3739 185.351L28.2487 183.36C28.2269 182.977 28.2837 182.594 28.4155 182.233C28.5474 181.873 28.7515 181.543 29.0154 181.264C29.2793 180.986 29.5973 180.764 29.9501 180.612C30.3028 180.461 30.6828 180.383 31.0667 180.384H52.1108C52.4933 180.387 52.871 180.469 53.2207 180.623C53.5703 180.778 53.8846 181.003 54.1439 181.284C54.4033 181.565 54.6023 181.896 54.7287 182.257C54.8551 182.618 54.9061 183.001 54.8787 183.382Z" fill="#3F3D56"/>
<path d="M54.7571 185.373L54.5817 188.181H28.5372L28.3618 185.373H54.7571Z" fill="#9D9CB5"/>
<path d="M54.5094 189.351L54.3372 192.162H28.7842L28.6089 189.351H54.5094Z" fill="#9D9CB5"/>
<path d="M54.2623 193.336L54.09 196.143H29.0318L28.8564 193.336H54.2623Z" fill="#9D9CB5"/>
<path d="M25.3651 155.891C36.7968 164.161 41.5686 177.094 41.5686 177.094C41.5686 177.094 27.7917 176.621 16.3569 168.352C4.92208 160.082 0.159668 147.152 0.159668 147.152C0.159668 147.152 13.9303 147.622 25.3651 155.891Z" fill="#ED862D"/>
<path d="M0.150391 147.152C0.150391 147.152 14.4533 155.087 19.0404 161.657C23.6274 168.227 41.5687 177.094 41.5687 177.094" stroke="#535461" stroke-width="2" stroke-miterlimit="10"/>
<path d="M32.7449 139.233C38.9664 143.731 41.5684 150.77 41.5684 150.77C41.5684 150.77 34.0694 150.514 27.8447 146.016C21.6201 141.518 19.0244 134.475 19.0244 134.475C19.0244 134.475 26.5203 134.732 32.7449 139.233Z" fill="#ED862D"/>
<path d="M19.0244 134.475C19.0244 134.475 26.8083 138.795 29.3038 142.369C31.7993 145.944 41.5684 150.77 41.5684 150.77" stroke="#535461" stroke-width="2" stroke-miterlimit="10"/>
<path d="M50.6021 150.414C43.4537 158.267 41.9414 168.53 41.9414 168.53C41.9414 168.53 52.0204 166.057 59.1625 158.201C66.3046 150.345 67.8231 140.084 67.8231 140.084C67.8231 140.084 57.7504 142.56 50.6021 150.414Z" fill="#ED862D"/>
<path d="M67.8294 140.088C67.8294 140.088 58.5175 148.138 56.1504 153.684C53.7833 159.231 41.9414 168.53 41.9414 168.53" stroke="#535461" stroke-width="2" stroke-miterlimit="10"/>
<path d="M313.008 147.65C313.008 147.65 307.838 121.94 309.817 118.741C309.817 118.741 309.889 115.767 309.77 111.977C309.77 111.833 309.77 111.689 309.77 111.542C310.118 111.774 310.481 111.983 310.856 112.168C312.68 113.104 314.773 113.374 316.774 112.931L315.209 111.188C314.833 110.772 314.442 110.321 314.36 109.77C314.279 109.219 314.504 108.728 314.698 108.236C316.186 104.48 316.264 99.7572 313.399 96.89C310.979 94.4799 310.39 91.3687 307.763 89.1683C305.844 87.5563 304.788 85.1931 303.793 82.9082C302.95 80.977 302.102 79.0301 301.62 76.9831C301.244 75.3836 301.094 73.7278 300.577 72.1659C300.06 70.6041 299.093 69.086 297.581 68.388C297.042 68.1407 296.444 67.9999 295.952 67.6712C295.307 67.2361 294.919 66.5288 294.453 65.909C292.082 62.779 284.145 64.6226 280.388 65.8934C279.366 66.2134 278.42 66.7373 277.607 67.4333L277.642 67.377C277.67 67.33 277.704 67.2831 277.736 67.2361C277.324 67.5686 276.969 67.9649 276.684 68.4099C276.136 69.2769 275.907 70.2879 275.45 71.2269C274.899 72.3381 271.833 75.44 273.152 76.6888C273.244 76.7727 273.35 76.8404 273.465 76.8892C273.96 77.095 274.504 77.1495 275.03 77.0457L274.974 77.1802C274.524 78.2821 274.293 79.4612 274.294 80.6515C274.294 85.7941 278.537 89.9633 283.775 89.9633C284.76 89.9642 285.739 89.8133 286.678 89.5157C286.7 89.6346 286.719 89.7536 286.741 89.8725C286.741 89.9195 286.756 89.9664 286.763 90.0134L286.597 90.245C286.588 90.2307 286.579 90.2171 286.568 90.2043L281.653 97.0716C280.901 97.6006 276.574 100.731 276.33 103.078C276.073 105.648 275.816 108.656 275.816 108.656L275.782 109.301C275.567 109.48 275.316 109.611 275.045 109.684C274.775 109.757 274.492 109.77 274.216 109.723C272.682 109.473 272.682 115.357 272.682 115.357C272.682 115.357 271.661 116.296 270.96 115.482C270.258 114.669 268.405 117.426 268.405 117.426L256.788 117.927L256.522 117.943L255.896 116.005C255.829 115.801 255.683 115.631 255.492 115.533C255.3 115.436 255.077 115.417 254.872 115.482C254.824 115.498 254.777 115.518 254.731 115.542L254.687 115.567L254.606 115.623L254.565 115.661C254.543 115.681 254.522 115.703 254.503 115.727L254.465 115.77L254.446 115.789C254.374 115.889 254.326 116.005 254.307 116.126C254.287 116.248 254.296 116.373 254.334 116.49L254.872 118.152C252.63 118.603 250.338 119.874 252.208 123.373L242.733 121.624L245.798 124.196L261.623 127.461C261.413 127.837 261.551 128.381 262.205 129.148C265.023 132.457 270.158 133.355 272.225 133.587C272.771 134.807 273.452 135.962 274.257 137.03L274.078 140.325C274.078 140.325 268.846 165.447 267.888 166.721C268.372 166.173 268.815 165.59 269.213 164.978C267.694 170.139 265.571 177.204 265.014 178.261C264.118 179.952 263.289 186.791 264.309 187.229C264.622 187.364 265.518 187.298 266.795 187.201V187.767L266.739 209.236C266.739 209.236 266.996 222.404 266.291 223.659C265.587 224.915 265.399 227.547 265.399 227.547C265.399 227.547 262.581 232.74 260.349 234.827C260.333 234.844 260.317 234.858 260.298 234.871L260.23 234.383C260.23 234.383 257.546 237.77 251.61 237.579C251.61 237.579 248.037 239.901 253.335 240.026C258.633 240.152 265.399 239.839 265.399 239.839C265.399 239.839 270.124 232.639 274.082 233.578V239.034H275.293V233.491C275.855 233.121 276.336 232.641 276.707 232.08C277.078 231.519 277.331 230.888 277.451 230.226C277.554 229.544 277.478 228.847 277.23 228.203C276.982 227.559 276.57 226.991 276.035 226.555C275.795 226.338 275.602 226.073 275.469 225.778C275.336 225.483 275.266 225.163 275.262 224.839L275.218 224.877C275.218 224.767 275.19 224.655 275.177 224.539C274.83 221.722 274.395 215.909 275.932 211.609C278.039 205.712 278.678 197.499 277.144 192.609C276.649 191.047 276.242 189.457 275.926 187.849C275.888 187.645 275.854 187.451 275.822 187.27C276.871 187.412 277.91 187.621 278.932 187.896C282.485 188.875 290.26 189.057 296.898 189.004C296.914 189.185 296.932 189.376 296.954 189.567C297.073 190.894 297.32 192.207 297.693 193.486C298.526 195.99 298.908 207.03 298.908 207.03C298.908 207.03 299.982 216.107 299.397 219.8C299.083 221.853 298.77 223.916 298.592 225.988V226.029C298.592 226.029 296.832 231.037 295.545 233.757C295.514 233.826 295.48 233.895 295.448 233.96C295.105 233.992 294.767 234.066 294.443 234.183C294.443 234.183 292.718 237.626 290.999 238.195C289.28 238.765 289.85 240.64 293.742 239.951C297.634 239.263 303.511 238.699 303.511 238.699L303.764 235.187L304.961 233.691L304.647 237.194L305.922 236.943L305.753 232.683L307.71 230.236C307.71 230.236 310.074 228.132 306.561 223.994V224.085C306.523 224.026 306.489 223.963 306.448 223.904V223.885C305.865 222.983 305.402 221.302 306.251 218.32C307.785 212.93 308.677 208.037 308.677 208.037C308.677 208.037 312.103 194.932 307.985 188.731H308.167C307.745 187.859 307.447 186.932 307.281 185.977C307.26 185.864 307.241 185.748 307.224 185.63C310.271 185.454 313.261 184.903 315.7 183.714C315.691 183.701 314.222 152.601 313.008 147.65ZM274.329 125.959V126.021L273.703 126.053L274.329 125.959ZM272.181 126.256C272.078 126.279 271.982 126.325 271.899 126.391C271.63 126.771 271.461 127.214 271.408 127.677L270.431 127.458C270.431 127.458 269.745 127.311 268.759 127.145L268.292 126.675C269.576 126.569 270.91 126.412 272.181 126.256Z" fill="url(#paint1_linear_84_1424)"/>
<path d="M304.503 232.727L304.131 237.162L305.38 236.912L305.192 232.101L304.503 232.727Z" fill="#1D2366"/>
<path d="M276.001 211.668C274.495 215.956 274.921 221.744 275.259 224.555C275.384 225.594 275.5 226.226 275.5 226.226C275.5 226.226 273.249 231.353 273.061 231.547C272.873 231.741 266.436 235.669 266.436 235.669L261.936 238.295C261.936 238.295 257.371 236.295 259.56 235.607C260.007 235.427 260.41 235.153 260.74 234.802C262.932 232.721 265.684 227.547 265.684 227.547C265.684 227.547 265.872 224.921 266.561 223.672C267.25 222.423 266.999 209.299 266.999 209.299L267.052 187.905V185.116L275.616 185.179C275.67 186.126 275.794 187.067 275.985 187.996C276.293 189.599 276.691 191.183 277.178 192.741C278.688 197.621 278.061 205.793 276.001 211.668Z" fill="#FFB0B1"/>
<path opacity="0.1" d="M275.5 226.226C275.5 226.226 273.249 231.353 273.061 231.547C272.873 231.741 266.436 235.669 266.436 235.669L261.936 238.295C261.936 238.295 257.371 236.295 259.56 235.607C260.007 235.427 260.41 235.153 260.74 234.802L260.934 236.17L262.434 236.108L275.272 224.561C275.384 225.594 275.5 226.226 275.5 226.226Z" fill="black"/>
<path d="M275.343 224.852L262.434 236.477L260.934 236.54L260.621 234.349C260.621 234.349 257.997 237.723 252.167 237.535C252.167 237.535 248.666 239.848 253.855 239.973C259.043 240.098 265.668 239.785 265.668 239.785C265.668 239.785 270.296 232.586 274.169 233.525V238.962H275.359V233.475C275.912 233.103 276.384 232.623 276.747 232.063C277.11 231.504 277.356 230.877 277.47 230.22C277.573 229.543 277.5 228.852 277.258 228.211C277.016 227.571 276.613 227.004 276.089 226.564C275.854 226.345 275.667 226.079 275.539 225.785C275.411 225.491 275.344 225.173 275.343 224.852Z" fill="#1D2366"/>
<path d="M305.693 218.354C304.86 221.328 305.314 223.002 305.884 223.9V223.919C306.615 225.028 307.123 226.269 307.381 227.572L307.431 227.854L301.557 236.414L298.37 237.666C298.37 237.666 293.244 235.917 294.18 235.416C294.415 235.294 294.781 234.643 295.201 233.744C296.453 231.037 298.182 226.041 298.182 226.041V226.001C298.363 223.938 298.651 221.882 298.971 219.834C299.544 216.15 298.492 207.108 298.492 207.108C298.492 207.108 298.116 196.112 297.302 193.611C296.934 192.34 296.69 191.036 296.572 189.717C296.403 188.152 296.366 186.863 296.366 186.863C296.366 186.863 299.741 182.168 305.928 187.238C306.423 187.643 306.858 188.115 307.221 188.641C311.495 194.719 308.054 208.109 308.054 208.109C308.054 208.109 307.193 212.98 305.693 218.354Z" fill="#FFB0B1"/>
<path opacity="0.1" d="M307.44 227.854L301.566 236.414L298.379 237.666C298.379 237.666 293.253 235.917 294.189 235.416C294.424 235.294 294.791 234.643 295.21 233.744C297.38 233.726 298.504 235.791 298.504 235.791L301.253 235.353C301.253 235.353 304.879 228.229 305.693 227.794C306.507 227.359 305.818 224.542 305.818 224.542V223.825C305.84 223.85 305.859 223.879 305.884 223.904V223.922C306.615 225.032 307.123 226.272 307.381 227.575L307.44 227.854Z" fill="black"/>
<path d="M298.692 235.976C298.692 235.976 297.126 233.103 294.127 234.164C294.127 234.164 292.439 237.607 290.752 238.164C289.064 238.721 289.627 240.599 293.441 239.914C297.255 239.228 303.004 238.662 303.004 238.662L303.254 235.159L307.13 230.223C307.13 230.223 309.441 228.129 306.003 224.007V224.724C306.003 224.724 306.692 227.541 305.878 227.976C305.064 228.411 301.451 235.538 301.451 235.538L298.692 235.976Z" fill="#1D2366"/>
<path opacity="0.1" d="M275.625 185.173C275.679 186.119 275.803 187.061 275.995 187.99C272.469 187.473 269.197 187.73 267.052 187.899V185.11L275.625 185.173Z" fill="black"/>
<path opacity="0.1" d="M307.569 189.42C307.569 189.42 302.559 189.664 296.585 189.714C296.416 188.149 296.378 186.86 296.378 186.86C296.378 186.86 299.754 182.165 305.941 187.235C306.436 187.64 306.871 188.112 307.234 188.638C307.331 188.904 307.443 189.166 307.569 189.42Z" fill="black"/>
<path d="M307.569 188.857C307.569 188.857 285.626 189.918 278.938 188.043C272.25 186.168 265.621 187.792 264.622 187.357C263.624 186.922 264.435 180.108 265.311 178.421C266.188 176.734 270.997 159.672 270.997 159.672L275.625 135.552L280.5 134.209L280.845 134.112L289.339 131.771L295.564 130.053C295.564 130.053 307.941 178.358 306.88 181.92C306.494 183.284 306.432 184.719 306.698 186.112C306.86 187.062 307.153 187.986 307.569 188.857Z" fill="#1D2366"/>
<path d="M259.494 119.057C259.494 119.057 255.11 123.752 258.429 126.369C261.748 128.985 263.93 126.619 263.93 126.619L259.494 119.057Z" fill="#C7DAF5"/>
<path opacity="0.1" d="M259.494 119.057C259.494 119.057 255.11 123.752 258.429 126.369C261.748 128.985 263.93 126.619 263.93 126.619L259.494 119.057Z" fill="black"/>
<path d="M294.91 88.1886C294.91 88.1886 294.396 88.6769 293.623 89.3968C292.521 90.4265 290.89 91.9321 289.443 93.1935C287.439 94.9369 285.786 96.2171 286.378 95.1247C286.969 94.0323 286.857 92.1293 286.562 90.3483C286.54 90.2294 286.522 90.1104 286.5 89.9946C286.256 88.6866 285.933 87.3947 285.532 86.1259C285.532 86.1259 288.77 81.9442 290.561 80.2946C291.228 79.6686 291.694 79.412 291.722 79.8471C291.754 80.4324 292.192 81.7251 292.737 83.096C292.753 83.1398 292.768 83.1805 292.787 83.2243C293.15 84.1634 293.56 85.1274 293.92 85.96C294.472 87.2371 294.91 88.1886 294.91 88.1886Z" fill="#FFB0B1"/>
<path opacity="0.1" d="M292.787 83.2243C292.483 84.8602 291.745 86.3844 290.65 87.6376C289.555 88.8907 288.143 89.8269 286.562 90.3483C286.313 88.9195 285.969 87.5089 285.532 86.1259C285.532 86.1259 291.629 78.2538 291.722 79.847C291.744 80.4511 292.22 81.7908 292.787 83.2243Z" fill="black"/>
<path opacity="0.1" d="M285.955 92.4517L286.744 91.3406C286.744 91.3406 287.267 94.5269 289.189 93.1216C291.112 91.7162 291.206 103.698 291.206 103.698L289.142 134.538L274.232 133.646L274.655 118.744L276.342 111.232L280.516 100.311L282.999 96.7023L285.955 92.4517Z" fill="black"/>
<path d="M291.206 103.889L289.327 131.774L289.13 134.729L280.817 134.231L280.503 134.213L274.241 133.837L274.664 118.932L276.352 111.42L280.525 100.499L283.008 96.8901L285.964 92.6239L286.753 91.5159C286.753 91.5159 287.276 94.7022 289.199 93.2969L289.239 93.2687C291.118 92.0793 291.206 103.889 291.206 103.889Z" fill="#1D2366"/>
<path d="M276.561 108.809C276.561 108.809 275.813 110.374 274.31 110.121C272.807 109.867 272.81 115.755 272.81 115.755C272.81 115.755 271.811 116.694 271.123 115.88C270.434 115.066 268.618 117.817 268.618 117.817L257.239 118.318C257.239 118.318 262.302 120.631 261.31 127.63C261.31 127.63 278.499 126.566 279.063 124.941C279.627 123.317 276.561 108.809 276.561 108.809Z" fill="white"/>
<path opacity="0.03" d="M276.561 108.809C276.561 108.809 275.813 110.374 274.31 110.121C272.807 109.867 272.81 115.755 272.81 115.755C272.81 115.755 271.811 116.694 271.123 115.88C270.434 115.066 268.618 117.817 268.618 117.817L257.239 118.318C257.239 118.318 262.302 120.631 261.31 127.63C261.31 127.63 278.499 126.566 279.063 124.941C279.627 123.317 276.561 108.809 276.561 108.809Z" fill="black"/>
<path d="M243.494 121.996L246.493 124.556L271.185 129.743L268.123 126.619L243.494 121.996Z" fill="white"/>
<path d="M286.001 93.4377C285.591 94.0637 284.417 97.2688 283.437 100.067C282.62 102.399 281.937 104.449 281.937 104.449C281.937 104.449 280.344 114.822 279.529 116.697C278.715 118.572 279.157 125.884 279.157 125.884L276.123 143.941C276.123 143.941 274.748 153.253 272.625 158.815C270.531 164.289 268.198 166.856 268.126 166.937C269.065 165.666 274.185 140.645 274.185 140.645L275.875 109.088C275.875 109.088 276.123 106.089 276.373 103.526C276.624 100.962 281.696 97.4629 281.696 97.4629L286.587 90.5111C287.079 91.1684 286.75 92.314 286.001 93.4377Z" fill="white"/>
<path d="M273.249 133.993C273.249 133.993 266.047 133.68 262.559 129.492C259.071 125.304 270.622 127.821 270.622 127.821L273.625 128.51L273.249 133.993Z" fill="#FFB0B1"/>
<path opacity="0.1" d="M306.88 181.924C306.495 183.288 306.432 184.723 306.698 186.115C298.843 186.672 290.439 184.55 290.439 184.55C288.873 185.99 284.749 188.112 284.749 188.112L282.501 160.254C281.064 156.498 280.5 136.82 280.5 136.82C280.5 136.82 280.629 135.79 280.814 134.247C280.814 134.209 280.814 134.169 280.829 134.131C281.39 129.821 282.501 121.73 283.046 120.638C283.798 119.135 280.735 115.138 280.735 115.138L282.129 103.26L282.298 101.826C285.235 100.515 287.486 96.3267 287.486 96.3267L289.214 93.3C291.093 92.0949 291.19 103.904 291.19 103.904L289.311 131.79L295.536 130.072C295.536 130.072 307.942 178.362 306.88 181.924Z" fill="black"/>
<path d="M314.942 183.849C306.379 188.099 290.814 184.162 290.814 184.162C289.249 185.601 285.125 187.724 285.125 187.724L282.874 159.866C281.44 156.11 280.876 136.432 280.876 136.432C280.876 136.432 282.686 121.749 283.437 120.249C283.656 119.811 283.55 119.16 283.29 118.459C282.012 115.122 281.542 111.53 281.919 107.977L282.52 102.872L282.686 101.441C285.626 100.127 287.877 95.9385 287.877 95.9385L289.443 93.1966L292.323 88.1448L293.688 85.7534L293.92 85.9631L295.689 87.5657C295.689 87.5657 296.441 88.1917 297.568 89.1307C300.02 91.1965 304.256 94.8336 306.441 97.0591C308.364 99.0185 308.971 106.64 309.147 112.377C309.263 116.155 309.194 119.116 309.194 119.116C307.256 122.306 312.325 147.913 312.325 147.913C313.505 152.861 314.942 183.849 314.942 183.849Z" fill="white"/>
<path opacity="0.03" d="M298.504 95.8759C298.504 95.8759 292.627 107.06 293.31 111.31C293.992 115.561 295.934 120.372 294.998 121.495C294.676 121.921 294.26 122.267 293.783 122.505C293.305 122.743 292.779 122.868 292.245 122.869C291.306 122.932 288.801 124.682 288.801 124.869C288.801 125.057 286.487 125.057 284.418 125.934C282.348 126.81 279.292 127.308 279.292 127.308C279.292 127.308 273.343 127.12 272.789 127.683C272.234 128.247 271.664 131.618 272.851 134.306C274.038 136.995 275.356 139.001 276.352 139.368C277.347 139.734 283.666 137.618 288.792 137.117C293.917 136.616 299.481 132.557 299.481 132.557C299.481 132.557 305.609 130.366 306.683 126.682C307.757 122.998 305.371 102.749 305.371 102.749C305.371 102.749 303.567 93.3124 298.504 95.8759Z" fill="black"/>
<path opacity="0.03" d="M297.753 94.937C297.753 94.937 291.876 106.124 292.564 110.371C293.253 114.619 295.188 119.433 294.249 120.559C293.928 120.986 293.513 121.332 293.036 121.57C292.559 121.808 292.033 121.933 291.5 121.933C290.56 121.996 288.056 123.746 288.056 123.934C288.056 124.121 285.742 124.121 283.672 124.995C281.602 125.868 278.546 126.369 278.546 126.369C278.546 126.369 272.597 126.181 272.046 126.744C271.495 127.308 270.919 130.682 272.109 133.367C273.299 136.053 274.614 138.063 275.609 138.429C276.605 138.795 282.924 136.679 288.049 136.181C293.175 135.684 298.739 131.618 298.739 131.618C298.739 131.618 304.863 129.427 305.925 125.746C306.986 122.065 304.613 101.81 304.613 101.81C304.613 101.81 302.816 92.3766 297.753 94.937Z" fill="black"/>
<path d="M298.319 95.3125C298.319 95.3125 292.442 106.499 293.131 110.747C293.82 114.994 295.755 119.808 294.819 120.932C294.498 121.359 294.083 121.706 293.605 121.945C293.127 122.184 292.601 122.309 292.067 122.309C291.127 122.372 288.622 124.121 288.622 124.306C288.622 124.491 286.312 124.494 284.239 125.37C282.166 126.247 279.113 126.744 279.113 126.744C279.113 126.744 273.164 126.556 272.61 127.12C272.056 127.683 271.486 131.057 272.672 133.743C273.859 136.429 275.177 138.438 276.173 138.804C277.169 139.17 283.487 137.055 288.613 136.554C293.739 136.053 299.303 131.993 299.303 131.993C299.303 131.993 305.43 129.802 306.504 126.118C307.578 122.434 305.208 102.186 305.208 102.186C305.208 102.186 303.379 92.7647 298.319 95.3125Z" fill="white"/>
<path opacity="0.1" d="M298.191 125.317C298.191 125.317 293.494 124.378 295.129 125.943C296.763 127.508 296.754 128.879 298.754 128.816C300.755 128.754 298.191 125.317 298.191 125.317Z" fill="black"/>
<path opacity="0.1" d="M306.128 158.99C306.128 158.99 304.005 160.427 308.066 163.738C312.128 167.05 306.128 158.99 306.128 158.99Z" fill="black"/>
<path opacity="0.1" d="M302.077 170.8C302.077 170.987 301.326 177.686 304.137 179.36C306.949 181.035 302.077 170.8 302.077 170.8Z" fill="black"/>
<path d="M257.433 118.303C255.166 118.381 250.269 119.073 252.809 123.808C255.054 127.999 258.827 125.198 260.949 123.073C260.432 121.091 259.173 119.384 257.433 118.303Z" fill="#FFB0B1"/>
<path opacity="0.1" d="M297.568 89.3217C295.163 90.9649 293.147 92.3515 292.752 92.6395C291.675 93.4377 289.621 98.1233 288.297 100.515C287.242 102.44 283.813 102.934 282.52 103.056L282.686 101.626C285.626 100.311 287.877 96.1232 287.877 96.1232L293.689 85.9381L295.689 87.7567C295.689 87.7567 296.441 88.3827 297.568 89.3217Z" fill="black"/>
<path d="M297.568 89.1339C295.163 90.7772 293.147 92.1638 292.752 92.4549C291.675 93.2499 289.621 97.9356 288.297 100.327C287.242 102.252 283.813 102.746 282.52 102.869L282.686 101.438C285.626 100.123 287.877 95.9355 287.877 95.9355L293.689 85.7504L295.689 87.5627C295.689 87.5627 296.441 88.1824 297.568 89.1339Z" fill="#DCE7FF"/>
<path d="M292.94 81.1585C292.942 83.0375 292.372 84.8724 291.306 86.4201C290.047 88.25 288.174 89.5683 286.026 90.1357C283.879 90.7031 281.598 90.482 279.6 89.5126C277.601 88.5433 276.016 86.8897 275.133 84.8521C274.249 82.8145 274.126 80.5279 274.784 78.407C275.443 76.2861 276.841 74.4716 278.723 73.2927C280.606 72.1137 282.849 71.6485 285.046 71.9814C287.242 72.3142 289.246 73.4232 290.695 75.1069C292.143 76.7907 292.94 78.9378 292.94 81.1585Z" fill="#FFB0B1"/>
<path opacity="0.1" d="M309.147 112.381C307.875 111.599 306.84 110.487 306.15 109.163C305.627 108.13 305.28 106.938 304.387 106.205C303.583 105.548 302.509 105.388 301.507 105.094C298.213 104.12 295.451 101.116 295.348 97.6851C295.298 96.07 295.802 94.4581 295.573 92.8586C295.443 91.9534 295.083 91.0966 294.528 90.3703C294.252 90.0228 293.949 89.6974 293.623 89.3968C293.184 88.9836 292.724 88.583 292.323 88.1448C292.071 87.8735 291.85 87.5742 291.666 87.2527C291.517 86.9897 291.396 86.7117 291.306 86.4233C290.679 84.5077 291.249 82.2353 290.56 80.2978L290.523 80.1914C290.263 79.5028 289.734 78.8142 288.998 78.761C288.262 78.7078 287.633 79.3181 286.931 79.5904C285.463 80.1601 283.879 79.1898 282.654 78.2007C281.43 77.2116 280.049 76.0817 278.493 76.3008C277.463 76.4479 276.649 77.149 275.7 77.5121C275.486 77.595 275.265 77.6589 275.04 77.703C275.842 75.7014 277.318 74.0418 279.212 73.0093C281.106 71.9768 283.3 71.6359 285.418 72.0451C287.536 72.4544 289.446 73.5882 290.818 75.2519C292.191 76.9156 292.941 79.0052 292.94 81.1617C292.941 81.8129 292.873 82.4624 292.737 83.0992C292.752 83.143 292.768 83.1837 292.787 83.2275C293.15 84.1665 293.56 85.1306 293.92 85.9632L295.689 87.5658C295.689 87.5658 296.441 88.1918 297.568 89.1308C300.02 91.1966 304.256 94.8337 306.441 97.0591C308.364 99.0248 308.965 106.643 309.147 112.381Z" fill="black"/>
<path d="M275.591 71.7935C276.039 70.8827 276.261 69.8623 276.796 68.9984C277.582 67.7464 278.954 66.9451 280.363 66.4599C284.042 65.1923 291.816 63.3518 294.14 66.4599C294.597 67.0859 294.976 67.7808 295.608 68.2127C296.09 68.5414 296.673 68.6822 297.202 68.9295C298.683 69.6244 299.628 71.1393 300.133 72.6856C300.637 74.2318 300.787 75.8907 301.156 77.4839C301.629 79.5278 302.459 81.4653 303.286 83.3903C304.259 85.6627 305.293 88.0196 307.171 89.6253C309.736 91.8163 310.302 94.9182 312.682 97.322C315.5 100.177 315.409 104.887 313.956 108.628C313.765 109.119 313.549 109.632 313.625 110.155C313.7 110.678 314.088 111.154 314.454 111.57L315.995 113.307C312.35 114.187 308.226 112.284 306.529 108.944C306.007 107.911 305.659 106.721 304.763 105.986C303.962 105.329 302.885 105.172 301.886 104.878C298.592 103.901 295.83 100.893 295.727 97.4629C295.677 95.8509 296.181 94.2389 295.953 92.6426C295.825 91.7313 295.464 90.8686 294.904 90.1386C294.043 89.0149 292.743 88.2606 292.042 87.0086C290.855 84.9146 291.757 82.1946 290.902 79.9472C290.639 79.2586 290.113 78.57 289.377 78.5168C288.641 78.4636 288.012 79.0739 287.308 79.3463C285.842 79.9159 284.258 78.9487 283.034 77.9565C281.809 76.9643 280.429 75.8375 278.869 76.0597C277.839 76.2037 277.028 76.9048 276.079 77.271C275.378 77.5402 273.956 77.7812 273.343 77.1897C272.047 75.9971 275.049 72.9078 275.591 71.7935Z" fill="#591D4B"/>
<path opacity="0.1" d="M307.4 107.911C306.873 106.878 306.529 105.689 305.634 104.956C304.832 104.299 303.755 104.139 302.753 103.845C299.462 102.872 296.701 99.8637 296.594 96.4332C296.544 94.8212 297.048 93.2061 296.823 91.6098C296.691 90.7043 296.33 89.8476 295.774 89.1214C294.91 87.9977 293.61 87.2434 292.912 85.9914C291.725 83.9005 292.627 81.1805 291.769 78.93C291.509 78.2445 290.98 77.5559 290.247 77.4996C289.515 77.4433 288.879 78.0599 288.178 78.3322C286.712 78.9019 285.125 77.9315 283.904 76.9425C282.683 75.9534 281.295 74.8234 279.739 75.0425C278.709 75.1896 277.895 75.8908 276.949 76.2538C276.248 76.523 274.823 76.7672 274.21 76.1756C272.92 74.9236 275.922 71.8405 276.461 70.7325C276.909 69.8185 277.131 68.8012 277.67 67.9374C277.698 67.8904 277.729 67.8435 277.76 67.7965C277.358 68.1301 277.01 68.5252 276.73 68.9671C276.195 69.831 275.973 70.8452 275.525 71.7623C274.983 72.8703 271.98 75.9628 273.274 77.2054C273.9 77.8001 275.309 77.5559 276.01 77.2868C276.949 76.9205 277.77 76.2194 278.8 76.0754C280.366 75.8532 281.743 76.9831 282.964 77.9722C284.185 78.9613 285.782 79.9316 287.241 79.362C287.943 79.0897 288.556 78.4762 289.308 78.5325C290.059 78.5889 290.56 79.2743 290.833 79.9629C291.688 82.2103 290.786 84.9303 291.973 87.0243C292.674 88.2544 293.973 89.0244 294.834 90.1543C295.395 90.8843 295.756 91.747 295.883 92.6583C296.112 94.2547 295.608 95.8666 295.658 97.4786C295.761 100.922 298.523 103.917 301.817 104.894C302.809 105.188 303.893 105.344 304.694 106.002C305.593 106.737 305.947 107.927 306.46 108.96C308.157 112.299 312.281 114.202 315.926 113.323L315.199 112.503C312.04 112.55 308.843 110.753 307.4 107.911Z" fill="black"/>
<path opacity="0.1" d="M285.814 93.6255C285.404 94.2515 284.229 97.4566 283.249 100.255C282.332 99.8981 281.499 97.6225 281.499 97.6225L286.39 90.6676C286.891 91.3562 286.562 92.4987 285.814 93.6255Z" fill="black"/>
<path d="M286.002 93.4377C285.591 94.0637 284.417 97.2688 283.437 100.067C282.52 99.7134 281.687 97.4347 281.687 97.4347L286.578 90.4829C287.079 91.1684 286.75 92.314 286.002 93.4377Z" fill="#DCE7FF"/>
<path d="M257.565 125.414L254.854 116.866C254.821 116.766 254.809 116.66 254.818 116.556C254.827 116.451 254.856 116.349 254.905 116.256C254.953 116.162 255.019 116.079 255.1 116.012C255.18 115.944 255.273 115.893 255.373 115.861C255.575 115.798 255.794 115.818 255.981 115.915C256.169 116.012 256.311 116.18 256.375 116.381L259.087 124.92L258.818 126.707L257.565 125.414Z" fill="#BE8B87"/>
<path opacity="0.1" d="M255.11 116.115C255.313 116.051 255.532 116.07 255.72 116.167C255.909 116.264 256.051 116.432 256.115 116.634L258.827 125.173L258.623 126.513L258.821 126.719L259.09 124.932L256.363 116.393C256.298 116.192 256.156 116.025 255.969 115.927C255.781 115.83 255.563 115.811 255.361 115.874C255.191 115.929 255.044 116.039 254.944 116.187C254.998 116.158 255.053 116.134 255.11 116.115Z" fill="white"/>
<path d="M257.565 125.414L259.087 124.932L258.864 126.397L258.817 126.719L258.373 126.256L257.565 125.414Z" fill="#EFC8C4"/>
<path d="M258.373 126.256C258.4 126.223 258.433 126.195 258.47 126.175C258.492 126.161 258.518 126.153 258.544 126.153C258.57 126.153 258.595 126.161 258.617 126.175C258.639 126.2 258.656 126.229 258.671 126.259C258.691 126.294 258.719 126.323 258.753 126.345C258.787 126.368 258.825 126.382 258.865 126.387L258.818 126.7L258.373 126.256Z" fill="#727A9C"/>
<path d="M254.838 119.902C254.838 119.902 260.277 119.871 258.996 122.184C257.715 124.497 255.715 124.776 255.715 124.776L254.838 119.902Z" fill="#FFB0B1"/>
<path d="M221.012 16.0946H220.777C211.434 16.0946 203.171 21.0369 198.418 28.3299C193.665 21.0369 185.402 16.0946 176.059 16.0946H175.824C168.812 16.1614 162.11 18.9918 157.174 23.9706C152.238 28.9495 149.467 35.6745 149.463 42.6842C149.463 51.3888 153.277 63.7399 160.713 73.9031C174.882 93.2686 198.418 110.211 198.418 110.211C198.418 110.211 221.955 93.2718 236.12 73.9031C243.559 63.7399 247.37 51.3888 247.37 42.6842C247.366 35.675 244.596 28.9505 239.66 23.9717C234.725 18.9929 228.024 16.1622 221.012 16.0946ZM217.653 75.393C216.589 75.389 215.551 75.0634 214.675 74.459C213.799 73.8546 213.127 72.9996 212.746 72.0063H207.16C206.792 72.0041 206.435 71.887 206.136 71.6715C205.838 71.456 205.615 71.1529 205.498 70.8044L203.782 65.6367L198.352 84.6016C198.247 84.9667 198.025 85.2876 197.722 85.5162C197.418 85.7448 197.048 85.8687 196.668 85.8692H196.558C196.162 85.8501 195.784 85.6954 195.487 85.4311C195.191 85.1667 194.994 84.8087 194.93 84.4169L189.335 50.7753L185.246 70.6823C185.152 71.0605 184.934 71.3964 184.627 71.6364C184.32 71.8763 183.941 72.0066 183.552 72.0063H175.683C175.447 72.0163 175.212 71.9785 174.991 71.8951C174.77 71.8118 174.568 71.6846 174.398 71.5213C174.228 71.358 174.092 71.1619 173.999 70.9449C173.907 70.7278 173.859 70.4942 173.859 70.2582C173.859 70.0222 173.907 69.7887 173.999 69.5716C174.092 69.3545 174.228 69.1584 174.398 68.9951C174.568 68.8318 174.77 68.7046 174.991 68.6213C175.212 68.5379 175.447 68.5001 175.683 68.5101H182.174L187.967 41.7452C188.062 41.3495 188.291 40.9991 188.616 40.7539C188.941 40.5087 189.341 40.3839 189.748 40.4009C190.155 40.4179 190.543 40.5757 190.846 40.8471C191.15 41.1186 191.349 41.4869 191.411 41.8892L197.125 76.2068L201.991 59.2389C202.092 58.8816 202.306 58.5666 202.602 58.3409C202.897 58.1153 203.257 57.9911 203.628 57.9869H203.663C204.031 57.987 204.389 58.1033 204.687 58.3191C204.985 58.535 205.208 58.8393 205.322 59.1889L208.425 68.5195H212.677C212.98 67.6013 213.53 66.7845 214.267 66.1592C215.005 65.5339 215.9 65.1244 216.856 64.9759C217.811 64.8275 218.789 64.9458 219.682 65.3178C220.574 65.6899 221.346 66.3011 221.913 67.0842C222.48 67.8673 222.82 68.7917 222.894 69.7555C222.969 70.7192 222.775 71.6848 222.335 72.5457C221.896 73.4065 221.227 74.1291 220.402 74.6338C219.577 75.1385 218.629 75.4055 217.662 75.4056L217.653 75.393Z" fill="#ED862D"/>
</g>
<defs>
<linearGradient id="paint0_linear_84_1424" x1="111.571" y1="242.537" x2="111.571" y2="49.9333" gradientUnits="userSpaceOnUse">
<stop stop-color="#808080" stop-opacity="0.25"/>
<stop offset="0.54" stop-color="#808080" stop-opacity="0.12"/>
<stop offset="1" stop-color="#808080" stop-opacity="0.1"/>
</linearGradient>
<linearGradient id="paint1_linear_84_1424" x1="279.743" y1="240.101" x2="279.743" y2="64.1938" gradientUnits="userSpaceOnUse">
<stop stop-color="#808080" stop-opacity="0.25"/>
<stop offset="0.54" stop-color="#808080" stop-opacity="0.12"/>
<stop offset="1" stop-color="#808080" stop-opacity="0.1"/>
</linearGradient>
<clipPath id="clip0_84_1424">
<rect width="346" height="245" fill="white"/>
</clipPath>
</defs>
</svg>
