<svg width="758" height="380" viewBox="0 0 758 380" fill="none" xmlns="http://www.w3.org/2000/svg">
<g clip-path="url(#clip0_67_1065)">
<path d="M249.624 380C226.752 380 203.915 379.59 181.111 378.772C148.527 377.601 114.834 376.392 83.5175 359.022C61.6102 346.872 42.2079 327.378 27.4088 302.648C17.5172 285.885 10.2643 267.7 5.90478 248.731C-2.22741 214.196 -1.95041 178.212 6.71246 143.806C9.74827 132.009 13.9333 120.539 19.2076 109.559C42.0455 62.2643 83.7001 30.5165 133.491 22.4569C133.902 22.4035 134.318 22.3946 134.731 22.4304C134.955 22.4424 135.178 22.4552 135.406 22.4457L135.699 22.3526C136.45 22.0916 137.221 21.8936 138.005 21.7607C214.796 10.3282 295.975 33.4602 372.761 88.6542C432.131 131.336 510.813 154.319 613.305 158.918L614.76 158.994C643.291 160.633 670.889 172.396 694.574 193.014C717.951 213.363 735.504 240.513 745.333 271.529C746.542 275.311 747.65 279.247 748.626 283.228C749.535 286.928 749.471 290.8 748.44 294.467C747.409 298.135 745.446 301.473 742.742 304.157V304.165L742.487 304.427C741.873 305.038 741.226 305.624 740.565 306.17L739.788 306.811C733.238 312.206 728.065 316.469 721.874 319.779C717.744 321.972 713.352 323.63 708.804 324.714C683.828 330.803 658.465 336.449 633.419 341.495C584.777 351.303 534.854 359.394 485.036 365.542C406.935 375.173 328.317 380.001 249.624 380ZM134.149 24.1055C133.996 24.104 133.843 24.1144 133.692 24.1365C84.3662 32.1208 43.1059 63.557 20.4944 110.384C15.2722 121.255 11.1286 132.611 8.12296 144.291C-0.460977 178.392 -0.734524 214.056 7.32533 248.285C11.6422 267.072 18.8248 285.083 28.6208 301.686C43.2752 326.174 62.479 345.472 84.1566 357.493C115.192 374.708 148.726 375.912 181.157 377.076C282.588 380.701 384.146 376.28 484.879 363.857C534.664 357.712 584.555 349.627 633.165 339.825C658.194 334.782 683.54 329.141 708.499 323.055C712.938 321.999 717.224 320.381 721.254 318.241C727.32 314.998 732.444 310.776 738.931 305.431L739.708 304.792C740.277 304.322 740.834 303.821 741.368 303.299L741.521 303.138C746.852 297.765 748.925 290.676 747.209 283.689V283.688C746.243 279.749 745.147 275.855 743.951 272.113C723.87 208.752 671.924 163.975 614.689 160.688L613.242 160.611C566.425 158.51 525.457 152.691 488.002 142.818C443.289 131.034 404.254 113.294 371.981 90.0921C295.488 35.1096 214.648 12.0637 138.193 23.442C137.479 23.5652 136.776 23.7474 136.092 23.9867L135.564 24.1344C135.264 24.1479 134.963 24.1443 134.664 24.1237C134.487 24.1146 134.316 24.1055 134.149 24.1055Z" fill="#F0F0F0"/>
<path d="M236.768 123.809C234.651 121.777 232.485 110.448 229.782 109.298C231.803 113.764 230.336 114.946 230.325 119.848C230.35 122.631 230.025 125.406 229.357 128.108H183.564V92.3683C183.564 89.157 184.197 85.9771 185.426 83.0102C186.654 80.0434 188.456 77.3476 190.726 75.0769C192.997 72.8061 195.692 71.0049 198.659 69.776C201.626 68.5471 204.806 67.9147 208.017 67.9148C209.242 67.9387 210.46 68.117 211.641 68.4454C215.577 69.5082 219.165 71.5873 222.044 74.4743C224.922 77.3612 226.992 80.9545 228.043 84.8937C231.534 97.6543 237.087 118.895 236.768 123.809Z" fill="#2F2E41"/>
<path d="M186.251 167.775L186.273 139.918L169.899 141.381L175.678 158.951L172.973 203.112C171.662 203.406 170.464 204.076 169.526 205.039C168.588 206.003 167.951 207.218 167.692 208.537C167.433 209.857 167.564 211.223 168.068 212.469C168.572 213.715 169.428 214.788 170.531 215.557C171.634 216.325 172.937 216.756 174.28 216.797C175.624 216.837 176.951 216.486 178.098 215.786C179.246 215.086 180.165 214.067 180.743 212.853C181.322 211.639 181.535 210.284 181.356 208.951L186.251 167.775Z" fill="#FFB6B6"/>
<path d="M218.475 366.842L225.09 366.841L228.238 341.324H218.474L218.475 366.842Z" fill="#FFB6B6"/>
<path d="M216.235 363.578L226.692 362.954V367.435L236.634 374.302C237.125 374.641 237.495 375.128 237.69 375.692C237.884 376.256 237.893 376.868 237.716 377.438C237.538 378.007 237.183 378.505 236.702 378.859C236.222 379.213 235.641 379.404 235.044 379.403H222.594L220.448 374.971L219.61 379.403H214.916L216.235 363.578Z" fill="#2F2E41"/>
<path d="M180.224 366.842L186.84 366.841L189.987 341.324H180.224L180.224 366.842Z" fill="#FFB6B6"/>
<path d="M177.985 363.578L188.442 362.954V367.435L198.384 374.302C198.875 374.641 199.245 375.128 199.44 375.692C199.634 376.256 199.643 376.868 199.466 377.438C199.288 378.007 198.933 378.505 198.452 378.859C197.972 379.213 197.391 379.404 196.794 379.403H184.344L182.198 374.971L181.36 379.403H176.666L177.985 363.578Z" fill="#2F2E41"/>
<path d="M212.585 109.835L198.881 110.104L189.207 120.315L181.452 121.453C177.944 121.967 174.718 123.67 172.315 126.277C169.912 128.885 168.476 132.238 168.248 135.776L169.592 143.156H177.653L182.316 170.539C180.503 175.16 180.38 178.807 184.102 180.24L195.656 202.006L229.782 186.689C231.513 183.714 232.067 180.725 230.298 177.819L232.738 135.901H240.941C240.941 128.061 238.289 121.452 230.498 120.579C227.404 120.244 224.295 120.067 221.183 120.046L212.585 109.835Z" fill="#E6E6E6"/>
<path d="M229.782 186.689C229.782 186.689 196.463 192.601 184.102 180.24C184.102 180.24 182.847 182.37 180.956 185.904C180.412 186.92 179.362 187.608 178.728 188.839C178.151 189.957 176.669 191.333 176.041 192.601C175.536 193.622 176.346 194.956 175.82 196.058C169.49 209.336 162.095 228.065 163.68 240.433C164.703 248.409 166.815 266.967 169.039 286.9C169.212 288.457 167.805 290.458 167.98 292.027C168.144 293.507 169.891 294.556 170.056 296.04C170.165 297.025 168.945 298.03 169.054 299.014C169.174 300.093 170.623 301.152 170.742 302.227C173.789 329.75 176.578 355.445 176.578 355.445H192.163L195.104 296.759L192.701 275.367L198.343 232.103L206.136 273.217L207.138 296.356L215.374 356.52H229.782V298.278L230.857 295.252L229.782 291.371L230.857 287.19L229.782 282.637V186.689Z" fill="#2F2E41"/>
<path d="M216.791 101.888C214.668 104.708 211.648 106.721 208.229 107.595C204.809 108.469 201.193 108.153 197.978 106.698C194.762 105.243 192.137 102.736 190.536 99.5905C188.935 96.4446 188.454 92.8473 189.17 89.391C189.887 85.9347 191.759 82.8255 194.478 80.5754C197.198 78.3253 200.603 77.0686 204.132 77.0121C207.661 76.9556 211.104 78.1028 213.895 80.2647C216.685 82.4266 218.655 85.4743 219.482 88.9059C219.527 89.0921 219.565 89.2773 219.601 89.4695C220.038 91.6204 220.013 93.8395 219.529 95.9802C219.044 98.1209 218.111 100.134 216.791 101.888Z" fill="#FFB6B6"/>
<path d="M213.552 93.024C213.223 91.37 212.389 89.8587 211.166 88.6976C211.287 90.2825 211.067 91.875 210.521 93.368C206.436 93.7298 202.332 92.9168 198.693 91.0247C195.952 89.1652 192.464 89.3264 188.401 91.0247C188.401 89.0485 188.79 87.0915 189.546 85.2657C190.302 83.4398 191.411 81.7808 192.808 80.3834C194.205 78.986 195.864 77.8775 197.69 77.1214C199.516 76.3652 201.473 75.9761 203.449 75.9764H206.136C210.127 75.9771 213.954 77.5628 216.775 80.3847C219.597 83.2067 221.183 87.0339 221.184 91.0247C218.704 91.9143 216.15 92.5833 213.552 93.024Z" fill="#2F2E41"/>
<path d="M95.9942 284.821C119.869 284.821 139.224 265.465 139.224 241.589C139.224 217.713 119.869 198.357 95.9942 198.357C72.1192 198.357 52.7646 217.713 52.7646 241.589C52.7646 265.465 72.1192 284.821 95.9942 284.821Z" fill="#F0F0F0"/>
<path d="M371.477 86.4634C395.352 86.4634 414.706 67.1079 414.706 43.2317C414.706 19.3555 395.352 0 371.477 0C347.602 0 328.247 19.3555 328.247 43.2317C328.247 67.1079 347.602 86.4634 371.477 86.4634Z" fill="#F0F0F0"/>
<path d="M714.771 291.602C738.646 291.602 758 272.247 758 248.37C758 224.494 738.646 205.139 714.771 205.139C690.896 205.139 671.541 224.494 671.541 248.37C671.541 272.247 690.896 291.602 714.771 291.602Z" fill="#F0F0F0"/>
<path d="M449.459 47.9463V145.977C449.46 148.013 448.657 149.968 447.224 151.415C445.792 152.862 443.847 153.686 441.811 153.707C441.783 153.71 441.754 153.712 441.726 153.711H430.317C421.188 153.711 412.434 150.084 405.979 143.629C399.524 137.174 395.897 128.419 395.897 119.29V47.9463C395.897 45.8952 396.712 43.9281 398.163 42.4777C399.613 41.0274 401.58 40.2126 403.631 40.2126H408.254C406.112 46.4605 435.179 49.091 436.775 40.2126H441.726C443.777 40.2126 445.744 41.0274 447.194 42.4778C448.645 43.9281 449.459 45.8952 449.459 47.9463Z" fill="#F6821F"/>
<path d="M415.603 32.8822C415.603 32.6135 415.71 32.3559 415.9 32.1658C416.09 31.9758 416.347 31.869 416.616 31.8686H423.508C423.776 31.8694 424.033 31.9765 424.222 32.1665C424.412 32.3565 424.518 32.6139 424.518 32.8822C424.518 33.1505 424.412 33.4078 424.222 33.5978C424.033 33.7878 423.776 33.8949 423.508 33.8957H416.616C416.347 33.8954 416.09 33.7885 415.9 33.5985C415.71 33.4085 415.603 33.1509 415.603 32.8822Z" fill="#3F3D56"/>
<path d="M444.094 166.145H400.512C397.131 166.142 393.889 164.797 391.498 162.406C389.107 160.015 387.762 156.773 387.758 153.391V84.8637C387.519 84.6918 387.324 84.4653 387.19 84.2031C387.055 83.9409 386.986 83.6504 386.986 83.3558V76.4638C386.986 76.1693 387.055 75.8788 387.19 75.6167C387.324 75.3545 387.519 75.1282 387.758 74.9564V73.1066C387.519 72.9349 387.324 72.7085 387.19 72.4463C387.055 72.1842 386.986 71.8938 386.986 71.5992V64.7068C386.986 64.4123 387.055 64.1218 387.19 63.8597C387.324 63.5975 387.519 63.3711 387.758 63.1994V59.8563C387.463 59.6975 387.216 59.4615 387.044 59.1734C386.873 58.8853 386.782 58.5559 386.783 58.2205V51.3285C386.782 50.9931 386.872 50.6636 387.044 50.3754C387.216 50.0873 387.463 49.8511 387.758 49.6923V40.5318C387.762 37.1503 389.107 33.9085 391.498 31.5175C393.889 29.1264 397.131 27.7815 400.512 27.7777H444.094C447.476 27.7815 450.717 29.1265 453.108 31.5175C455.499 33.9085 456.844 37.1504 456.848 40.5318V60.4999C457.078 60.6436 457.267 60.8433 457.398 61.0802C457.53 61.3172 457.599 61.5836 457.599 61.8546V74.9961C457.599 75.2671 457.53 75.5336 457.398 75.7706C457.267 76.0077 457.078 76.2075 456.848 76.3512V153.391C456.844 156.773 455.499 160.014 453.108 162.406C450.717 164.797 447.476 166.142 444.094 166.145ZM400.512 29.4731C397.58 29.4763 394.77 30.6425 392.696 32.7157C390.623 34.7889 389.457 37.5998 389.454 40.5318V51.1344L388.638 51.1659C388.596 51.1674 388.556 51.1851 388.526 51.2154C388.496 51.2457 388.479 51.2862 388.478 51.3286V58.2204C388.479 58.2628 388.496 58.3033 388.526 58.3335C388.556 58.3637 388.596 58.3815 388.638 58.3831L389.454 58.4142V64.3897L388.809 64.5487C388.773 64.5573 388.741 64.5775 388.718 64.6061C388.695 64.6347 388.682 64.6701 388.681 64.7068V71.5992C388.682 71.6359 388.695 71.6713 388.718 71.6999C388.741 71.7285 388.773 71.7487 388.809 71.7573L389.454 71.9162V76.1467L388.809 76.3057C388.773 76.3143 388.741 76.3345 388.718 76.3631C388.695 76.3917 388.682 76.4271 388.681 76.4638V83.3558C388.682 83.3926 388.695 83.428 388.718 83.4567C388.741 83.4854 388.773 83.5056 388.809 83.5143L389.454 83.6732V153.391C389.457 156.323 390.623 159.134 392.696 161.207C394.77 163.281 397.58 164.447 400.512 164.45H444.094C447.026 164.447 449.837 163.28 451.91 161.207C453.983 159.134 455.149 156.323 455.153 153.391V74.8997H455.903V61.9515H455.153V40.5318C455.149 37.5998 453.983 34.789 451.91 32.7158C449.837 30.6426 447.026 29.4764 444.094 29.473L400.512 29.4731Z" fill="#3F3D56"/>
<path d="M427.359 33.8957C427.919 33.8957 428.373 33.4419 428.373 32.8822C428.373 32.3224 427.919 31.8686 427.359 31.8686C426.799 31.8686 426.346 32.3224 426.346 32.8822C426.346 33.4419 426.799 33.8957 427.359 33.8957Z" fill="#3F3D56"/>
<path d="M206.892 229.215H93.4886C91.8782 229.211 90.3349 228.57 89.196 227.431C88.0572 226.292 87.4155 224.749 87.4111 223.138V167.879C87.4153 166.268 88.0568 164.725 89.1955 163.586C90.3342 162.447 91.8774 161.805 93.4878 161.801H206.891C208.501 161.805 210.045 162.447 211.183 163.585C212.322 164.724 212.964 166.267 212.968 167.878V223.137C212.964 224.748 212.323 226.291 211.184 227.43C210.045 228.569 208.502 229.211 206.892 229.215Z" fill="white"/>
<path d="M206.892 229.215H93.4886C91.8782 229.211 90.3349 228.57 89.196 227.431C88.0572 226.292 87.4155 224.749 87.4111 223.138V167.879C87.4153 166.268 88.0568 164.725 89.1955 163.586C90.3342 162.447 91.8774 161.805 93.4878 161.801H206.891C208.501 161.805 210.045 162.447 211.183 163.585C212.322 164.724 212.964 166.267 212.968 167.878V223.137C212.964 224.748 212.323 226.291 211.184 227.43C210.045 228.569 208.502 229.211 206.892 229.215ZM93.4886 163.496C92.3273 163.5 91.2145 163.963 90.3934 164.784C89.5723 165.605 89.1096 166.718 89.1064 167.88V223.137C89.1098 224.299 89.5727 225.412 90.3939 226.233C91.2152 227.054 92.3281 227.517 93.4895 227.52H206.89C208.052 227.517 209.165 227.054 209.986 226.232C210.807 225.411 211.27 224.298 211.273 223.137V167.879C211.27 166.717 210.807 165.605 209.986 164.783C209.164 163.962 208.051 163.5 206.89 163.496L93.4886 163.496Z" fill="#3F3D56"/>
<path d="M156.268 221.049C133.903 221.049 110.582 220.835 101.88 220.696C100.735 220.673 99.6451 220.203 98.8422 219.386C98.0393 218.57 97.5874 217.472 97.583 216.326V170.584C97.5834 170.174 97.7463 169.781 98.0359 169.491C98.3254 169.2 98.7182 169.036 99.1283 169.035H201.248C201.658 169.036 202.051 169.198 202.341 169.488C202.632 169.777 202.795 170.17 202.797 170.58V201.615C202.778 206.681 200.774 211.538 197.215 215.144C193.657 218.749 188.827 220.817 183.762 220.902C175.652 221.008 166.049 221.049 156.268 221.049Z" fill="#F6821F"/>
<path d="M195.186 198.764H102.913C102.14 198.762 101.387 198.522 100.755 198.077C100.124 197.632 99.6446 197.003 99.383 196.276L88.939 166.974C88.7377 166.409 88.675 165.804 88.7561 165.21C88.8372 164.615 89.0597 164.049 89.405 163.558C89.7503 163.068 90.2082 162.667 90.7404 162.391C91.2725 162.114 91.8634 161.969 92.4632 161.967L207.803 161.807C208.352 161.806 208.893 161.926 209.39 162.157C209.887 162.389 210.328 162.727 210.68 163.147C211.032 163.567 211.288 164.059 211.43 164.589C211.571 165.119 211.595 165.673 211.499 166.213L211.587 166.25L211.256 167.023L211.253 167.031L198.628 196.493C198.34 197.167 197.86 197.742 197.248 198.146C196.636 198.55 195.919 198.765 195.186 198.764ZM207.809 163.502L92.4665 163.663C92.1379 163.663 91.8142 163.743 91.5227 163.894C91.2312 164.046 90.9803 164.265 90.7911 164.534C90.6019 164.803 90.48 165.113 90.4356 165.439C90.3911 165.764 90.4255 166.096 90.5357 166.405L100.979 195.705C101.123 196.104 101.386 196.448 101.732 196.692C102.078 196.936 102.49 197.067 102.914 197.069H195.186C195.587 197.069 195.98 196.951 196.315 196.73C196.649 196.509 196.912 196.194 197.069 195.825L209.695 166.363C209.829 166.051 209.883 165.71 209.853 165.372C209.823 165.034 209.709 164.708 209.522 164.425C209.335 164.141 209.081 163.908 208.782 163.747C208.483 163.586 208.148 163.502 207.809 163.502Z" fill="#3F3D56"/>
<path d="M150.017 205.142C154.008 205.142 157.243 201.907 157.243 197.917C157.243 193.926 154.008 190.691 150.017 190.691C146.027 190.691 142.792 193.926 142.792 197.917C142.792 201.907 146.027 205.142 150.017 205.142Z" fill="white"/>
<path d="M422.958 142.414C426.948 142.414 430.183 139.179 430.183 135.188C430.183 131.198 426.948 127.963 422.958 127.963C418.967 127.963 415.732 131.198 415.732 135.188C415.732 139.179 418.967 142.414 422.958 142.414Z" fill="white"/>
<path d="M696.233 239.995L676.932 220.939C675.993 220.004 674.878 219.264 673.652 218.761C672.425 218.257 671.112 218.001 669.787 218.006H669.719C668.383 218.01 667.062 218.279 665.831 218.797C664.6 219.315 663.484 220.072 662.548 221.024C658.232 225.392 655.778 231.263 655.7 237.402C655.623 243.542 657.928 249.473 662.132 253.948C662.336 254.168 662.548 254.38 662.76 254.592C663.933 255.759 665.229 256.796 666.625 257.686C670.44 260.152 674.89 261.456 679.433 261.442H679.577C682.695 261.431 685.78 260.802 688.653 259.592C691.527 258.381 694.132 256.613 696.318 254.389C698.212 252.467 699.266 249.873 699.25 247.175C699.235 244.476 698.149 241.895 696.233 239.995ZM695.114 253.194C691.531 256.804 686.812 259.068 681.754 259.606C676.696 260.143 671.607 258.92 667.345 256.144C666.126 255.337 664.988 254.414 663.946 253.389C659.788 249.281 657.431 243.69 657.394 237.844C657.358 231.999 659.644 226.379 663.751 222.219C664.532 221.424 665.463 220.791 666.491 220.359C667.518 219.927 668.621 219.704 669.736 219.702H669.787C670.89 219.698 671.984 219.912 673.005 220.33C674.026 220.749 674.954 221.365 675.737 222.143L695.038 241.207C696.635 242.788 697.541 244.937 697.555 247.185C697.569 249.432 696.692 251.593 695.114 253.194Z" fill="#3F3D56"/>
<path d="M632.906 177.453L613.605 158.389C611.705 156.504 609.136 155.449 606.46 155.456H606.4C605.063 155.461 603.74 155.732 602.508 156.251C601.276 156.77 600.158 157.529 599.221 158.482C595.653 162.106 593.34 166.777 592.62 171.811C591.9 176.845 592.811 181.977 595.22 186.456L595.228 186.464C596.222 188.296 597.456 189.987 598.899 191.491C599.06 191.677 599.246 191.864 599.433 192.05C603.865 196.45 609.861 198.913 616.106 198.9H616.258C619.377 198.887 622.462 198.256 625.335 197.044C628.208 195.832 630.813 194.063 632.999 191.838C633.938 190.888 634.68 189.762 635.183 188.524C635.686 187.287 635.941 185.962 635.932 184.627C635.923 183.291 635.652 181.97 635.132 180.739C634.613 179.508 633.857 178.392 632.906 177.453ZM631.787 190.652C629.758 192.716 627.34 194.358 624.674 195.482C622.007 196.607 619.144 197.192 616.25 197.204H616.106C611.759 197.203 607.51 195.916 603.893 193.506C600.276 191.095 597.453 187.669 595.778 183.658C594.103 179.648 593.651 175.231 594.479 170.964C595.307 166.697 597.379 162.77 600.433 159.678C602.013 158.08 604.163 157.174 606.41 157.16C608.657 157.146 610.818 158.024 612.418 159.601L631.719 178.657C633.316 180.24 634.22 182.392 634.232 184.64C634.245 186.889 633.366 189.051 631.787 190.652Z" fill="#3F3D56"/>
<path d="M697.466 245.986L676.188 224.969C674.793 223.594 672.909 222.829 670.95 222.841C668.991 222.853 667.117 223.642 665.739 225.034C664.015 226.776 662.651 228.84 661.725 231.11C660.8 233.379 660.33 235.808 660.344 238.259C660.358 240.71 660.855 243.134 661.806 245.392C662.757 247.651 664.144 249.7 665.888 251.422C667.631 253.144 669.697 254.506 671.967 255.429C674.237 256.352 676.667 256.819 679.118 256.802C681.569 256.786 683.992 256.286 686.249 255.332C688.507 254.379 690.554 252.989 692.274 251.244L697.466 245.986Z" fill="#F6821F"/>
<path d="M634.143 183.441L612.865 162.424C611.469 161.049 609.586 160.283 607.627 160.296C605.668 160.308 603.794 161.097 602.415 162.489C600.691 164.231 599.328 166.295 598.402 168.564C597.476 170.834 597.007 173.263 597.021 175.714C597.035 178.164 597.531 180.588 598.483 182.847C599.434 185.106 600.821 187.155 602.564 188.877C604.308 190.599 606.374 191.96 608.644 192.884C610.914 193.807 613.344 194.273 615.795 194.257C618.245 194.24 620.669 193.741 622.926 192.787C625.183 191.833 627.231 190.444 628.951 188.698L634.143 183.441Z" fill="#F6821F"/>
<path d="M674.084 259.077L673.575 260.416C671.185 259.509 668.868 258.599 666.625 257.686C626.887 241.47 607.917 222.491 595.228 186.464L595.219 186.456C594.618 184.76 594.033 183.025 593.465 181.251L594.804 180.819C595.252 182.525 595.907 184.171 596.754 185.718C597.449 187.693 598.164 189.618 598.898 191.491C610.825 221.897 628.413 239.275 662.132 253.948C663.827 254.686 665.565 255.417 667.345 256.144C669.412 257.49 671.69 258.482 674.084 259.077Z" fill="#3F3D56"/>
<path d="M613.251 197.357L612.06 198.563L656.084 242.047L657.276 240.841L613.251 197.357Z" fill="#3F3D56"/>
<path d="M240.53 161.326L240.552 133.469L224.178 134.932L229.957 152.502L208.98 184.302C207.668 184.596 206.471 185.266 205.533 186.229C204.595 187.192 203.958 188.408 203.699 189.727C203.44 191.046 203.571 192.412 204.075 193.659C204.579 194.905 205.434 195.978 206.537 196.746C207.641 197.515 208.943 197.945 210.287 197.986C211.631 198.027 212.957 197.676 214.105 196.975C215.253 196.275 216.172 195.256 216.75 194.043C217.329 192.829 217.542 191.473 217.363 190.141L240.53 161.326Z" fill="#FFB6B6"/>
</g>
<defs>
<clipPath id="clip0_67_1065">
<rect width="758" height="380" fill="white"/>
</clipPath>
</defs>
</svg>
