<svg width="532" height="571" viewBox="0 0 532 571" fill="none" xmlns="http://www.w3.org/2000/svg">
<g clip-path="url(#clip0_70_1753)">
<path d="M328.096 203.271C330.097 201.315 332.548 199.879 335.233 199.089L354.91 177.675L365.286 187.604L344.197 208.264C343.301 210.899 341.761 213.27 339.719 215.164C334.671 219.982 327.981 221.219 324.774 217.93C321.567 214.642 323.038 208.082 328.077 203.278H328.095L328.096 203.271Z" fill="#ED9DA0"/>
<path d="M336.296 193.629L346.745 206.744L400.759 165.927L400.805 165.834L432.369 107.031C433.672 104.601 434.463 101.931 434.693 99.1849C434.922 96.4387 434.586 93.6746 433.703 91.0633C432.821 88.452 431.413 86.0488 429.564 84.0022C427.716 81.9555 425.466 80.3088 422.956 79.1635C420.445 78.0183 417.726 77.3989 414.966 77.3436C412.206 77.2883 409.464 77.7982 406.909 78.8419C404.354 79.8855 402.041 81.4408 400.112 83.4117C398.182 85.3827 396.678 87.7274 395.692 90.3013L375.213 143.814L336.295 193.61V193.629H336.296Z" fill="#F6821F"/>
<path d="M425.241 57.6175H403.222V92.4915L427.5 84.5276L425.241 57.6175Z" fill="#ED9DA0"/>
<path d="M382.041 43.1233C382.042 36.7196 384.591 30.5785 389.127 26.0508C393.663 21.5231 399.815 18.9798 406.229 18.9801C412.643 18.9805 418.795 21.5246 423.331 26.0528C427.866 30.5811 430.414 36.7225 430.414 43.1261C430.414 49.5298 427.866 55.6712 423.331 60.1994C418.795 64.7277 412.643 67.2718 406.229 67.2722C399.815 67.2725 393.663 64.7291 389.127 60.2015C384.591 55.6738 382.042 49.5327 382.041 43.129V43.1233Z" fill="#ED9DA0"/>
<path d="M423.337 58.5595L425.696 63.0308L436.111 43.2724C442.38 24.1029 420.483 13.093 420.483 13.093C413.334 4.69151 398.976 14.5203 398.976 14.5203C378.264 9.92565 388.265 27.3538 388.265 27.3538C388.265 27.3538 395.328 27.5094 395.328 33.2131C395.328 38.9169 403.025 38.5229 403.025 38.5229L409.056 49.0576L412.386 45.0167C424.768 39.7818 423.34 58.5602 423.34 58.5602L423.337 58.5595Z" fill="#090814"/>
<path d="M414.624 414.955H434.162V442.629H414.624V414.955Z" fill="#ED9DA0"/>
<path d="M395.598 459.378C404.172 459.378 416.692 458.483 416.788 458.474C420.135 458.773 436.857 460.086 437.688 456.267C438.127 453.7 437.948 451.066 437.165 448.583C435.551 432.626 434.954 432.44 434.597 432.338C434.025 432.17 432.367 432.959 429.67 434.693L429.502 434.805L429.465 435C429.419 435.243 428.224 441.102 422.561 440.207C418.679 439.592 417.424 438.735 417.019 438.316C417.436 438.134 417.792 437.837 418.046 437.46C418.26 437.084 418.39 436.666 418.427 436.234C418.464 435.803 418.407 435.369 418.26 434.962C417.472 432.628 416.467 430.374 415.258 428.227L415.005 427.78L392.804 442.737L379.089 446.649C378.579 446.792 378.109 447.048 377.713 447.398C377.317 447.748 377.005 448.183 376.801 448.67C376.518 449.345 376.452 450.091 376.612 450.805C376.773 451.52 377.152 452.166 377.697 452.656C380.187 454.892 385.143 458.718 390.329 459.195C391.71 459.326 393.539 459.372 395.591 459.372L395.598 459.378Z" fill="#090814"/>
<path d="M493.201 394.805L478.139 407.228L460.483 385.894L475.545 373.471L493.201 394.805Z" fill="#ED9DA0"/>
<path d="M474.199 432.208C480.805 426.75 489.883 418.096 489.948 418.031C492.719 416.141 506.444 406.509 504.644 403.034C503.348 400.773 501.527 398.856 499.335 397.445C487.905 386.165 487.336 386.411 486.991 386.556C486.44 386.79 485.668 388.447 484.695 391.502L484.64 391.688L484.733 391.865C484.864 392.09 487.681 397.37 482.746 400.276C479.36 402.27 477.848 402.409 477.269 402.346C477.476 401.938 477.56 401.479 477.512 401.025C477.436 400.599 477.269 400.195 477.023 399.84C476.776 399.485 476.455 399.187 476.083 398.967C473.984 397.671 471.769 396.573 469.466 395.688L468.991 395.502L461.434 421.154L453.363 432.9C453.064 433.336 452.867 433.834 452.786 434.356C452.705 434.879 452.743 435.412 452.896 435.918C453.11 436.619 453.537 437.235 454.116 437.684C454.696 438.133 455.4 438.391 456.133 438.423C459.473 438.566 465.735 438.358 470.035 435.426C471.174 434.641 472.609 433.517 474.197 432.214L474.199 432.208Z" fill="#090814"/>
<path d="M382.322 201.547L412.105 422.705H434.444L449.333 201.547H382.316H382.322Z" fill="#090814"/>
<path d="M440.021 322.349L484.498 379.961L465.464 395.657L389.133 323.18L382.313 201.547L395.963 213.73L440.021 322.349Z" fill="#090814"/>
<path d="M395.963 71.4501L382.314 201.55H449.331L454.528 159.326C457.729 133.249 452.401 106.837 439.338 84.0287L429.056 66.0889L395.962 71.4508L395.963 71.4501Z" fill="#F6821F"/>
<path d="M389.954 238.517C390.961 235.908 392.595 233.586 394.712 231.757L403.72 204.109L417.295 208.849L406.706 236.374C406.992 239.146 406.578 241.944 405.503 244.515C402.919 250.98 397.338 254.883 393.056 253.222C388.774 251.561 387.393 244.978 389.977 238.514H389.958L389.954 238.517Z" fill="#ED9DA0"/>
<path d="M393.435 226.287L408.391 233.888L440.571 174.374V174.272L444.852 107.701C445.026 104.95 444.634 102.193 443.7 99.5998C442.765 97.0064 441.309 94.6317 439.419 92.6222C437.53 90.6128 435.248 89.0112 432.714 87.9164C430.181 86.8216 427.45 86.2567 424.689 86.2567C421.928 86.2567 419.197 86.8216 416.663 87.9164C414.13 89.0112 411.848 90.6128 409.959 92.6222C408.069 94.6317 406.612 97.0064 405.678 99.5998C404.744 102.193 404.352 104.95 404.526 107.701L408.137 164.867L393.432 226.297L393.435 226.287Z" fill="#F6821F"/>
<path d="M191.286 105.434C175.035 105.392 158.935 108.55 143.909 114.729C128.883 120.908 115.225 129.986 103.719 141.443C92.2124 152.9 83.0833 166.51 76.8543 181.495C70.6254 196.48 67.4191 212.544 67.4191 228.768C67.4191 244.992 70.6254 261.057 76.8543 276.042C83.0833 291.026 92.2124 304.637 103.719 316.094C115.225 327.551 128.883 336.629 143.909 342.808C158.935 348.987 175.035 352.145 191.286 352.102C259.515 352.102 353.943 284.568 314.827 228.768C275.711 172.968 259.515 105.434 191.286 105.434Z" fill="#F2F2F2"/>
<path d="M25.9357 111.302C26.4684 111.303 26.9792 111.514 27.3559 111.89C27.7326 112.266 27.9444 112.776 27.9448 113.308V177.482C27.9339 178.007 27.7175 178.506 27.342 178.873C26.9665 179.241 26.4618 179.446 25.9361 179.446C25.4104 179.446 24.9057 179.241 24.5302 178.873C24.1546 178.506 23.9382 178.007 23.9273 177.482V113.308C23.9278 112.776 24.1395 112.267 24.516 111.891C24.8925 111.514 25.4031 111.303 25.9357 111.302Z" fill="#3F3D56"/>
<path d="M363.413 63.1713C363.946 63.1717 364.457 63.3832 364.833 63.7593C365.21 64.1353 365.422 64.6452 365.422 65.1771V81.2202C365.428 81.487 365.38 81.7523 365.282 82.0004C365.183 82.2486 365.036 82.4746 364.849 82.6653C364.662 82.8559 364.439 83.0074 364.192 83.1108C363.946 83.2142 363.681 83.2675 363.414 83.2675C363.146 83.2675 362.882 83.2142 362.635 83.1108C362.389 83.0074 362.165 82.8559 361.978 82.6653C361.791 82.4746 361.644 82.2486 361.546 82.0004C361.447 81.7523 361.399 81.487 361.405 81.2202V65.1762C361.406 64.6447 361.617 64.1351 361.994 63.7593C362.37 63.3834 362.881 63.1719 363.413 63.1713Z" fill="#3F3D56"/>
<path d="M363.413 91.3972C363.946 91.3976 364.457 91.6091 364.833 91.9852C365.21 92.3613 365.422 92.8712 365.422 93.403V124.487C365.428 124.754 365.38 125.019 365.282 125.267C365.183 125.516 365.036 125.742 364.849 125.932C364.662 126.123 364.439 126.274 364.192 126.378C363.946 126.481 363.681 126.534 363.414 126.534C363.146 126.534 362.882 126.481 362.635 126.378C362.389 126.274 362.165 126.123 361.978 125.932C361.791 125.742 361.644 125.516 361.546 125.267C361.447 125.019 361.399 124.754 361.405 124.487V93.4021C361.406 92.8706 361.617 92.361 361.994 91.9852C362.37 91.6093 362.881 91.3979 363.413 91.3972Z" fill="#3F3D56"/>
<path d="M363.414 134.514C363.946 134.515 364.457 134.726 364.834 135.102C365.211 135.479 365.422 135.988 365.423 136.52V167.604C365.412 168.129 365.196 168.629 364.82 168.996C364.444 169.363 363.94 169.569 363.414 169.569C362.888 169.569 362.384 169.363 362.008 168.996C361.633 168.629 361.416 168.129 361.405 167.604V136.519C361.406 135.988 361.618 135.478 361.994 135.102C362.371 134.727 362.881 134.515 363.414 134.514Z" fill="#3F3D56"/>
<path d="M183.251 0.000142491C183.784 0.000598025 184.295 0.212071 184.671 0.588136C185.048 0.964201 185.26 1.47412 185.26 2.00596V33.0892C185.249 33.6139 185.033 34.1134 184.657 34.4806C184.282 34.8478 183.777 35.0535 183.252 35.0535C182.726 35.0535 182.221 34.8478 181.846 34.4806C181.47 34.1134 181.254 33.6139 181.243 33.0892V2.0051C181.243 1.47326 181.455 0.963341 181.832 0.587276C182.208 0.211212 182.719 -0.000261629 183.252 -0.000717163L183.251 0.000142491Z" fill="#3F3D56"/>
<path d="M245.302 220.455H314.831V218.449H245.302C242.398 218.446 239.614 217.292 237.561 215.242C235.507 213.192 234.352 210.413 234.349 207.513V160.583H232.336V207.513C232.34 210.944 233.707 214.234 236.137 216.66C238.567 219.086 241.862 220.451 245.299 220.455H245.302Z" fill="#F6821F"/>
<path d="M112.643 322.186H270.771V324.192H112.643V322.186Z" fill="#F6821F"/>
<path d="M12.3146 207.046H96.7756C98.9671 207.043 101.068 206.173 102.618 204.626C104.167 203.079 105.039 200.981 105.042 198.793V115.501C105.039 113.314 104.167 111.216 102.618 109.669C101.068 108.122 98.9671 107.252 96.7756 107.249H12.3146C10.1231 107.252 8.02208 108.122 6.47247 109.669C4.92287 111.216 4.05119 113.314 4.04868 115.501V198.793C4.05096 200.981 4.92255 203.078 6.47218 204.625C8.02181 206.173 10.1229 207.043 12.3146 207.046Z" fill="#090814"/>
<path d="M81.0473 109.708C86.758 109.708 92.2349 111.972 96.2729 116.004C100.311 120.035 102.58 125.503 102.58 131.204V197.026C102.58 198.019 102.384 199.002 102.003 199.919C101.623 200.836 101.065 201.67 100.361 202.372C99.6582 203.074 98.8234 203.631 97.9046 204.011C96.9857 204.391 96.0009 204.586 95.0064 204.586H43.3607C33.5879 204.586 24.2154 200.711 17.305 193.812C10.3946 186.913 6.51237 177.556 6.51237 167.8V117.268C6.51237 116.275 6.70825 115.292 7.08884 114.375C7.46943 113.458 8.02726 112.624 8.73049 111.922C9.43372 111.22 10.2686 110.663 11.1874 110.283C12.1062 109.903 13.091 109.708 14.0855 109.708H81.0473Z" fill="white"/>
<path d="M31.9243 133.913H77.3435C77.5499 133.913 77.7543 133.873 77.9449 133.794C78.1356 133.715 78.3088 133.599 78.4548 133.454C78.6007 133.308 78.7164 133.135 78.7954 132.945C78.8744 132.754 78.915 132.55 78.915 132.344C78.915 132.138 78.8744 131.934 78.7954 131.744C78.7164 131.554 78.6007 131.381 78.4548 131.235C78.3088 131.089 78.1356 130.974 77.9449 130.895C77.7543 130.816 77.5499 130.776 77.3435 130.776H31.9243C31.5075 130.776 31.1078 130.941 30.8131 131.235C30.5184 131.529 30.3529 131.928 30.3529 132.344C30.3529 132.76 30.5184 133.16 30.8131 133.454C31.1078 133.748 31.5075 133.913 31.9243 133.913Z" fill="#D6D6E3"/>
<path d="M31.9243 167.367H77.3435C77.7603 167.367 78.16 167.202 78.4548 166.908C78.7495 166.613 78.915 166.214 78.915 165.798C78.915 165.382 78.7495 164.983 78.4548 164.689C78.16 164.395 77.7603 164.229 77.3435 164.229H31.9243C31.5075 164.229 31.1078 164.395 30.8131 164.689C30.5184 164.983 30.3529 165.382 30.3529 165.798C30.3529 166.214 30.5184 166.613 30.8131 166.908C31.1078 167.202 31.5075 167.367 31.9243 167.367Z" fill="#D6D6E3"/>
<path d="M13.4807 150.651H95.7879C96.2047 150.651 96.6044 150.486 96.8991 150.192C97.1938 149.898 97.3594 149.499 97.3594 149.082C97.3594 148.666 97.1938 148.267 96.8991 147.973C96.6044 147.679 96.2047 147.514 95.7879 147.514H13.4807C13.0639 147.514 12.6642 147.679 12.3695 147.973C12.0748 148.267 11.9092 148.666 11.9092 149.082C11.9092 149.499 12.0748 149.898 12.3695 150.192C12.6642 150.486 13.0639 150.651 13.4807 150.651Z" fill="#D6D6E3"/>
<path d="M12.6408 180.97H42.3743C42.7911 180.97 43.1908 180.805 43.4855 180.51C43.7803 180.216 43.9458 179.817 43.9458 179.401C43.9458 178.985 43.7803 178.586 43.4855 178.292C43.1908 177.997 42.7911 177.832 42.3743 177.832H12.6408C12.224 177.832 11.8243 177.997 11.5296 178.292C11.2349 178.586 11.0693 178.985 11.0693 179.401C11.0693 179.817 11.2349 180.216 11.5296 180.51C11.8243 180.805 12.224 180.97 12.6408 180.97Z" fill="#D6D6E3"/>
<path d="M189.725 372.999H256.793C258.533 372.997 260.202 372.306 261.432 371.078C262.663 369.849 263.355 368.183 263.357 366.446V300.307C263.355 298.57 262.663 296.904 261.432 295.675C260.202 294.447 258.533 293.756 256.793 293.754H189.725C187.984 293.756 186.316 294.447 185.085 295.675C183.855 296.904 183.162 298.57 183.161 300.307V366.447C183.162 368.184 183.855 369.85 185.085 371.079C186.316 372.307 187.984 372.998 189.725 373V372.999Z" fill="#090814"/>
<path d="M244.302 295.706C248.837 295.706 253.186 297.505 256.392 300.706C259.599 303.907 261.4 308.249 261.4 312.777V365.044C261.4 365.832 261.245 366.613 260.943 367.341C260.64 368.07 260.197 368.732 259.639 369.289C259.081 369.847 258.418 370.289 257.688 370.591C256.958 370.892 256.176 371.048 255.387 371.048H214.376C206.616 371.048 199.173 367.97 193.686 362.492C188.198 357.013 185.116 349.583 185.116 341.836V301.711C185.116 300.119 185.749 298.592 186.877 297.466C188.005 296.34 189.534 295.707 191.129 295.707H244.302V295.706Z" fill="white"/>
<path d="M205.295 314.926H241.361C241.692 314.926 242.01 314.795 242.244 314.561C242.479 314.327 242.61 314.01 242.61 313.679C242.61 313.348 242.479 313.031 242.244 312.797C242.01 312.563 241.692 312.432 241.361 312.432H205.295C204.964 312.432 204.646 312.563 204.412 312.797C204.177 313.031 204.046 313.348 204.046 313.679C204.046 314.01 204.177 314.327 204.412 314.561C204.646 314.795 204.964 314.926 205.295 314.926Z" fill="#D6D6E3"/>
<path d="M205.295 341.491H241.361C241.692 341.491 242.01 341.36 242.244 341.126C242.479 340.892 242.61 340.575 242.61 340.244C242.61 339.913 242.479 339.596 242.244 339.362C242.01 339.128 241.692 338.997 241.361 338.997H205.295C204.964 338.997 204.646 339.128 204.412 339.362C204.177 339.596 204.046 339.913 204.046 340.244C204.046 340.575 204.177 340.892 204.412 341.126C204.646 341.36 204.964 341.491 205.295 341.491Z" fill="#D6D6E3"/>
<path d="M190.649 328.218H256.007C256.338 328.218 256.656 328.087 256.89 327.853C257.124 327.619 257.256 327.302 257.256 326.971C257.256 326.64 257.124 326.323 256.89 326.089C256.656 325.855 256.338 325.724 256.007 325.724H190.649C190.318 325.724 190 325.855 189.766 326.089C189.531 326.323 189.4 326.64 189.4 326.971C189.4 327.302 189.531 327.619 189.766 327.853C190 328.087 190.318 328.218 190.649 328.218Z" fill="#D6D6E3"/>
<path d="M189.982 352.292H213.589C213.92 352.292 214.238 352.161 214.472 351.927C214.706 351.693 214.838 351.376 214.838 351.045C214.838 350.715 214.706 350.397 214.472 350.163C214.238 349.929 213.92 349.798 213.589 349.798H189.982C189.65 349.798 189.333 349.929 189.098 350.163C188.864 350.397 188.732 350.715 188.732 351.045C188.732 351.376 188.864 351.693 189.098 351.927C189.333 352.161 189.65 352.292 189.982 352.292Z" fill="#D6D6E3"/>
<path d="M236.599 160.078H286.199C287.486 160.077 288.719 159.566 289.629 158.657C290.539 157.749 291.051 156.517 291.053 155.232V106.32C291.051 105.035 290.539 103.803 289.629 102.895C288.719 101.986 287.486 101.475 286.199 101.474H236.599C235.312 101.475 234.079 101.986 233.169 102.895C232.259 103.803 231.747 105.035 231.745 106.32V155.232C231.747 156.517 232.259 157.749 233.169 158.657C234.079 159.566 235.312 160.077 236.599 160.078Z" fill="#090814"/>
<path d="M276.962 102.916C278.623 102.916 280.268 103.243 281.802 103.877C283.337 104.512 284.731 105.442 285.905 106.615C287.079 107.787 288.011 109.179 288.646 110.711C289.281 112.243 289.608 113.885 289.607 115.544V154.197C289.607 154.78 289.492 155.357 289.269 155.896C289.045 156.435 288.718 156.924 288.305 157.336C287.892 157.749 287.402 158.076 286.862 158.299C286.322 158.522 285.744 158.637 285.16 158.637H254.833C249.094 158.637 243.59 156.361 239.532 152.309C235.474 148.258 233.194 142.763 233.194 137.034V107.359C233.194 106.182 233.662 105.053 234.496 104.22C235.33 103.387 236.462 102.919 237.641 102.919H276.962V102.916Z" fill="white"/>
<path d="M248.116 117.13H274.788C275.033 117.13 275.268 117.033 275.441 116.861C275.614 116.688 275.711 116.454 275.711 116.209C275.711 115.965 275.614 115.731 275.441 115.558C275.268 115.385 275.033 115.288 274.788 115.288H248.116C247.871 115.288 247.636 115.385 247.463 115.558C247.29 115.731 247.193 115.965 247.193 116.209C247.193 116.454 247.29 116.688 247.463 116.861C247.636 117.033 247.871 117.13 248.116 117.13Z" fill="#D6D6E3"/>
<path d="M248.116 136.776H274.788C274.909 136.776 275.029 136.752 275.141 136.706C275.253 136.659 275.355 136.591 275.441 136.506C275.526 136.42 275.594 136.319 275.641 136.207C275.687 136.095 275.711 135.976 275.711 135.855C275.711 135.734 275.687 135.614 275.641 135.502C275.594 135.39 275.526 135.289 275.441 135.203C275.355 135.118 275.253 135.05 275.141 135.004C275.029 134.957 274.909 134.933 274.788 134.933H248.116C247.871 134.933 247.636 135.03 247.463 135.203C247.29 135.376 247.193 135.61 247.193 135.855C247.193 136.099 247.29 136.333 247.463 136.506C247.636 136.679 247.871 136.776 248.116 136.776Z" fill="#D6D6E3"/>
<path d="M237.283 126.958H285.617C285.862 126.958 286.097 126.861 286.27 126.688C286.443 126.516 286.54 126.281 286.54 126.037C286.54 125.793 286.443 125.558 286.27 125.386C286.097 125.213 285.862 125.116 285.617 125.116H237.283C237.039 125.116 236.804 125.213 236.631 125.386C236.458 125.558 236.361 125.793 236.361 126.037C236.361 126.281 236.458 126.516 236.631 126.688C236.804 126.861 237.039 126.958 237.283 126.958Z" fill="#D6D6E3"/>
<path d="M236.791 144.765H254.252C254.496 144.765 254.731 144.668 254.904 144.495C255.077 144.322 255.174 144.088 255.174 143.843C255.174 143.599 255.077 143.365 254.904 143.192C254.731 143.019 254.496 142.922 254.252 142.922H236.79C236.545 142.922 236.311 143.019 236.138 143.192C235.965 143.365 235.867 143.599 235.867 143.843C235.867 144.088 235.965 144.322 236.138 144.495C236.311 144.668 236.546 144.765 236.791 144.765Z" fill="#D6D6E3"/>
<path d="M102.648 216.576C94.8823 216.576 88.5867 210.291 88.5867 202.538C88.5867 194.785 94.8823 188.499 102.648 188.499C110.414 188.499 116.71 194.785 116.71 202.538C116.71 210.291 110.414 216.576 102.648 216.576Z" fill="#F6821F"/>
<path d="M233.469 170.612C227.922 170.612 223.425 166.123 223.425 160.585C223.425 155.047 227.922 150.558 233.469 150.558C239.016 150.558 243.513 155.047 243.513 160.585C243.513 166.123 239.016 170.612 233.469 170.612Z" fill="#F6821F"/>
<path d="M185.261 307.305C178.605 307.305 173.209 301.918 173.209 295.273C173.209 288.628 178.605 283.241 185.261 283.241C191.917 283.241 197.313 288.628 197.313 295.273C197.313 301.918 191.917 307.305 185.261 307.305Z" fill="#F6821F"/>
<path d="M163.565 29.9515C156.652 29.9515 151.048 24.4743 151.048 17.7179C151.048 10.9615 156.652 5.48433 163.565 5.48433C170.479 5.48433 176.083 10.9615 176.083 17.7179C176.083 24.4743 170.479 29.9515 163.565 29.9515Z" fill="#D6D6E3"/>
<path d="M63.2131 13.5334H130.593C131.705 13.5334 132.771 13.0924 133.557 12.3075C134.343 11.5226 134.785 10.458 134.785 9.348C134.785 8.23797 134.343 7.1734 133.557 6.38849C132.771 5.60358 131.705 5.16263 130.593 5.16263H63.2131C62.1012 5.16263 61.0349 5.60358 60.2486 6.38849C59.4624 7.1734 59.0207 8.23797 59.0207 9.348C59.0207 10.458 59.4624 11.5226 60.2486 12.3075C61.0349 13.0924 62.1012 13.5334 63.2131 13.5334Z" fill="#D6D6E3"/>
<path d="M10.6291 27.6988H130.593C131.705 27.6988 132.771 27.2578 133.557 26.4729C134.343 25.688 134.785 24.6235 134.785 23.5134C134.785 22.4034 134.343 21.3388 133.557 20.5539C132.771 19.769 131.705 19.328 130.593 19.328H10.6291C9.51724 19.328 8.45091 19.769 7.66469 20.5539C6.87846 21.3388 6.43675 22.4034 6.43675 23.5134C6.43675 24.6235 6.87846 25.688 7.66469 26.4729C8.45091 27.2578 9.51724 27.6988 10.6291 27.6988Z" fill="#D6D6E3"/>
<path d="M344.754 81.369C340.28 81.369 336.653 77.8242 336.653 73.4515C336.653 69.0788 340.28 65.534 344.754 65.534C349.228 65.534 352.855 69.0788 352.855 73.4515C352.855 77.8242 349.228 81.369 344.754 81.369Z" fill="#F6821F"/>
<path d="M279.808 70.7438H323.415C324.135 70.7438 324.826 70.4584 325.335 69.9502C325.843 69.4421 326.129 68.753 326.129 68.0344C326.129 67.3158 325.843 66.6267 325.335 66.1186C324.826 65.6105 324.135 65.325 323.415 65.325H279.808C279.088 65.325 278.398 65.6105 277.889 66.1186C277.38 66.6267 277.094 67.3158 277.094 68.0344C277.094 68.753 277.38 69.4421 277.889 69.9502C278.398 70.4584 279.088 70.7438 279.808 70.7438Z" fill="#F6821F"/>
<path d="M245.777 79.9102H323.415C324.135 79.9102 324.826 79.6247 325.335 79.1166C325.843 78.6085 326.129 77.9194 326.129 77.2008C326.129 76.4822 325.843 75.7931 325.335 75.285C324.826 74.7768 324.135 74.4914 323.415 74.4914H245.777C245.057 74.4914 244.367 74.7768 243.858 75.285C243.349 75.7931 243.063 76.4822 243.063 77.2008C243.063 77.9194 243.349 78.6085 243.858 79.1166C244.367 79.6247 245.057 79.9102 245.777 79.9102Z" fill="#F6821F"/>
<path d="M101.689 363.132C97.215 363.132 93.5879 359.587 93.5879 355.214C93.5879 350.842 97.215 347.297 101.689 347.297C106.163 347.297 109.791 350.842 109.791 355.214C109.791 359.587 106.163 363.132 101.689 363.132Z" fill="#F6821F"/>
<path d="M36.7427 352.507H80.35C81.0698 352.507 81.7601 352.221 82.2691 351.713C82.778 351.205 83.064 350.516 83.064 349.797C83.064 349.079 82.778 348.39 82.2691 347.881C81.7601 347.373 81.0698 347.088 80.35 347.088H36.7427C36.0229 347.088 35.3326 347.373 34.8237 347.881C34.3147 348.39 34.0288 349.079 34.0288 349.797C34.0288 350.516 34.3147 351.205 34.8237 351.713C35.3326 352.221 36.0229 352.507 36.7427 352.507Z" fill="#F6821F"/>
<path d="M2.71172 361.673H80.35C81.0698 361.673 81.7601 361.388 82.2691 360.879C82.778 360.371 83.064 359.682 83.064 358.964C83.064 358.245 82.778 357.556 82.2691 357.048C81.7601 356.54 81.0698 356.254 80.35 356.254H2.71172C1.99194 356.254 1.30164 356.54 0.792679 357.048C0.283722 357.556 -0.00223541 358.245 -0.00223541 358.964C-0.00223541 359.682 0.283722 360.371 0.792679 360.879C1.30164 361.388 1.99194 361.673 2.71172 361.673Z" fill="#F6821F"/>
<path d="M199.07 107.279H201.08V202.538H199.07V107.279Z" fill="#090814"/>
<path d="M200.075 208.555C196.746 208.555 194.048 205.861 194.048 202.538C194.048 199.216 196.746 196.522 200.075 196.522C203.403 196.522 206.102 199.216 206.102 202.538C206.102 205.861 203.403 208.555 200.075 208.555Z" fill="#090814"/>
<path d="M108.675 277.742C105.347 277.742 102.649 275.048 102.649 271.725C102.649 268.402 105.347 265.709 108.675 265.709C112.004 265.709 114.702 268.402 114.702 271.725C114.702 275.048 112.004 277.742 108.675 277.742Z" fill="#090814"/>
<path d="M271.387 195.52C268.059 195.52 265.361 192.826 265.361 189.503C265.361 186.18 268.059 183.487 271.387 183.487C274.716 183.487 277.414 186.18 277.414 189.503C277.414 192.826 274.716 195.52 271.387 195.52Z" fill="#090814"/>
<path d="M273.599 189.52L306.571 190.507L306.51 192.514L273.538 191.526L273.599 189.52Z" fill="#090814"/>
<path d="M59.6493 294.757H109.62V271.724H107.611V292.751H59.645L59.6493 294.757Z" fill="#090814"/>
<path d="M273.862 261.212C270.533 261.212 267.835 258.518 267.835 255.195C267.835 251.872 270.533 249.179 273.862 249.179C277.19 249.179 279.888 251.872 279.888 255.195C279.888 258.518 277.19 261.212 273.862 261.212Z" fill="#090814"/>
<path d="M225.43 278.227H275.4V255.195H273.391V276.222H225.425L225.43 278.227Z" fill="#090814"/>
<path d="M72.5174 232.303H312.55V234.309H72.5174V232.303Z" fill="#090814"/>
</g>
<defs>
<clipPath id="clip0_70_1753">
<rect width="532" height="571" fill="white" transform="matrix(-1 0 0 1 532 0)"/>
</clipPath>
</defs>
</svg>
