<svg width="348" height="252" viewBox="0 0 348 252" fill="none" xmlns="http://www.w3.org/2000/svg">
<g clip-path="url(#clip0_84_1824)">
<path d="M221.763 188.917V249.663H69.42C52.0626 249.663 37.9404 236.038 37.9404 219.29C37.9404 202.542 52.0626 188.917 69.42 188.917H221.763Z" fill="#F2F2F2"/>
<path d="M225.505 249.196C225.505 249.816 225.258 250.41 224.82 250.848C224.381 251.286 223.787 251.532 223.167 251.533H66.7068C58.2092 251.533 50.0596 248.16 44.0509 242.157C38.0422 236.155 34.6665 228.013 34.6665 219.524C34.6665 211.034 38.0422 202.893 44.0509 196.89C50.0596 190.887 58.2092 187.515 66.7068 187.515H223.167C223.787 187.515 224.382 187.761 224.82 188.199C225.259 188.637 225.505 189.231 225.505 189.851C225.505 190.471 225.259 191.065 224.82 191.503C224.382 191.941 223.787 192.187 223.167 192.187H66.7068C59.4497 192.187 52.4899 195.068 47.3583 200.194C42.2268 205.321 39.3439 212.274 39.3439 219.524C39.3439 226.774 42.2268 233.727 47.3583 238.853C52.4899 243.98 59.4497 246.86 66.7068 246.86H223.167C223.787 246.86 224.381 247.106 224.82 247.544C225.258 247.982 225.505 248.577 225.505 249.196Z" fill="#ED862D"/>
<path d="M221.763 202.935H58.0532C57.9291 202.935 57.8102 202.886 57.7225 202.798C57.6347 202.711 57.5854 202.592 57.5854 202.468C57.5854 202.344 57.6347 202.225 57.7225 202.137C57.8102 202.05 57.9291 202 58.0532 202H221.763C221.887 202 222.006 202.05 222.094 202.137C222.181 202.225 222.231 202.344 222.231 202.468C222.231 202.592 222.181 202.711 222.094 202.798C222.006 202.886 221.887 202.935 221.763 202.935Z" fill="#CCCCCC"/>
<path d="M221.763 214.15H58.0532C57.9291 214.15 57.8102 214.101 57.7225 214.013C57.6347 213.925 57.5854 213.807 57.5854 213.683C57.5854 213.559 57.6347 213.44 57.7225 213.352C57.8102 213.265 57.9291 213.215 58.0532 213.215H221.763C221.887 213.215 222.006 213.265 222.094 213.352C222.181 213.44 222.231 213.559 222.231 213.683C222.231 213.807 222.181 213.925 222.094 214.013C222.006 214.101 221.887 214.15 221.763 214.15Z" fill="#CCCCCC"/>
<path d="M221.763 225.365H58.0532C57.9291 225.365 57.8102 225.316 57.7225 225.228C57.6347 225.14 57.5854 225.021 57.5854 224.897C57.5854 224.774 57.6347 224.655 57.7225 224.567C57.8102 224.479 57.9291 224.43 58.0532 224.43H221.763C221.887 224.43 222.006 224.479 222.094 224.567C222.181 224.655 222.231 224.774 222.231 224.897C222.231 225.021 222.181 225.14 222.094 225.228C222.006 225.316 221.887 225.365 221.763 225.365Z" fill="#CCCCCC"/>
<path d="M221.763 236.58H58.0532C57.9291 236.58 57.8102 236.53 57.7225 236.443C57.6347 236.355 57.5854 236.236 57.5854 236.112C57.5854 235.988 57.6347 235.87 57.7225 235.782C57.8102 235.694 57.9291 235.645 58.0532 235.645H221.763C221.887 235.645 222.006 235.694 222.094 235.782C222.181 235.87 222.231 235.988 222.231 236.112C222.231 236.236 222.181 236.355 222.094 236.443C222.006 236.53 221.887 236.58 221.763 236.58Z" fill="#CCCCCC"/>
<path d="M339.502 200.351L301.351 247.654L182.724 152.164C169.208 141.284 166.769 121.822 177.287 108.781C187.805 95.7403 207.359 93.9819 220.875 104.862L339.502 200.351Z" fill="#F2F2F2"/>
<path d="M304.558 249.636C304.168 250.118 303.603 250.426 302.987 250.492C302.37 250.559 301.752 250.378 301.269 249.989L179.437 151.919C172.82 146.593 168.592 138.858 167.683 130.418C166.775 121.977 169.259 113.522 174.591 106.911C179.922 100.301 187.664 96.0768 196.113 95.1688C204.562 94.2608 213.026 96.7431 219.643 102.069L341.475 200.14C341.714 200.332 341.913 200.57 342.061 200.839C342.208 201.108 342.301 201.404 342.334 201.709C342.367 202.014 342.339 202.323 342.253 202.618C342.166 202.912 342.022 203.187 341.83 203.426C341.637 203.665 341.399 203.863 341.129 204.01C340.859 204.158 340.563 204.25 340.258 204.283C339.952 204.316 339.644 204.288 339.349 204.201C339.054 204.115 338.779 203.971 338.54 203.778L216.708 105.708C213.91 103.454 210.695 101.773 207.247 100.76C203.798 99.748 200.184 99.4242 196.61 99.8075C193.037 100.191 189.573 101.274 186.419 102.995C183.264 104.715 180.48 107.04 178.225 109.836C175.97 112.632 174.288 115.845 173.276 119.29C172.264 122.736 171.941 126.347 172.326 129.917C172.711 133.487 173.797 136.946 175.52 140.097C177.244 143.248 179.572 146.029 182.372 148.28L304.204 246.35C304.687 246.739 304.995 247.304 305.062 247.92C305.128 248.536 304.947 249.153 304.558 249.636Z" fill="#CCCCCC"/>
<path d="M330.698 211.267L203.22 108.653C203.172 108.614 203.133 108.567 203.103 108.513C203.074 108.459 203.055 108.4 203.049 108.339C203.042 108.278 203.048 108.216 203.065 108.157C203.082 108.099 203.111 108.044 203.149 107.996C203.188 107.948 203.236 107.908 203.289 107.879C203.343 107.85 203.403 107.831 203.464 107.824C203.525 107.818 203.586 107.823 203.645 107.841C203.704 107.858 203.759 107.887 203.807 107.925L331.285 210.54C331.333 210.578 331.372 210.626 331.402 210.68C331.431 210.733 331.45 210.793 331.457 210.854C331.463 210.915 331.458 210.976 331.44 211.035C331.423 211.094 331.394 211.149 331.356 211.197C331.317 211.245 331.27 211.285 331.216 211.314C331.162 211.343 331.102 211.362 331.041 211.369C330.98 211.375 330.918 211.369 330.859 211.352C330.8 211.335 330.746 211.306 330.698 211.267Z" fill="#CCCCCC"/>
<path d="M323.654 220L196.177 117.386C196.08 117.308 196.019 117.195 196.006 117.072C195.992 116.949 196.029 116.825 196.106 116.729C196.184 116.633 196.297 116.571 196.42 116.558C196.544 116.544 196.667 116.58 196.764 116.658L324.241 219.272C324.289 219.311 324.329 219.358 324.358 219.412C324.388 219.466 324.407 219.525 324.413 219.586C324.42 219.647 324.414 219.709 324.397 219.768C324.38 219.827 324.351 219.882 324.312 219.93C324.274 219.978 324.226 220.017 324.172 220.047C324.118 220.076 324.059 220.095 323.998 220.101C323.937 220.108 323.875 220.102 323.816 220.085C323.757 220.068 323.702 220.039 323.654 220Z" fill="#CCCCCC"/>
<path d="M316.611 228.733L189.134 126.119C189.037 126.041 188.975 125.928 188.962 125.805C188.949 125.681 188.985 125.558 189.063 125.461C189.141 125.365 189.254 125.303 189.377 125.29C189.501 125.277 189.624 125.313 189.721 125.391L317.198 228.005C317.246 228.044 317.286 228.091 317.315 228.145C317.345 228.199 317.363 228.258 317.37 228.319C317.376 228.38 317.371 228.442 317.354 228.501C317.336 228.56 317.307 228.614 317.269 228.662C317.23 228.71 317.183 228.75 317.129 228.779C317.075 228.809 317.016 228.827 316.955 228.834C316.894 228.84 316.832 228.835 316.773 228.817C316.714 228.8 316.659 228.771 316.611 228.733Z" fill="#CCCCCC"/>
<path d="M309.568 237.466L182.09 134.851C182.042 134.813 182.003 134.765 181.973 134.712C181.944 134.658 181.925 134.599 181.919 134.538C181.912 134.477 181.918 134.415 181.935 134.356C181.952 134.297 181.981 134.242 182.02 134.194C182.058 134.147 182.106 134.107 182.16 134.077C182.213 134.048 182.273 134.03 182.334 134.023C182.395 134.016 182.457 134.022 182.516 134.039C182.574 134.056 182.629 134.085 182.677 134.124L310.155 236.738C310.203 236.777 310.243 236.824 310.272 236.878C310.302 236.932 310.32 236.991 310.327 237.052C310.333 237.113 310.328 237.175 310.311 237.234C310.293 237.293 310.265 237.348 310.226 237.396C310.187 237.443 310.14 237.483 310.086 237.513C310.032 237.542 309.973 237.56 309.911 237.567C309.85 237.574 309.789 237.568 309.73 237.551C309.671 237.533 309.616 237.504 309.568 237.466Z" fill="#CCCCCC"/>
<path d="M347.532 252H0.467742C0.343689 252 0.224717 251.951 0.136998 251.863C0.0492795 251.775 0 251.657 0 251.533C0 251.409 0.0492795 251.29 0.136998 251.202C0.224717 251.115 0.343689 251.065 0.467742 251.065H347.532C347.656 251.065 347.775 251.115 347.863 251.202C347.951 251.29 348 251.409 348 251.533C348 251.657 347.951 251.775 347.863 251.863C347.775 251.951 347.656 252 347.532 252Z" fill="#CCCCCC"/>
<path d="M158.134 182.532L152.787 182.531L150.244 161.926L158.136 161.927L158.134 182.532Z" fill="#FFB8B8"/>
<path d="M148.968 181.005H159.28V187.492H142.475C142.475 186.64 142.643 185.796 142.969 185.009C143.295 184.222 143.773 183.507 144.376 182.905C144.979 182.302 145.695 181.825 146.483 181.499C147.271 181.173 148.115 181.005 148.968 181.005Z" fill="#2F2E41"/>
<path d="M103.505 182.532L98.1574 182.531L95.6143 161.926L103.506 161.927L103.505 182.532Z" fill="#FFB8B8"/>
<path d="M94.3379 181.005H104.651V187.492H87.8447C87.8447 186.64 88.0127 185.796 88.339 185.009C88.6653 184.222 89.1436 183.507 89.7465 182.905C90.3495 182.302 91.0653 181.825 91.8531 181.499C92.6409 181.173 93.4852 181.005 94.3379 181.005Z" fill="#2F2E41"/>
<path d="M121.365 29.6881V27.3517C121.365 23.3549 122.955 19.5218 125.783 16.6956C128.612 13.8695 132.449 12.2817 136.45 12.2817C140.451 12.2817 144.287 13.8695 147.116 16.6956C149.945 19.5218 151.535 23.3549 151.535 27.3517V29.6881C151.535 32.5695 150.389 35.3329 148.349 37.3704C146.31 39.4079 143.544 40.5525 140.66 40.5525H132.24C130.812 40.5525 129.398 40.2715 128.079 39.7255C126.759 39.1795 125.56 38.3792 124.55 37.3704C123.541 36.3615 122.74 35.1639 122.193 33.8457C121.647 32.5276 121.365 31.1148 121.365 29.6881Z" fill="#2F2E41"/>
<path d="M136.45 41.3563C142.795 41.3563 147.938 36.2179 147.938 29.8793C147.938 23.5408 142.795 18.4023 136.45 18.4023C130.105 18.4023 124.962 23.5408 124.962 29.8793C124.962 36.2179 130.105 41.3563 136.45 41.3563Z" fill="#FFB8B8"/>
<path d="M73.9616 69.3243C74.4278 68.8845 74.9849 68.5522 75.5936 68.3507C76.2022 68.1493 76.8477 68.0836 77.4845 68.1583C78.1214 68.2331 78.734 68.4464 79.2794 68.7833C79.8248 69.1201 80.2896 69.5724 80.6411 70.1081L90.4892 68.2471L93.0809 73.9501L79.1365 76.3831C78.1965 76.9133 77.0944 77.0807 76.0391 76.8534C74.9838 76.6261 74.0486 76.02 73.4107 75.15C72.7728 74.2799 72.4766 73.2062 72.5782 72.1325C72.6797 71.0588 73.1719 70.0596 73.9616 69.3243Z" fill="#FFB8B8"/>
<path d="M127.622 48.7791L111.473 59.4072L84.2233 68.1002C83.8621 68.2161 83.5522 68.4536 83.3465 68.7721C83.1408 69.0906 83.052 69.4704 83.0951 69.847L83.6896 74.9622C83.7159 75.1886 83.7894 75.407 83.9051 75.6034C84.0209 75.7998 84.1765 75.9698 84.3619 76.1026C84.5474 76.2354 84.7585 76.328 84.9818 76.3745C85.2052 76.421 85.4358 76.4204 85.6589 76.3727L111.305 70.8808C112.546 70.6166 113.72 70.1004 114.753 69.3643L132.896 56.4686C133.553 55.9986 134.078 55.3665 134.419 54.6339C134.76 53.9012 134.905 53.093 134.841 52.2876C134.774 51.4812 134.499 50.706 134.041 50.0382C133.584 49.3704 132.96 48.8331 132.232 48.4791C131.504 48.125 130.696 47.9665 129.887 48.0191C129.079 48.0717 128.299 48.3336 127.622 48.7791Z" fill="#CCCCCC"/>
<path d="M152.883 176.684C152.472 176.684 152.071 176.565 151.727 176.341C151.383 176.117 151.113 175.798 150.948 175.422L126.433 114.908C126.376 114.777 126.28 114.666 126.158 114.591C126.036 114.516 125.894 114.48 125.751 114.488C125.608 114.497 125.47 114.548 125.357 114.636C125.245 114.725 125.162 114.845 125.119 114.982L105.12 173.895C105.035 174.169 104.896 174.423 104.709 174.641C104.523 174.859 104.294 175.037 104.036 175.164C103.778 175.29 103.498 175.363 103.211 175.377C102.924 175.391 102.637 175.346 102.369 175.245L95.6619 172.733C95.2979 172.598 94.9785 172.364 94.7393 172.059C94.5001 171.753 94.3504 171.387 94.3069 171.002C91.2897 144.744 117.6 78.4656 117.867 77.7993L117.94 77.6147L141.925 82.915L141.975 82.9694C151.544 93.3981 159.409 159.175 160.889 172.255C160.944 172.728 160.836 173.205 160.583 173.608C160.331 174.011 159.948 174.316 159.499 174.473L153.579 176.565C153.355 176.644 153.12 176.684 152.883 176.684Z" fill="#2F2E41"/>
<path d="M132.218 85.0484C126.407 85.0484 119.928 83.8909 117.934 79.1136L117.888 79.0038L117.95 78.9021C119.524 76.322 121.604 71.9206 120.486 71.0944C118.283 69.4674 117.215 66.7908 117.31 63.1387C117.516 55.2109 122.923 48.1722 130.765 45.6238C132.953 44.924 135.181 44.351 137.436 43.9077C139.08 43.5764 140.777 43.6128 142.405 44.0145C144.033 44.4162 145.552 45.1731 146.853 46.2309C148.17 47.2957 149.234 48.6386 149.97 50.1633C150.706 51.6879 151.094 53.3564 151.107 55.0489C151.19 63.5212 149.884 75.3212 143.197 83.4225C142.883 83.7984 142.447 84.0518 141.965 84.138C138.748 84.7194 135.487 85.024 132.218 85.0484Z" fill="#CCCCCC"/>
<path d="M130.056 84.7313C130.373 83.598 131.124 82.6351 132.147 82.052C133.169 81.4689 134.381 81.3127 135.519 81.6172C135.751 81.6821 135.978 81.7659 136.196 81.8678L143.674 75.0693L148.874 78.5694L138.181 88.023C137.698 88.8928 136.938 89.5762 136.021 89.9646C135.105 90.3529 134.084 90.4239 133.123 90.1663C132.563 90.0131 132.039 89.7506 131.581 89.3938C131.123 89.037 130.74 88.5931 130.455 88.0877C130.17 87.5823 129.988 87.0255 129.919 86.4494C129.851 85.8732 129.897 85.2893 130.056 84.7313Z" fill="#FFB8B8"/>
<path d="M142.489 84.8176C142.004 84.8179 141.534 84.6502 141.158 84.3432L138.209 81.9358C137.964 81.7351 137.766 81.4815 137.633 81.1939C137.499 80.9063 137.432 80.5922 137.437 80.2751C137.442 79.958 137.518 79.6461 137.661 79.3628C137.804 79.0795 138.009 78.832 138.26 78.639L150.628 69.1626C150.775 69.0497 150.871 68.8837 150.896 68.7004C150.921 68.5172 150.872 68.3315 150.761 68.1838L143.127 58.1016C142.24 56.9341 141.795 55.4908 141.871 54.0271C141.947 52.5635 142.539 51.1739 143.542 50.1043C144.599 48.9646 146.045 48.2632 147.595 48.1393C149.145 48.0155 150.685 48.4783 151.909 49.4358L151.957 49.4867L159.929 60.8895C160.791 61.5647 161.485 62.4298 161.957 63.4173C162.429 64.4048 162.666 65.4879 162.649 66.582C162.633 67.6762 162.364 68.7517 161.863 69.7247C161.362 70.6977 160.642 71.5418 159.76 72.1911L143.742 84.4053C143.379 84.673 142.94 84.8176 142.489 84.8176Z" fill="#CCCCCC"/>
<path d="M126.274 26.6507V20.9563L136.45 16.5171L146.153 20.9563V26.6507C146.153 26.8986 146.054 27.1363 145.879 27.3115C145.704 27.4868 145.466 27.5853 145.217 27.5853H127.209C126.961 27.5853 126.723 27.4868 126.548 27.3115C126.372 27.1363 126.274 26.8986 126.274 26.6507Z" fill="#2F2E41"/>
<path d="M135.983 13.0371C134.487 8.25276 137.629 2.76973 142.274 0.875977C146.92 -1.01777 152.477 0.306016 156.397 3.43478C160.317 6.56354 162.749 11.2498 164.038 16.0941C165.326 20.9383 165.571 25.9897 165.809 30.9964C171.516 32.0438 175.399 38.8067 173.421 44.2572C171.444 49.7076 164.126 52.4154 159.072 49.5666C154.018 46.7178 152.554 39.0599 156.202 34.551C157.928 32.4175 158.892 29.7697 158.942 27.027C158.991 24.2843 158.123 21.6035 156.476 19.4091C154.828 17.2148 152.495 15.6323 149.845 14.9124C147.196 14.1924 144.381 14.3762 141.848 15.4345C139.035 16.6097 135.506 13.5563 135.983 13.0371Z" fill="#2F2E41"/>
<path d="M71.8516 47.2344C65.0182 47.1896 58.2702 45.7131 52.0436 42.9004C51.673 42.7353 51.3584 42.4662 51.1381 42.1257C50.9179 41.7852 50.8015 41.388 50.8032 40.9826V23.9651C50.8039 23.4076 51.0258 22.8731 51.4204 22.4789C51.815 22.0847 52.35 21.8629 52.9081 21.8623H90.7952C91.3532 21.8629 91.8882 22.0847 92.2828 22.4789C92.6774 22.8731 92.8994 23.4076 92.9 23.9651V40.9827C92.9017 41.3881 92.7854 41.7852 92.5651 42.1257C92.3449 42.4662 92.0303 42.7354 91.6596 42.9004C85.433 45.7131 78.685 47.1896 71.8516 47.2344Z" fill="#ED862D"/>
<path d="M71.8468 33.4481C71.5659 33.4484 71.2878 33.3925 71.0288 33.2838L40.9849 20.6206C40.5974 20.4573 40.2678 20.1818 40.0386 19.8297C39.8093 19.4775 39.6909 19.0648 39.6986 18.6448C39.7063 18.2248 39.8398 17.8167 40.0818 17.4732C40.3238 17.1296 40.6633 16.8664 41.0565 16.7174L71.1008 5.33072C71.5847 5.14648 72.1198 5.14761 72.6029 5.33391L102.245 16.7206C102.636 16.8708 102.973 17.1341 103.213 17.4768C103.453 17.8195 103.586 18.226 103.594 18.6444C103.601 19.0628 103.484 19.4739 103.257 19.8253C103.029 20.1766 102.702 20.4522 102.317 20.6167L72.6746 33.2797C72.4129 33.3911 72.1313 33.4484 71.8468 33.4481Z" fill="#ED862D"/>
<path d="M54.3113 44.0583C55.8613 44.0583 57.1178 42.8031 57.1178 41.2546C57.1178 39.7062 55.8613 38.4509 54.3113 38.4509C52.7614 38.4509 51.5049 39.7062 51.5049 41.2546C51.5049 42.8031 52.7614 44.0583 54.3113 44.0583Z" fill="#3F3D56"/>
<path opacity="0.2" d="M102.419 18.8192L72.7769 31.4823C72.5458 31.581 72.2972 31.6322 72.0458 31.6328C71.7945 31.6334 71.5456 31.5834 71.3141 31.4858L41.2701 18.8229C40.8928 18.6677 40.578 18.3913 40.3755 18.0374C40.243 18.2669 40.1609 18.5219 40.1347 18.7855C40.1084 19.0491 40.1386 19.3153 40.2232 19.5664C40.3078 19.8175 40.4449 20.0477 40.6254 20.2418C40.8059 20.4358 41.0257 20.5893 41.2701 20.6921L71.3141 33.3549C71.5456 33.4525 71.7945 33.5025 72.0458 33.5019C72.2972 33.5013 72.5458 33.4501 72.7769 33.3514L102.419 20.6884C102.662 20.5847 102.881 20.4308 103.06 20.2366C103.239 20.0424 103.375 19.8125 103.459 19.5619C103.543 19.3114 103.572 19.046 103.546 18.7832C103.519 18.5204 103.437 18.2662 103.305 18.0374C103.104 18.3884 102.793 18.6633 102.419 18.8192Z" fill="black"/>
<path d="M54.5473 41.2437C54.6714 41.2437 54.7904 41.1944 54.8781 41.1068C54.9658 41.0192 55.0151 40.9003 55.0151 40.7764V25.1404L70.4418 19.5259C70.5658 19.5277 70.6855 19.4803 70.7745 19.3939C70.8636 19.3076 70.9146 19.1895 70.9165 19.0656C70.9183 18.9416 70.8708 18.822 70.7844 18.7331C70.698 18.6442 70.5798 18.5932 70.4557 18.5913L55.029 24.2058C54.9049 24.2029 54.7814 24.2253 54.6662 24.2715C54.551 24.3177 54.4463 24.3868 54.3586 24.4746C54.2699 24.5613 54.1995 24.6649 54.1516 24.7793C54.1037 24.8936 54.0792 25.0164 54.0796 25.1404V40.7764C54.0796 40.9003 54.1289 41.0191 54.2166 41.1068C54.3043 41.1944 54.4233 41.2436 54.5473 41.2437Z" fill="#3F3D56"/>
</g>
<defs>
<clipPath id="clip0_84_1824">
<rect width="348" height="252" fill="white"/>
</clipPath>
</defs>
</svg>
