<svg width="369" height="191" viewBox="0 0 369 191" fill="none" xmlns="http://www.w3.org/2000/svg">
<g clip-path="url(#clip0_84_1759)">
<path d="M88.8014 187.757L79.7117 173.359L88.8056 189.325L88.8105 190.966C89.459 190.958 90.1009 190.933 90.7363 190.891L89.9949 169.817L90.0046 169.654L89.9879 169.623L89.9173 167.632L99.4214 151.852L89.9075 166.141L89.8791 166.562L89.319 150.64L97.4895 134.314L89.2551 147.842L88.8721 114.84L88.8704 114.73L88.8691 114.838L88.6825 140.858L80.8752 130.447L88.6895 143.1L88.7257 157.351L81.4816 143.587L88.7297 159.446L88.7497 167.371L78.2271 148.206L88.758 170.135L88.8014 187.757Z" fill="#E2E2E2"/>
<path d="M166.803 187.757L157.714 173.359L166.808 189.325L166.812 190.966C167.461 190.958 168.103 190.933 168.738 190.891L167.997 169.817L168.007 169.654L167.99 169.623L167.919 167.632L177.423 151.852L167.909 166.141L167.881 166.562L167.321 150.64L175.491 134.314L167.257 147.842L166.874 114.84L166.872 114.73L166.871 114.838L166.684 140.858L158.877 130.447L166.691 143.1L166.728 157.351L159.484 143.587L166.732 159.446L166.752 167.371L156.229 148.206L166.76 170.135L166.803 187.757Z" fill="#E2E2E2"/>
<path d="M10.7255 188.683L4.16189 178.287L10.7286 189.815L10.7321 191C11.2003 190.995 11.6639 190.977 12.1227 190.946L11.5873 175.729L11.5944 175.611L11.5823 175.589L11.5313 174.151L18.3942 162.756L11.5243 173.074L11.5037 173.378L11.0993 161.881L16.9992 150.092L11.0532 159.861L10.7766 136.03L10.7753 135.951L10.7744 136.029L10.6397 154.818L5.00209 147.3L10.6447 156.436L10.6709 166.727L5.43998 156.788L10.6738 168.24L10.6883 173.962L3.08984 160.124L10.6942 175.958L10.7255 188.683Z" fill="#E2E2E2"/>
<path d="M356.511 187.757L347.421 173.359L356.515 189.325L356.52 190.966C357.168 190.958 357.81 190.933 358.446 190.891L357.704 169.817L357.714 169.654L357.697 169.623L357.627 167.632L367.131 151.852L357.617 166.141L357.589 166.562L357.028 150.64L365.199 134.314L356.965 147.842L356.582 114.84L356.58 114.73L356.579 114.838L356.392 140.858L348.585 130.447L356.399 143.1L356.435 157.351L349.191 143.587L356.439 159.446L356.459 167.371L345.937 148.206L356.468 170.135L356.511 187.757Z" fill="#E2E2E2"/>
<path d="M109.999 166.02H159.033V163.946H109.999V166.02Z" fill="#ED862D"/>
<path d="M107.506 163.946H156.54V161.873H107.506V163.946Z" fill="#ED862D"/>
<path d="M110.415 161.873H159.449V159.799H110.415V161.873Z" fill="#ED862D"/>
<path d="M115.401 159.799H164.435V157.725H115.401V159.799Z" fill="#ED862D"/>
<path d="M73.6808 160.625H75.3833V148.561H73.6808V160.625Z" fill="#3F3D56"/>
<path d="M73.6771 148.408L74.3174 149.983L137.317 124.461L136.677 122.887L73.6771 148.408Z" fill="#3F3D56"/>
<path d="M42.1852 178.637H56.9966V172.86H42.1852V178.637Z" fill="#3F3D56"/>
<path d="M43.5471 184.414H116.583V177.957H43.5471V184.414Z" fill="#3F3D56"/>
<path d="M55.5493 181.186H73.0847V159.181H59.9757L55.5493 170.279V181.186Z" fill="#E2E2E2"/>
<path d="M62.87 168.017H70.3608V160.54H62.87V168.017Z" fill="white"/>
<path d="M57.252 168.102H62.019V160.625H59.9758L57.252 168.102Z" fill="white"/>
<path d="M68.3181 175.493H70.0205V172.265H68.3181V175.493Z" fill="#3F3D56"/>
<path d="M60.5718 168.612H60.4867C60.0577 168.612 59.6463 168.441 59.343 168.139C59.0397 167.836 58.8693 167.425 58.8693 166.997C58.8693 166.569 59.0397 166.159 59.343 165.856C59.6463 165.553 60.0577 165.383 60.4867 165.383H60.5718V168.612Z" fill="#3F3D56"/>
<path d="M123.903 181.186H123.818C123.389 181.186 122.978 181.015 122.675 180.713C122.371 180.41 122.201 179.999 122.201 179.571C122.201 179.143 122.371 178.733 122.675 178.43C122.978 178.127 123.389 177.957 123.818 177.957H123.903V181.186Z" fill="#3F3D56"/>
<path d="M48.7395 177.933C47.4734 177.949 46.2273 178.25 45.0938 178.813C43.9603 179.376 42.9686 180.187 42.1924 181.186H38.8652L42.0999 172.192L57.1667 169.227L56.741 181.186H55.2866C54.5104 180.187 53.5187 179.376 52.3852 178.813C51.2517 178.25 50.0056 177.949 48.7395 177.933Z" fill="#E2E2E2"/>
<path d="M48.5693 190.701C52.6593 190.701 55.9749 187.392 55.9749 183.31C55.9749 179.227 52.6593 175.918 48.5693 175.918C44.4792 175.918 41.1636 179.227 41.1636 183.31C41.1636 187.392 44.4792 190.701 48.5693 190.701Z" fill="#3F3D56"/>
<path d="M48.5696 187.2C50.7223 187.2 52.4673 185.458 52.4673 183.31C52.4673 181.161 50.7223 179.419 48.5696 179.419C46.4169 179.419 44.6719 181.161 44.6719 183.31C44.6719 185.458 46.4169 187.2 48.5696 187.2Z" fill="#E2E2E2"/>
<path d="M115.476 190.616C119.049 190.616 121.946 187.725 121.946 184.159C121.946 180.593 119.049 177.702 115.476 177.702C111.903 177.702 109.007 180.593 109.007 184.159C109.007 187.725 111.903 190.616 115.476 190.616Z" fill="#3F3D56"/>
<path d="M115.476 187.558C117.357 187.558 118.881 186.036 118.881 184.159C118.881 182.282 117.357 180.761 115.476 180.761C113.596 180.761 112.071 182.282 112.071 184.159C112.071 186.036 113.596 187.558 115.476 187.558Z" fill="#E2E2E2"/>
<path d="M72.5743 181.865H76.1494V156.122H72.5743V181.865Z" fill="#3F3D56"/>
<path d="M72.5741 178.722H123.988V177.193H72.5741V178.722Z" fill="#3F3D56"/>
<path d="M59.5505 169.121H61.2529V168.442H59.5505V169.121Z" fill="#3F3D56"/>
<path d="M134.799 166.007C134.783 165.99 134.771 165.969 134.763 165.946C134.756 165.923 134.753 165.899 134.756 165.875L137.104 143.715C137.108 143.673 137.128 143.634 137.159 143.606C137.19 143.578 137.23 143.563 137.272 143.562H137.273C137.315 143.563 137.355 143.578 137.386 143.606C137.418 143.633 137.437 143.672 137.442 143.713L139.982 165.828C139.984 165.851 139.982 165.875 139.975 165.898C139.968 165.921 139.956 165.942 139.94 165.96C139.924 165.977 139.905 165.992 139.883 166.002C139.861 166.012 139.838 166.017 139.814 166.017L134.927 166.063H134.925C134.901 166.063 134.878 166.058 134.856 166.048C134.835 166.039 134.815 166.025 134.799 166.007ZM137.28 145.284L135.115 165.721L139.622 165.679L137.28 145.284Z" fill="#3F3D56"/>
<path d="M42.1313 172.323L42.211 172.354C42.6122 172.505 42.9367 172.809 43.1131 173.2C43.2895 173.59 43.3033 174.034 43.1516 174.434C42.9998 174.835 42.6949 175.159 42.3039 175.335C41.9129 175.511 41.4679 175.525 41.0667 175.373L40.9871 175.343L42.1313 172.323Z" fill="#3F3D56"/>
<path d="M136.502 147.712H138.204V122.903H136.502V147.712Z" fill="#3F3D56"/>
<path d="M74.5319 151.28C75.8482 151.28 76.9153 150.215 76.9153 148.901C76.9153 147.587 75.8482 146.522 74.5319 146.522C73.2155 146.522 72.1484 147.587 72.1484 148.901C72.1484 150.215 73.2155 151.28 74.5319 151.28Z" fill="#3F3D56"/>
<path d="M78.0028 177.218H127.037V175.144H78.0028V177.218Z" fill="#ED862D"/>
<path d="M80.9115 175.144H129.945V173.071H80.9115V175.144Z" fill="#ED862D"/>
<path d="M78.8339 173.485H127.868V171.412H78.8339V173.485Z" fill="#ED862D"/>
<path d="M81.7426 171.412H130.776V169.338H81.7426V171.412Z" fill="#ED862D"/>
<path d="M158.877 50.6992C160.439 50.6974 161.95 51.2591 163.13 52.281C164.063 52.0268 165.041 51.9839 165.992 52.1555C166.78 51.0147 167.912 50.1551 169.224 49.7024C170.536 49.2497 171.959 49.2276 173.284 49.6393C174.61 50.0511 175.769 50.875 176.591 51.9909C177.414 53.1067 177.858 54.4559 177.858 55.8414H152.511C152.822 54.3864 153.624 53.082 154.782 52.146C155.941 51.2101 157.386 50.6994 158.877 50.6992Z" fill="#E2E2E2"/>
<path d="M120.744 71.166C122.222 71.1644 123.65 71.6955 124.766 72.6616C125.648 72.4212 126.572 72.3807 127.472 72.5429C128.216 71.4644 129.287 70.6517 130.527 70.2237C131.768 69.7958 133.112 69.7749 134.366 70.1641C135.619 70.5533 136.714 71.3323 137.492 72.3872C138.27 73.4421 138.69 74.7176 138.689 76.0275H114.727C115.02 74.652 115.778 73.4188 116.874 72.5339C117.969 71.6491 119.335 71.1662 120.744 71.166Z" fill="#E2E2E2"/>
<path d="M82.6193 37.4092C84.1563 37.4074 85.6423 37.96 86.8035 38.9652C87.7209 38.7152 88.6827 38.673 89.6186 38.8418C90.3934 37.7196 91.5074 36.8741 92.7979 36.4288C94.0884 35.9835 95.4877 35.9617 96.7915 36.3667C98.0953 36.7717 99.2351 37.5822 100.045 38.6798C100.854 39.7774 101.29 41.1045 101.29 42.4673H76.3579C76.6636 41.0362 77.4522 39.7531 78.5918 38.8324C79.7315 37.9118 81.1531 37.4094 82.6193 37.4092Z" fill="#E2E2E2"/>
<path d="M247.246 101.689V153.493H267.431V100.97L262.745 101.137V90.5369H259.346L258.786 67.0609C260.158 66.169 261.123 64.0506 261.123 61.5771C261.125 60.867 261.042 60.1592 260.876 59.4686C261.525 58.7676 261.923 57.8716 262.007 56.9209C262.092 55.9702 261.858 55.0185 261.342 54.2147C261.773 54.5909 262.275 54.8778 262.818 55.0588C263.361 55.2398 263.935 55.3113 264.506 55.2691C265.078 55.227 265.635 55.072 266.145 54.8132C266.656 54.5544 267.11 54.197 267.481 53.7616C267.852 53.3263 268.133 52.8217 268.307 52.2771C268.482 51.7325 268.546 51.1589 268.496 50.5894C268.446 50.02 268.283 49.466 268.017 48.9598C267.751 48.4536 267.387 48.0051 266.946 47.6404C267.688 47.3673 268.34 46.8965 268.833 46.2793C269.325 45.6621 269.639 44.922 269.739 44.1394C269.84 43.3568 269.724 42.5617 269.403 41.8404C269.083 41.1191 268.571 40.4992 267.922 40.0481C267.274 39.597 266.514 39.3318 265.725 39.2815C264.936 39.2312 264.148 39.3976 263.447 39.7626C262.747 40.1276 262.159 40.6774 261.75 41.3521C261.34 42.0268 261.123 42.8007 261.123 43.5896C261.123 43.6529 261.125 43.7156 261.128 43.7781C260.534 43.597 259.908 43.5456 259.292 43.6274C258.677 43.7092 258.086 43.9222 257.56 44.252C257.035 44.5818 256.586 45.0206 256.245 45.5387C255.905 46.0568 255.679 46.6421 255.585 47.2547C255.046 46.9344 254.443 46.7351 253.819 46.6706C253.194 46.6061 252.564 46.6781 251.97 46.8814C251.376 47.0847 250.834 47.4145 250.381 47.848C249.928 48.2814 249.575 48.8081 249.346 49.3915C249.117 49.9748 249.018 50.6009 249.056 51.2262C249.094 51.8515 249.268 52.461 249.566 53.0125C249.864 53.564 250.278 54.0442 250.78 54.4198C251.283 54.7954 251.861 55.0574 252.475 55.1876C252.474 55.2189 252.472 55.25 252.472 55.2815C252.874 56.4915 253.385 57.6624 254 58.7797C253.7 59.6817 253.549 60.6266 253.554 61.5771C253.554 64.0506 254.519 66.169 255.89 67.0609L255.33 90.5369H251.932V101.522L247.246 101.689ZM259.85 52.2234L259.861 52.2236C259.924 52.2236 259.986 52.2216 260.047 52.219C260.086 52.3465 260.131 52.4715 260.181 52.5937C260.078 52.4641 259.968 52.3404 259.85 52.2234Z" fill="#E2E2E2"/>
<path d="M236.132 190.367H297.407V119.617L236.132 119.617V190.367Z" fill="#3F3D56"/>
<path d="M258.51 190.367H275.03V175.977H258.51V190.367Z" fill="#E2E2E2"/>
<path d="M215.711 26.5248C215.71 26.5771 215.707 26.6289 215.707 26.6814C215.706 27.6436 215.899 28.5961 216.275 29.4823C216.65 30.3685 217.201 31.1702 217.893 31.8398C218.001 32.07 218.122 32.2943 218.254 32.5118C217.753 34.015 217.501 35.5899 217.51 37.1741C217.51 42.6379 220.334 47.0672 223.817 47.0672C227.301 47.0672 230.125 42.6379 230.125 37.1741C230.128 35.9905 229.99 34.8109 229.714 33.6598C230.796 32.4915 231.459 30.9982 231.599 29.4137C231.739 27.8292 231.349 26.243 230.49 24.9034C231.208 25.5303 232.045 26.0084 232.95 26.31C233.856 26.6116 234.812 26.7308 235.764 26.6605C236.716 26.5902 237.644 26.3319 238.495 25.9006C239.347 25.4693 240.103 24.8736 240.722 24.148C241.34 23.4224 241.808 22.5814 242.099 21.6739C242.389 20.7663 242.496 19.8103 242.413 18.8612C242.33 17.9121 242.059 16.9889 241.616 16.1452C241.172 15.3015 240.566 14.5541 239.831 13.9463C241.067 13.491 242.154 12.7064 242.975 11.6777C243.795 10.6489 244.318 9.41543 244.485 8.11114C244.653 6.80684 244.459 5.48164 243.925 4.27949C243.392 3.07733 242.538 2.04419 241.457 1.29231C240.376 0.540422 239.109 0.0985399 237.794 0.0146573C236.48 -0.0692252 235.167 0.208102 233.999 0.816514C232.831 1.42493 231.852 2.34115 231.169 3.46567C230.486 4.59019 230.125 5.88 230.125 7.19499C230.125 7.30033 230.129 7.40484 230.133 7.50906C229.143 7.20729 228.1 7.12163 227.074 7.25791C226.048 7.39419 225.064 7.7492 224.187 8.29886C223.311 8.84851 222.564 9.57993 221.996 10.4434C221.428 11.307 221.052 12.2824 220.896 13.3034C219.997 12.7695 218.992 12.4373 217.951 12.3299C216.911 12.2224 215.859 12.3423 214.87 12.6811C213.88 13.02 212.977 13.5697 212.221 14.2921C211.466 15.0145 210.878 15.8924 210.496 16.8646C210.115 17.8369 209.95 18.8804 210.014 19.9225C210.077 20.9647 210.367 21.9806 210.863 22.8998C211.359 23.8189 212.05 24.6193 212.887 25.2453C213.724 25.8713 214.688 26.3079 215.711 26.5248ZM228.022 21.5849C228.126 21.5849 228.23 21.5815 228.333 21.5771C228.397 21.7898 228.472 21.998 228.555 22.2017C228.384 21.9856 228.199 21.7795 228.004 21.5845L228.022 21.5849Z" fill="#E2E2E2"/>
<path d="M220.212 96.2329H227.422L227.164 85.4413V85.4371L226.221 45.8665C225.497 46.3079 224.665 46.5415 223.817 46.5415C222.969 46.5415 222.137 46.3079 221.413 45.8665L220.47 85.4371V85.4413L220.212 96.2329Z" fill="#ED862D"/>
<path d="M206.998 104.026V190.367H240.636V102.827L232.828 103.105V85.4414H214.806V103.748L206.998 104.026Z" fill="#ED862D"/>
<path d="M301.617 26.5248C301.616 26.5771 301.613 26.6289 301.613 26.6814C301.612 27.6436 301.805 28.5961 302.18 29.4823C302.556 30.3685 303.106 31.1702 303.798 31.8398C303.907 32.07 304.027 32.2943 304.159 32.5118C303.658 34.015 303.407 35.5899 303.415 37.1741C303.415 42.6379 306.239 47.0672 309.723 47.0672C313.206 47.0672 316.03 42.6379 316.03 37.1741C316.033 35.9905 315.895 34.8109 315.619 33.6598C316.701 32.4915 317.364 30.9982 317.504 29.4137C317.645 27.8292 317.254 26.243 316.395 24.9034C317.114 25.5303 317.95 26.0084 318.856 26.3101C319.761 26.6117 320.717 26.7308 321.669 26.6606C322.621 26.5903 323.55 26.332 324.401 25.9007C325.252 25.4694 326.009 24.8736 326.627 24.1481C327.246 23.4225 327.714 22.5815 328.004 21.6739C328.294 20.7664 328.401 19.8103 328.318 18.8612C328.235 17.9121 327.964 16.9889 327.521 16.1452C327.078 15.3015 326.471 14.554 325.736 13.9463C326.972 13.491 328.059 12.7064 328.88 11.6777C329.701 10.6489 330.223 9.41544 330.391 8.11114C330.558 6.80685 330.365 5.48164 329.831 4.27949C329.297 3.07733 328.443 2.04419 327.362 1.29231C326.281 0.540422 325.015 0.0985401 323.7 0.0146574C322.385 -0.0692253 321.072 0.208102 319.904 0.816514C318.736 1.42493 317.758 2.34115 317.075 3.46567C316.392 4.59019 316.03 5.88 316.03 7.19499C316.03 7.30033 316.034 7.40484 316.038 7.50906C315.048 7.20729 314.005 7.12163 312.979 7.25791C311.953 7.39419 310.969 7.7492 310.093 8.29886C309.216 8.84851 308.469 9.57993 307.901 10.4434C307.333 11.307 306.958 12.2824 306.801 13.3034C305.902 12.7695 304.897 12.4373 303.857 12.3299C302.816 12.2224 301.765 12.3423 300.775 12.6811C299.786 13.02 298.882 13.5697 298.127 14.2921C297.371 15.0145 296.783 15.8924 296.402 16.8646C296.02 17.8369 295.856 18.8804 295.919 19.9225C295.982 20.9647 296.272 21.9806 296.768 22.8998C297.265 23.8189 297.955 24.6193 298.793 25.2453C299.63 25.8713 300.593 26.3079 301.617 26.5248ZM313.928 21.5849C314.032 21.5849 314.135 21.5815 314.238 21.5771C314.303 21.7898 314.377 21.998 314.461 22.2017C314.289 21.9856 314.105 21.7795 313.909 21.5845L313.928 21.5849Z" fill="#E2E2E2"/>
<path d="M306.118 96.2328H313.327L312.126 45.8679C310.572 46.425 308.873 46.425 307.32 45.8679L306.118 96.2328Z" fill="#ED862D"/>
<path d="M292.902 104.026V190.367H326.545V102.827L323.781 102.927L318.732 103.105V85.4414H300.71V103.748L292.902 104.026Z" fill="#ED862D"/>
<path d="M275.912 136.451H284.223V128.156H275.912V136.451Z" fill="white"/>
<path d="M262.614 136.451H270.925V128.156H262.614V136.451Z" fill="white"/>
<path d="M249.317 136.451H257.628V128.156H249.317V136.451Z" fill="white"/>
<path d="M275.912 149.722H284.223V141.428H275.912V149.722Z" fill="white"/>
<path d="M262.614 149.722H270.925V141.428H262.614V149.722Z" fill="white"/>
<path d="M249.317 149.722H257.628V141.428H249.317V149.722Z" fill="white"/>
<path d="M275.912 162.994H284.223V154.699H275.912V162.994Z" fill="white"/>
<path d="M262.614 162.994H270.925V154.699H262.614V162.994Z" fill="white"/>
<path d="M249.317 162.994H257.628V154.699H249.317V162.994Z" fill="white"/>
<path d="M219.662 133.133H227.973V124.838H219.662V133.133Z" fill="white"/>
<path d="M219.662 146.405H227.973V138.11H219.662V146.405Z" fill="white"/>
<path d="M219.662 159.676H227.973V151.381H219.662V159.676Z" fill="white"/>
<path d="M219.662 172.948H227.973V164.653H219.662V172.948Z" fill="white"/>
<path d="M305.498 133.133H313.809V124.838H305.498V133.133Z" fill="white"/>
<path d="M305.498 146.405H313.809V138.11H305.498V146.405Z" fill="white"/>
<path d="M305.498 159.676H313.809V151.381H305.498V159.676Z" fill="white"/>
<path d="M305.498 172.948H313.809V164.653H305.498V172.948Z" fill="white"/>
<path d="M369 190.075H0V190.904H369V190.075Z" fill="#3F3D56"/>
</g>
<defs>
<clipPath id="clip0_84_1759">
<rect width="369" height="191" fill="white"/>
</clipPath>
</defs>
</svg>
