<svg width="323" height="244" viewBox="0 0 323 244" fill="none" xmlns="http://www.w3.org/2000/svg">
<g clip-path="url(#clip0_84_1590)">
<path d="M4.40576 240.087C4.40724 240.169 4.42488 240.25 4.45768 240.325C4.49048 240.4 4.53778 240.468 4.59689 240.525C4.65599 240.582 4.72574 240.627 4.80213 240.657C4.87853 240.686 4.96007 240.701 5.04209 240.699H322.363C322.446 240.703 322.528 240.69 322.606 240.66C322.683 240.631 322.754 240.587 322.813 240.529C322.873 240.472 322.92 240.403 322.953 240.327C322.985 240.251 323.002 240.17 323.002 240.087C323.002 240.004 322.985 239.922 322.953 239.846C322.92 239.77 322.873 239.702 322.813 239.644C322.754 239.587 322.683 239.543 322.606 239.513C322.528 239.484 322.446 239.471 322.363 239.474H5.04209C4.9601 239.473 4.87859 239.487 4.80222 239.517C4.72585 239.547 4.65611 239.592 4.59701 239.649C4.53791 239.705 4.4906 239.773 4.45778 239.849C4.42497 239.924 4.40729 240.005 4.40576 240.087Z" fill="#CCCCCC"/>
<path d="M166.109 179.644C165.695 182.15 164.404 184.428 162.468 186.071C160.531 187.714 158.074 188.616 155.535 188.616C152.995 188.616 150.538 187.714 148.602 186.071C146.665 184.428 145.375 182.15 144.961 179.644H117.909V238.284H193.161V179.644H166.109Z" fill="#D6D6E3"/>
<path d="M126.659 238.067H119.222V239.38H126.659V238.067Z" fill="#B6B3C5"/>
<path d="M192.505 238.285H185.067V239.598H192.505V238.285Z" fill="#B6B3C5"/>
<path d="M193.381 233.64H118.128V235.681H193.381V233.64Z" fill="#090814"/>
<path d="M306.875 181.176H4.1952C3.08295 181.174 2.01662 180.732 1.23014 179.945C0.443661 179.159 0.00126265 178.092 0 176.979L0 4.19663C0.00116553 3.08404 0.443521 2.01734 1.23001 1.23058C2.0165 0.443825 3.08288 0.00126315 4.1952 0H306.875C307.987 0.00126297 309.054 0.443774 309.84 1.23045C310.626 2.01713 311.069 3.08373 311.07 4.19626V176.979C311.069 178.092 310.626 179.158 309.84 179.945C309.053 180.732 307.987 181.174 306.875 181.176Z" fill="#090814"/>
<path d="M303.632 7.00208H7.43701V174.174H303.632V7.00208Z" fill="white"/>
<path d="M155.813 90.2414L124.055 66.448L92.7306 89.9161L92.0132 88.9596L124.055 64.9536L155.662 88.634L187.071 54.2534L187.197 54.202L218.88 41.4337L219.327 42.543L187.77 55.2606L155.813 90.2414Z" fill="#D6D6E3"/>
<path d="M251.262 134.283H60.2467C60.0882 134.283 59.9361 134.22 59.824 134.108C59.7119 133.996 59.6489 133.844 59.6489 133.686V42.1088C59.6489 41.9502 59.7119 41.7981 59.824 41.686C59.9361 41.5739 60.0882 41.5109 60.2467 41.5109C60.4053 41.5109 60.5573 41.5739 60.6694 41.686C60.7815 41.7981 60.8445 41.9502 60.8445 42.1088V133.088H251.262C251.421 133.088 251.573 133.151 251.685 133.263C251.797 133.375 251.86 133.527 251.86 133.686C251.86 133.844 251.797 133.996 251.685 134.108C251.573 134.22 251.421 134.283 251.262 134.283Z" fill="#3F3D56"/>
<path d="M101.059 127.706H83.6853C83.2149 127.706 82.7638 127.518 82.4311 127.186C82.0984 126.853 81.9112 126.402 81.9106 125.931V101.975C81.9112 101.505 82.0984 101.054 82.4311 100.721C82.7638 100.388 83.2149 100.201 83.6853 100.201H101.059C101.529 100.201 101.98 100.388 102.313 100.721C102.646 101.054 102.833 101.505 102.833 101.975V125.932C102.833 126.402 102.646 126.853 102.313 127.186C101.98 127.518 101.529 127.705 101.059 127.706Z" fill="#ED862D"/>
<path d="M132.742 127.706H115.368C114.897 127.705 114.446 127.518 114.114 127.185C113.781 126.853 113.594 126.402 113.593 125.931V79.2534C113.594 78.7828 113.781 78.3317 114.114 77.999C114.446 77.6663 114.897 77.4791 115.368 77.4786H132.741C133.212 77.4791 133.663 77.6663 133.996 77.999C134.328 78.3317 134.515 78.7828 134.516 79.2534V125.931C134.515 126.402 134.328 126.853 133.996 127.185C133.663 127.518 133.212 127.705 132.741 127.706H132.742Z" fill="#ED862D"/>
<path d="M164.425 127.706H147.051C146.581 127.706 146.13 127.518 145.797 127.186C145.464 126.853 145.277 126.402 145.276 125.931V101.975C145.277 101.505 145.464 101.054 145.797 100.721C146.13 100.388 146.581 100.201 147.051 100.201H164.424C164.895 100.201 165.346 100.388 165.679 100.721C166.011 101.054 166.199 101.505 166.199 101.975V125.932C166.198 126.402 166.011 126.853 165.679 127.186C165.346 127.518 164.895 127.705 164.425 127.706Z" fill="#ED862D"/>
<path d="M196.107 127.706H178.734C178.274 127.716 177.829 127.543 177.496 127.226C177.164 126.908 176.97 126.472 176.959 126.012V70.2042C176.97 69.7443 177.164 69.3076 177.496 68.99C177.829 68.6723 178.274 68.4995 178.734 68.5094H196.107C196.567 68.4995 197.012 68.6722 197.344 68.9898C197.677 69.3074 197.87 69.744 197.882 70.2038V126.011C197.87 126.471 197.677 126.908 197.345 127.225C197.012 127.543 196.567 127.716 196.107 127.706Z" fill="#ED862D"/>
<path d="M227.791 127.706H210.417C209.946 127.706 209.495 127.518 209.163 127.186C208.83 126.853 208.643 126.402 208.642 125.931V54.14C208.643 53.6694 208.83 53.2183 209.163 52.8856C209.495 52.5528 209.946 52.3657 210.417 52.3652H227.79C228.261 52.3657 228.712 52.5528 229.044 52.8856C229.377 53.2183 229.564 53.6694 229.565 54.14V125.931C229.564 126.402 229.377 126.853 229.044 127.186C228.712 127.518 228.261 127.706 227.791 127.706Z" fill="#ED862D"/>
<path d="M92.2968 92.8538C94.3249 92.8538 95.969 91.3121 95.969 89.4103C95.969 87.5086 94.3249 85.9669 92.2968 85.9669C90.2686 85.9669 88.6245 87.5086 88.6245 89.4103C88.6245 91.3121 90.2686 92.8538 92.2968 92.8538Z" fill="#3F3D56"/>
<path d="M123.969 69.8977C125.997 69.8977 127.641 68.2531 127.641 66.2245C127.641 64.1958 125.997 62.5513 123.969 62.5513C121.941 62.5513 120.296 64.1958 120.296 66.2245C120.296 68.2531 121.941 69.8977 123.969 69.8977Z" fill="#3F3D56"/>
<path d="M155.641 92.8538C157.669 92.8538 159.313 91.3121 159.313 89.4103C159.313 87.5086 157.669 85.9669 155.641 85.9669C153.613 85.9669 151.969 87.5086 151.969 89.4103C151.969 91.3121 153.613 92.8538 155.641 92.8538Z" fill="#3F3D56"/>
<path d="M187.313 58.4192C189.341 58.4192 190.985 56.7746 190.985 54.746C190.985 52.7173 189.341 51.0728 187.313 51.0728C185.285 51.0728 183.641 52.7173 183.641 54.746C183.641 56.7746 185.285 58.4192 187.313 58.4192Z" fill="#3F3D56"/>
<path d="M218.985 45.565C221.013 45.565 222.657 43.9202 222.657 41.8911C222.657 39.862 221.013 38.2172 218.985 38.2172C216.957 38.2172 215.312 39.862 215.312 41.8911C215.312 43.9202 216.957 45.565 218.985 45.565Z" fill="#3F3D56"/>
<path d="M251.22 105.65C251.22 105.65 245.781 104.712 237.716 97.3951C231.335 91.608 222.727 92.7458 219.408 93.4756C219.295 93.4999 219.192 93.5584 219.113 93.6431C219.034 93.7277 218.983 93.8346 218.967 93.9492C218.95 94.0639 218.969 94.1808 219.021 94.2843C219.073 94.3877 219.156 94.4728 219.258 94.5279C220.599 95.2621 222.678 96.3346 223.653 96.4569C223.653 96.4569 221.643 98.537 223.779 99.6503C224.035 99.776 224.321 99.8281 224.605 99.8007C224.888 99.7734 225.159 99.6677 225.386 99.4954C226.414 98.7451 229.268 100.45 233.406 101.335C233.406 101.335 249.536 118.032 253.287 115.201L251.22 105.65Z" fill="#FFB9B9"/>
<path d="M278.991 82.9496C278.991 82.9496 280.492 89.3281 278.991 93.8308L285.743 94.7687L291.745 91.7669V87.8275C291.745 87.8275 288.932 81.8242 289.682 74.8827L278.991 82.9496Z" fill="#FFB9B9"/>
<path d="M298.11 221.208C298.11 221.208 303.003 230.776 302.237 237.155C301.47 243.533 308.613 237.905 307.863 234.153C307.704 238.695 309.963 218.247 311.019 213.459C311.134 212.941 311.052 212.4 310.79 211.939C310.528 211.479 310.104 211.132 309.601 210.967C307.345 210.225 303.57 209.315 301.674 210.706C298.873 212.765 298.11 221.208 298.11 221.208Z" fill="#090814"/>
<path d="M279.554 231.714C279.554 231.714 273.177 239.968 271.489 240.156C269.802 240.344 268.676 242.97 271.489 243.533C277.107 244.511 282.884 243.947 288.207 241.902C288.739 241.694 289.187 241.313 289.477 240.821C289.768 240.328 289.885 239.753 289.809 239.186L288.733 231.151L279.554 231.714Z" fill="#090814"/>
<path d="M269.051 144.105L262.935 144.92C263.774 152.066 263.749 159.286 262.861 166.426V192.12C262.861 192.12 262.743 194.384 267.44 197.675C272.366 201.1 277.113 204.775 281.662 208.687L298.681 223.435C298.681 223.435 305.433 215.18 304.495 210.302C304.495 210.302 293.242 206.738 291.741 200.922C290.881 197.594 286.518 194.805 282.946 193.051C280.701 191.96 278.896 190.134 277.832 187.875C276.767 185.617 276.507 183.062 277.095 180.635C277.304 179.792 277.626 178.981 278.053 178.225C281.054 172.972 285.368 161.153 285.368 161.153L277.116 145.418L269.051 144.105Z" fill="#090814"/>
<path d="M278.054 232.288C278.054 232.288 289.12 234.165 289.495 235.29C289.87 236.416 289.495 233.789 289.495 233.789C289.495 233.789 295.874 214.466 294.388 197.398C292.902 180.33 296.263 169.069 296.263 169.069C296.263 169.069 300.202 156.312 297.951 148.995C295.701 141.679 272.068 144.868 272.068 144.868C272.068 144.868 280.321 164.192 280.134 173.384C280.134 173.384 281.071 201.15 282.759 204.34C282.743 204.323 280.117 231.526 278.054 232.288Z" fill="#090814"/>
<path d="M279.355 87.8275C279.355 87.8275 280.48 94.761 291.734 91.7672L284.247 148.796C284.247 148.796 262.49 149.546 262.678 146.92L267.163 112.404L279.355 87.8275Z" fill="white"/>
<path d="M279.649 87.6396C277.972 88.9512 275.968 89.7765 273.854 90.0256C271.987 90.1687 270.172 90.7081 268.529 91.608C266.601 92.6886 264.452 94.2589 263.8 96.1717C262.486 99.9238 254.234 106.115 250.483 104.802L251.796 116.058C251.796 116.058 262.487 115.495 264.362 111.368L261.178 151.534H263.991C263.991 151.534 265.492 140.653 266.617 138.402C267.742 136.151 269.993 123.769 270.18 120.767C270.368 117.765 273.181 100.505 275.62 97.5199L279.652 88.7963L279.649 87.6396Z" fill="#D6D6E3"/>
<path opacity="0.1" d="M289.213 80.4169C288.968 78.6389 289.458 77.5293 289.682 75.4454L278.991 83.5124C278.991 83.5124 279.248 84.6015 279.444 86.196C279.983 86.2832 280.528 86.3269 281.074 86.3267C284.786 86.3267 287.456 83.4269 289.213 80.4169Z" fill="black"/>
<path d="M281.055 85.768C286.649 85.768 291.183 81.2322 291.183 75.637C291.183 70.0419 286.649 65.5061 281.055 65.5061C275.461 65.5061 270.927 70.0419 270.927 75.637C270.927 81.2322 275.461 85.768 281.055 85.768Z" fill="#FFB9B9"/>
<path d="M270.876 67.0103C270.816 65.4339 271.072 63.8614 271.628 62.3853C271.474 62.6175 271.409 62.8978 271.445 63.1744C271.48 63.451 271.615 63.7053 271.824 63.8903C272.125 62.2811 272.951 60.8171 274.173 59.727C273.507 59.8371 273.164 60.6605 273.329 61.3157C273.553 61.9554 273.954 62.5189 274.484 62.9418C274.427 61.9507 275.082 61.0257 275.91 60.4824C276.773 59.9869 277.715 59.6455 278.695 59.4738C278.359 59.593 278.072 59.8202 277.879 60.1198C277.685 60.4194 277.596 60.7746 277.626 61.1299C277.629 61.2507 277.679 61.3656 277.765 61.45C277.859 61.5103 277.97 61.5393 278.082 61.533C279.057 61.5706 280.033 61.5493 281.006 61.4691C282.201 61.3345 283.404 61.2704 284.607 61.2771C288.37 61.4353 292.153 64.0062 292.996 67.6765C293.17 68.567 293.262 69.4718 293.27 70.3792L293.454 75.013C293.561 76.3648 293.505 77.7246 293.288 79.0632C293.028 80.299 292.498 81.462 291.736 82.4692C290.974 83.4765 289.999 84.3032 288.881 84.8903C287.524 82.9217 287.403 80.3919 286.932 78.0468C286.858 77.5058 286.657 76.9902 286.345 76.5418C286.184 76.3201 285.958 76.1539 285.699 76.0662C285.439 75.9785 285.159 75.9738 284.896 76.0525C284.388 76.2559 284.17 77.0311 284.591 77.3776C284.215 77.8218 283.511 77.4907 283.087 77.0954C281.899 75.9685 281.081 74.5075 280.742 72.9057C280.573 72.1 280.403 71.1071 279.613 70.8314C279.341 70.7567 279.057 70.7375 278.778 70.7749C277.129 70.8879 274.551 71.5692 272.956 71.0458C271.492 70.5642 270.876 68.3996 270.876 67.0103Z" fill="#090814"/>
<path d="M250.405 104.806C250.405 104.806 248.905 111.739 251.718 116.062L253.312 115.931L252.444 104.919L250.405 104.806Z" fill="#D6D6E3"/>
<path d="M291.089 85.8737L303.187 96.2858C303.187 96.2858 310.314 103.603 307.313 115.422C307.313 115.422 306 132.682 304.499 133.433C304.499 133.433 299.248 143.939 298.873 153.882C298.873 153.882 291.464 138.967 288.272 147.597C285.079 156.227 278.05 158.2 278.05 158.2L282.176 107.175C282.176 107.175 292.59 89.0465 291.089 85.8737Z" fill="#D6D6E3"/>
<path d="M296.622 129.852C296.622 129.852 299.623 127.788 304.5 133.416L292.496 155.179L288.463 149.089C288.463 149.089 296.999 132.29 296.622 129.852Z" fill="#FFB9B9"/>
<path d="M293.715 130.696C293.715 130.696 300.353 138.151 302.942 136.956L305.339 131.373L296.341 127.506L293.715 130.696Z" fill="#D6D6E3"/>
<path opacity="0.1" d="M294.653 107.807C294.653 107.807 295.028 121.315 293.527 126.381L294.653 107.807Z" fill="black"/>
<path opacity="0.1" d="M264.268 110.434C264.268 110.434 266.519 109.684 266.519 107.807L264.268 110.434Z" fill="black"/>
</g>
<defs>
<clipPath id="clip0_84_1590">
<rect width="323" height="244" fill="white"/>
</clipPath>
</defs>
</svg>
