<svg width="350" height="202" viewBox="0 0 350 202" fill="none" xmlns="http://www.w3.org/2000/svg">
<g clip-path="url(#clip0_84_1630)">
<path d="M317.642 195.553H33.4355V10.3546C33.4398 7.6092 34.5367 4.97748 36.4857 3.03644C38.4347 1.09541 41.0768 0.00345809 43.8327 0H307.244C310 0.00326616 312.642 1.09514 314.592 3.03621C316.541 4.97727 317.638 7.6091 317.642 10.3546V195.553Z" fill="#090814"/>
<path d="M308.744 12.625H41.2554V180.242H308.744V12.625Z" fill="white"/>
<path d="M329.264 202H22.9203L3.31151 198.282C2.38049 198.104 1.54064 197.609 0.936298 196.881C0.331959 196.154 0.000892969 195.239 0 194.295V190.175H350V194.354C349.997 195.285 349.674 196.186 349.085 196.909C348.496 197.631 347.676 198.131 346.763 198.325L329.263 201.993L329.264 202Z" fill="#CCCCCC"/>
<path d="M199.3 195.553H150.705C149.499 195.551 148.343 195.072 147.49 194.223C146.637 193.373 146.157 192.221 146.156 191.019V190.18H203.86V191.019C203.858 192.22 203.378 193.372 202.525 194.221C201.672 195.071 200.516 195.549 199.311 195.551L199.3 195.553Z" fill="#2F2E41"/>
<path d="M95.521 56.658H61.2502C59.6393 56.658 58.3335 57.9588 58.3335 59.5635V124.938C58.3335 126.543 59.6393 127.844 61.2502 127.844H95.521C97.1318 127.844 98.4377 126.543 98.4377 124.938V59.5635C98.4377 57.9588 97.1318 56.658 95.521 56.658Z" fill="white"/>
<path d="M95.5208 56.8396H61.25C59.7398 56.8396 58.5156 58.0592 58.5156 59.5635V124.938C58.5156 126.443 59.7398 127.662 61.25 127.662H95.5208C97.031 127.662 98.2552 126.443 98.2552 124.938V59.5635C98.2552 58.0592 97.031 56.8396 95.5208 56.8396Z" stroke="#D6D6E3"/>
<path d="M144.01 56.658H109.739C108.129 56.658 106.823 57.9588 106.823 59.5635V124.938C106.823 126.543 108.129 127.844 109.739 127.844H144.01C145.621 127.844 146.927 126.543 146.927 124.938V59.5635C146.927 57.9588 145.621 56.658 144.01 56.658Z" fill="white"/>
<path d="M144.01 56.8396H109.739C108.229 56.8396 107.005 58.0592 107.005 59.5635V124.938C107.005 126.443 108.229 127.662 109.739 127.662H144.01C145.52 127.662 146.744 126.443 146.744 124.938V59.5635C146.744 58.0592 145.52 56.8396 144.01 56.8396Z" stroke="#D6D6E3"/>
<path d="M192.135 56.658H157.864C156.254 56.658 154.948 57.9588 154.948 59.5635V124.938C154.948 126.543 156.254 127.844 157.864 127.844H192.135C193.746 127.844 195.052 126.543 195.052 124.938V59.5635C195.052 57.9588 193.746 56.658 192.135 56.658Z" fill="white"/>
<path d="M192.135 56.8396H157.864C156.354 56.8396 155.13 58.0592 155.13 59.5635V124.938C155.13 126.443 156.354 127.662 157.864 127.662H192.135C193.645 127.662 194.869 126.443 194.869 124.938V59.5635C194.869 58.0592 193.645 56.8396 192.135 56.8396Z" stroke="#D6D6E3"/>
<path d="M288.75 56.658H254.479C252.868 56.658 251.562 57.9588 251.562 59.5635V124.938C251.562 126.543 252.868 127.844 254.479 127.844H288.75C290.361 127.844 291.667 126.543 291.667 124.938V59.5635C291.667 57.9588 290.361 56.658 288.75 56.658Z" fill="white"/>
<path d="M288.75 56.8396H254.479C252.969 56.8396 251.745 58.0592 251.745 59.5635V124.938C251.745 126.443 252.969 127.662 254.479 127.662H288.75C290.26 127.662 291.484 126.443 291.484 124.938V59.5635C291.484 58.0592 290.26 56.8396 288.75 56.8396Z" stroke="#D6D6E3"/>
<path d="M240.625 56.658H206.354C204.743 56.658 203.438 57.9588 203.438 59.5635V124.938C203.438 126.543 204.743 127.844 206.354 127.844H240.625C242.236 127.844 243.542 126.543 243.542 124.938V59.5635C243.542 57.9588 242.236 56.658 240.625 56.658Z" fill="white"/>
<path d="M240.625 56.8396H206.354C204.844 56.8396 203.62 58.0592 203.62 59.5635V124.938C203.62 126.443 204.844 127.662 206.354 127.662H240.625C242.135 127.662 243.359 126.443 243.359 124.938V59.5635C243.359 58.0592 242.135 56.8396 240.625 56.8396Z" stroke="#D6D6E3"/>
<path d="M59.7918 132.202H80.2085C80.5953 132.202 80.9662 132.355 81.2397 132.628C81.5132 132.9 81.6668 133.27 81.6668 133.655V135.108C81.6668 135.493 81.5132 135.863 81.2397 136.135C80.9662 136.407 80.5953 136.56 80.2085 136.56H59.7918C59.4051 136.56 59.0341 136.407 58.7606 136.135C58.4871 135.863 58.3335 135.493 58.3335 135.108V133.655C58.3335 133.27 58.4871 132.9 58.7606 132.628C59.0341 132.355 59.4051 132.202 59.7918 132.202Z" fill="#ED862D"/>
<path d="M108.281 132.202H128.698C129.085 132.202 129.455 132.355 129.729 132.628C130.002 132.9 130.156 133.27 130.156 133.655V135.108C130.156 135.493 130.002 135.863 129.729 136.135C129.455 136.407 129.085 136.56 128.698 136.56H108.281C107.894 136.56 107.523 136.407 107.25 136.135C106.976 135.863 106.823 135.493 106.823 135.108V133.655C106.823 133.27 106.976 132.9 107.25 132.628C107.523 132.355 107.894 132.202 108.281 132.202Z" fill="#ED862D"/>
<path d="M156.406 132.202H176.823C177.21 132.202 177.58 132.355 177.854 132.628C178.127 132.9 178.281 133.27 178.281 133.655V135.108C178.281 135.493 178.127 135.863 177.854 136.135C177.58 136.407 177.21 136.56 176.823 136.56H156.406C156.019 136.56 155.648 136.407 155.375 136.135C155.101 135.863 154.948 135.493 154.948 135.108V133.655C154.948 133.27 155.101 132.9 155.375 132.628C155.648 132.355 156.019 132.202 156.406 132.202Z" fill="#ED862D"/>
<path d="M204.896 132.202H225.312C225.699 132.202 226.07 132.355 226.344 132.628C226.617 132.9 226.771 133.27 226.771 133.655V135.108C226.771 135.493 226.617 135.863 226.344 136.135C226.07 136.407 225.699 136.56 225.312 136.56H204.896C204.509 136.56 204.138 136.407 203.865 136.135C203.591 135.863 203.438 135.493 203.438 135.108V133.655C203.438 133.27 203.591 132.9 203.865 132.628C204.138 132.355 204.509 132.202 204.896 132.202Z" fill="#ED862D"/>
<path d="M253.021 132.202H273.438C273.824 132.202 274.195 132.355 274.469 132.628C274.742 132.9 274.896 133.27 274.896 133.655V135.108C274.896 135.493 274.742 135.863 274.469 136.135C274.195 136.407 273.824 136.56 273.438 136.56H253.021C252.634 136.56 252.263 136.407 251.99 136.135C251.716 135.863 251.562 135.493 251.562 135.108V133.655C251.562 133.27 251.716 132.9 251.99 132.628C252.263 132.355 252.634 132.202 253.021 132.202Z" fill="#ED862D"/>
<path d="M59.7918 140.192H65.6252C66.0119 140.192 66.3829 140.345 66.6564 140.618C66.9299 140.89 67.0835 141.26 67.0835 141.645V143.098C67.0835 143.483 66.9299 143.853 66.6564 144.125C66.3829 144.398 66.0119 144.551 65.6252 144.551H59.7918C59.4051 144.551 59.0341 144.398 58.7606 144.125C58.4871 143.853 58.3335 143.483 58.3335 143.098V141.645C58.3335 141.26 58.4871 140.89 58.7606 140.618C59.0341 140.345 59.4051 140.192 59.7918 140.192Z" fill="#D6D6E3"/>
<path d="M70.7789 145.277V144.712C70.3819 144.706 69.9995 144.563 69.6961 144.308C69.5595 144.18 69.4511 144.025 69.3779 143.853C69.3046 143.681 69.2681 143.495 69.2706 143.308H70.0399C70.0422 143.402 70.064 143.494 70.1037 143.578C70.1434 143.663 70.2003 143.738 70.2707 143.8C70.416 143.92 70.5937 143.993 70.7811 144.012V142.661L70.547 142.597C70.2302 142.524 69.9372 142.372 69.6961 142.155C69.5939 142.054 69.5139 141.932 69.4614 141.798C69.4089 141.664 69.3849 141.52 69.3909 141.376C69.3861 141.143 69.4482 140.914 69.57 140.715C69.6919 140.521 69.862 140.363 70.0636 140.254C70.2845 140.134 70.5282 140.062 70.7789 140.043V139.466H71.1293V140.04C71.3869 140.051 71.6387 140.12 71.8661 140.241C72.0668 140.349 72.2362 140.507 72.3579 140.7C72.4779 140.892 72.5427 141.114 72.5453 141.341H71.7899C71.7787 141.182 71.7063 141.034 71.5879 140.928C71.4586 140.819 71.2986 140.751 71.1296 140.736V142.009L71.3254 142.061C71.5388 142.116 71.745 142.195 71.9397 142.298C72.1306 142.396 72.2951 142.539 72.4195 142.713C72.5491 142.908 72.6138 143.138 72.6044 143.371C72.6096 143.544 72.5779 143.717 72.5112 143.878C72.4445 144.038 72.3444 144.183 72.2176 144.302C71.916 144.564 71.5303 144.709 71.1304 144.712V145.277H70.7789ZM71.1293 144.009C71.3155 143.992 71.4916 143.918 71.6328 143.795C71.6941 143.742 71.7431 143.675 71.7761 143.601C71.8092 143.527 71.8256 143.446 71.8242 143.365C71.8279 143.29 71.8124 143.215 71.7791 143.148C71.7459 143.081 71.696 143.024 71.6342 142.981C71.4796 142.88 71.309 142.805 71.1296 142.76L71.1293 144.009ZM70.7789 141.916V140.74C70.6134 140.758 70.4582 140.829 70.3367 140.942C70.2853 140.992 70.2446 141.052 70.2173 141.118C70.19 141.184 70.1765 141.255 70.1777 141.326C70.1738 141.401 70.1888 141.475 70.2212 141.542C70.2537 141.609 70.3025 141.667 70.3633 141.71C70.4903 141.801 70.631 141.871 70.78 141.917L70.7789 141.916Z" fill="#090814"/>
<path d="M108.281 140.192H114.114C114.501 140.192 114.872 140.345 115.146 140.618C115.419 140.89 115.573 141.26 115.573 141.645V143.098C115.573 143.483 115.419 143.853 115.146 144.125C114.872 144.398 114.501 144.551 114.114 144.551H108.281C107.894 144.551 107.523 144.398 107.25 144.125C106.976 143.853 106.823 143.483 106.823 143.098V141.645C106.823 141.26 106.976 140.89 107.25 140.618C107.523 140.345 107.894 140.192 108.281 140.192Z" fill="#D6D6E3"/>
<path d="M119.268 145.277V144.712C118.871 144.706 118.489 144.563 118.185 144.308C118.049 144.18 117.94 144.025 117.867 143.853C117.794 143.681 117.757 143.495 117.76 143.308H118.529C118.532 143.402 118.553 143.494 118.593 143.578C118.633 143.663 118.69 143.738 118.76 143.8C118.905 143.92 119.083 143.993 119.27 144.012V142.661L119.036 142.597C118.719 142.524 118.426 142.372 118.185 142.155C118.083 142.054 118.003 141.932 117.951 141.798C117.898 141.664 117.874 141.52 117.88 141.376C117.875 141.143 117.937 140.914 118.059 140.715C118.181 140.521 118.351 140.363 118.553 140.254C118.774 140.134 119.017 140.062 119.268 140.043V139.466H119.619V140.04C119.876 140.051 120.128 140.12 120.355 140.241C120.556 140.349 120.725 140.507 120.847 140.7C120.967 140.892 121.032 141.114 121.035 141.341H120.279C120.268 141.182 120.196 141.034 120.077 140.928C119.948 140.819 119.788 140.751 119.619 140.736V142.009L119.815 142.061C120.028 142.116 120.234 142.195 120.429 142.298C120.62 142.396 120.784 142.539 120.909 142.713C121.038 142.908 121.103 143.138 121.094 143.371C121.099 143.544 121.067 143.717 121 143.878C120.934 144.038 120.834 144.183 120.707 144.302C120.405 144.564 120.02 144.709 119.62 144.712V145.277H119.268ZM119.619 144.009C119.805 143.992 119.981 143.918 120.122 143.795C120.183 143.742 120.232 143.675 120.265 143.601C120.298 143.527 120.315 143.446 120.313 143.365C120.317 143.29 120.302 143.215 120.268 143.148C120.235 143.081 120.185 143.024 120.123 142.981C119.969 142.88 119.798 142.805 119.619 142.76L119.619 144.009ZM119.268 141.916V140.74C119.103 140.758 118.947 140.829 118.826 140.942C118.775 140.992 118.734 141.052 118.707 141.118C118.679 141.184 118.666 141.255 118.667 141.326C118.663 141.401 118.678 141.475 118.71 141.542C118.743 141.609 118.792 141.667 118.853 141.71C118.98 141.801 119.12 141.871 119.269 141.917L119.268 141.916Z" fill="#090814"/>
<path d="M156.406 140.192H162.239C162.626 140.192 162.997 140.345 163.271 140.618C163.544 140.89 163.698 141.26 163.698 141.645V143.098C163.698 143.483 163.544 143.853 163.271 144.125C162.997 144.398 162.626 144.551 162.239 144.551H156.406C156.019 144.551 155.648 144.398 155.375 144.125C155.101 143.853 154.948 143.483 154.948 143.098V141.645C154.948 141.26 155.101 140.89 155.375 140.618C155.648 140.345 156.019 140.192 156.406 140.192Z" fill="#D6D6E3"/>
<path d="M167.393 145.277V144.712C166.996 144.706 166.614 144.563 166.31 144.308C166.174 144.18 166.065 144.025 165.992 143.853C165.919 143.681 165.882 143.495 165.885 143.308H166.654C166.657 143.402 166.678 143.494 166.718 143.578C166.758 143.663 166.815 143.738 166.885 143.8C167.03 143.92 167.208 143.993 167.395 144.012V142.661L167.161 142.597C166.844 142.524 166.551 142.372 166.31 142.155C166.208 142.054 166.128 141.932 166.076 141.798C166.023 141.664 165.999 141.52 166.005 141.376C166 141.143 166.062 140.914 166.184 140.715C166.306 140.521 166.476 140.363 166.678 140.254C166.899 140.134 167.142 140.062 167.393 140.043V139.466H167.744V140.04C168.001 140.051 168.253 140.12 168.48 140.241C168.681 140.349 168.85 140.507 168.972 140.7C169.092 140.892 169.157 141.114 169.16 141.341H168.404C168.393 141.182 168.321 141.034 168.202 140.928C168.073 140.819 167.913 140.751 167.744 140.736V142.009L167.94 142.061C168.153 142.116 168.359 142.195 168.554 142.298C168.745 142.396 168.909 142.539 169.034 142.713C169.163 142.908 169.228 143.138 169.219 143.371C169.224 143.544 169.192 143.717 169.125 143.878C169.059 144.038 168.959 144.183 168.832 144.302C168.53 144.564 168.145 144.709 167.745 144.712V145.277H167.393ZM167.744 144.009C167.93 143.992 168.106 143.918 168.247 143.795C168.308 143.742 168.357 143.675 168.39 143.601C168.423 143.527 168.44 143.446 168.438 143.365C168.442 143.29 168.427 143.215 168.393 143.148C168.36 143.081 168.31 143.024 168.248 142.981C168.094 142.88 167.923 142.805 167.744 142.76L167.744 144.009ZM167.393 141.916V140.74C167.228 140.758 167.072 140.829 166.951 140.942C166.9 140.992 166.859 141.052 166.832 141.118C166.804 141.184 166.791 141.255 166.792 141.326C166.788 141.401 166.803 141.475 166.835 141.542C166.868 141.609 166.917 141.667 166.978 141.71C167.105 141.801 167.245 141.871 167.394 141.917L167.393 141.916Z" fill="#090814"/>
<path d="M204.896 140.192H210.729C211.116 140.192 211.487 140.345 211.76 140.618C212.034 140.89 212.188 141.26 212.188 141.645V143.098C212.188 143.483 212.034 143.853 211.76 144.125C211.487 144.398 211.116 144.551 210.729 144.551H204.896C204.509 144.551 204.138 144.398 203.865 144.125C203.591 143.853 203.438 143.483 203.438 143.098V141.645C203.438 141.26 203.591 140.89 203.865 140.618C204.138 140.345 204.509 140.192 204.896 140.192Z" fill="#D6D6E3"/>
<path d="M215.883 145.277V144.712C215.486 144.706 215.103 144.563 214.8 144.308C214.663 144.18 214.555 144.025 214.482 143.853C214.409 143.681 214.372 143.495 214.375 143.308H215.144C215.146 143.402 215.168 143.494 215.208 143.578C215.247 143.663 215.304 143.738 215.375 143.8C215.52 143.92 215.698 143.993 215.885 144.012V142.661L215.651 142.597C215.334 142.524 215.041 142.372 214.8 142.155C214.698 142.054 214.618 141.932 214.565 141.798C214.513 141.664 214.489 141.52 214.495 141.376C214.49 141.143 214.552 140.914 214.674 140.715C214.796 140.521 214.966 140.363 215.168 140.254C215.389 140.134 215.632 140.062 215.883 140.043V139.466H216.233V140.04C216.491 140.051 216.743 140.12 216.97 140.241C217.171 140.349 217.34 140.507 217.462 140.7C217.582 140.892 217.647 141.114 217.649 141.341H216.894C216.883 141.182 216.81 141.034 216.692 140.928C216.563 140.819 216.403 140.751 216.234 140.736V142.009L216.429 142.061C216.643 142.116 216.849 142.195 217.044 142.298C217.235 142.396 217.399 142.539 217.524 142.713C217.653 142.908 217.718 143.138 217.708 143.371C217.714 143.544 217.682 143.717 217.615 143.878C217.549 144.038 217.448 144.183 217.322 144.302C217.02 144.564 216.634 144.709 216.234 144.712V145.277H215.883ZM216.233 144.009C216.419 143.992 216.596 143.918 216.737 143.795C216.798 143.742 216.847 143.675 216.88 143.601C216.913 143.527 216.93 143.446 216.928 143.365C216.932 143.29 216.916 143.215 216.883 143.148C216.85 143.081 216.8 143.024 216.738 142.981C216.584 142.88 216.413 142.805 216.234 142.76L216.233 144.009ZM215.883 141.916V140.74C215.717 140.758 215.562 140.829 215.441 140.942C215.389 140.992 215.349 141.052 215.321 141.118C215.294 141.184 215.281 141.255 215.282 141.326C215.278 141.401 215.293 141.475 215.325 141.542C215.358 141.609 215.407 141.667 215.467 141.71C215.594 141.801 215.735 141.871 215.884 141.917L215.883 141.916Z" fill="#090814"/>
<path d="M253.386 140.192H259.219C259.606 140.192 259.977 140.345 260.25 140.618C260.524 140.89 260.677 141.26 260.677 141.645V143.098C260.677 143.483 260.524 143.853 260.25 144.125C259.977 144.398 259.606 144.551 259.219 144.551H253.386C252.999 144.551 252.628 144.398 252.354 144.125C252.081 143.853 251.927 143.483 251.927 143.098V141.645C251.927 141.26 252.081 140.89 252.354 140.618C252.628 140.345 252.999 140.192 253.386 140.192Z" fill="#D6D6E3"/>
<path d="M264.373 145.277V144.712C263.976 144.706 263.593 144.563 263.29 144.308C263.153 144.18 263.045 144.025 262.972 143.853C262.898 143.681 262.862 143.495 262.864 143.308H263.634C263.636 143.402 263.658 143.494 263.697 143.578C263.737 143.663 263.794 143.738 263.864 143.8C264.01 143.92 264.187 143.993 264.375 144.012V142.661L264.141 142.597C263.824 142.524 263.531 142.372 263.29 142.155C263.188 142.054 263.108 141.932 263.055 141.798C263.003 141.664 262.979 141.52 262.985 141.376C262.98 141.143 263.042 140.914 263.164 140.715C263.286 140.521 263.456 140.363 263.657 140.254C263.878 140.134 264.122 140.062 264.373 140.043V139.466H264.723V140.04C264.981 140.051 265.232 140.12 265.46 140.241C265.661 140.349 265.83 140.507 265.952 140.7C266.072 140.892 266.136 141.114 266.139 141.341H265.384C265.372 141.182 265.3 141.034 265.182 140.928C265.052 140.819 264.892 140.751 264.723 140.736V142.009L264.919 142.061C265.133 142.116 265.339 142.195 265.533 142.298C265.724 142.396 265.889 142.539 266.013 142.713C266.143 142.908 266.208 143.138 266.198 143.371C266.203 143.544 266.172 143.717 266.105 143.878C266.038 144.038 265.938 144.183 265.811 144.302C265.51 144.564 265.124 144.709 264.724 144.712V145.277H264.373ZM264.723 144.009C264.909 143.992 265.085 143.918 265.227 143.795C265.288 143.742 265.337 143.675 265.37 143.601C265.403 143.527 265.419 143.446 265.418 143.365C265.422 143.29 265.406 143.215 265.373 143.148C265.34 143.081 265.29 143.024 265.228 142.981C265.073 142.88 264.903 142.805 264.723 142.76L264.723 144.009ZM264.373 141.916V140.74C264.207 140.758 264.052 140.829 263.93 140.942C263.879 140.992 263.838 141.052 263.811 141.118C263.784 141.184 263.77 141.255 263.771 141.326C263.768 141.401 263.783 141.475 263.815 141.542C263.847 141.609 263.896 141.667 263.957 141.71C264.084 141.801 264.225 141.871 264.374 141.917L264.373 141.916Z" fill="#090814"/>
<path d="M164.605 92.739C164.605 92.739 163.555 97.5887 164.987 97.4939C166.419 97.3991 165.751 93.0245 165.751 93.0245L164.605 92.739Z" fill="#A0616A"/>
<path d="M170.333 115.847L171.001 119.366L172.529 119.176L172.052 115.372L170.333 115.847Z" fill="#A0616A"/>
<path d="M178.065 112.424L178.447 114.992H180.452L180.07 112.614L178.065 112.424Z" fill="#A0616A"/>
<path d="M168.806 90.3616C168.806 90.3616 167.183 93.4996 167.756 101.298C168.328 109.096 168.328 116.513 168.328 116.513L172.433 116.228L173.579 96.8283L178.065 113.66L181.025 113.375L180.261 96.9223L177.874 89.032L168.806 90.3616Z" fill="#090814"/>
<path d="M171.574 117.749C171.574 117.749 171.86 116.893 171.383 116.893H170.333C170.333 116.893 169.187 118.985 168.519 119.176C167.85 119.366 165.75 121.173 167.755 121.363C169.759 121.552 172.814 120.507 172.814 120.128C172.814 119.749 172.528 118.13 172.528 118.13L171.574 117.749Z" fill="#090814"/>
<path d="M179.974 114.421C179.974 114.421 178.219 113.938 178.333 114.227C178.447 114.516 178.065 115.372 178.065 115.372C178.065 115.372 177.111 120.792 179.975 120.317C182.838 119.841 180.738 115.752 180.738 115.752L180.314 114.134L179.974 114.421Z" fill="#090814"/>
<path d="M171.956 69.8212C173.537 69.8212 174.819 68.544 174.819 66.9684C174.819 65.3928 173.537 64.1155 171.956 64.1155C170.374 64.1155 169.092 65.3928 169.092 66.9684C169.092 68.544 170.374 69.8212 171.956 69.8212Z" fill="#A0616A"/>
<path d="M170.046 68.4897C170.046 68.4897 170.524 71.2475 170.237 71.818C169.951 72.3886 172.528 73.5298 172.528 73.5298L173.865 70.2974V68.4905L170.046 68.4897Z" fill="#A0616A"/>
<path d="M171.574 71.7242C171.574 71.7242 170.705 71.8517 170.328 71.2157C169.951 70.5798 169.092 75.6216 169.092 75.6216C169.092 75.6216 169.474 82.2782 168.997 83.8C168.519 85.3217 168.615 85.8919 168.806 86.1774C168.996 86.4629 169.569 86.0823 169.092 86.8431C168.615 87.604 168.615 87.1283 168.615 87.8891C168.615 88.65 168.424 91.4078 168.424 91.4078L178.734 90.6469L173.865 69.821C173.865 69.821 172.242 71.8182 171.574 71.7242Z" fill="#ED862D"/>
<path d="M175.583 70.8669C175.583 70.8669 179.497 71.4375 179.688 72.2932C179.879 73.1489 183.698 96.9227 181.693 98.159C179.688 99.3953 173.198 100.346 172.911 99.1098C172.624 97.8735 171.097 72.6734 173.866 69.8206L175.583 70.8669Z" fill="#D0CDE1"/>
<path d="M181.096 95.9171H180.294C180.294 95.9171 180.54 93.0301 180.294 92.7639C180.294 92.7639 178.053 92.5183 175.792 94.975C175.929 94.1947 176.334 93.4862 176.938 92.9707C177.542 92.4552 178.307 92.1648 179.101 92.1493C180.037 92.1036 180.578 92.474 180.88 92.9992C181.523 94.1138 181.096 95.9171 181.096 95.9171Z" fill="#090814"/>
<path opacity="0.15" d="M181.096 95.917H180.293C180.293 95.917 180.54 93.03 180.293 92.7642L180.88 92.9995C181.522 94.1112 181.096 95.917 181.096 95.917Z" fill="black"/>
<path d="M176.389 94.0334L175.279 95.917H175.792C175.792 95.917 175.875 94.5248 176.389 94.0334Z" fill="#3F3D56"/>
<path opacity="0.15" d="M176.389 94.0334L175.279 95.917H175.792C175.792 95.917 175.875 94.5248 176.389 94.0334Z" fill="black"/>
<path d="M185.864 103.882C185.879 104.198 185.817 104.513 185.683 104.801C185.549 105.088 185.346 105.338 185.093 105.53C185.093 105.53 174.879 107.946 173.748 107.741C173.609 107.715 173.475 107.671 173.347 107.61C172.446 107.184 171.878 106.021 171.878 106.021C171.878 106.021 171.861 105.72 171.836 105.231C171.788 104.284 171.709 102.629 171.666 101.071C171.604 99.8856 171.616 98.6977 171.702 97.514C171.928 96.0612 173.489 95.9374 173.489 95.9374L183.889 95.487C184.23 95.4835 184.571 95.5279 184.9 95.6188C186.024 95.9552 185.862 96.8174 185.862 96.8174C185.862 96.8174 185.823 102.774 185.864 103.882Z" fill="#E6E6E6"/>
<path d="M184.902 95.6196C184.265 95.8175 182.733 96.2533 182.185 96.0609C181.486 95.8153 176.081 95.9791 174.108 96.2043C172.134 96.4295 172.832 101.753 172.832 101.753L171.665 101.071C171.603 99.8863 171.615 98.6984 171.701 97.5147C171.927 96.0619 173.488 95.9381 173.488 95.9381L183.888 95.4877C184.229 95.4843 184.57 95.5286 184.899 95.6196H184.902Z" fill="#090814"/>
<path d="M177.438 99.4389C177.438 99.4389 176.448 93.9267 178.268 93.1716L178.506 93.1738C178.506 93.1738 177.931 93.9314 178.157 95.3236C178.383 96.7157 178.26 99.8892 178.26 99.8892C178.26 99.8892 177.561 100.299 177.438 99.4389Z" fill="#090814"/>
<path d="M178.157 93.3576C178.478 92.8652 178.974 92.5115 179.546 92.3673C180.117 92.2231 180.722 92.2989 181.24 92.5797C183.234 93.5421 183.419 95.7325 183.419 95.7325C183.419 95.7325 182.042 91.72 178.157 93.3576Z" fill="#2F2E41"/>
<path d="M183.563 99.6641L183.234 97.555L183.399 95.5803L183.81 97.6164L183.995 99.6637L183.563 99.6641Z" fill="#2F2E41"/>
<path d="M173.656 107.956C173.603 107.944 173.555 107.917 173.517 107.879C173.671 107.94 173.735 107.973 173.656 107.956Z" fill="#2F2E41"/>
<path d="M170.327 71.01L166.608 74.6714L167.945 86.5583C167.945 86.5583 165.272 100.632 166.799 100.632C168.326 100.632 168.136 100.823 168.422 99.7767C168.708 98.7307 170.327 71.01 170.327 71.01Z" fill="#D0CDE1"/>
<path d="M167.564 74.386L166.61 74.6711C166.327 74.9357 166.11 75.2629 165.978 75.6263C165.845 75.9897 165.8 76.3791 165.846 76.7631C165.942 78.1893 165.751 82.2785 165.751 82.2785C165.751 82.2785 165.178 83.1342 164.128 93.3094L167.087 93.7848L168.137 89.0299L167.564 74.386Z" fill="#D0CDE1"/>
<path d="M179.401 89.5042C179.401 89.5042 178.256 95.4968 179.401 95.1148C180.547 94.7327 181.978 90.5502 181.024 89.8848C180.069 89.2194 179.401 89.5042 179.401 89.5042Z" fill="#A0616A"/>
<path d="M169.085 67.3033C168.914 67.0334 168.849 66.7097 168.905 66.3953C168.972 66.1281 168.998 65.8524 168.983 65.5774C169.11 65.1698 169.268 64.7728 169.457 64.3901C169.693 63.9645 169.581 63.785 170.323 63.6507C171.065 63.5163 170.761 62.5527 172.718 63.5947C172.784 63.6866 172.876 63.7569 172.982 63.7967C173.088 63.8366 173.204 63.8443 173.315 63.8188C173.719 63.7404 173.865 64.3004 173.865 64.3004C173.865 64.3004 174.135 64.1435 174.237 64.3676C174.338 64.5917 175.059 64.2332 175.059 65.7455C175.021 66.7518 174.739 67.7339 174.238 68.6086C174.238 68.6086 174.299 66.0662 172.961 65.8073C171.622 65.5483 170.183 64.7991 169.835 65.7626C169.646 66.3033 169.395 66.8203 169.087 67.3029L169.085 67.3033Z" fill="#2F2E41"/>
<path d="M178.065 71.7229C178.065 71.7229 180.26 71.3426 180.738 74.1955C181.215 77.0484 182.456 82.6579 182.456 82.6579L182.115 91.2187L178.924 90.1702L179.019 83.6087L177.396 73.8138L178.065 71.7229Z" fill="#D0CDE1"/>
<path opacity="0.15" d="M177.838 75.5747L178.762 83.6579L178.549 90.5048L179.545 83.8482L177.838 75.5747Z" fill="black"/>
<path d="M268.82 101.16L269.282 104.756C269.282 104.756 269.468 105.954 269.653 106.599C269.653 106.599 269.467 110.01 270.948 112.407L271.873 114.158L272.058 116.739L274.372 117.016L273.909 113.144C273.909 113.144 273.724 111.301 273.909 110.563C274.094 109.825 272.984 106.415 272.984 106.415C272.984 106.415 274.464 101.62 273.354 100.422C272.243 99.2233 268.82 101.16 268.82 101.16Z" fill="#ED9DA0"/>
<path d="M272.892 116.001C272.892 116.001 271.874 116.001 271.781 116.278C271.688 116.554 270.208 119.043 270.208 119.043C270.208 119.043 268.912 121.071 270.763 121.164C272.614 121.256 273.169 120.426 273.169 120.426C273.169 120.426 274.835 117.752 274.927 117.292C275.02 116.831 274.232 115.843 274.232 115.843C274.232 115.843 273.169 116.555 272.892 116.001Z" fill="#090814"/>
<path d="M270.439 72.3526C271.26 72.1637 271.521 70.5152 271.604 69.4874C271.222 68.9395 271.025 68.2844 271.042 67.6174C271.06 66.9503 271.29 66.3062 271.7 65.7788C272.111 65.2514 272.679 64.8682 273.323 64.685C273.967 64.5017 274.653 64.528 275.281 64.7601C275.909 64.9921 276.447 65.4179 276.815 65.9752C277.183 66.5325 277.363 67.1923 277.329 67.8587C277.295 68.5251 277.048 69.1632 276.624 69.6801C276.201 70.197 275.623 70.5658 274.974 70.7328C275.164 71.3876 275.478 72.0001 275.899 72.5371C275.899 72.5371 275.251 75.0264 273.679 75.3951C273.589 75.4155 273.498 75.4257 273.406 75.4252C271.8 75.4248 269.303 72.6137 270.439 72.3526Z" fill="#ED9DA0"/>
<path d="M272.984 73.4131C272.542 73.3993 272.111 73.2804 271.724 73.0664C271.338 72.8524 271.009 72.5495 270.764 72.183C270.265 72.2597 269.771 72.3627 269.283 72.4913C269.098 72.5836 265.859 73.5976 265.119 75.7179L268.08 79.4973C268.08 79.4973 267.432 84.8439 268.08 87.2406C268.466 88.6761 268.368 90.1981 267.802 91.5731C267.802 91.5731 267.525 91.6654 267.988 91.8495C268.45 92.0336 279.092 89.9137 279.277 89.3605C279.462 88.8074 279.092 88.8074 279.369 88.531C279.647 88.2546 280.387 86.5952 279.647 86.042C278.906 85.4889 278.444 79.4047 278.444 79.4047L280.387 74.519C280.387 74.519 276.836 71.6916 275.557 72.045C275.557 72.045 275.297 73.4131 272.984 73.4131Z" fill="#D0CDE1"/>
<path d="M274.187 99.3164C274.187 99.3164 274.002 103.372 274.372 104.94C274.569 105.663 274.693 106.404 274.742 107.152C274.415 108.853 274.322 110.589 274.465 112.315C274.742 114.804 274.141 118.816 274.141 118.816L276.408 119.506L277.796 112.5C277.796 112.5 278.906 108.167 278.259 106.139C278.259 106.139 278.629 99.9628 278.906 99.3178C279.184 98.6728 274.187 99.3164 274.187 99.3164Z" fill="#ED9DA0"/>
<path d="M272.01 68.8711C272.015 68.7225 272.052 68.5767 272.118 68.4432C272.183 68.3098 272.277 68.1918 272.392 68.0972C272.679 67.9776 272.996 67.9515 273.299 68.0223C273.608 68.0449 273.986 67.9679 274.087 67.6766C274.15 67.495 274.082 67.2771 274.181 67.1129C274.338 66.85 274.818 66.8801 274.9 66.5856C274.907 66.4893 274.92 66.3936 274.939 66.299C274.973 66.2435 275.02 66.1968 275.076 66.1625C275.132 66.1281 275.195 66.1071 275.261 66.1011C275.728 65.9933 276.208 65.9512 276.687 65.9758C276.734 65.9841 276.782 65.9747 276.822 65.9492C276.843 65.9283 276.858 65.9021 276.866 65.8733C276.911 65.7086 276.914 65.5353 276.875 65.369C276.836 65.2028 276.757 65.0486 276.644 64.9203C276.415 64.6661 276.132 64.4651 275.817 64.3316C275.118 63.9939 274.36 63.7932 273.585 63.7407C272.993 63.6749 272.394 63.7927 271.872 64.0781C271.723 64.1718 271.584 64.2814 271.459 64.4049C270.912 64.9513 270.556 65.6581 270.442 66.4214C270.331 67.1828 270.417 67.9596 270.69 68.679C270.835 69.1335 271.115 69.5336 271.493 69.8263C271.701 69.9694 271.882 70.1013 271.968 69.8586C272.009 69.5311 272.023 69.2009 272.01 68.8711Z" fill="#090814"/>
<path d="M268.265 91.0196C268.265 91.0196 266.877 92.8631 267.154 94.1539C267.485 95.3264 267.919 96.4677 268.45 97.5646C268.45 97.5646 267.894 101.713 268.82 101.713C269.745 101.713 273.724 101.529 273.817 101.068C273.909 100.607 273.539 95.9975 273.539 95.9975C273.539 95.9975 274.002 100.054 274.28 100.054C274.558 100.054 279.369 100.515 279.554 100.238C279.739 99.9617 280.109 92.8635 280.109 92.8635C280.109 92.8635 280.614 89.5159 279.02 89.0696C277.426 88.6232 268.265 91.0196 268.265 91.0196Z" fill="#090814"/>
<path d="M275.667 118.767C275.667 118.767 274.001 117.845 273.909 118.583C273.817 119.32 272.799 121.993 272.799 121.993C272.799 121.993 271.781 124.114 274.002 124.206C276.223 124.298 276.778 123.284 276.778 122.823C276.778 122.362 276.529 119.2 276.529 119.2L275.667 118.767Z" fill="#090814"/>
<path d="M281.405 79.4973L281.868 83.5534C281.868 83.5534 282.423 85.766 282.053 86.6878C281.683 87.6096 280.295 91.8502 280.295 91.8502C280.295 91.8502 279.925 89.5458 278.999 89.269L279.555 84.0147C279.555 84.0147 278.23 80.7358 278.522 80.3011C278.815 79.8663 281.405 79.4973 281.405 79.4973Z" fill="#ED9DA0"/>
<path d="M264.933 79.7737L265.118 83.4612C264.767 85.6926 264.99 87.9764 265.766 90.0985L265.951 91.5734L267.155 93.8779C267.155 93.8779 267.432 91.6653 267.987 91.6653C267.987 91.6653 267.432 90.1904 267.617 89.3609C267.802 88.5313 267.525 84.1066 267.525 84.1066L267.987 80.5269L264.933 79.7737Z" fill="#ED9DA0"/>
<path d="M279.369 74.4268H280.386C280.386 74.4268 282.792 79.9578 281.867 80.0501C280.941 80.1423 277.98 80.8796 277.888 80.511C277.795 80.1423 279.369 74.4268 279.369 74.4268Z" fill="#D0CDE1"/>
<path d="M265.951 74.8882L265.119 75.7177C265.119 75.7177 264.008 79.8661 264.841 80.327C265.674 80.7879 268.82 81.341 269.005 80.9724C269.191 80.6037 265.951 74.8882 265.951 74.8882Z" fill="#D0CDE1"/>
<path d="M229.838 72.1192C229.619 71.9282 229.467 71.6728 229.404 71.3901C229.341 71.1073 229.37 70.8119 229.487 70.5467C229.604 70.2815 229.803 70.0605 230.055 69.9156C230.307 69.7707 230.598 69.7095 230.887 69.741C230.677 69.7637 230.475 69.8346 230.297 69.9481C230.119 70.0617 229.97 70.2149 229.861 70.3955C229.753 70.5762 229.688 70.7795 229.671 70.9895C229.655 71.1994 229.687 71.4103 229.767 71.6056C229.784 71.2677 229.927 70.9483 230.168 70.7098C230.409 70.4714 230.731 70.3309 231.07 70.3158C231.409 70.3007 231.742 70.412 232.003 70.6282C232.265 70.8443 232.436 71.1496 232.483 71.4847C232.531 71.8197 232.452 72.1604 232.261 72.4403C232.07 72.7201 231.781 72.9191 231.451 72.9983C231.121 73.0776 230.773 73.0314 230.475 72.8689C230.177 72.7063 229.95 72.439 229.839 72.1192H229.838Z" fill="#090814"/>
<path d="M229.764 71.679C229.764 71.679 229.552 72.6519 230.879 73.0409L229.764 71.679Z" fill="#ED862D"/>
<path d="M231.697 80.9306C234.232 80.9306 236.287 78.8834 236.287 76.358C236.287 73.8326 234.232 71.7854 231.697 71.7854C229.162 71.7854 227.107 73.8326 227.107 76.358C227.107 78.8834 229.162 80.9306 231.697 80.9306Z" fill="#090814"/>
<path d="M227.265 90.6208L227.101 94.0581L234.987 96.6771C234.987 96.6771 234.576 92.3395 234.823 91.9305L227.265 90.6208Z" fill="#A0616A"/>
<path d="M214.449 105.925L213.71 108.789H217.16V105.925H214.449Z" fill="#A0616A"/>
<path d="M232.358 106.686L233.919 107.234L234.741 105.179L233.344 104.083L232.358 106.686Z" fill="#A0616A"/>
<path d="M235.125 103.119C235.125 103.119 237.453 102.815 237.453 104.779C237.453 106.743 237.781 111.571 234.495 110.998C234.495 110.998 233.016 111.162 233.591 109.444C233.591 109.444 234.177 108.745 233.966 108.318C233.755 107.891 232.523 107.563 232.687 107.317C232.852 107.072 234.659 105.107 234.659 105.107L235.125 103.119Z" fill="#090814"/>
<path d="M235.152 96.2676L227.101 93.4851L226.608 95.4493C226.608 95.4493 214.532 88.4931 213.792 93.2396C213.413 96.211 213.524 99.2243 214.121 102.16L214.203 106.252C214.203 106.252 216.256 106.743 217.242 106.334L217.324 101.914C217.324 101.914 218.146 99.05 217.735 96.8403C217.735 96.8403 223.897 101.669 226.69 102.242C226.69 102.242 216.913 109.771 218.064 112.144C219.214 114.517 220.61 114.927 222.418 114.518C223.663 114.236 229.239 109.756 232.586 107C233.733 106.063 234.644 104.872 235.245 103.522C235.847 102.172 236.122 100.7 236.05 99.2247C236.035 98.1746 235.724 97.1497 235.152 96.2676Z" fill="#090814"/>
<path d="M214.285 107.725C214.285 107.725 214.203 106.744 213.71 107.152C213.217 107.56 211.492 109.116 211.492 109.116C211.492 109.116 205.248 110.753 209.027 112.308C210.753 112.567 212.517 112.341 214.121 111.654C214.121 111.654 218.32 111.774 218.233 110.732C218.146 109.69 217.161 107.95 217.161 107.95C217.161 107.95 216.01 108.79 214.696 107.644L214.285 107.725Z" fill="#090814"/>
<path d="M227.512 85.4646L228.908 83.0095C228.908 83.0095 230.23 82.2467 230.057 81.1692C229.43 81.0658 228.851 80.7691 228.402 80.3208C227.953 79.8725 227.656 79.2952 227.554 78.6701C227.451 78.045 227.548 77.4037 227.831 76.8365C228.114 76.2693 228.568 75.8047 229.13 75.5082C229.692 75.2117 230.333 75.0982 230.963 75.1837C231.593 75.2692 232.18 75.5494 232.641 75.9849C233.103 76.4203 233.416 76.989 233.536 77.6109C233.656 78.2328 233.578 78.8766 233.311 79.4516C233.546 80.1816 233.918 81.0591 234.413 81.3729L229.401 87.265L227.512 85.4646Z" fill="#A0616A"/>
<path d="M234.823 81.6184C234.823 81.6184 238.438 82.355 238.849 84.7284C239.259 87.1019 238.438 91.4391 238.438 91.4391L236.713 104.206C236.713 104.206 236.63 109.607 234.494 108.707C232.358 107.807 235.069 103.715 235.069 103.715L235.809 95.6947C235.809 95.6947 236.137 88.903 235.481 88.0836L232.852 87.2653C232.852 87.2653 233.427 81.8639 234.823 81.6184Z" fill="#A0616A"/>
<path d="M228.908 83.0095C228.908 83.0095 226.444 82.9278 224.883 84.8919C223.322 86.8561 219.543 88.3292 219.543 88.3292L214.498 90.8036C214.498 90.8036 209.974 93.2824 212.183 95.4638C214.391 97.6451 213.677 92.604 215.073 92.2767C216.469 91.9495 220.529 90.6209 220.529 90.6209L227.265 87.5937L228.908 83.0095Z" fill="#A0616A"/>
<path d="M234.285 81.178C234.285 81.178 231.127 85.383 229.73 85.3013C228.333 85.2196 229.274 82.7328 229.274 82.7328L228.289 82.9783C228.289 82.9783 226.938 85.5468 226.774 85.7103C226.774 85.7103 224.802 88.902 227.02 89.6386L227.102 91.3572C227.102 91.3572 232.608 91.1117 234.989 92.3378L235.482 88.0823C235.482 88.0823 232.36 86.5274 234.085 83.4991C234.085 83.4991 234.697 81.9127 235.354 81.7493L234.285 81.178Z" fill="#ED862D"/>
<path opacity="0.1" d="M235.111 103.674L222.542 112.84C222.542 112.84 235.193 105.393 235.111 103.674Z" fill="black"/>
<path d="M230.717 74.6267C229.099 74.6267 227.787 75.3894 227.787 76.3294C227.804 76.5561 227.876 76.7753 227.998 76.9676C228.12 77.1598 228.288 77.3192 228.486 77.4316L229.05 77.0245L228.897 77.6623C228.96 77.6917 229.025 77.72 229.093 77.7465L229.936 76.7659V77.9688C230.194 78.0101 230.455 78.0307 230.717 78.0306C232.335 78.0306 233.647 77.2678 233.647 76.3279C233.647 75.388 232.335 74.6267 230.717 74.6267Z" fill="#090814"/>
<path d="M235.424 74.2471C235.205 74.0562 235.054 73.8008 234.991 73.518C234.927 73.2352 234.957 72.9398 235.074 72.6746C235.191 72.4095 235.39 72.1884 235.641 72.0435C235.893 71.8986 236.185 71.8374 236.474 71.8689C236.264 71.8916 236.062 71.9625 235.883 72.0761C235.705 72.1896 235.556 72.3428 235.448 72.5235C235.339 72.7042 235.274 72.9075 235.258 73.1174C235.241 73.3274 235.274 73.5383 235.353 73.7335C235.37 73.3956 235.514 73.0762 235.754 72.8378C235.995 72.5993 236.317 72.4588 236.656 72.4437C236.996 72.4286 237.328 72.54 237.59 72.7561C237.851 72.9722 238.022 73.2776 238.07 73.6126C238.117 73.9477 238.038 74.2883 237.847 74.5682C237.656 74.8481 237.367 75.047 237.037 75.1262C236.707 75.2055 236.359 75.1593 236.061 74.9968C235.763 74.8342 235.537 74.567 235.426 74.2471H235.424Z" fill="#090814"/>
<path d="M235.351 73.8066C235.351 73.8066 235.139 74.7796 236.465 75.1686L235.351 73.8066Z" fill="#ED862D"/>
<path d="M124.35 73.115L125.178 78.9431H131.792L131.474 68.6379C131.474 66.4199 129.677 64.4797 127.077 64.4797C124.477 64.4797 122.785 66.3295 122.785 68.5475L122.361 78.9428H123.44L124.35 73.115Z" fill="#090814"/>
<path d="M128.328 114.969C128.328 114.969 128.042 116.77 127.567 117.054C127.091 117.338 130.041 118.002 130.041 118.002L130.515 115.158L128.328 114.969Z" fill="#ED9DA0"/>
<path d="M131.849 94.3987L132.895 95.631L132.422 99.8967L132.041 108.333C132.041 108.333 132.802 115.633 132.041 115.821C131.28 116.009 127.854 115.916 127.949 115.442C128.044 114.968 128.139 114.589 128.33 113.925C128.52 113.262 128.139 110.892 128.139 110.892L128.613 108.238L126.9 96.7681L131.849 94.3987Z" fill="#090814"/>
<path d="M128.423 116.77C128.423 116.77 127.377 116.58 127.281 116.77C127.186 116.959 125.378 118.949 125.094 118.949C124.81 118.949 122.715 120.845 124.904 120.939C127.092 121.034 130.708 119.328 130.708 119.328C130.708 119.328 130.176 116.916 130.204 117.032C130.233 117.148 128.423 117.243 128.423 116.77Z" fill="#090814"/>
<path d="M127.281 112.409C127.281 112.409 129.946 115.348 130.041 115.632C130.136 115.917 131.563 115.632 131.563 115.632L132.134 113.736L131.66 113.073L128.996 110.894L127.281 112.409Z" fill="#ED9DA0"/>
<path d="M131.088 114.589L129.708 115.883C129.708 115.883 131.468 118.571 131.468 118.855C131.468 119.139 131.563 121.509 132.515 121.13C133.467 120.751 133.562 116.959 133.562 116.959C133.562 116.959 133.467 113.073 132.896 112.788C132.325 112.504 131.073 112.594 131.073 112.594C131.073 112.594 131.849 114.495 131.088 114.589Z" fill="#090814"/>
<path d="M123.19 85.9625C123.19 85.9625 122.716 87.4792 122.619 87.8584C122.209 88.8193 121.983 89.8481 121.953 90.8918C121.953 92.5033 122.143 94.3991 121.953 94.5887C121.762 94.7783 118.717 105.395 120.049 106.532C121.382 107.67 125.759 111.462 126.044 111.936C126.33 112.409 126.425 113.547 126.996 113.357C127.567 113.168 129.755 111.272 129.851 110.893C129.946 110.514 128.614 109.85 128.614 109.85C128.614 109.85 125.949 105.964 125.283 106.058C124.617 106.153 124.712 104.068 124.809 103.689C124.906 103.309 127.093 98.1905 127.093 98.1905L132.897 95.6311C132.897 95.6311 132.612 88.7115 130.518 86.8157L130.045 85.6782C130.045 85.6782 124.712 85.299 123.19 85.9625Z" fill="#090814"/>
<path d="M122.809 74.6824C122.809 74.5877 123.761 74.6824 124.903 74.4929C125.623 74.3734 125.699 73.0074 125.658 72.0163C125.08 71.7097 124.62 71.2201 124.352 70.6246C124.084 70.0291 124.022 69.3616 124.177 68.7274C124.332 68.0933 124.694 67.5285 125.207 67.1222C125.72 66.7159 126.354 66.4912 127.009 66.4836C127.664 66.476 128.303 66.6858 128.825 67.08C129.347 67.4742 129.723 68.0303 129.893 68.6607C130.062 69.2911 130.017 69.9598 129.763 70.5614C129.509 71.163 129.061 71.6632 128.49 71.9832C128.506 72.3395 128.518 72.7746 128.518 73.2605C128.518 74.5877 130.706 74.9676 130.706 74.9676L128.327 77.527L125.663 77.7166C125.663 77.7166 122.809 74.7772 122.809 74.6824Z" fill="#ED9DA0"/>
<path d="M125.322 74.2495C125.322 74.2495 120.716 74.6803 120.43 75.9126C120.145 77.1449 122.334 84.8228 122.618 85.4863C122.787 85.8403 122.853 86.2344 122.808 86.6238C123.239 86.303 123.733 86.0778 124.259 85.9634C124.784 85.8489 125.328 85.8479 125.853 85.9603C127.661 86.3395 130.23 86.1499 130.23 86.1499C130.23 86.1499 131.087 82.6425 131.277 82.2637C131.467 81.8849 132.229 79.7991 132.229 79.2303C132.229 78.6616 133.371 76.2917 133.371 76.2917C133.162 75.7713 132.79 75.3325 132.309 75.0417C131.828 74.751 131.266 74.6241 130.706 74.6803C130.706 74.6803 129.795 74.2731 129.536 74.5713C129.277 74.8695 127.851 76.1966 126.044 75.6278C124.236 75.0591 125.322 74.2495 125.322 74.2495Z" fill="#E6E6E6"/>
<path d="M131.563 75.8201L133.371 76.2922C133.371 76.2922 134.989 81.8854 135.274 84.7284C135.274 84.7284 134.8 82.9274 133.087 83.4013L131.945 78.2825L131.563 75.8201Z" fill="#E6E6E6"/>
<path d="M122.271 75.8201L120.463 76.2922C120.463 76.2922 118.845 82.9277 118.655 83.3069C118.465 83.6861 118.56 84.7288 118.56 84.7288C118.56 84.7288 119.034 82.9277 120.747 83.4017L121.889 78.2829L122.271 75.8201Z" fill="#E6E6E6"/>
<path d="M119.131 83.119L118.537 84.1087C118.537 84.1087 118.275 85.961 119.607 85.961C120.939 85.961 122.842 84.1599 122.842 84.1599C123.325 83.9617 123.843 83.8649 124.365 83.8755C124.936 83.9703 128.076 83.8756 126.744 82.2641C125.412 80.6526 123.128 82.2641 123.128 82.2641L120.75 83.4034L119.513 82.7398L119.131 83.119Z" fill="#ED9DA0"/>
<path d="M119.94 81.8392L120.892 83.3559C120.892 83.3559 118.704 83.6403 118.513 84.1143C118.321 84.5883 119.369 81.6497 119.369 81.6497L119.94 81.8392Z" fill="#E6E6E6"/>
<path d="M124.588 69.4217C126.504 67.9886 127.292 68.0492 129.675 69.4217L130.31 67.2727C130.31 66.4301 129.817 65.7473 129.21 65.7473H124.945C124.338 65.7473 123.846 66.4308 123.845 67.2727L124.588 69.4217Z" fill="#090814"/>
<path d="M134.703 83.119L135.298 84.1087C135.298 84.1087 135.56 85.961 134.228 85.961C132.896 85.961 130.992 84.1599 130.992 84.1599C130.51 83.9617 129.992 83.8649 129.47 83.8755C128.899 83.9703 125.759 83.8756 127.091 82.2641C128.423 80.6526 130.707 82.2641 130.707 82.2641L133.086 83.4016L134.323 82.738L134.703 83.119Z" fill="#ED9DA0"/>
<path d="M133.895 81.8392L132.943 83.3559C132.943 83.3559 135.131 83.6403 135.322 84.1143C135.514 84.5883 134.466 81.6497 134.466 81.6497L133.895 81.8392Z" fill="#E6E6E6"/>
<path d="M73.0913 82.9643C73.0913 82.9643 69.5913 87.8137 69.7608 89.7702C69.9304 91.7267 72.1521 123.63 72.1521 123.63L77.3617 123.884L75.8246 100.914L77.1057 94.7031L80.2656 123.628L86.6706 123.798L80.9488 86.2807L79.8387 82.9629L73.0913 82.9643Z" fill="#090814"/>
<path d="M74.1737 72.2616C74.478 71.9628 74.6954 71.5875 74.8026 71.1755C74.9099 70.7636 74.9031 70.3303 74.7829 69.9219C74.2167 69.5726 73.7817 69.0473 73.5452 68.4271C73.3086 67.8069 73.2837 67.1264 73.4741 66.4907C73.6646 65.855 74.0599 65.2994 74.599 64.9099C75.1381 64.5203 75.7909 64.3185 76.4567 64.3355C77.1224 64.3525 77.764 64.5874 78.2824 65.0039C78.8007 65.4205 79.167 65.9955 79.3245 66.6401C79.482 67.2847 79.4221 67.963 79.154 68.5703C78.8858 69.1776 78.4244 69.68 77.841 70C77.8961 70.4249 78.0426 70.8331 78.2705 71.1965C78.4984 71.5599 78.8023 71.8701 79.1615 72.1058L79.7948 76.3649L72.1943 76.9151C72.1943 76.9151 72.8276 73.5222 74.1737 72.2616Z" fill="#ED9DA0"/>
<path d="M72.9204 73.6064C72.9204 73.6064 73.4326 75.1377 75.6547 74.9677C77.0066 74.8553 78.3039 74.3853 79.4125 73.6064V83.5601L72.5806 83.3059V77.2649L72.9204 73.6064Z" fill="#ED862D"/>
<path d="M74.8862 70.9666L73.8599 71.2244L69.9315 73.0959L71.298 80.1571L72.2375 81.6884V83.5599L69.9319 86.7923C69.4133 89.0838 69.127 91.4214 69.0773 93.7699C68.992 97.6833 70.0168 96.6624 70.529 96.5774C71.0413 96.4924 72.1518 96.2371 72.1518 96.2371L70.3584 87.9L73.348 83.5613L73.8602 81.8598C73.8602 81.8598 73.6896 77.8614 73.0064 76.2448C73.0057 76.2437 74.6849 72.1963 74.8862 70.9666Z" fill="#3F3D56"/>
<path d="M77.9487 70.5979L79.667 71.4797L82.7415 72.4157L81.2897 80.4117L80.4359 82.1133L80.6065 83.8148C80.6065 83.8148 83.8068 87.2339 84.2786 94.0238C84.5265 97.5896 84.0142 97.4197 84.0142 97.4197L77.7029 97.3419L76.6792 83.2199L78.6432 72.5857L77.9487 70.5979Z" fill="#3F3D56"/>
<path d="M84.5345 90.366C84.5345 90.366 85.3884 94.024 83.6807 94.4493C81.973 94.8746 82.5705 90.366 82.5705 90.366H84.5345Z" fill="#ED9DA0"/>
<path d="M69.4713 86.5691C69.4713 86.5691 72.7598 88.4061 71.9242 89.9497C71.0886 91.4932 68.1475 88.0146 68.1475 88.0146L69.4713 86.5691Z" fill="#ED9DA0"/>
<path d="M81.4605 72.5857L82.7417 72.4158C82.7417 72.4158 83.5102 73.4367 83.5955 74.2023C83.6809 74.9679 85.0473 87.8994 85.0473 87.8994L86.4138 90.3666C86.4138 90.3666 86.3285 90.7919 85.6452 90.7919H84.962L84.7068 91.8128C84.7068 91.8128 84.1946 89.8559 82.2302 90.8768L81.4616 90.6226L81.9739 89.6867C81.9739 89.6867 81.4616 85.1776 81.4616 83.0508C81.4616 80.9239 81.291 78.6271 81.291 78.6271L81.4605 72.5857Z" fill="#3F3D56"/>
<path d="M75.2735 124.212C75.9442 124.212 76.4879 124.009 76.4879 123.758C76.4879 123.508 75.9442 123.304 75.2735 123.304C74.6028 123.304 74.0591 123.508 74.0591 123.758C74.0591 124.009 74.6028 124.212 75.2735 124.212Z" fill="#2F2E41"/>
<path d="M83.4703 124.212C84.141 124.212 84.6847 124.009 84.6847 123.758C84.6847 123.508 84.141 123.304 83.4703 123.304C82.7996 123.304 82.2559 123.508 82.2559 123.758C82.2559 124.009 82.7996 124.212 83.4703 124.212Z" fill="#2F2E41"/>
<path d="M70.8709 73.0107L69.9313 73.0957L67.7967 81.3482C67.7967 81.3482 66.9428 86.7928 67.1135 87.0481C67.1725 87.1908 67.1878 87.3478 67.1575 87.4992C67.1271 87.6505 67.0524 87.7896 66.9428 87.8987C66.7722 88.0687 67.6261 90.4509 68.4799 90.3659C68.9005 90.3524 69.3112 90.2355 69.6754 90.0256C69.6754 90.0256 68.9068 87.8137 70.8709 87.0474L71.3831 85.3458L70.8709 82.5384L71.5541 78.625L70.8709 73.0107Z" fill="#3F3D56"/>
<path d="M74.1728 64.3769C73.7778 64.5449 73.4429 64.8279 73.2122 65.1888C72.9814 65.5496 72.8655 65.9715 72.8796 66.3991C72.8732 66.6572 72.9019 66.915 72.9649 67.1655C73.0183 67.4694 73.0083 67.7811 72.9355 68.0811C72.8627 68.381 72.7286 68.6628 72.5416 68.9088C72.1819 69.4519 71.8532 70.0147 71.5572 70.5947L71.5532 70.6024C71.5532 70.6024 73.6171 71.3142 74.172 70.7712C74.7269 70.2283 74.0874 68.6473 74.0874 68.6473C74.0874 68.6473 73.6299 66.401 74.078 65.4054L74.0874 65.3847C74.2674 65.7006 74.5241 65.9664 74.834 66.1577C75.1439 66.349 75.4971 66.4596 75.8611 66.4794L75.439 66.0588C75.439 66.0588 77.2983 66.8161 77.9732 66.8161C77.9732 66.8161 78.4799 67.1528 77.9732 67.6576C77.4664 68.1624 76.4525 69.3406 77.0446 70.2664C77.6367 71.1922 77.1292 71.4446 77.1292 71.4446L78.0578 70.9398L78.4799 70.6855V71.0222L80.6762 70.768C80.6762 70.768 81.2675 70.6837 80.0003 69.2531C79.8142 68.9421 79.7474 68.5746 79.8121 68.2184C79.9324 67.8542 79.964 67.4668 79.9044 67.0881C79.6218 65.5151 78.508 62.3786 74.1728 64.3769Z" fill="#090814"/>
<path d="M59.7918 20.3389H80.2085C80.5953 20.3389 80.9662 20.4919 81.2397 20.7644C81.5132 21.0368 81.6668 21.4063 81.6668 21.7916V27.6027C81.6668 27.988 81.5132 28.3575 81.2397 28.63C80.9662 28.9024 80.5953 29.0555 80.2085 29.0555H59.7918C59.4051 29.0555 59.0341 28.9024 58.7606 28.63C58.4871 28.3575 58.3335 27.988 58.3335 27.6027V21.7916C58.3335 21.4063 58.4871 21.0368 58.7606 20.7644C59.0341 20.4919 59.4051 20.3389 59.7918 20.3389Z" fill="#ED862D"/>
<path d="M270.164 20.3389H275.998C276.384 20.3389 276.755 20.4919 277.029 20.7644C277.302 21.0368 277.456 21.4063 277.456 21.7916V27.6027C277.456 27.988 277.302 28.3575 277.029 28.63C276.755 28.9024 276.384 29.0555 275.998 29.0555H270.164C269.778 29.0555 269.407 28.9024 269.133 28.63C268.86 28.3575 268.706 27.988 268.706 27.6027V21.7916C268.706 21.4063 268.86 21.0368 269.133 20.7644C269.407 20.4919 269.778 20.3389 270.164 20.3389Z" fill="#E6E6E6"/>
<path d="M258.497 20.3389H264.331C264.718 20.3389 265.088 20.4919 265.362 20.7644C265.635 21.0368 265.789 21.4063 265.789 21.7916V27.6027C265.789 27.988 265.635 28.3575 265.362 28.63C265.088 28.9024 264.718 29.0555 264.331 29.0555H258.497C258.111 29.0555 257.74 28.9024 257.466 28.63C257.193 28.3575 257.039 27.988 257.039 27.6027V21.7916C257.039 21.4063 257.193 21.0368 257.466 20.7644C257.74 20.4919 258.111 20.3389 258.497 20.3389Z" fill="#E6E6E6"/>
<path d="M247.925 20.3389H253.758C254.145 20.3389 254.516 20.4919 254.789 20.7644C255.063 21.0368 255.216 21.4063 255.216 21.7916V27.6027C255.216 27.988 255.063 28.3575 254.789 28.63C254.516 28.9024 254.145 29.0555 253.758 29.0555H247.925C247.538 29.0555 247.167 28.9024 246.893 28.63C246.62 28.3575 246.466 27.988 246.466 27.6027V21.7916C246.466 21.4063 246.62 21.0368 246.893 20.7644C247.167 20.4919 247.538 20.3389 247.925 20.3389Z" fill="#E6E6E6"/>
<path d="M289.479 29.0554C289.311 29.0554 289.147 28.9972 289.017 28.8906C288.886 28.7841 288.797 28.6357 288.764 28.4709C288.731 28.3061 288.757 28.135 288.836 27.9867C288.916 27.8385 289.044 27.7223 289.2 27.658C289.356 27.5936 289.529 27.5851 289.691 27.6338C289.852 27.6826 289.992 27.7857 290.085 27.9254C290.179 28.0651 290.221 28.2329 290.205 28.4001C290.188 28.5674 290.114 28.7237 289.995 28.8426C289.927 28.9103 289.847 28.9639 289.758 29.0004C289.67 29.037 289.575 29.0556 289.479 29.0554ZM289.479 28.0112C289.425 28.0112 289.372 28.0272 289.327 28.0572C289.282 28.0871 289.247 28.1296 289.227 28.1793C289.206 28.2291 289.201 28.2839 289.211 28.3367C289.222 28.3896 289.248 28.4381 289.286 28.4762C289.324 28.5143 289.373 28.5403 289.426 28.5508C289.479 28.5613 289.534 28.5559 289.584 28.5353C289.634 28.5146 289.677 28.4798 289.707 28.435C289.737 28.3902 289.753 28.3375 289.753 28.2836C289.753 28.2114 289.724 28.1422 289.673 28.0911C289.621 28.04 289.552 28.0113 289.479 28.0112ZM284.74 29.01C284.555 29.0098 284.377 28.9399 284.243 28.8143C284.108 28.6887 284.026 28.5168 284.013 28.3333C284 28.1498 284.058 27.9684 284.175 27.8256C284.291 27.6829 284.457 27.5894 284.64 27.5641C284.458 27.5141 284.291 27.4179 284.157 27.2848C284.023 27.1518 283.926 26.9863 283.875 26.8047L282.276 21.0662H280.729C280.633 21.0662 280.54 21.028 280.472 20.9599C280.403 20.8918 280.365 20.7994 280.365 20.703C280.365 20.6067 280.403 20.5144 280.472 20.4462C280.54 20.3781 280.633 20.3398 280.729 20.3398H282.552C282.632 20.3398 282.71 20.3659 282.773 20.414C282.836 20.4621 282.882 20.5296 282.904 20.6061L283.336 22.1558H291.302C291.358 22.1558 291.414 22.1687 291.464 22.1936C291.515 22.2185 291.559 22.2546 291.593 22.2992C291.627 22.3438 291.65 22.3956 291.661 22.4506C291.671 22.5057 291.669 22.5624 291.654 22.6164L290.485 26.8058C290.421 27.0348 290.284 27.2368 290.094 27.381C289.904 27.5253 289.672 27.6038 289.434 27.6048H284.995C285.155 27.6642 285.29 27.7778 285.375 27.9259C285.459 28.074 285.489 28.2471 285.459 28.4149C285.428 28.5827 285.34 28.7345 285.208 28.8437C285.077 28.9528 284.911 29.0126 284.74 29.0122V29.01ZM284.74 28.0112C284.686 28.0112 284.633 28.0272 284.588 28.0572C284.543 28.0871 284.508 28.1296 284.487 28.1793C284.466 28.2291 284.461 28.2839 284.472 28.3367C284.482 28.3896 284.508 28.4381 284.546 28.4762C284.585 28.5143 284.633 28.5403 284.686 28.5508C284.739 28.5613 284.794 28.5559 284.844 28.5353C284.894 28.5146 284.937 28.4798 284.967 28.435C284.997 28.3902 285.013 28.3375 285.013 28.2836C285.013 28.2114 284.984 28.1422 284.933 28.0911C284.882 28.04 284.812 28.0113 284.74 28.0112ZM283.537 22.8811L284.576 26.6101C284.597 26.6866 284.643 26.7539 284.707 26.802C284.77 26.8501 284.847 26.8762 284.927 26.8762H289.432C289.511 26.8763 289.589 26.8502 289.652 26.8021C289.716 26.754 289.762 26.6866 289.783 26.6101L290.82 22.8811H283.537Z" fill="black"/>
</g>
<defs>
<clipPath id="clip0_84_1630">
<rect width="350" height="202" fill="white"/>
</clipPath>
</defs>
</svg>
