<svg width="613" height="415" viewBox="0 0 613 415" fill="none" xmlns="http://www.w3.org/2000/svg">
<g clip-path="url(#clip0_44_753)">
<path d="M41.2534 312.725C38.3426 312.725 35.4258 312.846 32.5773 313.088L32.1627 313.123C13.2687 314.795 -0.551471 324.495 0.0169119 335.688L0.126793 337.711C0.199255 338.991 0.27646 340.366 0.340008 341.892C0.374426 342.645 1.40018 343.222 2.67653 343.222H467.425C500.192 343.023 532.84 342.772 564.457 342.477C570.387 342.489 576.313 342.182 582.21 341.556C590.997 340.515 597.095 338.452 600.856 335.248H600.857C605.534 331.274 605.681 326.271 605.398 320.618C604.822 309.204 604.251 297.213 603.681 285.258C603.177 274.722 602.676 264.215 602.174 254.155C601.864 248.184 601.175 242.915 595.864 238.887C590.108 234.532 579.61 232.324 564.661 232.324C564.48 232.324 564.301 232.324 564.118 232.325C517.269 232.491 470.848 248.618 448.608 272.453C446.047 275.198 443.661 278.136 441.353 280.978C437.942 285.177 434.417 289.517 430.209 293.399C427.931 295.529 425.468 297.452 422.848 299.143C422.668 299.268 422.461 299.402 422.242 299.529C421.742 299.855 421.22 300.17 420.71 300.45C417.726 302.175 414.582 303.606 411.322 304.723L410.993 304.833C410.746 304.922 410.477 305.01 410.209 305.091C408.326 305.696 406.37 306.22 404.411 306.643C395.933 308.513 386.293 308.962 375.76 307.974C366.086 307.043 356.538 305.095 347.272 302.163C337.518 299.077 328.388 295.229 319.559 291.509C315.68 289.874 311.669 288.184 307.663 286.582C306.91 286.281 306.169 285.986 305.417 285.692C300.524 283.783 296.088 282.206 291.856 280.872C281.37 277.553 270.516 275.54 259.539 274.88C247.887 274.241 237.619 275.445 229.028 278.451C226.659 279.277 224.353 280.272 222.126 281.428C211.95 286.718 205.676 294.526 199.61 302.077C192.063 311.469 184.26 321.181 168.851 326.216C151.07 332.031 125.117 329.615 106.755 325.414C100.982 324.093 95.216 322.573 89.6396 321.103C87.3874 320.509 85.1337 319.919 82.8783 319.333C78.4464 318.188 74.8193 317.31 71.4636 316.569L70.4022 316.333C69.8119 316.205 69.2209 316.076 68.6193 315.954C64.6334 315.116 60.9219 314.457 57.2669 313.939L56.4021 313.812C54.6685 313.584 53.0476 313.393 51.4571 313.233L50.8222 313.17C47.7071 312.874 44.4832 312.725 41.2534 312.725Z" fill="#F2F2F2"/>
<path d="M521.83 325.217C534.907 313.42 554.358 307.488 570.674 314.103C553.938 323.405 541.027 338.334 534.227 356.248C531.63 363.166 529.46 371.131 523.072 374.835C519.096 377.14 514.151 377.252 509.694 376.14C505.236 375.027 501.151 372.797 497.121 370.589L495.974 370.563C501.122 353.711 508.753 337.013 521.83 325.217Z" fill="#E6E6E6"/>
<path d="M570.583 314.461C556.133 316.331 542.638 322.711 532.016 332.695C529.691 334.804 527.713 337.266 526.154 339.992C524.721 342.696 524.038 345.734 524.175 348.792C524.246 351.646 524.648 354.557 524.024 357.378C523.684 358.817 523.043 360.168 522.144 361.342C521.246 362.517 520.109 363.487 518.809 364.191C515.616 366.028 511.954 366.607 508.353 367.049C504.355 367.54 500.194 367.986 496.733 370.231C496.314 370.503 495.917 369.836 496.336 369.564C502.357 365.658 509.976 367.079 516.451 364.473C519.472 363.256 522.146 361.121 523.092 357.893C523.919 355.07 523.507 352.068 523.41 349.179C523.233 346.198 523.787 343.219 525.025 340.502C526.44 337.706 528.321 335.171 530.585 333.007C535.606 328.052 541.374 323.918 547.677 320.757C554.852 317.11 562.596 314.718 570.576 313.684C571.07 313.621 571.074 314.398 570.583 314.461Z" fill="white"/>
<path d="M535.247 329.278C533.816 327.267 533.145 324.812 533.355 322.351C533.565 319.89 534.642 317.584 536.394 315.845C536.75 315.494 537.311 316.031 536.955 316.382C535.321 317.999 534.318 320.147 534.127 322.439C533.936 324.731 534.569 327.015 535.913 328.88C536.205 329.286 535.537 329.682 535.247 329.278Z" fill="white"/>
<path d="M523.949 347.35C528.915 348.231 534.03 347.206 538.274 344.479C538.694 344.208 539.091 344.875 538.672 345.146C534.25 347.975 528.925 349.031 523.759 348.103C523.267 348.014 523.459 347.262 523.949 347.35Z" fill="white"/>
<path d="M554.915 318.138C555.307 319.032 555.914 319.814 556.683 320.415C557.451 321.015 558.357 321.416 559.318 321.579C559.811 321.662 559.618 322.414 559.128 322.333C558.067 322.147 557.067 321.703 556.217 321.042C555.366 320.38 554.69 319.52 554.249 318.536C554.199 318.447 554.185 318.342 554.21 318.243C554.235 318.144 554.297 318.059 554.383 318.003C554.471 317.951 554.577 317.936 554.676 317.961C554.776 317.986 554.862 318.05 554.915 318.138Z" fill="white"/>
<path d="M588.641 370.993C588.332 370.95 588.022 370.908 587.708 370.87C583.546 370.317 579.345 370.103 575.148 370.231C574.823 370.236 574.494 370.245 574.17 370.259C564.061 370.675 554.117 372.967 544.844 377.017C541.155 378.632 537.595 380.526 534.193 382.681C529.496 385.659 524.639 389.261 519.388 390.476C518.841 390.609 518.287 390.707 517.728 390.772L496.032 371.965C496.004 371.897 495.971 371.835 495.943 371.767L495.043 371.056C495.21 370.932 495.387 370.808 495.555 370.684C495.652 370.612 495.753 370.545 495.85 370.473C495.917 370.426 495.983 370.379 496.04 370.333C496.062 370.318 496.084 370.302 496.102 370.292C496.159 370.246 496.217 370.209 496.27 370.168C497.255 369.47 498.246 368.777 499.244 368.091C499.249 368.086 499.249 368.086 499.258 368.085C506.814 362.779 514.973 358.388 523.562 355.006C523.82 354.909 524.082 354.806 524.349 354.717C528.218 353.277 532.197 352.157 536.248 351.366C538.467 350.94 540.707 350.627 542.958 350.427C548.775 349.924 554.636 350.34 560.324 351.659C571.663 354.291 582.036 360.525 588.179 370.246C588.336 370.495 588.488 370.739 588.641 370.993Z" fill="#E6E6E6"/>
<path d="M588.354 371.226C575.692 364.01 561.08 360.97 546.594 362.54C543.469 362.822 540.409 363.596 537.525 364.833C534.755 366.128 532.382 368.143 530.652 370.667C528.992 372.988 527.563 375.555 525.368 377.431C524.23 378.375 522.906 379.068 521.483 379.464C520.059 379.859 518.568 379.949 517.107 379.728C513.452 379.27 510.18 377.525 507.039 375.708C503.551 373.69 499.961 371.538 495.848 371.245C495.349 371.209 495.433 370.437 495.931 370.473C503.088 370.983 508.317 376.71 515.054 378.531C518.198 379.381 521.617 379.288 524.314 377.28C526.672 375.525 528.148 372.88 529.809 370.515C531.46 368.028 533.694 365.983 536.317 364.56C539.128 363.18 542.154 362.29 545.264 361.926C552.253 360.997 559.344 361.172 566.278 362.448C574.2 363.859 581.822 366.617 588.815 370.602C589.248 370.849 588.784 371.472 588.354 371.226Z" fill="white"/>
<path d="M551.229 361.76C551.295 359.291 552.237 356.926 553.884 355.088C555.532 353.25 557.779 352.058 560.223 351.725C560.718 351.659 560.843 352.426 560.348 352.492C558.071 352.798 555.978 353.908 554.447 355.623C552.917 357.338 552.049 359.544 552 361.843C551.989 362.343 551.218 362.256 551.229 361.76Z" fill="white"/>
<path d="M531.339 369.379C534.774 373.075 539.475 375.339 544.503 375.72C545.002 375.757 544.918 376.53 544.42 376.492C539.188 376.086 534.301 373.72 530.734 369.866C530.395 369.498 531.001 369.013 531.339 369.379Z" fill="white"/>
<path d="M573.632 364.718C573.407 365.668 573.422 366.659 573.674 367.602C573.927 368.544 574.409 369.41 575.078 370.12C575.422 370.483 574.815 370.968 574.473 370.607C573.738 369.819 573.206 368.862 572.925 367.821C572.644 366.78 572.622 365.686 572.861 364.635C572.875 364.533 572.927 364.442 573.006 364.378C573.086 364.314 573.187 364.282 573.288 364.29C573.39 364.302 573.484 364.353 573.548 364.433C573.612 364.513 573.643 364.616 573.632 364.718Z" fill="white"/>
<path d="M179.498 336.949C190.206 320.69 209.361 308.929 228.65 311.46C213.335 326.07 203.675 345.632 201.381 366.685C200.525 374.808 200.419 383.931 194.615 389.672C191.004 393.244 185.745 394.742 180.669 394.793C175.593 394.844 170.603 393.597 165.68 392.358L164.446 392.649C165.268 373.192 168.79 353.208 179.498 336.949Z" fill="#E6E6E6"/>
<path d="M228.652 311.868C213.717 317.892 201.057 328.474 192.471 342.111C190.57 345.014 189.139 348.198 188.229 351.547C187.448 354.838 187.561 358.279 188.558 361.511C189.426 364.543 190.666 367.545 190.783 370.736C190.818 372.37 190.509 373.993 189.874 375.499C189.239 377.005 188.293 378.36 187.098 379.475C184.194 382.329 180.438 383.968 176.709 385.444C172.57 387.082 168.244 388.718 165.166 392.083C164.793 392.491 164.183 391.887 164.555 391.48C169.91 385.626 178.454 385.024 184.654 380.433C187.548 378.29 189.813 375.262 189.928 371.546C190.029 368.297 188.753 365.201 187.847 362.138C186.829 358.999 186.594 355.658 187.163 352.407C187.9 349.023 189.206 345.788 191.027 342.842C195.02 336.145 200.04 330.118 205.903 324.981C212.563 319.082 220.181 314.367 228.429 311.04C228.939 310.834 229.159 311.664 228.652 311.868Z" fill="white"/>
<path d="M194.977 337.557C192.887 335.804 191.487 333.365 191.028 330.675C190.569 327.984 191.08 325.218 192.47 322.87C192.753 322.396 193.502 322.814 193.219 323.289C191.921 325.473 191.445 328.049 191.877 330.554C192.31 333.058 193.623 335.325 195.579 336.945C196.003 337.298 195.399 337.908 194.977 337.557Z" fill="white"/>
<path d="M187.915 360.031C193.471 359.59 198.657 357.069 202.438 352.971C202.812 352.565 203.423 353.167 203.049 353.573C199.106 357.831 193.704 360.444 187.921 360.89C187.37 360.932 187.367 360.073 187.915 360.031Z" fill="white"/>
<path d="M212.916 320.164C213.583 321.011 214.45 321.679 215.439 322.107C216.428 322.535 217.508 322.711 218.582 322.619C219.132 322.57 219.135 323.428 218.588 323.477C217.401 323.574 216.209 323.378 215.115 322.907C214.022 322.436 213.06 321.704 212.314 320.775C212.236 320.694 212.193 320.586 212.192 320.473C212.191 320.36 212.233 320.251 212.31 320.169C212.39 320.088 212.498 320.042 212.612 320.042C212.725 320.041 212.835 320.085 212.916 320.164Z" fill="white"/>
<path d="M263.676 367.302C263.333 367.342 262.99 367.383 262.644 367.429C258.038 367.997 253.486 368.939 249.032 370.244C248.686 370.34 248.337 370.442 247.995 370.547C237.299 373.807 227.3 379.028 218.508 385.942C215.011 388.696 211.729 391.713 208.69 394.966C204.494 399.459 200.3 404.665 195.021 407.426C194.474 407.72 193.909 407.98 193.329 408.205L164.897 394.133C164.849 394.068 164.797 394.01 164.748 393.946L163.587 393.436C163.732 393.257 163.886 393.075 164.031 392.896C164.115 392.792 164.205 392.691 164.289 392.587C164.346 392.519 164.405 392.45 164.453 392.385C164.472 392.363 164.492 392.34 164.507 392.324C164.556 392.259 164.607 392.203 164.652 392.145C165.512 391.124 166.38 390.107 167.257 389.094C167.26 389.088 167.26 389.088 167.27 389.084C173.97 381.386 181.371 374.18 189.629 368.328C189.878 368.152 190.129 367.969 190.391 367.799C194.128 365.182 198.072 362.875 202.185 360.901C204.44 359.827 206.749 358.869 209.101 358.029C215.183 355.87 221.566 354.683 228.017 354.51C240.876 354.167 253.702 357.945 262.974 366.631C263.211 366.854 263.442 367.073 263.676 367.302Z" fill="#E6E6E6"/>
<path d="M263.433 367.631C247.885 363.439 231.413 364.258 216.356 369.971C213.093 371.143 210.034 372.823 207.294 374.949C204.691 377.106 202.712 379.921 201.564 383.103C200.434 386.047 199.618 389.191 197.792 391.809C196.838 393.135 195.614 394.245 194.202 395.065C192.789 395.885 191.219 396.396 189.595 396.566C185.559 397.094 181.574 396.14 177.71 395.07C173.419 393.883 168.981 392.582 164.5 393.414C163.957 393.515 163.833 392.665 164.375 392.565C172.171 391.118 179.355 395.787 187.067 395.858C190.666 395.891 194.296 394.839 196.623 391.941C198.657 389.407 199.501 386.167 200.62 383.175C201.695 380.055 203.516 377.246 205.925 374.993C208.549 372.735 211.538 370.94 214.763 369.685C221.979 366.744 229.612 364.957 237.383 364.39C246.248 363.694 255.167 364.521 263.753 366.835C264.285 366.978 263.961 367.774 263.433 367.631Z" fill="white"/>
<path d="M221.096 367.846C220.481 365.186 220.831 362.395 222.082 359.97C223.334 357.546 225.405 355.645 227.927 354.608C228.438 354.4 228.785 355.185 228.274 355.394C225.923 356.355 223.994 358.125 222.833 360.386C221.672 362.646 221.357 365.247 221.944 367.72C222.071 368.258 221.222 368.38 221.096 367.846Z" fill="white"/>
<path d="M201.941 381.534C206.642 384.53 212.299 385.643 217.783 384.65C218.326 384.551 218.451 385.4 217.908 385.499C212.199 386.522 206.315 385.352 201.43 382.223C200.964 381.924 201.478 381.237 201.941 381.534Z" fill="white"/>
<path d="M245.879 364.77C245.903 365.849 246.194 366.905 246.726 367.843C247.258 368.781 248.014 369.572 248.927 370.145C249.396 370.438 248.882 371.125 248.416 370.834C247.41 370.196 246.576 369.321 245.986 368.286C245.396 367.251 245.068 366.087 245.031 364.896C245.018 364.784 245.049 364.671 245.116 364.581C245.183 364.49 245.282 364.429 245.393 364.409C245.505 364.393 245.619 364.422 245.71 364.489C245.802 364.557 245.862 364.658 245.879 364.77Z" fill="white"/>
<path d="M255.708 215.05C256.418 214.343 256.965 213.488 257.31 212.546C257.654 211.604 257.788 210.597 257.703 209.598C257.617 208.598 257.313 207.629 256.813 206.76C256.313 205.89 255.628 205.141 254.807 204.565L265.998 150.346L253.925 154.159L244.921 206.612C244.046 208.056 243.73 209.772 244.034 211.433C244.338 213.095 245.24 214.587 246.57 215.628C247.9 216.668 249.564 217.183 251.248 217.077C252.932 216.971 254.519 216.25 255.708 215.05Z" fill="#FFB6B6"/>
<path d="M281.575 70.1199L274.096 64.4682C274.096 64.4682 267.498 64.0005 266.33 75.9115C265.161 87.8225 257.845 133.537 257.845 133.537L246.4 186.6L262.242 190.081L274.5 132.816L286.771 93.3093L281.575 70.1199Z" fill="#E6E6E6"/>
<path d="M275.877 168.306L240.001 140.381C239.442 139.945 239.079 139.305 238.991 138.601C238.903 137.897 239.097 137.188 239.532 136.627L263.941 105.2C264.377 104.641 265.016 104.277 265.719 104.189C266.422 104.101 267.131 104.296 267.691 104.731L303.567 132.656C304.126 133.092 304.489 133.732 304.577 134.436C304.665 135.14 304.471 135.85 304.037 136.41L279.627 167.837C279.191 168.396 278.552 168.76 277.849 168.848C277.146 168.936 276.437 168.741 275.877 168.306Z" fill="#3F3D56"/>
<path d="M275.68 165.417L242.847 139.86C242.351 139.473 242.028 138.905 241.95 138.28C241.872 137.655 242.045 137.025 242.43 136.527L264.559 108.037C264.946 107.541 265.513 107.218 266.137 107.14C266.762 107.061 267.391 107.234 267.888 107.62L300.721 133.177C301.217 133.564 301.54 134.132 301.618 134.757C301.696 135.382 301.523 136.012 301.138 136.51L279.009 165C278.623 165.496 278.055 165.819 277.431 165.897C276.806 165.976 276.177 165.803 275.68 165.417Z" fill="white"/>
<path d="M247.151 139.135C247.027 139.039 246.947 138.897 246.927 138.74C246.908 138.584 246.951 138.427 247.047 138.302L258.21 123.93C258.307 123.806 258.449 123.725 258.605 123.705C258.682 123.696 258.761 123.701 258.836 123.722C258.911 123.743 258.981 123.778 259.043 123.826C259.104 123.874 259.156 123.933 259.194 124.001C259.233 124.069 259.257 124.143 259.267 124.221C259.277 124.298 259.271 124.377 259.251 124.452C259.23 124.527 259.195 124.597 259.147 124.659L247.984 139.031C247.887 139.155 247.745 139.236 247.589 139.256C247.433 139.275 247.276 139.232 247.151 139.135Z" fill="#E4E4E4"/>
<path d="M249.002 140.576C248.878 140.479 248.797 140.337 248.778 140.181C248.758 140.024 248.801 139.867 248.898 139.742L260.061 125.37C260.157 125.246 260.299 125.165 260.455 125.145C260.611 125.126 260.769 125.169 260.893 125.266C261.017 125.362 261.098 125.505 261.118 125.661C261.137 125.817 261.094 125.975 260.997 126.099L249.834 140.471C249.737 140.596 249.595 140.676 249.439 140.696C249.283 140.715 249.126 140.672 249.002 140.576Z" fill="#E4E4E4"/>
<path d="M257.176 133.874C257.052 133.777 256.971 133.635 256.952 133.479C256.932 133.322 256.976 133.165 257.072 133.04L261.911 126.81C261.959 126.749 262.018 126.697 262.086 126.658C262.154 126.62 262.228 126.595 262.306 126.585C262.383 126.575 262.461 126.581 262.537 126.601C262.612 126.622 262.682 126.657 262.744 126.705C262.805 126.753 262.857 126.813 262.895 126.881C262.934 126.948 262.959 127.023 262.968 127.101C262.978 127.178 262.972 127.257 262.951 127.332C262.931 127.407 262.895 127.478 262.847 127.539L258.008 133.769C257.912 133.893 257.77 133.974 257.614 133.994C257.458 134.013 257.3 133.97 257.176 133.874Z" fill="#E4E4E4"/>
<path d="M259.671 146.099C259.547 146.003 259.466 145.86 259.446 145.704C259.427 145.548 259.47 145.39 259.567 145.266L277.19 122.577C277.238 122.515 277.297 122.464 277.365 122.425C277.432 122.387 277.507 122.362 277.584 122.352C277.662 122.342 277.74 122.348 277.815 122.369C277.89 122.389 277.961 122.425 278.022 122.472C278.084 122.52 278.135 122.58 278.174 122.648C278.212 122.715 278.237 122.79 278.247 122.867C278.256 122.945 278.251 123.023 278.23 123.099C278.209 123.174 278.174 123.244 278.126 123.306L260.503 145.995C260.406 146.119 260.264 146.2 260.108 146.219C259.952 146.239 259.795 146.196 259.671 146.099Z" fill="#E4E4E4"/>
<path d="M261.521 147.539C261.397 147.443 261.316 147.301 261.297 147.144C261.277 146.988 261.32 146.831 261.417 146.706L279.04 124.017C279.088 123.955 279.147 123.904 279.215 123.865C279.283 123.827 279.357 123.802 279.434 123.792C279.512 123.782 279.59 123.788 279.665 123.809C279.74 123.829 279.811 123.865 279.872 123.913C279.934 123.96 279.985 124.02 280.024 124.088C280.062 124.156 280.087 124.23 280.097 124.308C280.106 124.385 280.101 124.463 280.08 124.539C280.059 124.614 280.024 124.684 279.976 124.746L262.353 147.435C262.256 147.559 262.115 147.64 261.958 147.66C261.802 147.679 261.645 147.636 261.521 147.539Z" fill="#E4E4E4"/>
<path d="M265.721 150.809C265.597 150.712 265.516 150.57 265.497 150.414C265.477 150.257 265.52 150.1 265.617 149.975L283.24 127.286C283.288 127.224 283.347 127.173 283.415 127.134C283.482 127.096 283.557 127.071 283.634 127.061C283.712 127.052 283.79 127.057 283.865 127.078C283.94 127.099 284.011 127.134 284.072 127.182C284.134 127.23 284.185 127.289 284.224 127.357C284.262 127.425 284.287 127.499 284.297 127.577C284.306 127.654 284.301 127.733 284.28 127.808C284.259 127.883 284.224 127.953 284.176 128.015L266.553 150.704C266.456 150.828 266.314 150.909 266.158 150.929C266.002 150.948 265.845 150.905 265.721 150.809Z" fill="#E4E4E4"/>
<path d="M267.571 152.249C267.447 152.152 267.366 152.01 267.347 151.854C267.327 151.697 267.37 151.54 267.467 151.416L285.09 128.726C285.138 128.665 285.197 128.613 285.265 128.574C285.333 128.536 285.407 128.511 285.485 128.501C285.562 128.492 285.64 128.497 285.715 128.518C285.79 128.539 285.861 128.574 285.922 128.622C285.984 128.67 286.035 128.729 286.074 128.797C286.112 128.865 286.137 128.939 286.147 129.017C286.156 129.094 286.151 129.173 286.13 129.248C286.109 129.323 286.074 129.394 286.026 129.455L268.403 152.144C268.307 152.269 268.165 152.349 268.009 152.369C267.853 152.388 267.695 152.345 267.571 152.249Z" fill="#E4E4E4"/>
<path d="M271.771 155.518C271.647 155.421 271.566 155.279 271.547 155.123C271.527 154.967 271.57 154.809 271.667 154.685L289.29 131.995C289.338 131.934 289.397 131.882 289.465 131.844C289.533 131.805 289.607 131.78 289.684 131.771C289.762 131.761 289.84 131.767 289.915 131.787C289.99 131.808 290.061 131.843 290.122 131.891C290.184 131.939 290.235 131.998 290.274 132.066C290.312 132.134 290.337 132.209 290.347 132.286C290.356 132.363 290.351 132.442 290.33 132.517C290.309 132.592 290.274 132.663 290.226 132.724L272.603 155.414C272.506 155.538 272.364 155.619 272.208 155.638C272.052 155.658 271.895 155.614 271.771 155.518Z" fill="#E4E4E4"/>
<path d="M273.621 156.958C273.497 156.861 273.416 156.719 273.397 156.563C273.377 156.407 273.42 156.249 273.517 156.125L291.14 133.435C291.237 133.312 291.379 133.231 291.534 133.212C291.69 133.193 291.847 133.236 291.971 133.333C292.095 133.429 292.176 133.571 292.195 133.727C292.215 133.883 292.172 134.04 292.076 134.164L274.453 156.854C274.357 156.978 274.215 157.059 274.059 157.078C273.903 157.098 273.745 157.054 273.621 156.958Z" fill="#E4E4E4"/>
<path d="M244.167 183.308C244.301 183.308 244.41 183.199 244.41 183.064C244.41 182.93 244.301 182.821 244.167 182.821C244.032 182.821 243.923 182.93 243.923 183.064C243.923 183.199 244.032 183.308 244.167 183.308Z" fill="white"/>
<path d="M279.652 15.3266C278.796 19.9336 277.391 24.4214 275.469 28.6941C264.459 52.0089 295.812 44.4095 307.016 44.4095C319.266 44.4095 330.987 50.8581 329.197 22.2048C328.432 9.96531 319.266 0 307.016 0C296.552 0 281.84 4.6559 279.652 15.3266Z" fill="#2F2E41"/>
<path d="M318.435 357.272H307.997L303.031 316.971H318.435V357.272Z" fill="#FFB6B6"/>
<path d="M323.943 375.375H316.459L315.123 368.301L311.701 375.375H291.849C290.897 375.375 289.971 375.071 289.204 374.506C288.438 373.942 287.872 373.147 287.588 372.237C287.305 371.328 287.32 370.352 287.63 369.451C287.94 368.551 288.53 367.773 289.313 367.232L305.166 356.271V349.12L321.841 350.116L323.943 375.375Z" fill="#2F2E41"/>
<path d="M380.442 344.086L372.066 350.321L344.059 320.949L356.42 311.746L380.442 344.086Z" fill="#FFB6B6"/>
<path d="M395.653 355.322L389.647 359.794L384.358 354.915L385.829 362.636L369.899 374.494C369.136 375.063 368.211 375.372 367.259 375.377C366.307 375.382 365.379 375.082 364.61 374.521C363.841 373.961 363.27 373.169 362.983 372.261C362.695 371.353 362.705 370.376 363.01 369.474L369.198 351.209L364.935 345.47L378.91 336.309L395.653 355.322Z" fill="#2F2E41"/>
<path d="M284.251 171.794L333.797 164.069L323.944 134.397H284.251V171.794Z" fill="#FFB6B6"/>
<path d="M330.586 149.341C330.586 149.341 350.389 166.469 341.252 215.294L330.097 263.135L360.488 315.954L345.035 324.393L307.584 272.284L290.446 232.041L281.381 161.512L330.586 149.341Z" fill="#2F2E41"/>
<path d="M299.892 243.51L298.701 261.976L302.188 316.658L319.498 322.624L322.776 266.597L299.892 243.51Z" fill="#2F2E41"/>
<path d="M294.57 50.5552L313.722 51.3031L321.354 63.9867L338.768 67.3899L328.373 120.039L330.284 150.006L312.944 149.9C300.448 149.823 288.363 154.368 279.008 162.663L279.527 123.763L272.068 94.7252L273.744 64.2769L287.753 62.5239L294.57 50.5552Z" fill="#E6E6E6"/>
<path d="M305.181 44.404C315.135 44.404 323.205 36.3255 323.205 26.3601C323.205 16.3948 315.135 8.31627 305.181 8.31627C295.226 8.31627 287.156 16.3948 287.156 26.3601C287.156 36.3255 295.226 44.404 305.181 44.404Z" fill="#FFB6B6"/>
<path d="M292.94 7.96691C296.098 6.03934 299.716 4.99663 303.415 4.94781C307.114 4.899 310.758 5.84587 313.966 7.68942C317.174 9.53297 319.828 12.2055 321.652 15.4275C323.475 18.6496 324.4 22.3028 324.33 26.0052C315.146 28.3136 305.497 30.0802 295.702 26.5574L293.389 20.8903L292.026 26.5616C289.043 27.782 286.052 28.8147 283.062 26.5498C282.94 22.8578 283.788 19.1984 285.521 15.9374C287.255 12.6764 289.813 9.92796 292.94 7.96691Z" fill="#2F2E41"/>
<path d="M335.435 186.384L337.865 208.459C338.034 209.009 338.375 209.491 338.838 209.834C339.301 210.176 339.862 210.361 340.437 210.361H351.637C352.213 210.361 352.774 210.176 353.237 209.834C353.7 209.491 354.041 209.009 354.21 208.459L356.223 191.54C356.804 191.825 357.444 191.968 358.091 191.957C358.737 191.946 359.373 191.782 359.944 191.477C360.515 191.173 361.005 190.737 361.375 190.206C361.745 189.674 361.984 189.063 362.072 188.421C362.16 187.78 362.094 187.126 361.881 186.515C361.667 185.903 361.312 185.352 360.843 184.905C360.375 184.458 359.808 184.128 359.188 183.943C358.568 183.759 357.913 183.724 357.277 183.842C357.026 183.545 356.713 183.307 356.36 183.143C356.007 182.98 355.623 182.896 355.235 182.897H338.008C337.586 182.897 337.171 182.996 336.795 183.186C336.419 183.376 336.093 183.652 335.842 183.991C335.592 184.33 335.425 184.723 335.354 185.139C335.283 185.555 335.311 185.981 335.435 186.384ZM356.574 190.395L357.807 186.384C357.95 185.921 357.964 185.428 357.848 184.958C357.901 184.955 357.95 184.942 358.003 184.942C358.777 184.942 359.52 185.25 360.067 185.798C360.614 186.346 360.922 187.089 360.922 187.864C360.922 188.639 360.614 189.382 360.067 189.93C359.52 190.478 358.777 190.786 358.003 190.786C357.501 190.782 357.009 190.648 356.574 190.395Z" fill="#F6821F"/>
<path d="M352.324 210.376C351.617 209.665 351.075 208.807 350.735 207.863C350.395 206.919 350.266 205.912 350.357 204.913C350.448 203.914 350.756 202.947 351.261 202.08C351.765 201.213 352.454 200.467 353.277 199.896L342.362 145.62L354.416 149.494L363.154 201.992C364.021 203.441 364.328 205.158 364.016 206.818C363.703 208.478 362.793 209.966 361.458 210.999C360.124 212.033 358.456 212.54 356.773 212.425C355.089 212.31 353.506 211.581 352.324 210.376Z" fill="#FFB6B6"/>
<path d="M331.289 73.0416L338.769 67.3899C338.769 67.3899 345.366 66.9222 346.535 78.8332C347.703 90.7442 355.02 136.458 355.02 136.458L366.464 189.522L350.622 193.003L338.364 135.738L326.094 96.231L331.289 73.0416Z" fill="#E6E6E6"/>
<path d="M266.74 122.449C269.078 122.449 270.974 120.551 270.974 118.211C270.974 115.87 269.078 113.972 266.74 113.972C264.402 113.972 262.506 115.87 262.506 118.211C262.506 120.551 264.402 122.449 266.74 122.449Z" fill="#F6821F"/>
<path d="M131.735 406.438L140.558 406.438L144.756 372.37L131.734 372.37L131.735 406.438Z" fill="#FFB6B6"/>
<path d="M129.485 403.555L131.968 403.554L141.664 399.607L146.86 403.554C149.797 403.554 152.614 404.722 154.691 406.801C156.767 408.879 157.934 411.699 157.934 414.639V414.999L129.485 415L129.485 403.555Z" fill="#2F2E41"/>
<path d="M165.926 400.872L174.533 402.818L186.123 370.512L173.421 367.641L165.926 400.872Z" fill="#FFB6B6"/>
<path d="M164.365 397.563L166.788 398.111L177.114 396.398L181.314 401.394L181.315 401.394C184.18 402.042 186.67 403.802 188.238 406.288C189.806 408.774 190.324 411.781 189.677 414.649L189.598 415L161.847 408.728L164.365 397.563Z" fill="#2F2E41"/>
<path d="M115.583 231.197L123.561 320.682C123.561 320.682 120.572 374.405 130.218 393.31H144.208L151.135 315.776L152.004 263.735L181.997 307.64L162.894 392.043L180.112 393.583L211.112 301.987L177.055 216L115.583 231.197Z" fill="#2F2E41"/>
<path d="M123.939 88.6924C135.303 88.6924 144.515 79.4703 144.515 68.0943C144.515 56.7183 135.303 47.4963 123.939 47.4963C112.575 47.4963 103.363 56.7183 103.363 68.0943C103.363 79.4703 112.575 88.6924 123.939 88.6924Z" fill="#FFB8B8"/>
<path d="M160.11 108.321L143.229 101.071L135.012 92.3453L114.484 95.6596L109.037 105.009L91.4055 121.421L112.063 214.924L111.438 235.346C111.438 235.346 124.659 241.305 181.997 227.586C182.685 227.421 181.246 226.701 181.246 226.701L160.11 108.321Z" fill="#3F3D56"/>
<path d="M102.543 79.7821C102.4 79.5863 102.258 79.3887 102.117 79.1896C102.061 79.3092 102.016 79.4327 101.951 79.5495L102.543 79.7821Z" fill="#2F2E41"/>
<path d="M144.407 53.0277C143.031 50.0283 140.579 47.6567 137.537 46.3841C134.522 45.1667 131.152 45.1697 128.139 46.3924C125.419 44.6719 122.397 43.308 119.214 43.139C116.031 42.9701 112.666 44.1522 110.704 46.7544C110.266 47.4413 109.768 48.0883 109.217 48.688C107.64 50.1497 105.244 49.9389 103.149 49.64C104.089 50.4465 105.029 51.253 105.969 52.0595C104.831 52.3571 103.693 52.6547 102.555 52.9522C103.883 53.7585 105.211 54.5647 106.539 55.3709C102.684 57.6872 100.932 62.7427 101.395 67.3342C101.833 71.6813 103.929 75.6564 106.435 79.1896C107.435 77.0776 107.219 74.5505 107.203 72.1718C107.186 69.6584 107.63 66.8044 109.642 65.3998C110.999 64.4523 112.744 64.41 114.38 64.4189C122.635 64.4643 130.881 64.9796 139.077 65.9624C140.189 66.0106 141.273 66.3254 142.239 66.8805C144.051 68.1183 144.404 70.6729 144.586 72.9141C145.544 69.2136 146.013 65.4034 145.98 61.5809C146.061 58.6509 145.525 55.7366 144.407 53.0277Z" fill="#2F2E41"/>
<path d="M150.812 293.927C168.698 293.927 183.198 279.412 183.198 261.507C183.198 243.602 168.698 229.087 150.812 229.087C132.927 229.087 118.427 243.602 118.427 261.507C118.427 279.412 132.927 293.927 150.812 293.927Z" fill="white"/>
<path d="M150.812 228.366C149.148 228.366 147.485 228.492 145.839 228.741C144.997 228.863 144.177 229.022 143.364 229.216C137.389 230.595 131.915 233.608 127.551 237.92C123.188 242.232 120.107 247.672 118.652 253.635C117.198 259.597 117.426 265.847 119.313 271.687C121.2 277.527 124.67 282.727 129.338 286.708C129.892 287.176 130.453 287.63 131.036 288.062C135.237 291.198 140.123 293.29 145.29 294.167C150.457 295.043 155.758 294.679 160.757 293.104C165.756 291.529 170.31 288.788 174.044 285.107C177.777 281.425 180.585 276.909 182.235 271.929C183.884 266.95 184.329 261.649 183.533 256.464C182.736 251.278 180.721 246.356 177.653 242.103C174.585 237.849 170.552 234.386 165.885 231.998C161.219 229.61 156.053 228.365 150.812 228.366ZM150.812 293.206C144.079 293.213 137.521 291.059 132.101 287.061C131.511 286.628 130.942 286.182 130.388 285.706C125.841 281.867 122.467 276.822 120.654 271.15C118.84 265.478 118.66 259.41 120.134 253.64C121.608 247.871 124.676 242.634 128.988 238.531C133.299 234.428 138.678 231.624 144.508 230.441C145.314 230.275 146.12 230.146 146.941 230.045C148.225 229.886 149.518 229.806 150.812 229.807C159.211 229.807 167.265 233.147 173.203 239.092C179.142 245.036 182.478 253.099 182.478 261.507C182.478 269.914 179.142 277.977 173.203 283.922C167.265 289.866 159.211 293.206 150.812 293.206Z" fill="#3F3D56"/>
<path d="M134.928 255.023H166.697C167.861 255.023 168.804 254.078 168.804 252.913V252.81C168.804 251.644 167.861 250.7 166.697 250.7H134.928C133.764 250.7 132.821 251.644 132.821 252.81V252.913C132.821 254.078 133.764 255.023 134.928 255.023Z" fill="#F6821F"/>
<path d="M134.928 263.668H166.697C167.861 263.668 168.804 262.723 168.804 261.558V261.455C168.804 260.29 167.861 259.345 166.697 259.345H134.928C133.764 259.345 132.821 260.29 132.821 261.455V261.558C132.821 262.723 133.764 263.668 134.928 263.668Z" fill="#F6821F"/>
<path d="M134.928 272.313H166.697C167.861 272.313 168.804 271.369 168.804 270.204V270.1C168.804 268.935 167.861 267.991 166.697 267.991H134.928C133.764 267.991 132.821 268.935 132.821 270.1V270.204C132.821 271.369 133.764 272.313 134.928 272.313Z" fill="#F6821F"/>
<path d="M513.131 405.339L503.88 405.338L499.478 369.615L513.133 369.616L513.131 405.339Z" fill="#9E616A"/>
<path d="M469.363 405.339L460.112 405.338L455.71 369.615L469.365 369.616L469.363 405.339Z" fill="#9E616A"/>
<path d="M469.689 415L441.24 414.999V414.639C441.24 411.699 442.406 408.879 444.483 406.801C446.56 404.722 449.376 403.554 452.313 403.554H452.313L457.51 399.607L467.206 403.554L469.689 403.555L469.689 415Z" fill="#2F2E41"/>
<path d="M514.643 415L486.194 414.999V414.639C486.195 411.699 487.361 408.879 489.438 406.801C491.514 404.722 494.331 403.554 497.268 403.554H497.268L502.465 399.607L512.161 403.554L514.644 403.555L514.643 415Z" fill="#2F2E41"/>
<path d="M460.288 193.92L446.228 279.626L450.054 292.398L445.033 301.443L452.407 380.881L449.414 387.477L457.776 392.64H474.793L475.696 320.725L479.9 310.166V304.347L488.457 260.494L490.032 321.907L492.521 332.482L490.431 340.012L493.162 345.287L500.419 394.207H519.501L518.025 382.826C519.687 381.984 521.022 380.612 521.821 378.927C522.619 377.242 522.836 375.339 522.436 373.518L521.342 368.529L523.832 353.779L528.367 271.491L527.088 205.095L504.766 188.008L460.288 193.92Z" fill="#2F2E41"/>
<path d="M492.521 83.8639C502.312 83.8639 510.25 75.9182 510.25 66.1167C510.25 56.3151 502.312 48.3694 492.521 48.3694C482.73 48.3694 474.793 56.3151 474.793 66.1167C474.793 75.9182 482.73 83.8639 492.521 83.8639Z" fill="#9E616A"/>
<path d="M453.787 227.931C454.559 227.133 455.146 226.175 455.508 225.125C455.87 224.076 455.997 222.959 455.881 221.855C455.766 220.75 455.409 219.684 454.837 218.733C454.266 217.781 453.492 216.966 452.572 216.346L459.466 190.248L446.184 194.72L441.674 218.818C440.736 220.435 440.422 222.34 440.793 224.172C441.165 226.005 442.194 227.637 443.687 228.761C445.18 229.884 447.033 230.42 448.895 230.267C450.756 230.114 452.497 229.283 453.787 227.931Z" fill="#9E616A"/>
<path d="M461.042 102.629L458.191 102.037L455.76 103.384C455.76 103.384 448.969 112.45 448.969 120.759C448.969 129.069 440.668 209.145 440.668 209.145L455.76 215.943L467.834 153.243L461.042 102.629Z" fill="#E6E6E6"/>
<path d="M508.047 53.1047C508.047 53.1047 512.683 44.2311 502.482 43.4244C502.482 43.4244 493.786 35.5271 484.922 41.9806C484.922 41.9806 480.087 41.9806 477.443 47.4578C477.443 47.4578 473.64 46.0141 472.805 49.8779C472.805 49.8779 470.022 57.9449 472.805 65.2051C475.587 72.4654 476.511 73.2721 476.511 73.2721C476.511 73.2721 471.939 58.0506 483.068 57.2439C494.198 56.4372 506.652 49.4746 507.579 58.3482C508.507 67.2218 509.902 69.4082 509.902 69.4082C509.902 69.4082 518.712 56.7348 508.047 53.1047Z" fill="#2F2E41"/>
<path d="M572.807 301.443C571.469 301.445 570.177 300.951 569.18 300.058L515.529 252.248C514.448 251.283 513.793 249.927 513.709 248.479C513.625 247.031 514.118 245.609 515.08 244.524L549.45 205.872C550.414 204.79 551.769 204.135 553.215 204.051C554.662 203.966 556.082 204.46 557.166 205.423L610.818 253.234C611.9 254.198 612.555 255.554 612.639 257.002C612.724 258.451 612.229 259.873 611.266 260.957L576.896 299.609C576.42 300.147 575.842 300.586 575.196 300.899C574.55 301.212 573.848 301.394 573.131 301.433C573.022 301.44 572.914 301.443 572.807 301.443Z" fill="white"/>
<path d="M572.806 301.795C571.382 301.797 570.007 301.272 568.946 300.321L515.295 252.511C514.145 251.483 513.448 250.041 513.359 248.499C513.269 246.958 513.794 245.445 514.818 244.29L549.188 205.638C550.214 204.487 551.655 203.79 553.195 203.7C554.734 203.61 556.246 204.136 557.399 205.16L611.051 252.971C612.203 253.998 612.901 255.44 612.99 256.982C613.079 258.523 612.554 260.038 611.528 261.191L577.158 299.843C576.652 300.416 576.037 300.882 575.349 301.216C574.661 301.549 573.914 301.742 573.151 301.785C573.036 301.791 572.921 301.795 572.806 301.795ZM553.534 205.095C552.912 205.094 552.296 205.225 551.727 205.48C551.159 205.735 550.651 206.108 550.237 206.574L515.868 245.225C515.091 246.101 514.693 247.249 514.76 248.418C514.828 249.587 515.357 250.681 516.229 251.461L569.881 299.27C570.313 299.656 570.818 299.953 571.365 300.143C571.912 300.334 572.491 300.414 573.07 300.381C573.648 300.347 574.214 300.2 574.736 299.947C575.257 299.694 575.724 299.341 576.109 298.908L610.479 260.256C611.257 259.381 611.655 258.233 611.588 257.064C611.52 255.894 610.991 254.8 610.117 254.021L556.465 206.211C555.659 205.491 554.615 205.094 553.534 205.095Z" fill="#3F3D56"/>
<path d="M592.262 264.837C591.682 264.838 591.123 264.625 590.691 264.239L548.576 226.71C548.343 226.504 548.153 226.253 548.017 225.973C547.881 225.693 547.801 225.389 547.782 225.078C547.764 224.767 547.807 224.455 547.909 224.161C548.011 223.867 548.17 223.595 548.377 223.363C548.583 223.13 548.834 222.941 549.114 222.805C549.395 222.67 549.699 222.591 550.01 222.573C550.32 222.556 550.631 222.6 550.925 222.703C551.219 222.806 551.489 222.966 551.721 223.174L593.836 260.703C594.194 261.022 594.447 261.443 594.561 261.909C594.674 262.375 594.644 262.865 594.473 263.314C594.302 263.762 594 264.148 593.605 264.42C593.21 264.692 592.741 264.838 592.262 264.837Z" fill="#F6821F"/>
<path d="M584.229 273.871C583.649 273.872 583.09 273.659 582.658 273.273L540.543 235.744C540.311 235.537 540.122 235.286 539.987 235.007C539.852 234.727 539.773 234.423 539.755 234.113C539.737 233.802 539.78 233.492 539.882 233.198C539.984 232.904 540.143 232.634 540.35 232.402C540.556 232.169 540.806 231.98 541.086 231.845C541.365 231.71 541.669 231.631 541.979 231.613C542.289 231.595 542.599 231.638 542.893 231.74C543.186 231.842 543.456 232.001 543.688 232.208L585.803 269.737C586.161 270.056 586.414 270.477 586.528 270.943C586.642 271.409 586.611 271.899 586.44 272.347C586.27 272.796 585.967 273.182 585.572 273.454C585.177 273.726 584.708 273.871 584.229 273.871Z" fill="#F6821F"/>
<path d="M576.196 282.906C575.616 282.907 575.057 282.693 574.625 282.307L532.51 244.778C532.278 244.572 532.088 244.321 531.953 244.041C531.817 243.761 531.738 243.457 531.72 243.147C531.701 242.836 531.745 242.525 531.847 242.231C531.949 241.937 532.108 241.667 532.314 241.434C532.521 241.202 532.771 241.013 533.051 240.877C533.331 240.742 533.635 240.663 533.945 240.645C534.255 240.627 534.566 240.671 534.859 240.773C535.153 240.875 535.423 241.035 535.655 241.242L577.769 278.771C578.127 279.09 578.38 279.511 578.494 279.977C578.608 280.443 578.578 280.933 578.407 281.382C578.237 281.83 577.934 282.216 577.539 282.488C577.144 282.761 576.676 282.906 576.196 282.906Z" fill="#F6821F"/>
<path d="M528.035 229.471C527.494 228.501 527.173 227.425 527.093 226.317C527.013 225.209 527.177 224.098 527.573 223.06C527.968 222.023 528.587 221.085 529.384 220.312C530.181 219.54 531.137 218.952 532.186 218.59L532.232 191.594L543.917 199.337L542.082 223.785C542.573 225.589 542.386 227.511 541.557 229.186C540.727 230.861 539.313 232.173 537.581 232.874C535.85 233.575 533.922 233.616 532.162 232.989C530.402 232.361 528.934 231.11 528.035 229.471Z" fill="#9E616A"/>
<path d="M529.115 110.026L534.335 104.989L538.17 107.76C538.17 107.76 541.943 112.293 544.962 125.89C547.98 139.488 544.962 214.276 544.962 214.276L528.36 212.01L530.624 172.727L523.832 139.488L529.115 110.026Z" fill="#E6E6E6"/>
<path d="M536.823 106.218L519.235 97.8076L507.294 86.7199L485.519 86.5568L478.495 95.698L459.951 102.004L463.042 166.015L460.934 170.938C460.934 170.938 462.402 172.265 463.073 173.008C463.744 173.75 462.146 179.967 462.146 179.967L461.246 186.73L463.744 188.517L460.496 192.358L459.69 198.412C459.69 198.412 516.386 184.305 527.098 207.674C527.664 208.909 526.27 196.842 526.27 196.842L524.877 188.008L526.259 180.079L528.367 177.969L524.832 174.431L527.098 157.644L536.823 106.218Z" fill="#3F3D56"/>
<path d="M137.962 248.126C138.398 247.017 138.587 245.825 138.513 244.635C138.44 243.445 138.107 242.285 137.537 241.238C136.968 240.19 136.176 239.281 135.217 238.573C134.259 237.865 133.157 237.376 131.989 237.141L128.082 208.421L116.754 218.334L122.201 244.087C121.936 246.077 122.409 248.096 123.531 249.759C124.654 251.423 126.347 252.617 128.289 253.115C130.232 253.613 132.29 253.38 134.073 252.46C135.855 251.541 137.239 249.999 137.962 248.126Z" fill="#FFB8B8"/>
<path d="M93.5794 120.896L90.5088 121.484L88.6529 123.824C88.6529 123.824 85.6503 135.613 89.0707 143.852C92.4911 152.092 117.221 234.911 117.221 234.911L134.984 235.427L121.147 168.278L93.5794 120.896Z" fill="#3F3D56"/>
<path d="M163.605 243.913C162.787 243.047 162.168 242.011 161.793 240.879C161.418 239.747 161.295 238.547 161.434 237.363C161.572 236.178 161.968 235.039 162.594 234.024C163.22 233.01 164.06 232.145 165.056 231.491L157.984 203.383L172.188 208.353L176.726 234.283C177.713 236.03 178.025 238.08 177.603 240.042C177.182 242.005 176.056 243.745 174.438 244.932C172.821 246.119 170.825 246.671 168.828 246.483C166.832 246.295 164.973 245.381 163.605 243.913Z" fill="#FFB8B8"/>
<path d="M157.399 109.291L160.468 108.691L163.061 110.169C163.061 110.169 170.238 119.988 170.133 128.91C170.028 137.831 177.928 223.91 177.928 223.91L161.639 231.018L149.468 163.547L157.399 109.291Z" fill="#3F3D56"/>
</g>
<defs>
<clipPath id="clip0_44_753">
<rect width="613" height="415" fill="white"/>
</clipPath>
</defs>
</svg>
