<svg width="646" height="422" viewBox="0 0 646 422" fill="none" xmlns="http://www.w3.org/2000/svg">
<g clip-path="url(#clip0_47_3655)">
<path d="M634.122 279.755H201.8V280.937H634.122V279.755Z" fill="#3F3D56"/>
<path d="M518.522 34.4201H368.124V35.6025H518.522V34.4201Z" fill="#3F3D56"/>
<path d="M617.018 386.53H383.703V387.712H617.018V386.53Z" fill="#3F3D56"/>
<path d="M348.315 422.001C341.316 422.001 334.474 419.92 328.654 416.023C322.835 412.125 318.299 406.586 315.621 400.104C312.942 393.623 312.241 386.491 313.607 379.611C314.972 372.73 318.343 366.41 323.292 361.449C328.241 356.489 334.546 353.111 341.411 351.742C348.275 350.373 355.391 351.076 361.857 353.761C368.323 356.445 373.85 360.992 377.739 366.825C381.627 372.658 383.703 379.515 383.703 386.531C383.703 395.938 379.974 404.96 373.338 411.612C366.701 418.264 357.7 422.001 348.315 422.001ZM348.315 351.876C341.476 351.876 334.792 353.908 329.106 357.716C323.42 361.524 318.989 366.936 316.372 373.269C313.755 379.601 313.07 386.569 314.404 393.291C315.739 400.014 319.031 406.189 323.867 411.035C328.702 415.882 334.863 419.182 341.569 420.52C348.276 421.857 355.228 421.17 361.546 418.547C367.863 415.925 373.263 411.483 377.062 405.784C380.861 400.085 382.889 393.385 382.889 386.531C382.889 381.98 381.995 377.473 380.257 373.269C378.52 369.064 375.973 365.244 372.763 362.026C369.552 358.808 365.741 356.255 361.546 354.514C357.351 352.772 352.855 351.876 348.315 351.876Z" fill="#3F3D56"/>
<path d="M645.999 191.172H644.593V152.604C644.593 146.684 642.247 141.006 638.07 136.82C633.894 132.634 628.229 130.282 622.323 130.282H540.792C534.885 130.282 529.221 132.634 525.044 136.82C520.868 141.006 518.521 146.684 518.521 152.604V364.207C518.521 370.127 520.868 375.805 525.044 379.991C529.221 384.177 534.885 386.529 540.792 386.529H622.321C628.227 386.529 633.892 384.177 638.068 379.991C642.245 375.805 644.591 370.127 644.591 364.207V218.63H645.999L645.999 191.172Z" fill="#090814"/>
<path d="M623.222 136.088H612.58C613.069 137.29 613.255 138.595 613.123 139.886C612.991 141.178 612.544 142.417 611.822 143.495C611.099 144.573 610.123 145.456 608.98 146.068C607.837 146.679 606.562 146.999 605.266 146.999H558.554C557.259 146.999 555.983 146.679 554.84 146.068C553.697 145.456 552.722 144.573 551.999 143.495C551.277 142.417 550.83 141.178 550.697 139.886C550.565 138.595 550.752 137.29 551.241 136.088H541.3C536.889 136.088 532.658 137.844 529.539 140.971C526.42 144.097 524.667 148.337 524.667 152.759V364.056C524.667 368.477 526.42 372.718 529.539 375.844C532.658 378.971 536.889 380.727 541.3 380.727H623.223C625.407 380.727 627.57 380.296 629.588 379.458C631.606 378.62 633.439 377.392 634.984 375.844C636.528 374.296 637.753 372.458 638.589 370.436C639.425 368.413 639.855 366.245 639.855 364.056V152.758C639.855 148.337 638.103 144.097 634.985 140.971C631.866 137.845 627.636 136.088 623.226 136.087L623.222 136.088Z" fill="white"/>
<path d="M578.272 361.572C587.185 361.572 594.411 354.33 594.411 345.396C594.411 336.462 587.185 329.22 578.272 329.22C569.359 329.22 562.133 336.462 562.133 345.396C562.133 354.33 569.359 361.572 578.272 361.572Z" fill="#D6D6E3"/>
<path d="M582.178 355.499C578.155 355.499 574.223 354.304 570.878 352.064C567.534 349.824 564.927 346.64 563.387 342.915C561.848 339.19 561.445 335.091 562.23 331.136C563.014 327.182 564.951 323.549 567.796 320.698C570.64 317.847 574.264 315.906 578.21 315.119C582.155 314.333 586.245 314.736 589.961 316.279C593.677 317.822 596.854 320.435 599.089 323.788C601.323 327.14 602.516 331.082 602.516 335.114C602.516 340.52 600.373 345.705 596.559 349.528C592.745 353.351 587.572 355.499 582.178 355.499ZM582.178 315.264C578.261 315.264 574.433 316.428 571.176 318.609C567.919 320.79 565.381 323.89 563.882 327.517C562.384 331.144 561.991 335.135 562.756 338.986C563.52 342.836 565.406 346.373 568.175 349.149C570.945 351.925 574.473 353.815 578.315 354.581C582.156 355.347 586.138 354.954 589.756 353.451C593.375 351.949 596.468 349.405 598.644 346.141C600.82 342.877 601.981 339.039 601.981 335.113C601.981 329.849 599.895 324.8 596.181 321.078C592.467 317.355 587.43 315.264 582.178 315.264Z" fill="#3F3D56"/>
<path d="M585.528 165.827H573.914V177.468H585.528V165.827Z" fill="#F6821F"/>
<path d="M590.921 182.875H576.817V168.737H590.921V182.875ZM577.43 182.26H590.307V169.352H577.431L577.43 182.26Z" fill="#3F3D56"/>
<path d="M601.745 240.062H571.833C571.498 240.062 571.178 239.929 570.942 239.692C570.705 239.456 570.573 239.134 570.573 238.8C570.573 238.465 570.705 238.144 570.942 237.907C571.178 237.67 571.498 237.537 571.833 237.537H601.746C602.08 237.537 602.401 237.67 602.637 237.907C602.873 238.144 603.006 238.465 603.006 238.8C603.006 239.134 602.873 239.456 602.637 239.692C602.401 239.929 602.079 240.062 601.745 240.062Z" fill="#090814"/>
<path d="M606.942 244.323H571.833C571.498 244.323 571.178 244.19 570.942 243.954C570.705 243.717 570.573 243.396 570.573 243.061C570.573 242.726 570.705 242.405 570.942 242.168C571.178 241.931 571.498 241.798 571.833 241.798H606.942C607.276 241.798 607.597 241.931 607.833 242.168C608.069 242.405 608.202 242.726 608.202 243.061C608.202 243.396 608.069 243.717 607.833 243.954C607.597 244.19 607.276 244.323 606.942 244.323Z" fill="#090814"/>
<path d="M601.745 259.159H571.833C571.498 259.159 571.178 259.026 570.942 258.79C570.705 258.553 570.573 258.232 570.573 257.897C570.573 257.562 570.705 257.241 570.942 257.004C571.178 256.767 571.498 256.634 571.833 256.634H601.746C602.08 256.634 602.401 256.767 602.637 257.004C602.873 257.241 603.006 257.562 603.006 257.897C603.006 258.232 602.873 258.553 602.637 258.79C602.401 259.026 602.079 259.159 601.745 259.159Z" fill="#090814"/>
<path d="M606.941 263.421H571.833C571.498 263.421 571.178 263.288 570.942 263.051C570.705 262.815 570.573 262.493 570.573 262.158C570.573 261.824 570.705 261.502 570.942 261.266C571.178 261.029 571.498 260.896 571.833 260.896H606.942C607.276 260.896 607.597 261.029 607.833 261.266C608.069 261.502 608.202 261.824 608.202 262.158C608.202 262.493 608.069 262.815 607.833 263.051C607.597 263.288 607.276 263.421 606.941 263.421Z" fill="#090814"/>
<path d="M565.132 246.258H554.546C554.386 246.258 554.233 246.194 554.119 246.08C554.006 245.967 553.943 245.813 553.942 245.652V236.207C553.943 236.047 554.006 235.893 554.119 235.779C554.233 235.666 554.386 235.602 554.546 235.602H565.132C565.292 235.602 565.446 235.666 565.559 235.779C565.672 235.893 565.736 236.047 565.736 236.207V245.652C565.736 245.813 565.672 245.967 565.559 246.08C565.446 246.194 565.292 246.258 565.132 246.258Z" fill="#090814"/>
<path d="M565.132 265.356H554.546C554.386 265.355 554.233 265.292 554.119 265.178C554.006 265.065 553.943 264.911 553.942 264.75V255.305C553.943 255.145 554.006 254.991 554.119 254.877C554.233 254.764 554.386 254.7 554.546 254.7H565.132C565.292 254.7 565.446 254.764 565.559 254.877C565.672 254.991 565.736 255.145 565.736 255.305V264.75C565.736 264.911 565.672 265.065 565.559 265.178C565.446 265.292 565.292 265.355 565.132 265.356Z" fill="#090814"/>
<path d="M601.779 218.803H579.725C579.391 218.803 579.071 218.67 578.834 218.434C578.598 218.197 578.465 217.876 578.465 217.541C578.465 217.206 578.598 216.885 578.834 216.648C579.071 216.411 579.391 216.278 579.725 216.278H601.779C602.113 216.278 602.433 216.411 602.67 216.648C602.906 216.885 603.039 217.206 603.039 217.541C603.039 217.876 602.906 218.197 602.67 218.434C602.433 218.67 602.113 218.803 601.779 218.803Z" fill="#F6821F"/>
<path d="M606.975 223.064H579.727C579.392 223.064 579.072 222.931 578.836 222.694C578.6 222.457 578.467 222.136 578.467 221.801C578.467 221.466 578.6 221.145 578.836 220.908C579.072 220.672 579.392 220.538 579.727 220.538H606.975C607.309 220.538 607.63 220.672 607.866 220.908C608.102 221.145 608.235 221.466 608.235 221.801C608.235 222.136 608.102 222.457 607.866 222.694C607.63 222.931 607.309 223.064 606.975 223.064Z" fill="#F6821F"/>
<path d="M574.845 228.228H554.513C554.353 228.228 554.199 228.164 554.086 228.051C553.973 227.937 553.909 227.784 553.909 227.623V211.72C553.909 211.559 553.973 211.405 554.086 211.292C554.199 211.178 554.353 211.114 554.513 211.114H574.845C575.005 211.114 575.158 211.178 575.272 211.292C575.385 211.405 575.448 211.559 575.449 211.72V227.622C575.449 227.701 575.433 227.78 575.403 227.854C575.373 227.927 575.328 227.994 575.272 228.051C575.216 228.107 575.149 228.152 575.076 228.182C575.003 228.213 574.924 228.228 574.845 228.228Z" fill="#F6821F"/>
<path d="M605.849 277.312H558.835C556.205 277.312 554.072 279.45 554.072 282.086V282.087C554.072 284.723 556.205 286.86 558.835 286.86H605.849C608.48 286.86 610.612 284.723 610.612 282.087V282.086C610.612 279.45 608.48 277.312 605.849 277.312Z" fill="#F6821F"/>
<path d="M412.009 271.342H43.3682V29.6441C43.3732 26.0608 44.7957 22.6257 47.3239 20.0921C49.852 17.5585 53.2794 16.1332 56.8545 16.1288H398.521C402.096 16.1331 405.524 17.5583 408.052 20.0919C410.58 22.6255 412.003 26.0607 412.007 29.6441L412.009 271.342Z" fill="#090814"/>
<path d="M400.468 32.6053H53.5117V251.358H400.468V32.6053Z" fill="white"/>
<path d="M427.085 279.755H29.7294L4.29491 274.902C3.08743 274.67 1.99821 274.024 1.21442 273.075C0.430626 272.126 0.0012222 270.932 0 269.7V264.32H453.981V269.774C453.977 270.989 453.558 272.165 452.794 273.108C452.03 274.051 450.967 274.703 449.782 274.956L427.086 279.745L427.085 279.755Z" fill="#CCCCCC"/>
<path d="M258.51 271.341H195.478C193.914 271.338 192.416 270.714 191.31 269.606C190.205 268.498 189.583 266.996 189.58 265.43V264.329H264.425V265.427C264.423 266.995 263.8 268.498 262.694 269.606C261.588 270.715 260.088 271.339 258.524 271.341H258.51Z" fill="#2F2E41"/>
<path d="M122.416 227.489C142.06 227.489 157.985 211.527 157.985 191.837C157.985 172.148 142.06 156.186 122.416 156.186C102.771 156.186 86.8467 172.148 86.8467 191.837C86.8467 211.527 102.771 227.489 122.416 227.489Z" fill="#D6D6E3"/>
<path d="M131.025 214.104C122.159 214.104 113.493 211.469 106.122 206.533C98.7502 201.596 93.005 194.579 89.6123 186.369C86.2196 178.159 85.3319 169.126 87.0615 160.411C88.7911 151.695 93.0602 143.69 99.3291 137.406C105.598 131.123 113.585 126.844 122.28 125.11C130.975 123.377 139.988 124.266 148.179 127.667C156.369 131.068 163.37 136.826 168.295 144.215C173.221 151.603 175.85 160.29 175.85 169.176C175.85 181.092 171.127 192.519 162.721 200.945C154.314 209.371 142.913 214.104 131.025 214.104ZM131.025 125.429C122.393 125.429 113.954 127.995 106.777 132.802C99.5996 137.609 94.0055 144.441 90.7021 152.435C87.3987 160.428 86.5344 169.224 88.2184 177.71C89.9025 186.196 94.0593 193.991 100.163 200.109C106.267 206.227 114.044 210.394 122.51 212.081C130.976 213.769 139.752 212.903 147.727 209.592C155.702 206.281 162.519 200.674 167.314 193.48C172.11 186.286 174.67 177.828 174.67 169.176C174.67 163.431 173.541 157.742 171.348 152.435C169.154 147.127 165.939 142.305 161.887 138.242C157.834 134.18 153.022 130.958 147.727 128.759C142.432 126.561 136.756 125.429 131.025 125.429Z" fill="#3F3D56"/>
<path d="M336.015 120.626H278.6C277.958 120.626 277.343 120.371 276.89 119.916C276.436 119.461 276.182 118.845 276.182 118.202C276.182 117.559 276.436 116.943 276.89 116.488C277.343 116.034 277.958 115.778 278.6 115.778H336.015C336.657 115.778 337.272 116.034 337.725 116.488C338.179 116.943 338.434 117.559 338.434 118.202C338.434 118.845 338.179 119.461 337.725 119.916C337.272 120.371 336.657 120.626 336.015 120.626Z" fill="#090814"/>
<path d="M345.99 128.806H278.6C277.958 128.806 277.343 128.55 276.89 128.096C276.436 127.641 276.182 127.025 276.182 126.382C276.182 125.739 276.436 125.123 276.89 124.668C277.343 124.214 277.958 123.958 278.6 123.958H345.99C346.631 123.958 347.246 124.214 347.699 124.668C348.153 125.123 348.408 125.739 348.408 126.382C348.408 127.025 348.153 127.641 347.699 128.096C347.246 128.55 346.631 128.806 345.99 128.806Z" fill="#090814"/>
<path d="M336.015 157.282H278.6C277.958 157.282 277.343 157.027 276.89 156.572C276.436 156.118 276.182 155.501 276.182 154.859C276.182 154.216 276.436 153.599 276.89 153.145C277.343 152.69 277.958 152.435 278.6 152.435H336.015C336.657 152.435 337.272 152.69 337.725 153.145C338.179 153.599 338.434 154.216 338.434 154.859C338.434 155.501 338.179 156.118 337.725 156.572C337.272 157.027 336.657 157.282 336.015 157.282Z" fill="#090814"/>
<path d="M345.99 165.463H278.6C277.958 165.463 277.343 165.207 276.89 164.753C276.436 164.298 276.182 163.682 276.182 163.039C276.182 162.396 276.436 161.779 276.89 161.325C277.343 160.87 277.958 160.615 278.6 160.615H345.99C346.631 160.615 347.246 160.87 347.699 161.325C348.153 161.779 348.408 162.396 348.408 163.039C348.408 163.682 348.153 164.298 347.699 164.753C347.246 165.207 346.631 165.463 345.99 165.463Z" fill="#090814"/>
<path d="M265.74 132.519H245.42C245.112 132.519 244.818 132.396 244.6 132.178C244.383 131.96 244.261 131.665 244.26 131.357V113.229C244.261 112.921 244.383 112.625 244.6 112.407C244.818 112.189 245.112 112.067 245.42 112.067H265.74C266.048 112.067 266.342 112.189 266.56 112.407C266.777 112.625 266.899 112.921 266.9 113.229V131.357C266.899 131.665 266.777 131.96 266.56 132.178C266.342 132.396 266.048 132.519 265.74 132.519Z" fill="#090814"/>
<path d="M265.74 169.176H245.42C245.112 169.175 244.818 169.053 244.6 168.835C244.383 168.617 244.261 168.321 244.26 168.013V149.885C244.261 149.576 244.383 149.281 244.6 149.063C244.818 148.845 245.112 148.723 245.42 148.722H265.74C266.048 148.723 266.342 148.845 266.56 149.063C266.777 149.281 266.899 149.576 266.9 149.885V168.013C266.899 168.321 266.777 168.617 266.56 168.835C266.342 169.053 266.048 169.175 265.74 169.176Z" fill="#090814"/>
<path d="M336.08 79.8212H293.753C293.111 79.8212 292.496 79.5659 292.043 79.1113C291.589 78.6568 291.334 78.0403 291.334 77.3974C291.334 76.7546 291.589 76.1381 292.043 75.6836C292.496 75.229 293.111 74.9737 293.753 74.9737H336.083C336.724 74.9737 337.339 75.229 337.793 75.6836C338.246 76.1381 338.501 76.7546 338.501 77.3974C338.501 78.0403 338.246 78.6568 337.793 79.1113C337.339 79.5659 336.724 79.8212 336.083 79.8212H336.08Z" fill="#F6821F"/>
<path d="M346.054 88.0006H293.753C293.111 88.0006 292.496 87.7452 292.043 87.2907C291.589 86.8361 291.334 86.2196 291.334 85.5768C291.334 84.934 291.589 84.3175 292.043 83.8629C292.496 83.4084 293.111 83.153 293.753 83.153H346.057C346.698 83.153 347.313 83.4084 347.766 83.8629C348.22 84.3175 348.475 84.934 348.475 85.5768C348.475 86.2196 348.22 86.8361 347.766 87.2907C347.313 87.7452 346.698 88.0006 346.057 88.0006H346.054Z" fill="#F6821F"/>
<path d="M284.38 97.9127H245.357C245.049 97.9124 244.755 97.7898 244.537 97.5719C244.32 97.354 244.198 97.0586 244.197 96.7504V66.2231C244.198 65.915 244.32 65.6196 244.537 65.4017C244.755 65.1838 245.049 65.0612 245.357 65.0609H284.38C284.688 65.0612 284.982 65.1838 285.2 65.4017C285.417 65.6196 285.539 65.915 285.54 66.2231V96.7504C285.539 97.0586 285.417 97.354 285.2 97.5719C284.982 97.7898 284.688 97.9124 284.38 97.9127Z" fill="#F6821F"/>
<path d="M343.891 192.125H253.652C248.603 192.125 244.51 196.228 244.51 201.288C244.51 206.349 248.603 210.451 253.652 210.451H343.891C348.94 210.451 353.033 206.349 353.033 201.288C353.033 196.228 348.94 192.125 343.891 192.125Z" fill="#F6821F"/>
<path d="M106.139 65.0609H86.8467V84.398H106.139V65.0609Z" fill="#F6821F"/>
<path d="M115.095 93.3738H91.6685V69.8956H115.095V93.3738ZM92.6871 92.3529H114.077V70.9166H92.6876L92.6871 92.3529Z" fill="#3F3D56"/>
<path d="M553.91 70.9401C546.911 70.9401 540.069 68.8598 534.249 64.9623C528.43 61.0648 523.894 55.5252 521.216 49.0439C518.537 42.5625 517.837 35.4307 519.202 28.5502C520.567 21.6697 523.938 15.3495 528.887 10.3889C533.836 5.42836 540.141 2.05016 547.006 0.681544C553.871 -0.687075 560.986 0.0153633 567.452 2.70001C573.919 5.38465 579.445 9.93094 583.334 15.764C587.222 21.597 589.298 28.4547 589.298 35.47C589.298 44.8773 585.569 53.8992 578.933 60.5512C572.296 67.2031 563.295 70.9401 553.91 70.9401ZM553.91 0.815228C547.072 0.815228 540.387 2.84768 534.701 6.6556C529.016 10.4635 524.584 15.8759 521.967 22.2082C519.35 28.5405 518.666 35.5085 520 42.2309C521.334 48.9532 524.627 55.1281 529.462 59.9747C534.297 64.8213 540.458 68.1218 547.165 69.459C553.872 70.7961 560.823 70.1098 567.141 67.4869C573.459 64.864 578.858 60.4222 582.658 54.7232C586.457 49.0243 588.484 42.3241 588.484 35.47C588.484 30.9191 587.59 26.4127 585.853 22.2082C584.115 18.0037 581.568 14.1834 578.358 10.9654C575.147 7.74738 571.336 5.19475 567.141 3.45318C562.946 1.71161 558.45 0.815228 553.91 0.815228Z" fill="#3F3D56"/>
<path d="M566.894 52.4247L561.073 45.7871C561.021 45.8538 560.965 45.917 560.904 45.9767C560.53 46.3481 560.025 46.5561 559.498 46.5555C558.973 46.5552 558.469 46.3489 558.095 45.9805C556.97 44.8739 555.457 44.2537 553.88 44.2537C552.304 44.2537 550.791 44.8739 549.666 45.9805C549.291 46.349 548.786 46.555 548.261 46.5543C547.735 46.5537 547.231 46.3462 546.857 45.9767C546.672 45.7951 546.525 45.5785 546.425 45.3394C546.325 45.1003 546.273 44.8436 546.273 44.5843C546.273 44.3249 546.325 44.0682 546.425 43.8291C546.525 43.59 546.672 43.3734 546.857 43.1918C548.117 41.9507 549.682 41.0658 551.394 40.6262C553.106 40.1867 554.903 40.2082 556.604 40.6888L552.849 36.4069C549.531 36.638 546.407 38.058 544.047 40.4074C543.673 40.7762 543.168 40.983 542.643 40.983C542.117 40.983 541.613 40.7762 541.238 40.4074C541.054 40.2258 540.907 40.0091 540.807 39.7701C540.707 39.531 540.655 39.2742 540.655 39.0149C540.655 38.7556 540.707 38.4989 540.807 38.2598C540.907 38.0207 541.054 37.8041 541.238 37.6225C543.589 35.2828 546.544 33.647 549.772 32.8986L546.895 29.6169C543.709 30.6799 540.811 32.4666 538.428 34.8375C538.055 35.2095 537.549 35.4178 537.022 35.4168C536.496 35.417 535.992 35.2088 535.619 34.8375C535.434 34.6559 535.287 34.4393 535.187 34.2001C535.087 33.961 535.035 33.7041 535.035 33.4447C535.035 33.1854 535.087 32.9285 535.187 32.6893C535.287 32.4502 535.434 32.2336 535.619 32.052C538.051 29.6362 540.938 27.7292 544.112 26.4422L538.755 20.3331C538.635 20.1962 538.543 20.0369 538.484 19.8641C538.426 19.6912 538.403 19.5083 538.415 19.3263C538.428 19.1442 538.477 18.9666 538.558 18.8035C538.64 18.6405 538.753 18.4952 538.891 18.3763C539.173 18.1347 539.537 18.014 539.907 18.04C540.276 18.066 540.62 18.2368 540.865 18.5155L546.97 25.4758C549.224 24.8613 551.551 24.5511 553.888 24.5536C560.739 24.5316 567.322 27.226 572.2 32.0491C572.385 32.2305 572.531 32.4469 572.632 32.6856C572.732 32.9243 572.784 33.1805 572.785 33.4395C572.785 33.6986 572.734 33.9552 572.635 34.1944C572.536 34.4336 572.39 34.6506 572.207 34.8329C571.833 35.2041 571.329 35.4129 570.804 35.4142C570.278 35.4156 569.773 35.2091 569.398 34.8398C565.265 30.7553 559.69 28.4728 553.886 28.4891C552.556 28.4892 551.23 28.6077 549.921 28.8436L553.082 32.4497C553.347 32.4383 553.612 32.4327 553.879 32.4327C558.613 32.4162 563.161 34.2834 566.523 37.6248C566.708 37.8064 566.855 38.023 566.955 38.2621C567.055 38.5012 567.107 38.7579 567.107 39.0172C567.107 39.2765 567.055 39.5333 566.955 39.7724C566.855 40.0115 566.708 40.2281 566.523 40.4097C566.15 40.7796 565.646 40.9867 565.121 40.9856C564.595 40.9874 564.089 40.7803 563.714 40.4097C561.814 38.5179 559.407 37.2196 556.785 36.6719L569.008 50.6094C569.129 50.7463 569.221 50.9056 569.279 51.0784C569.337 51.2513 569.361 51.4342 569.348 51.6162C569.335 51.7982 569.287 51.9759 569.205 52.139C569.123 52.302 569.01 52.447 568.872 52.5659C568.617 52.7854 568.291 52.9059 567.955 52.9053C567.754 52.9059 567.555 52.8633 567.373 52.7804C567.19 52.6974 567.027 52.5762 566.894 52.4247ZM553.879 52.1291C553.355 52.1312 552.852 51.9249 552.48 51.5556C552.108 51.1863 551.898 50.6841 551.895 50.1594C551.896 49.8994 551.948 49.6422 552.048 49.4025C552.149 49.1628 552.295 48.9452 552.479 48.7623C552.664 48.5793 552.882 48.4346 553.122 48.3362C553.362 48.2379 553.619 48.1877 553.879 48.189H553.9C554.16 48.1874 554.417 48.2372 554.657 48.3353C554.898 48.4335 555.117 48.5781 555.301 48.7611C555.486 48.9441 555.633 49.1617 555.733 49.4016C555.834 49.6416 555.886 49.8991 555.888 50.1594C555.884 50.6847 555.673 51.1874 555.301 51.5567C554.928 51.9261 554.424 52.132 553.9 52.1291H553.879Z" fill="#F6821F"/>
<path d="M366.576 385.261H362.787C362.317 382.482 361.06 379.896 359.166 377.813C357.272 375.729 354.82 374.234 352.103 373.506C349.386 372.779 346.518 372.848 343.839 373.707C341.161 374.566 338.785 376.178 336.994 378.352C336.976 378.372 336.959 378.392 336.943 378.411C336.752 378.669 336.669 378.992 336.713 379.31C336.756 379.629 336.923 379.917 337.177 380.114C337.431 380.31 337.752 380.399 338.071 380.36C338.389 380.322 338.68 380.159 338.88 379.908C340.349 378.123 342.293 376.791 344.486 376.067C346.679 375.342 349.032 375.255 351.273 375.814C353.513 376.374 355.55 377.558 357.148 379.229C358.745 380.9 359.838 382.99 360.3 385.258H356.959C356.843 385.257 356.729 385.29 356.63 385.353C356.532 385.415 356.454 385.504 356.404 385.61C356.355 385.715 356.336 385.833 356.351 385.948C356.365 386.064 356.413 386.173 356.487 386.263L361.296 392.049C361.354 392.118 361.426 392.173 361.507 392.211C361.588 392.25 361.676 392.269 361.766 392.269C361.855 392.269 361.944 392.25 362.025 392.211C362.106 392.173 362.178 392.118 362.235 392.049L367.045 386.263C367.119 386.173 367.166 386.064 367.181 385.948C367.196 385.833 367.177 385.715 367.128 385.61C367.078 385.504 367 385.415 366.901 385.353C366.803 385.29 366.689 385.257 366.573 385.258L366.576 385.261Z" fill="#F6821F"/>
<path d="M359.464 395.292C359.208 395.094 358.883 395.006 358.561 395.047C358.239 395.089 357.947 395.257 357.749 395.514C356.279 397.298 354.335 398.629 352.143 399.353C349.95 400.076 347.598 400.164 345.357 399.604C343.117 399.045 341.081 397.861 339.483 396.191C337.886 394.521 336.792 392.431 336.329 390.164H339.67C339.786 390.165 339.9 390.132 339.999 390.069C340.097 390.007 340.176 389.918 340.225 389.812C340.275 389.707 340.293 389.589 340.278 389.474C340.264 389.358 340.216 389.249 340.142 389.159L335.331 383.373C335.274 383.304 335.202 383.249 335.121 383.211C335.039 383.172 334.951 383.153 334.861 383.153C334.772 383.153 334.683 383.172 334.602 383.211C334.521 383.249 334.449 383.304 334.391 383.373L329.582 389.159C329.508 389.249 329.461 389.358 329.446 389.474C329.431 389.589 329.45 389.707 329.499 389.812C329.549 389.918 329.627 390.007 329.725 390.069C329.824 390.132 329.938 390.165 330.054 390.164H333.843C334.314 392.943 335.572 395.527 337.466 397.61C339.36 399.693 341.811 401.187 344.527 401.915C347.244 402.642 350.112 402.572 352.79 401.714C355.468 400.855 357.844 399.243 359.635 397.07C359.653 397.05 359.669 397.031 359.686 397.011C359.884 396.754 359.971 396.428 359.93 396.106C359.889 395.784 359.721 395.491 359.464 395.292Z" fill="#F6821F"/>
</g>
<defs>
<clipPath id="clip0_47_3655">
<rect width="646" height="422" fill="white"/>
</clipPath>
</defs>
</svg>
