<svg width="384" height="330" viewBox="0 0 384 330" fill="none" xmlns="http://www.w3.org/2000/svg">
<g clip-path="url(#clip0_84_992)">
<path d="M52.3016 330C81.187 330 104.603 328.068 104.603 325.684C104.603 323.301 81.187 321.368 52.3016 321.368C23.4162 321.368 0 323.301 0 325.684C0 328.068 23.4162 330 52.3016 330Z" fill="#F2F2F2"/>
<path d="M94.7604 119.773C97.7164 116.518 101.666 115.53 103.579 117.566C105.491 119.601 104.648 123.889 101.691 127.144C100.525 128.462 99.0858 129.458 97.4919 130.05L84.8089 143.671L79.0269 137.095L92.1463 124.368C92.6662 122.633 93.5628 121.058 94.7608 119.774L94.7604 119.773Z" fill="#ED9DA0"/>
<path d="M54.1908 108.531L67.491 140.455L88.7294 128.016L96.3305 132.381C96.3305 132.381 78.9703 163.785 67.0805 160.21C55.1907 156.635 34.0832 124.22 37.8866 114.215C41.69 104.211 54.1918 108.531 54.1918 108.531L54.1908 108.531Z" fill="#ED862D"/>
<path d="M48.3589 321.288H58.0571L62.6705 280.817H48.3569L48.3589 321.288Z" fill="#ED9DA0"/>
<path d="M81.5856 321.049C81.8877 321.599 82.047 323.375 82.047 324.015C82.047 324.959 81.7003 325.865 81.0832 326.533C80.4661 327.201 79.6291 327.576 78.7562 327.576H48.7216C48.4268 327.576 48.1348 327.514 47.8624 327.392C47.59 327.269 47.3425 327.09 47.134 326.865C46.9255 326.639 46.7601 326.372 46.6472 326.077C46.5344 325.782 46.4763 325.466 46.4763 325.147V323.795C46.4763 323.795 44.9897 319.728 48.0493 314.715C48.0493 314.715 51.8513 318.639 57.5317 312.492L59.2068 309.209L71.333 318.804L78.0546 319.699C79.5249 319.895 80.8289 319.669 81.5851 321.048L81.5856 321.049Z" fill="#2F2E41"/>
<path d="M55.6975 110.58L55.8936 96.4275L47.8274 90.9873L39.0562 102.596L55.6975 110.58Z" fill="#ED9DA0"/>
<path d="M55.7226 100.832C63.6455 100.832 70.0682 93.8826 70.0682 85.3105C70.0682 76.7385 63.6455 69.7896 55.7226 69.7896C47.7997 69.7896 41.377 76.7385 41.377 85.3105C41.377 93.8826 47.7997 100.832 55.7226 100.832Z" fill="#ED9DA0"/>
<path d="M75.2869 204.161L61.9234 302.549H45.1569L47.3864 246.386L48.5599 216.856L45.155 202.799C44.0744 200.56 43.1198 198.252 42.2963 195.888C40.8231 191.614 39.6587 186.49 41.3851 184.058C42.0206 183.162 43.6731 182.501 45.9189 182.005C47.4712 181.679 49.0377 181.438 50.6124 181.282C60.5274 180.221 74.6308 180.884 74.6308 180.884L74.9896 193.685L75.1886 200.833L75.2869 204.161Z" fill="#2F2E41"/>
<path d="M31.2778 316.476L40.8729 318.001L50.8785 278.685L36.717 276.434L31.2778 316.476Z" fill="#ED9DA0"/>
<path d="M64.1808 321.469C64.4057 322.061 64.3246 323.843 64.2383 324.478C64.1113 325.413 63.6464 326.254 62.9459 326.818C62.2454 327.381 61.3667 327.621 60.503 327.484L30.7893 322.755C30.4975 322.708 30.217 322.6 29.9638 322.437C29.7106 322.273 29.4897 322.057 29.3137 321.801C29.1377 321.545 29.0101 321.254 28.9381 320.944C28.8661 320.635 28.8511 320.313 28.894 319.997L29.0758 318.659C29.0758 318.659 28.1526 314.404 31.8525 309.926C31.8525 309.926 35.0862 314.406 41.5329 309.219L43.632 306.234L54.3392 317.636L60.8689 319.579C62.2975 320.004 63.6178 319.987 64.1808 321.469Z" fill="#2F2E41"/>
<path d="M75.4977 187.752L73.6649 204.831L63.6688 240.82L47.2136 300.07L30.6274 297.433L45.5136 213.187L44.0399 198.741C44.0399 198.741 43.5603 197.306 43.0098 195.203C41.9178 191.044 40.5477 184.272 42.0549 180.817C42.2429 180.367 42.5055 179.958 42.8299 179.61C43.4227 178.988 44.6273 178.61 46.2415 178.41C52.988 177.585 66.8819 179.945 73.064 181.103L75.4982 187.752L75.4977 187.752Z" fill="#2F2E41"/>
<path d="M40.9007 99.6023L57.1977 108.066C57.1977 108.066 74.4725 163.431 74.4725 166.252C74.4725 169.073 79.3617 170.837 76.4282 174.011C73.4947 177.184 81.888 179.874 77.3657 182.407C72.8435 184.941 44.6298 198.809 41.4944 197.558C32.8421 194.109 41.8613 181.436 41.8613 181.436C41.8613 181.436 35.3598 175.77 36.3377 172.951C37.3155 170.132 30.4707 116.176 30.4707 116.176L40.9007 99.6023Z" fill="#ED862D"/>
<path d="M54.846 89.0281L56.6913 93.0232C56.6913 93.0232 58.5367 85.8366 61.487 84.2396C64.4372 82.6425 64.8084 80.2444 64.8084 80.2444C64.8084 80.2444 68.501 85.4329 71.082 84.2396C73.6631 83.0462 74.7747 82.243 71.8201 77.4519C68.8655 72.6608 69.6059 75.0564 69.6059 75.0564C69.6059 75.0564 67.0225 71.0612 67.3918 72.2613C67.7611 73.4614 65.1777 69.0672 65.1777 70.2648C65.1777 71.4623 63.3323 67.8692 63.3323 69.0667C63.3323 70.2642 55.5826 66.2716 56.6899 67.8687C57.7972 69.4657 50.0465 64.6731 46.3587 71.0596C42.6708 77.4462 37.5515 76.2663 39.3719 80.2511C41.1923 84.2359 40.4552 95.0172 40.4552 95.0172H45.5434C45.5434 95.0172 50.7869 84.237 54.8469 89.0281H54.846Z" fill="#090814"/>
<path d="M380.676 162.763H169.696C168.815 162.762 167.97 162.383 167.347 161.709C166.723 161.034 166.373 160.12 166.372 159.166V59.8992C166.373 58.9456 166.723 58.0313 167.347 57.357C167.97 56.6827 168.815 56.3035 169.696 56.3025H380.676C381.557 56.3035 382.402 56.6827 383.026 57.357C383.649 58.0313 383.999 58.9456 384 59.8992V159.166C383.999 160.119 383.649 161.034 383.026 161.708C382.402 162.382 381.557 162.762 380.676 162.763ZM169.696 57.7413C169.168 57.742 168.661 57.9695 168.287 58.3741C167.913 58.7786 167.703 59.3271 167.702 59.8992V159.166C167.703 159.738 167.913 160.286 168.287 160.691C168.661 161.095 169.168 161.323 169.696 161.324H380.676C381.205 161.323 381.712 161.095 382.085 160.691C382.459 160.286 382.67 159.738 382.67 159.166V59.8992C382.67 59.3271 382.459 58.7786 382.085 58.3741C381.712 57.9695 381.205 57.742 380.676 57.7413H169.696Z" fill="#E6E6E6"/>
<path d="M178.339 68.5308C177.81 68.5308 177.303 68.7581 176.929 69.1628C176.555 69.5675 176.345 70.1164 176.345 70.6887C176.345 71.261 176.555 71.8099 176.929 72.2145C177.303 72.6192 177.81 72.8466 178.339 72.8466H206.263C206.792 72.8466 207.299 72.6192 207.673 72.2145C208.047 71.8099 208.257 71.261 208.257 70.6887C208.257 70.1164 208.047 69.5675 207.673 69.1628C207.299 68.7581 206.792 68.5308 206.263 68.5308H178.339Z" fill="#E6E6E6"/>
<path d="M369.502 83.5385V123.555H181.203V102.487C182.507 101.581 183.818 100.679 185.142 99.8072C190.795 96.0642 196.843 92.564 203.44 91.2669C206.559 90.6376 209.755 90.5945 212.887 91.1392C216.196 91.7302 219.361 92.964 222.499 94.2005C225.591 95.4255 228.692 96.691 231.926 97.3987C235.078 98.068 238.313 98.137 241.487 97.6026C247.541 96.6199 253.23 93.9872 258.895 91.6057C264.595 89.2112 270.468 86.9485 276.639 86.6506C282.729 86.3528 288.744 87.9094 294.523 89.8405C306.305 93.7745 318.336 99.61 330.812 95.6076C343.48 91.5502 355.133 79.8344 369.173 83.3108C369.306 83.3372 369.424 83.4178 369.504 83.5359L369.502 83.5385Z" fill="#F2F2F2"/>
<path d="M369.502 84.2364C369.442 84.3584 369.346 84.4549 369.229 84.5105C369.112 84.566 368.981 84.5773 368.858 84.5425C367.185 84.1274 365.471 83.9357 363.755 83.9718C349.944 84.2354 339.327 96.2635 325.822 98.0629C313.647 99.6832 302.188 93.278 290.741 89.9309C284.794 88.1911 278.66 87.2686 272.54 88.4506C266.466 89.6201 260.766 92.3082 255.042 94.6945C249.531 96.9909 243.803 99.1265 237.836 99.2324C231.275 99.3512 225.368 96.4254 219.282 94.1964C216.116 93.0352 212.87 92.1168 209.517 92.027C206.249 91.9847 202.997 92.5295 199.893 93.6391C193.427 95.8634 187.601 99.8275 181.928 103.766C181.831 103.841 181.712 103.876 181.593 103.864C181.47 103.846 181.356 103.789 181.264 103.699C181.173 103.609 181.109 103.491 181.08 103.361C181.052 103.231 181.061 103.095 181.107 102.97C181.152 102.846 181.231 102.739 181.333 102.665L181.593 102.486C182.894 101.58 184.203 100.678 185.525 99.8067C191.166 96.0637 197.204 92.5635 203.785 91.2664C206.897 90.6373 210.086 90.5941 213.212 91.1387C216.514 91.7297 219.674 92.9636 222.803 94.2C225.889 95.425 228.983 96.6905 232.21 97.3982C235.355 98.0675 238.584 98.1365 241.751 97.6021C247.793 96.6194 253.47 93.9867 259.123 91.6052C264.811 89.2107 270.672 86.948 276.828 86.6501C282.906 86.3523 288.908 87.9089 294.675 89.8401C306.433 93.774 318.438 99.6096 330.888 95.6071C343.531 91.5497 355.159 79.8339 369.169 83.3103C369.302 83.3368 369.42 83.4174 369.5 83.5355C369.562 83.6401 369.594 83.7615 369.595 83.8856C369.595 84.0097 369.563 84.1313 369.502 84.2364Z" fill="#ED862D"/>
<path d="M207.148 94.6348C208.667 94.6348 209.899 93.3019 209.899 91.6576C209.899 90.0134 208.667 88.6804 207.148 88.6804C205.628 88.6804 204.396 90.0134 204.396 91.6576C204.396 93.3019 205.628 94.6348 207.148 94.6348Z" fill="#ED862D"/>
<path d="M276.728 90.8072C278.248 90.8072 279.48 89.4742 279.48 87.83C279.48 86.1857 278.248 84.8528 276.728 84.8528C275.208 84.8528 273.976 86.1857 273.976 87.83C273.976 89.4742 275.208 90.8072 276.728 90.8072Z" fill="#ED862D"/>
<path d="M353.297 93.8721C354.816 93.8721 356.048 92.5392 356.048 90.8949C356.048 89.2507 354.816 87.9177 353.297 87.9177C351.777 87.9177 350.545 89.2507 350.545 90.8949C350.545 92.5392 351.777 93.8721 353.297 93.8721Z" fill="#ED862D"/>
<path d="M205.598 140.463C205.069 140.463 204.562 140.69 204.188 141.095C203.814 141.5 203.604 142.049 203.604 142.621C203.604 143.193 203.814 143.742 204.188 144.147C204.562 144.552 205.069 144.779 205.598 144.779H233.522C234.051 144.779 234.558 144.552 234.932 144.147C235.306 143.742 235.516 143.193 235.516 142.621C235.516 142.049 235.306 141.5 234.932 141.095C234.558 140.69 234.051 140.463 233.522 140.463H205.598Z" fill="#E6E6E6"/>
<path d="M187.647 150.533C191.809 150.533 195.182 146.884 195.182 142.381C195.182 137.879 191.809 134.229 187.647 134.229C183.486 134.229 180.112 137.879 180.112 142.381C180.112 146.884 183.486 150.533 187.647 150.533Z" fill="#ED862D"/>
<path d="M272.97 140.463C272.441 140.463 271.933 140.69 271.559 141.095C271.185 141.5 270.975 142.049 270.975 142.621C270.975 143.193 271.185 143.742 271.559 144.147C271.933 144.552 272.441 144.779 272.97 144.779H300.893C301.422 144.779 301.929 144.552 302.303 144.147C302.677 143.742 302.888 143.193 302.888 142.621C302.888 142.049 302.677 141.5 302.303 141.095C301.929 140.69 301.422 140.463 300.893 140.463H272.97Z" fill="#E6E6E6"/>
<path d="M255.019 150.533C259.18 150.533 262.554 146.884 262.554 142.381C262.554 137.879 259.18 134.229 255.019 134.229C250.857 134.229 247.484 137.879 247.484 142.381C247.484 146.884 250.857 150.533 255.019 150.533Z" fill="#ED862D"/>
<path d="M340.341 140.463C339.812 140.463 339.305 140.69 338.931 141.095C338.557 141.5 338.347 142.049 338.347 142.621C338.347 143.193 338.557 143.742 338.931 144.147C339.305 144.552 339.812 144.779 340.341 144.779H368.265C368.794 144.779 369.301 144.552 369.675 144.147C370.049 143.742 370.259 143.193 370.259 142.621C370.259 142.049 370.049 141.5 369.675 141.095C369.301 140.69 368.794 140.463 368.265 140.463H340.341Z" fill="#E6E6E6"/>
<path d="M322.39 150.533C326.552 150.533 329.925 146.884 329.925 142.381C329.925 137.879 326.552 134.229 322.39 134.229C318.229 134.229 314.855 137.879 314.855 142.381C314.855 146.884 318.229 150.533 322.39 150.533Z" fill="#ED862D"/>
<path d="M199.579 30.136H95.4893C93.4603 30.136 91.8159 28.8685 91.8135 27.3067V2.8298C91.8135 1.26805 93.4603 0.000488281 95.4893 0.000488281H199.579C201.608 0.000488281 203.252 1.26805 203.255 2.8298V27.3062C203.253 28.868 201.608 30.134 199.579 30.136ZM95.4893 1.13106C94.2717 1.13106 93.2833 1.89171 93.2833 2.82876V27.3052C93.2833 28.2422 94.2713 29.0018 95.4893 29.0029H199.579C200.797 29.0029 201.785 28.2422 201.785 27.3052V2.8298C201.785 1.89275 200.797 1.13315 199.579 1.13211L95.4893 1.13106Z" fill="#E6E6E6"/>
<path d="M119.025 13.9104C118.438 13.9112 117.874 14.1641 117.459 14.6136C117.044 15.063 116.81 15.6724 116.809 16.308V33.0924C116.81 33.7281 117.044 34.3374 117.459 34.7869C117.874 35.2364 118.438 35.4892 119.025 35.4901H198.364C198.952 35.4892 199.515 35.2364 199.93 34.7869C200.346 34.3374 200.579 33.7281 200.58 33.0924V16.308C200.579 15.6724 200.346 15.063 199.93 14.6136C199.515 14.1641 198.952 13.9112 198.364 13.9104H119.025Z" fill="#ED862D"/>
<path d="M130.106 30.2154C132.799 30.2154 134.982 27.8536 134.982 24.9402C134.982 22.0268 132.799 19.665 130.106 19.665C127.413 19.665 125.23 22.0268 125.23 24.9402C125.23 27.8536 127.413 30.2154 130.106 30.2154Z" fill="white"/>
<path d="M152.327 22.6501C151.798 22.6501 151.29 22.8775 150.916 23.2822C150.542 23.6869 150.332 24.2357 150.332 24.8081C150.332 25.3804 150.542 25.9292 150.916 26.3339C151.29 26.7386 151.798 26.966 152.327 26.966H180.25C180.779 26.966 181.286 26.7386 181.66 26.3339C182.034 25.9292 182.245 25.3804 182.245 24.8081C182.245 24.2357 182.034 23.6869 181.66 23.2822C181.286 22.8775 180.779 22.6501 180.25 22.6501H152.327Z" fill="white"/>
<path d="M250.852 217.386H146.762C144.733 217.386 143.089 216.119 143.086 214.557V190.08C143.086 188.518 144.733 187.251 146.762 187.251H250.852C252.881 187.251 254.525 188.518 254.528 190.08V214.556C254.526 216.118 252.881 217.384 250.852 217.386ZM146.762 188.381C145.545 188.381 144.556 189.142 144.556 190.079V214.555C144.556 215.492 145.544 216.252 146.762 216.253H250.852C252.07 216.253 253.058 215.492 253.058 214.555V190.08C253.058 189.143 252.07 188.383 250.852 188.382L146.762 188.381Z" fill="#E6E6E6"/>
<path d="M170.299 201.161C169.711 201.162 169.148 201.415 168.732 201.865C168.317 202.314 168.083 202.923 168.083 203.559V220.343C168.083 220.979 168.317 221.588 168.732 222.038C169.148 222.487 169.711 222.74 170.299 222.741H249.637C250.225 222.74 250.788 222.487 251.204 222.038C251.619 221.588 251.853 220.979 251.854 220.343V203.559C251.853 202.923 251.619 202.314 251.204 201.865C250.788 201.415 250.225 201.162 249.637 201.161H170.299Z" fill="#ED862D"/>
<path d="M181.379 217.466C184.072 217.466 186.255 215.104 186.255 212.19C186.255 209.277 184.072 206.915 181.379 206.915C178.686 206.915 176.503 209.277 176.503 212.19C176.503 215.104 178.686 217.466 181.379 217.466Z" fill="white"/>
<path d="M203.599 209.901C203.071 209.901 202.563 210.128 202.189 210.533C201.815 210.938 201.605 211.486 201.605 212.059C201.605 212.631 201.815 213.18 202.189 213.585C202.563 213.989 203.071 214.217 203.599 214.217H231.523C232.052 214.217 232.559 213.989 232.933 213.585C233.307 213.18 233.518 212.631 233.518 212.059C233.518 211.486 233.307 210.938 232.933 210.533C232.559 210.128 232.052 209.901 231.523 209.901H203.599Z" fill="white"/>
<path d="M109.8 163.903L86.5351 146.182C86.1324 145.874 85.8668 145.405 85.7966 144.877C85.7265 144.35 85.8574 143.807 86.1608 143.367C87.5628 131.82 97.6504 120.344 110.04 108.888C110.344 108.449 110.796 108.15 111.297 108.057C111.797 107.964 112.304 108.084 112.708 108.391L135.971 126.112C136.374 126.42 136.64 126.889 136.71 127.417C136.78 127.945 136.649 128.488 136.345 128.927C126.269 139.792 118.146 151.236 112.468 163.406C112.163 163.845 111.711 164.143 111.211 164.237C110.711 164.33 110.203 164.21 109.8 163.903Z" fill="#E6E6E6"/>
<path d="M134.904 127.129L127.836 121.747C123.525 118.486 118.112 117.213 112.778 118.206C107.444 119.2 102.623 122.379 99.3673 127.049L87.7079 143.875C87.5353 144.124 87.4606 144.433 87.5002 144.732C87.5398 145.032 87.6906 145.298 87.9193 145.473L110.359 162.558C110.589 162.732 110.877 162.8 111.161 162.747C111.445 162.694 111.702 162.524 111.874 162.274C116.749 149.766 124.721 138.686 135.117 128.725C135.289 128.476 135.363 128.168 135.323 127.869C135.283 127.57 135.133 127.303 134.904 127.129Z" fill="white"/>
<path d="M106.505 151.301L101.881 147.779C101.82 147.733 101.751 147.7 101.677 147.683C101.603 147.666 101.527 147.664 101.451 147.678C101.376 147.692 101.304 147.721 101.238 147.765C101.173 147.808 101.115 147.864 101.07 147.931C101.024 147.997 100.99 148.071 100.971 148.15C100.952 148.229 100.948 148.31 100.958 148.39C100.969 148.469 100.994 148.545 101.033 148.613C101.071 148.681 101.123 148.74 101.183 148.786L105.807 152.308C105.93 152.401 106.084 152.438 106.236 152.41C106.388 152.381 106.526 152.29 106.618 152.157C106.711 152.023 106.751 151.858 106.729 151.698C106.708 151.537 106.627 151.395 106.505 151.301Z" fill="#CCCCCC"/>
<path d="M113.774 152.742L103.616 145.005C103.493 144.911 103.339 144.875 103.187 144.903C103.035 144.931 102.897 145.022 102.805 145.156C102.712 145.289 102.672 145.454 102.694 145.615C102.715 145.775 102.796 145.918 102.918 146.011L113.077 153.748C113.2 153.842 113.354 153.878 113.506 153.85C113.658 153.822 113.796 153.731 113.888 153.597C113.981 153.464 114.021 153.299 113.999 153.138C113.978 152.978 113.897 152.835 113.774 152.742Z" fill="#CCCCCC"/>
<path d="M96.5872 139.682C94.5571 140.336 93.3528 142.594 93.8974 144.726C94.4419 146.858 96.529 148.057 98.5591 147.403C100.589 146.75 101.793 144.491 101.249 142.359C100.704 140.227 98.6172 139.029 96.5872 139.682Z" fill="#ED862D"/>
<path d="M112.011 144.448L99.5332 134.943C99.4098 134.869 99.2636 134.848 99.1226 134.883C98.9816 134.917 98.8558 135.005 98.7693 135.13C98.6828 135.255 98.6418 135.408 98.654 135.559C98.6663 135.71 98.731 135.849 98.8357 135.95L111.314 145.455C111.437 145.529 111.584 145.551 111.725 145.516C111.866 145.482 111.992 145.393 112.079 145.268C112.165 145.143 112.206 144.99 112.194 144.839C112.181 144.687 112.116 144.548 112.011 144.448Z" fill="#CCCCCC"/>
<path d="M118.699 145.437L101.281 132.172C101.158 132.096 101.01 132.072 100.868 132.106C100.725 132.139 100.597 132.228 100.51 132.354C100.422 132.48 100.381 132.635 100.394 132.788C100.408 132.941 100.475 133.081 100.582 133.18L118.001 146.444C118.125 146.518 118.271 146.54 118.412 146.505C118.554 146.471 118.68 146.383 118.766 146.257C118.853 146.132 118.894 145.979 118.881 145.828C118.869 145.676 118.804 145.537 118.699 145.437Z" fill="#CCCCCC"/>
<path d="M116.573 137.661L104.095 128.156C103.972 128.083 103.826 128.061 103.685 128.096C103.544 128.13 103.418 128.218 103.331 128.343C103.245 128.468 103.204 128.621 103.216 128.772C103.228 128.923 103.293 129.062 103.398 129.163L115.876 138.668C115.999 138.742 116.146 138.764 116.287 138.729C116.428 138.695 116.554 138.606 116.641 138.481C116.727 138.356 116.768 138.203 116.756 138.052C116.743 137.9 116.678 137.761 116.573 137.661Z" fill="#CCCCCC"/>
<path d="M128.238 132.353L115.76 122.848C115.636 122.775 115.49 122.753 115.349 122.788C115.208 122.822 115.082 122.91 114.996 123.035C114.909 123.16 114.868 123.313 114.881 123.464C114.893 123.615 114.958 123.755 115.062 123.855L127.54 133.36C127.664 133.434 127.81 133.456 127.951 133.421C128.093 133.387 128.219 133.299 128.305 133.173C128.392 133.048 128.433 132.895 128.42 132.744C128.408 132.592 128.343 132.453 128.238 132.353Z" fill="#ED862D"/>
<path d="M123.261 138.65L105.843 125.385C105.72 125.309 105.572 125.285 105.43 125.319C105.287 125.352 105.159 125.441 105.072 125.567C104.984 125.693 104.943 125.848 104.956 126.001C104.97 126.154 105.037 126.293 105.144 126.393L122.563 139.657C122.687 139.731 122.833 139.753 122.974 139.718C123.116 139.684 123.242 139.595 123.328 139.47C123.415 139.345 123.456 139.192 123.443 139.041C123.431 138.889 123.366 138.75 123.261 138.65Z" fill="#CCCCCC"/>
<path d="M90.5584 148.387C94.603 147.094 98.498 148.304 99.2581 151.089C100.018 153.875 97.3557 157.179 93.3116 158.472C91.7019 159.012 89.996 159.128 88.3366 158.809L71.1356 164.052L69.0332 155.267L86.2135 151.03C87.4468 149.786 88.9374 148.88 90.5608 148.388L90.5584 148.387Z" fill="#ED9DA0"/>
<path d="M60.1346 117.251L57.4385 152.146L81.5874 152.426L86.2741 160.235C86.2741 160.235 57.004 178.571 48.2151 169.202C39.4261 159.833 35.5162 120.405 43.3302 113.656C51.1442 106.906 60.1346 117.25 60.1346 117.25V117.251Z" fill="#ED862D"/>
</g>
<defs>
<clipPath id="clip0_84_992">
<rect width="384" height="330" fill="white"/>
</clipPath>
</defs>
</svg>
