<svg width="371" height="246" viewBox="0 0 371 246" fill="none" xmlns="http://www.w3.org/2000/svg">
<g clip-path="url(#clip0_84_1042)">
<path d="M52.8694 76.9921C53.2686 78.2771 53.6222 79.5023 53.9198 80.5571L53.7343 80.6238C53.5032 79.6465 53.2095 78.3825 52.8694 76.9921ZM41.7904 45.7091L41.7344 45.7409L41.7869 45.6917L41.7904 45.7091Z" fill="url(#paint0_linear_84_1042)"/>
<path d="M28.2111 226.47C26.1277 227.141 24.5625 239.984 24.5625 239.984L37.5185 243.193C37.5185 243.193 46.6053 244.538 50.9224 243.193C55.2396 241.848 55.0927 238.117 48.9129 237.519C42.733 236.922 38.3382 228.935 38.3382 228.935C38.3382 228.935 30.2944 225.8 28.2111 226.47Z" fill="#090814"/>
<path d="M13.0067 229.082C13.0387 230.111 12.868 231.136 12.5043 232.098C11.4601 235.246 11.0181 238.564 11.2016 241.876C11.2296 242.272 11.2612 242.686 11.2962 243.119C11.7445 248.27 24.1715 245.065 24.9981 244.464C25.8248 243.863 22.5468 229.08 22.5468 229.08C22.5468 229.08 12.8 226.993 13.0067 229.082Z" fill="#090814"/>
<path d="M26.6202 41.9562C26.6175 41.9496 26.6133 41.9445 26.6133 41.9407C26.6133 41.9368 26.9723 41.7624 27.5497 41.4218C27.8975 41.2172 28.3226 40.951 28.7964 40.6317C29.9011 39.883 30.9341 39.0329 31.8819 38.0924C32.6486 37.3468 33.322 36.5104 33.8872 35.6016C32.8366 33.699 32.2841 31.5605 32.2815 29.3858V29.3222C32.2862 26.838 33.0042 24.4078 34.3496 22.3218C35.695 20.2359 37.611 18.5824 39.8685 17.5592C42.1261 16.5359 44.6297 16.186 47.0803 16.5513C49.5309 16.9166 51.8247 17.9817 53.6877 19.6193C55.5507 21.2569 56.9041 23.3977 57.5861 25.7859C58.268 28.1741 58.2498 30.7087 57.5336 33.0867C56.8173 35.4648 55.4333 37.5859 53.547 39.1963C51.6606 40.8068 49.3517 41.8386 46.8962 42.1685L46.6353 42.3708C45.1355 43.5372 43.4439 44.9341 41.8208 46.4612C41.2272 47.0208 40.6417 47.5912 40.0798 48.1767C38.9521 49.3277 37.9182 50.5675 36.9881 51.8842C35.5258 53.9922 34.6203 56.1111 34.7691 58.0408C34.7881 58.2792 34.8235 58.516 34.875 58.7495C35.1231 59.8504 35.1436 60.3243 34.9956 60.3239C34.0901 60.3212 26.8452 42.5107 26.6202 41.9562Z" fill="#ED9DA0"/>
<path d="M91.3276 70.3955C91.3276 70.3955 92.07 69.9813 93.1903 69.4861C96.4853 68.0465 103.065 65.9401 103.895 71.7401C105.012 79.5207 97.6134 78.6252 97.6134 78.6252C96.1507 78.0686 94.652 77.6123 93.1277 77.2593C92.3784 77.0563 91.5959 77.0073 90.8271 77.1151L91.3276 70.3955Z" fill="#ED9DA0"/>
<path d="M90.2002 77.761H92.4274C93.7231 76.0056 92.7319 69.3345 92.7319 69.3345L90.7953 69.6855L90.2002 77.761Z" fill="#E6E6E6"/>
<path d="M55.9051 126.13C54.4273 126.877 53.2235 117.915 53.2235 117.915L50.7698 108.657L50.4004 89.0224L51.9586 81.858C52.579 81.5011 53.2298 81.2001 53.9032 80.9586C52.5213 75.9882 49.8172 67.495 49.2306 65.656C49.1533 65.4297 49.1146 65.3041 49.1146 65.3041L44.7631 52.9619L42.248 46.2083C42.7282 46.5929 43.2337 46.9447 43.761 47.2611C45.2215 48.1558 47.5955 49.3214 50.2284 49.4555C50.2284 49.4555 55.9314 52.4826 56.9914 62.8396C58.0515 73.1967 62.5178 104.329 62.5178 104.329C62.5178 104.329 66.4952 125.32 63.6938 127.502L63.6903 127.473L63.6868 127.508C63.6868 127.508 57.3829 125.38 55.9051 126.13Z" fill="#090814"/>
<path d="M57.485 79.285C61.5084 78.1543 66.7012 79.285 66.7012 79.285L90.162 79.8046C94.35 74.2607 91.4469 69.0539 91.4469 69.0539C91.4469 69.0539 79.9405 68.6009 70.6168 67.2036C61.2931 65.8063 55.1504 58.8616 55.1504 58.8616L57.485 79.285Z" fill="#090814"/>
<path d="M22.7041 115.677L25.9179 84.9213L26.6189 41.9412L28.0693 42.7023L27.5503 41.4235L27.4776 41.2453C27.4776 41.2453 28.6637 40.2614 28.7982 40.6334C29.9019 39.8839 30.9341 39.0338 31.8817 38.0938C34.2206 40.4753 38.7719 44.937 40.7235 45.6348C40.7235 45.6348 40.5662 46.3517 40.3061 47.3437H40.3104L41.8821 46.4249L41.9949 46.3591L42.2488 46.2118C42.2488 46.2118 42.3342 46.3943 42.4942 46.7287C43.8534 49.6098 50.4657 63.7073 50.3254 64.9155C50.1774 66.2563 55.0425 83.1647 55.0425 83.1647L52.696 99.1796C52.696 99.1796 57.1453 110.301 55.9689 114.408C55.4746 116.133 49.5378 116.633 42.8131 116.633C33.511 116.634 22.7041 115.677 22.7041 115.677Z" fill="#E6E6E6"/>
<path d="M36.0957 48.6724L39.226 51.8816L39.7319 52.819C41.4747 56.0353 42.4982 59.5936 42.7312 63.2465V67.4106L43.3882 100.783L46.99 105.912L47.6469 99.5643L46.2 63.8398L44.2341 55.7644L43.1609 50.6494C42.5913 49.7681 42.0899 48.8443 41.6611 47.8862C40.5879 45.6848 37.8259 46.2815 37.8259 46.2815L36.0957 48.6724Z" fill="#ED862D"/>
<path d="M12.5029 188.323C12.5029 188.323 16.8938 157.932 15.7035 153.831C14.5133 149.73 16.5228 119.421 16.5228 119.421L17.1845 113.737L17.5555 110.532L17.7131 109.191L18.4799 109.426C25.8801 111.587 33.4813 112.985 41.165 113.597C42.8682 113.713 44.5791 113.576 46.2423 113.19C49.2817 112.494 55.1575 111.64 56.1831 110.911C56.1831 110.911 56.5332 111.855 56.9711 113.4C57.9794 116.971 59.4993 123.797 58.3299 129.611L56.5406 141.369C56.5406 141.369 55.8369 153.352 53.5262 160.521L51.4811 170.299L48.8006 190.233C47.4764 195.545 46.5182 200.941 45.9327 206.384C44.9557 215.421 39.3776 230.413 39.3776 230.413C39.3776 230.413 27.5211 232.056 27.1709 228.026L31.2674 196.592L35.0632 151.574C35.0632 151.574 30.9489 179.662 28.5854 185.712C28.5854 185.712 25.3078 220.194 24.1909 225.506C23.0741 230.818 22.3317 232.222 22.3317 232.222C22.3317 232.222 15.4056 234.764 12.2788 230.06C12.2788 230.06 11.3856 216.104 10.7171 211.1C10.0446 206.089 12.5029 188.323 12.5029 188.323Z" fill="#090814"/>
<path d="M17.9477 120.304L22.85 122.695L17.0055 133.744C14.8101 131.691 15.069 123.517 15.069 123.517L17.9477 120.304Z" fill="#ED9DA0"/>
<path d="M20.056 120.304L22.2897 122.06L19.314 126.578L15.2561 128.071L14.9199 125.083L20.056 120.304Z" fill="#E6E6E6"/>
<path d="M56.1875 110.955C56.1759 110.939 56.1687 110.921 56.1666 110.902C56.1037 110.943 56.0382 110.981 55.9707 111.014L56.1875 110.955Z" fill="black"/>
<path d="M0.982415 126.501C0.982415 126.501 3.69844 118.066 5.20254 111.216L3.43604 107.293C3.43604 107.293 -0.974223 100.014 0.198291 88.5927C1.37081 77.1712 5.61489 58.6899 5.61489 58.6899C5.61489 58.6899 5.61489 58.6647 5.61489 58.6167C5.47306 57.679 4.28161 48.2612 13.7792 46.8782C13.7792 46.8782 19.9884 45.7266 24.4346 42.9184C26.086 41.8749 30.827 39.386 31.5806 37.8728C31.5806 37.8728 29.4428 42.4453 29.8636 43.6465C30.0912 44.2785 30.3304 44.9566 30.5793 45.6661C31.9601 49.5985 33.6517 54.5077 34.7693 58.0405C35.2398 59.4281 35.6338 60.8406 35.9496 62.2716C35.9496 62.2716 39.1668 76.4373 39.4505 81.3663C39.7341 86.2952 39.91 92.8974 34.7693 101.468C29.6286 110.038 26.8975 111.941 26.8975 111.941L24.4416 115.816L22.255 119.271L22.7211 120.566C22.7211 120.566 21.2784 122.075 19.4107 123.766L15.3409 130.199C15.3409 130.199 3.6625 129.637 0.982415 126.501Z" fill="#090814"/>
<path opacity="0.1" d="M6.06358 58.6895C6.06358 58.6895 1.8195 77.1732 0.646595 88.5927C-0.526306 100.012 3.8855 107.292 3.8855 107.292L13.3224 128.291C16.5613 127.456 23.1512 120.567 23.1512 120.567L13.6969 94.3052C13.6969 94.3052 17.2021 81.0443 19.3941 68.8292C21.5861 56.6141 15.7768 51.1337 15.7768 51.1337C6.0601 47.4401 6.06358 58.6895 6.06358 58.6895Z" fill="black"/>
<path d="M24.2653 123.889L21.6602 131.357L18.7575 135.348C18.7575 135.348 16.5829 136.805 16.0403 134.081C15.4977 131.356 22.8524 121.126 22.8524 121.126C24.0118 120.666 24.2653 123.889 24.2653 123.889Z" fill="#090814"/>
<path d="M33.518 34.3055C33.518 34.3055 21.0915 18.0519 36.7399 14.5377C36.7399 14.5377 41.1842 8.17309 46.6476 11.3037C49.3517 12.8116 52.4012 13.5863 55.4952 13.5512C58.1416 13.5512 60.6737 14.5397 60.2127 18.4933C59.2921 26.4006 54.2295 25.0808 54.2295 25.0808C54.2295 25.0808 40.4998 19.2094 40.0395 25.7988C39.5793 32.3882 33.518 34.3055 33.518 34.3055Z" fill="#090814"/>
<path d="M178.425 5.81789C180.027 5.81789 181.326 4.51551 181.326 2.90894C181.326 1.30238 180.027 0 178.425 0C176.822 0 175.523 1.30238 175.523 2.90894C175.523 4.51551 176.822 5.81789 178.425 5.81789Z" fill="#E2E3E4"/>
<path d="M193.111 5.81789C194.713 5.81789 196.012 4.51551 196.012 2.90894C196.012 1.30238 194.713 0 193.111 0C191.509 0 190.21 1.30238 190.21 2.90894C190.21 4.51551 191.509 5.81789 193.111 5.81789Z" fill="#E2E3E4"/>
<path d="M207.797 5.81789C209.399 5.81789 210.698 4.51551 210.698 2.90894C210.698 1.30238 209.399 0 207.797 0C206.194 0 204.896 1.30238 204.896 2.90894C204.896 4.51551 206.194 5.81789 207.797 5.81789Z" fill="#E2E3E4"/>
<path d="M222.483 5.81789C224.085 5.81789 225.384 4.51551 225.384 2.90894C225.384 1.30238 224.085 0 222.483 0C220.881 0 219.582 1.30238 219.582 2.90894C219.582 4.51551 220.881 5.81789 222.483 5.81789Z" fill="#E2E3E4"/>
<path d="M237.17 5.81789C238.772 5.81789 240.071 4.51551 240.071 2.90894C240.071 1.30238 238.772 0 237.17 0C235.567 0 234.269 1.30238 234.269 2.90894C234.269 4.51551 235.567 5.81789 237.17 5.81789Z" fill="#E2E3E4"/>
<path d="M178.425 20.7283C180.027 20.7283 181.326 19.4259 181.326 17.8193C181.326 16.2128 180.027 14.9104 178.425 14.9104C176.822 14.9104 175.523 16.2128 175.523 17.8193C175.523 19.4259 176.822 20.7283 178.425 20.7283Z" fill="#E2E3E4"/>
<path d="M193.111 20.7283C194.713 20.7283 196.012 19.4259 196.012 17.8193C196.012 16.2128 194.713 14.9104 193.111 14.9104C191.509 14.9104 190.21 16.2128 190.21 17.8193C190.21 19.4259 191.509 20.7283 193.111 20.7283Z" fill="#E2E3E4"/>
<path d="M207.797 20.7283C209.399 20.7283 210.698 19.4259 210.698 17.8193C210.698 16.2128 209.399 14.9104 207.797 14.9104C206.194 14.9104 204.896 16.2128 204.896 17.8193C204.896 19.4259 206.194 20.7283 207.797 20.7283Z" fill="#E2E3E4"/>
<path d="M222.483 20.7283C224.085 20.7283 225.384 19.4259 225.384 17.8193C225.384 16.2128 224.085 14.9104 222.483 14.9104C220.881 14.9104 219.582 16.2128 219.582 17.8193C219.582 19.4259 220.881 20.7283 222.483 20.7283Z" fill="#ED862D"/>
<path d="M237.17 20.7283C238.772 20.7283 240.071 19.4259 240.071 17.8193C240.071 16.2128 238.772 14.9104 237.17 14.9104C235.567 14.9104 234.269 16.2128 234.269 17.8193C234.269 19.4259 235.567 20.7283 237.17 20.7283Z" fill="#E2E3E4"/>
<path d="M266.542 20.7283C268.144 20.7283 269.443 19.4259 269.443 17.8193C269.443 16.2128 268.144 14.9104 266.542 14.9104C264.94 14.9104 263.641 16.2128 263.641 17.8193C263.641 19.4259 264.94 20.7283 266.542 20.7283Z" fill="#E2E3E4"/>
<path d="M178.425 35.6389C180.027 35.6389 181.326 34.3366 181.326 32.73C181.326 31.1234 180.027 29.821 178.425 29.821C176.822 29.821 175.523 31.1234 175.523 32.73C175.523 34.3366 176.822 35.6389 178.425 35.6389Z" fill="#E2E3E4"/>
<path d="M193.111 35.6389C194.713 35.6389 196.012 34.3366 196.012 32.73C196.012 31.1234 194.713 29.821 193.111 29.821C191.509 29.821 190.21 31.1234 190.21 32.73C190.21 34.3366 191.509 35.6389 193.111 35.6389Z" fill="#E2E3E4"/>
<path d="M207.797 35.6389C209.399 35.6389 210.698 34.3366 210.698 32.73C210.698 31.1234 209.399 29.821 207.797 29.821C206.194 29.821 204.896 31.1234 204.896 32.73C204.896 34.3366 206.194 35.6389 207.797 35.6389Z" fill="#E2E3E4"/>
<path d="M222.483 35.6389C224.085 35.6389 225.384 34.3366 225.384 32.73C225.384 31.1234 224.085 29.821 222.483 29.821C220.881 29.821 219.582 31.1234 219.582 32.73C219.582 34.3366 220.881 35.6389 222.483 35.6389Z" fill="#E2E3E4"/>
<path d="M237.17 35.6389C238.772 35.6389 240.071 34.3366 240.071 32.73C240.071 31.1234 238.772 29.821 237.17 29.821C235.567 29.821 234.269 31.1234 234.269 32.73C234.269 34.3366 235.567 35.6389 237.17 35.6389Z" fill="#E2E3E4"/>
<path d="M178.425 50.5493C180.027 50.5493 181.326 49.247 181.326 47.6404C181.326 46.0338 180.027 44.7314 178.425 44.7314C176.822 44.7314 175.523 46.0338 175.523 47.6404C175.523 49.247 176.822 50.5493 178.425 50.5493Z" fill="#E2E3E4"/>
<path d="M193.111 50.5493C194.713 50.5493 196.012 49.247 196.012 47.6404C196.012 46.0338 194.713 44.7314 193.111 44.7314C191.509 44.7314 190.21 46.0338 190.21 47.6404C190.21 49.247 191.509 50.5493 193.111 50.5493Z" fill="#E2E3E4"/>
<path d="M207.797 50.5493C209.399 50.5493 210.698 49.247 210.698 47.6404C210.698 46.0338 209.399 44.7314 207.797 44.7314C206.194 44.7314 204.896 46.0338 204.896 47.6404C204.896 49.247 206.194 50.5493 207.797 50.5493Z" fill="#E2E3E4"/>
<path d="M222.483 50.5493C224.085 50.5493 225.384 49.247 225.384 47.6404C225.384 46.0338 224.085 44.7314 222.483 44.7314C220.881 44.7314 219.582 46.0338 219.582 47.6404C219.582 49.247 220.881 50.5493 222.483 50.5493Z" fill="#E2E3E4"/>
<path d="M237.17 50.5493C238.772 50.5493 240.071 49.247 240.071 47.6404C240.071 46.0338 238.772 44.7314 237.17 44.7314C235.567 44.7314 234.269 46.0338 234.269 47.6404C234.269 49.247 235.567 50.5493 237.17 50.5493Z" fill="#E2E3E4"/>
<path d="M251.855 50.5493C253.458 50.5493 254.756 49.247 254.756 47.6404C254.756 46.0338 253.458 44.7314 251.855 44.7314C250.253 44.7314 248.954 46.0338 248.954 47.6404C248.954 49.247 250.253 50.5493 251.855 50.5493Z" fill="#E2E3E4"/>
<path d="M266.542 50.5493C268.144 50.5493 269.443 49.247 269.443 47.6404C269.443 46.0338 268.144 44.7314 266.542 44.7314C264.94 44.7314 263.641 46.0338 263.641 47.6404C263.641 49.247 264.94 50.5493 266.542 50.5493Z" fill="#E2E3E4"/>
<path d="M281.228 50.5493C282.831 50.5493 284.129 49.247 284.129 47.6404C284.129 46.0338 282.831 44.7314 281.228 44.7314C279.626 44.7314 278.327 46.0338 278.327 47.6404C278.327 49.247 279.626 50.5493 281.228 50.5493Z" fill="#E2E3E4"/>
<path d="M295.914 50.5493C297.516 50.5493 298.815 49.247 298.815 47.6404C298.815 46.0338 297.516 44.7314 295.914 44.7314C294.312 44.7314 293.013 46.0338 293.013 47.6404C293.013 49.247 294.312 50.5493 295.914 50.5493Z" fill="#E2E3E4"/>
<path d="M310.6 50.5493C312.203 50.5493 313.502 49.247 313.502 47.6404C313.502 46.0338 312.203 44.7314 310.6 44.7314C308.998 44.7314 307.699 46.0338 307.699 47.6404C307.699 49.247 308.998 50.5493 310.6 50.5493Z" fill="#E2E3E4"/>
<path d="M237.17 65.4602C238.772 65.4602 240.071 64.1578 240.071 62.5513C240.071 60.9447 238.772 59.6423 237.17 59.6423C235.567 59.6423 234.269 60.9447 234.269 62.5513C234.269 64.1578 235.567 65.4602 237.17 65.4602Z" fill="#E2E3E4"/>
<path d="M251.855 65.4602C253.458 65.4602 254.756 64.1578 254.756 62.5513C254.756 60.9447 253.458 59.6423 251.855 59.6423C250.253 59.6423 248.954 60.9447 248.954 62.5513C248.954 64.1578 250.253 65.4602 251.855 65.4602Z" fill="#ED862D"/>
<path d="M266.542 65.4602C268.144 65.4602 269.443 64.1578 269.443 62.5513C269.443 60.9447 268.144 59.6423 266.542 59.6423C264.94 59.6423 263.641 60.9447 263.641 62.5513C263.641 64.1578 264.94 65.4602 266.542 65.4602Z" fill="#E2E3E4"/>
<path d="M281.228 65.4602C282.831 65.4602 284.129 64.1578 284.129 62.5513C284.129 60.9447 282.831 59.6423 281.228 59.6423C279.626 59.6423 278.327 60.9447 278.327 62.5513C278.327 64.1578 279.626 65.4602 281.228 65.4602Z" fill="#E2E3E4"/>
<path d="M295.914 65.4602C297.516 65.4602 298.815 64.1578 298.815 62.5513C298.815 60.9447 297.516 59.6423 295.914 59.6423C294.312 59.6423 293.013 60.9447 293.013 62.5513C293.013 64.1578 294.312 65.4602 295.914 65.4602Z" fill="#E2E3E4"/>
<path d="M310.6 65.4602C312.203 65.4602 313.502 64.1578 313.502 62.5513C313.502 60.9447 312.203 59.6423 310.6 59.6423C308.998 59.6423 307.699 60.9447 307.699 62.5513C307.699 64.1578 308.998 65.4602 310.6 65.4602Z" fill="#E2E3E4"/>
<path d="M237.17 80.3709C238.772 80.3709 240.071 79.0685 240.071 77.4619C240.071 75.8554 238.772 74.553 237.17 74.553C235.567 74.553 234.269 75.8554 234.269 77.4619C234.269 79.0685 235.567 80.3709 237.17 80.3709Z" fill="#E2E3E4"/>
<path d="M251.855 80.3709C253.458 80.3709 254.756 79.0685 254.756 77.4619C254.756 75.8554 253.458 74.553 251.855 74.553C250.253 74.553 248.954 75.8554 248.954 77.4619C248.954 79.0685 250.253 80.3709 251.855 80.3709Z" fill="#E2E3E4"/>
<path d="M266.542 80.3709C268.144 80.3709 269.443 79.0685 269.443 77.4619C269.443 75.8554 268.144 74.553 266.542 74.553C264.94 74.553 263.641 75.8554 263.641 77.4619C263.641 79.0685 264.94 80.3709 266.542 80.3709Z" fill="#E2E3E4"/>
<path d="M281.228 80.3709C282.831 80.3709 284.129 79.0685 284.129 77.4619C284.129 75.8554 282.831 74.553 281.228 74.553C279.626 74.553 278.327 75.8554 278.327 77.4619C278.327 79.0685 279.626 80.3709 281.228 80.3709Z" fill="#E2E3E4"/>
<path d="M295.914 80.3709C297.516 80.3709 298.815 79.0685 298.815 77.4619C298.815 75.8554 297.516 74.553 295.914 74.553C294.312 74.553 293.013 75.8554 293.013 77.4619C293.013 79.0685 294.312 80.3709 295.914 80.3709Z" fill="#ED862D"/>
<path d="M310.6 80.3709C312.203 80.3709 313.502 79.0685 313.502 77.4619C313.502 75.8554 312.203 74.553 310.6 74.553C308.998 74.553 307.699 75.8554 307.699 77.4619C307.699 79.0685 308.998 80.3709 310.6 80.3709Z" fill="#E2E3E4"/>
<path d="M237.17 95.281C238.772 95.281 240.071 93.9786 240.071 92.3721C240.071 90.7655 238.772 89.4631 237.17 89.4631C235.567 89.4631 234.269 90.7655 234.269 92.3721C234.269 93.9786 235.567 95.281 237.17 95.281Z" fill="#E2E3E4"/>
<path d="M251.855 95.281C253.458 95.281 254.756 93.9786 254.756 92.3721C254.756 90.7655 253.458 89.4631 251.855 89.4631C250.253 89.4631 248.954 90.7655 248.954 92.3721C248.954 93.9786 250.253 95.281 251.855 95.281Z" fill="#E2E3E4"/>
<path d="M266.542 95.281C268.144 95.281 269.443 93.9786 269.443 92.3721C269.443 90.7655 268.144 89.4631 266.542 89.4631C264.94 89.4631 263.641 90.7655 263.641 92.3721C263.641 93.9786 264.94 95.281 266.542 95.281Z" fill="#E2E3E4"/>
<path d="M281.228 95.281C282.831 95.281 284.129 93.9786 284.129 92.3721C284.129 90.7655 282.831 89.4631 281.228 89.4631C279.626 89.4631 278.327 90.7655 278.327 92.3721C278.327 93.9786 279.626 95.281 281.228 95.281Z" fill="#E2E3E4"/>
<path d="M295.914 95.281C297.516 95.281 298.815 93.9786 298.815 92.3721C298.815 90.7655 297.516 89.4631 295.914 89.4631C294.312 89.4631 293.013 90.7655 293.013 92.3721C293.013 93.9786 294.312 95.281 295.914 95.281Z" fill="#E2E3E4"/>
<path d="M310.6 95.281C312.203 95.281 313.502 93.9786 313.502 92.3721C313.502 90.7655 312.203 89.4631 310.6 89.4631C308.998 89.4631 307.699 90.7655 307.699 92.3721C307.699 93.9786 308.998 95.281 310.6 95.281Z" fill="#E2E3E4"/>
<path d="M178.425 110.191C180.027 110.191 181.326 108.889 181.326 107.282C181.326 105.676 180.027 104.374 178.425 104.374C176.822 104.374 175.523 105.676 175.523 107.282C175.523 108.889 176.822 110.191 178.425 110.191Z" fill="#E2E3E4"/>
<path d="M193.111 110.191C194.713 110.191 196.012 108.889 196.012 107.282C196.012 105.676 194.713 104.374 193.111 104.374C191.509 104.374 190.21 105.676 190.21 107.282C190.21 108.889 191.509 110.191 193.111 110.191Z" fill="#E2E3E4"/>
<path d="M207.797 110.191C209.399 110.191 210.698 108.889 210.698 107.282C210.698 105.676 209.399 104.374 207.797 104.374C206.194 104.374 204.896 105.676 204.896 107.282C204.896 108.889 206.194 110.191 207.797 110.191Z" fill="#E2E3E4"/>
<path d="M222.483 110.191C224.085 110.191 225.384 108.889 225.384 107.282C225.384 105.676 224.085 104.374 222.483 104.374C220.881 104.374 219.582 105.676 219.582 107.282C219.582 108.889 220.881 110.191 222.483 110.191Z" fill="#E2E3E4"/>
<path d="M237.17 110.191C238.772 110.191 240.071 108.889 240.071 107.282C240.071 105.676 238.772 104.374 237.17 104.374C235.567 104.374 234.269 105.676 234.269 107.282C234.269 108.889 235.567 110.191 237.17 110.191Z" fill="#E2E3E4"/>
<path d="M251.855 110.191C253.458 110.191 254.756 108.889 254.756 107.282C254.756 105.676 253.458 104.374 251.855 104.374C250.253 104.374 248.954 105.676 248.954 107.282C248.954 108.889 250.253 110.191 251.855 110.191Z" fill="#E2E3E4"/>
<path d="M266.542 110.191C268.144 110.191 269.443 108.889 269.443 107.282C269.443 105.676 268.144 104.374 266.542 104.374C264.94 104.374 263.641 105.676 263.641 107.282C263.641 108.889 264.94 110.191 266.542 110.191Z" fill="#E2E3E4"/>
<path d="M281.228 110.191C282.831 110.191 284.129 108.889 284.129 107.282C284.129 105.676 282.831 104.374 281.228 104.374C279.626 104.374 278.327 105.676 278.327 107.282C278.327 108.889 279.626 110.191 281.228 110.191Z" fill="#E2E3E4"/>
<path d="M295.914 110.191C297.516 110.191 298.815 108.889 298.815 107.282C298.815 105.676 297.516 104.374 295.914 104.374C294.312 104.374 293.013 105.676 293.013 107.282C293.013 108.889 294.312 110.191 295.914 110.191Z" fill="#E2E3E4"/>
<path d="M310.6 110.191C312.203 110.191 313.502 108.889 313.502 107.282C313.502 105.676 312.203 104.374 310.6 104.374C308.998 104.374 307.699 105.676 307.699 107.282C307.699 108.889 308.998 110.191 310.6 110.191Z" fill="#E2E3E4"/>
<path d="M181.324 122.205C181.33 120.598 180.037 119.29 178.434 119.284C176.832 119.277 175.528 120.574 175.522 122.181C175.515 123.787 176.809 125.095 178.411 125.102C180.013 125.108 181.317 123.811 181.324 122.205Z" fill="#E2E3E4"/>
<path d="M193.111 125.102C194.713 125.102 196.012 123.8 196.012 122.193C196.012 120.587 194.713 119.284 193.111 119.284C191.509 119.284 190.21 120.587 190.21 122.193C190.21 123.8 191.509 125.102 193.111 125.102Z" fill="#E2E3E4"/>
<path d="M181.324 137.115C181.33 135.509 180.037 134.201 178.434 134.194C176.832 134.188 175.528 135.485 175.522 137.092C175.515 138.698 176.809 140.006 178.411 140.012C180.013 140.019 181.317 138.722 181.324 137.115Z" fill="#E2E3E4"/>
<path d="M193.111 140.012C194.713 140.012 196.012 138.71 196.012 137.104C196.012 135.497 194.713 134.195 193.111 134.195C191.509 134.195 190.21 135.497 190.21 137.104C190.21 138.71 191.509 140.012 193.111 140.012Z" fill="#E2E3E4"/>
<path d="M222.483 140.012C224.085 140.012 225.384 138.71 225.384 137.104C225.384 135.497 224.085 134.195 222.483 134.195C220.881 134.195 219.582 135.497 219.582 137.104C219.582 138.71 220.881 140.012 222.483 140.012Z" fill="#E2E3E4"/>
<path d="M368.871 34.3213H253.899C253.335 34.3206 252.794 34.0955 252.395 33.6953C251.996 33.2951 251.771 32.7526 251.771 32.1866V3.58931C251.771 3.02337 251.996 2.48081 252.395 2.08062C252.794 1.68044 253.335 1.45531 253.899 1.45459H368.871C369.435 1.45531 369.976 1.68044 370.375 2.08062C370.775 2.48081 370.999 3.02337 371 3.58931V32.1866C370.999 32.7526 370.775 33.2951 370.375 33.6953C369.976 34.0955 369.435 34.3206 368.871 34.3213ZM253.899 2.30941C253.561 2.30971 253.236 2.44479 252.996 2.68497C252.757 2.92515 252.622 3.25081 252.622 3.59047V32.1878C252.622 32.5274 252.757 32.8531 252.996 33.0933C253.236 33.3335 253.561 33.4685 253.899 33.4688H368.871C369.21 33.4685 369.534 33.3335 369.774 33.0933C370.013 32.8531 370.148 32.5274 370.148 32.1878V3.59047C370.148 3.25081 370.013 2.92515 369.774 2.68497C369.534 2.44479 369.21 2.30971 368.871 2.30941H253.899Z" fill="#E2E3E4"/>
<path d="M268.803 26.8547C273.741 26.8547 277.745 22.8404 277.745 17.8884C277.745 12.9365 273.741 8.92212 268.803 8.92212C263.864 8.92212 259.86 12.9365 259.86 17.8884C259.86 22.8404 263.864 26.8547 268.803 26.8547Z" fill="#ED862D"/>
<path d="M289.455 11.9104C289.064 11.9167 288.691 12.0769 288.416 12.3565C288.142 12.6361 287.988 13.0126 287.988 13.4048C287.988 13.797 288.142 14.1735 288.416 14.4531C288.691 14.7326 289.064 14.8929 289.455 14.8992H329.055C329.451 14.8992 329.83 14.7417 330.109 14.4615C330.389 14.1812 330.546 13.8011 330.546 13.4048C330.546 13.0084 330.389 12.6283 330.109 12.3481C329.83 12.0678 329.451 11.9104 329.055 11.9104H289.455Z" fill="#E2E3E4"/>
<path d="M289.455 20.8767C289.064 20.883 288.691 21.0432 288.416 21.3228C288.142 21.6024 287.988 21.9789 287.988 22.3711C287.988 22.7633 288.142 23.1398 288.416 23.4194C288.691 23.6989 289.064 23.8592 289.455 23.8655H359.716C360.111 23.8655 360.49 23.708 360.77 23.4278C361.049 23.1475 361.206 22.7674 361.206 22.3711C361.206 21.9748 361.049 21.5947 360.77 21.3144C360.49 21.0342 360.111 20.8767 359.716 20.8767H289.455Z" fill="#E2E3E4"/>
<path d="M108.364 59.3821H219.077C219.636 59.382 220.19 59.4924 220.707 59.707C221.223 59.9215 221.693 60.2361 222.088 60.6325C222.484 61.029 222.797 61.4998 223.011 62.0178C223.225 62.5359 223.336 63.0912 223.336 63.6519V87.9887C223.336 88.5494 223.225 89.1047 223.011 89.6228C222.797 90.1408 222.484 90.6116 222.088 91.008C221.693 91.4045 221.223 91.7191 220.707 91.9336C220.19 92.1482 219.636 92.2586 219.077 92.2585H108.364C107.234 92.2585 106.151 91.8087 105.353 91.0079C104.554 90.2072 104.105 89.1211 104.105 87.9887V63.6519C104.105 62.5195 104.554 61.4334 105.353 60.6327C106.151 59.8319 107.234 59.3821 108.364 59.3821Z" fill="#E6E6E6"/>
<path d="M221.11 92.3892H106.139C105.574 92.3885 105.033 92.1634 104.634 91.7632C104.235 91.363 104.01 90.8204 104.01 90.2545V61.6572C104.01 61.0912 104.235 60.5487 104.634 60.1485C105.033 59.7483 105.574 59.5232 106.139 59.5225H221.11C221.675 59.5232 222.216 59.7483 222.615 60.1485C223.014 60.5487 223.238 61.0912 223.239 61.6572V90.2545C223.238 90.8204 223.014 91.363 222.615 91.7632C222.216 92.1634 221.675 92.3885 221.11 92.3892ZM106.139 60.3773C105.8 60.3777 105.475 60.5128 105.236 60.753C104.996 60.9931 104.862 61.3187 104.862 61.6583V90.2557C104.862 90.5953 104.997 90.921 105.236 91.1612C105.476 91.4013 105.8 91.5364 106.139 91.5367H221.111C221.449 91.5364 221.774 91.4013 222.014 91.1612C222.253 90.921 222.388 90.5953 222.388 90.2557V61.6583C222.388 61.3187 222.253 60.993 222.014 60.7528C221.774 60.5127 221.449 60.3776 221.111 60.3773H106.139Z" fill="#3F3D56"/>
<path d="M121.042 84.9221C125.981 84.9221 129.984 80.9078 129.984 75.9558C129.984 71.0039 125.981 66.9895 121.042 66.9895C116.103 66.9895 112.1 71.0039 112.1 75.9558C112.1 80.9078 116.103 84.9221 121.042 84.9221Z" fill="#ED862D"/>
<path d="M141.694 69.9783C141.303 69.9846 140.93 70.1448 140.656 70.4244C140.381 70.7039 140.228 71.0804 140.228 71.4727C140.228 71.8649 140.381 72.2414 140.656 72.5209C140.93 72.8005 141.303 72.9607 141.694 72.967H182.999C183.394 72.967 183.773 72.8096 184.053 72.5293C184.332 72.2491 184.489 71.869 184.489 71.4727C184.489 71.0763 184.332 70.6962 184.053 70.416C183.773 70.1357 183.394 69.9783 182.999 69.9783H141.694Z" fill="#090814"/>
<path d="M141.694 78.9446C141.303 78.9509 140.93 79.1111 140.656 79.3907C140.381 79.6702 140.228 80.0467 140.228 80.439C140.228 80.8312 140.381 81.2077 140.656 81.4872C140.93 81.7668 141.303 81.927 141.694 81.9334H211.955C212.35 81.9334 212.729 81.7759 213.009 81.4957C213.288 81.2154 213.445 80.8353 213.445 80.439C213.445 80.0426 213.288 79.6625 213.009 79.3823C212.729 79.102 212.35 78.9446 211.955 78.9446H141.694Z" fill="#090814"/>
<path d="M325.011 155.153H210.04C209.476 155.152 208.935 154.927 208.535 154.527C208.136 154.127 207.912 153.584 207.911 153.018V124.421C207.912 123.855 208.136 123.313 208.535 122.912C208.935 122.512 209.476 122.287 210.04 122.286H325.011C325.576 122.287 326.117 122.512 326.516 122.912C326.915 123.313 327.14 123.855 327.14 124.421V153.018C327.14 153.584 326.915 154.127 326.516 154.527C326.117 154.927 325.576 155.152 325.011 155.153ZM210.04 123.141C209.701 123.142 209.377 123.277 209.137 123.517C208.898 123.757 208.763 124.083 208.763 124.422V153.02C208.763 153.359 208.898 153.685 209.137 153.925C209.377 154.165 209.701 154.3 210.04 154.301H325.011C325.35 154.3 325.675 154.165 325.915 153.925C326.154 153.685 326.289 153.359 326.289 153.02V124.422C326.289 124.083 326.154 123.757 325.915 123.517C325.675 123.277 325.35 123.142 325.011 123.141H210.04Z" fill="#E2E3E4"/>
<path d="M224.942 147.686C229.881 147.686 233.885 143.672 233.885 138.72C233.885 133.768 229.881 129.753 224.942 129.753C220.004 129.753 216 133.768 216 138.72C216 143.672 220.004 147.686 224.942 147.686Z" fill="#ED862D"/>
<path d="M245.595 132.742C245.204 132.749 244.831 132.909 244.557 133.188C244.283 133.468 244.129 133.844 244.129 134.237C244.129 134.629 244.283 135.005 244.557 135.285C244.831 135.564 245.204 135.725 245.595 135.731H283.495C283.891 135.731 284.27 135.574 284.549 135.293C284.829 135.013 284.986 134.633 284.986 134.237C284.986 133.84 284.829 133.46 284.549 133.18C284.27 132.9 283.891 132.742 283.495 132.742H245.595Z" fill="#E2E3E4"/>
<path d="M245.595 141.708C245.204 141.715 244.831 141.875 244.557 142.155C244.283 142.434 244.129 142.811 244.129 143.203C244.129 143.595 244.283 143.972 244.557 144.251C244.831 144.531 245.204 144.691 245.595 144.697H315.856C316.247 144.691 316.62 144.531 316.895 144.251C317.169 143.972 317.323 143.595 317.323 143.203C317.323 142.811 317.169 142.434 316.895 142.155C316.62 141.875 316.247 141.715 315.856 141.708H245.595Z" fill="#E2E3E4"/>
</g>
<defs>
<linearGradient id="paint0_linear_84_1042" x1="-321.55" y1="151.85" x2="-321.55" y2="186.782" gradientUnits="userSpaceOnUse">
<stop stop-color="#808080" stop-opacity="0.251"/>
<stop offset="0.54" stop-color="#808080" stop-opacity="0.122"/>
<stop offset="1" stop-color="#808080" stop-opacity="0.102"/>
</linearGradient>
<clipPath id="clip0_84_1042">
<rect width="371" height="246" fill="white"/>
</clipPath>
</defs>
</svg>
