<svg width="380" height="180" viewBox="0 0 380 180" fill="none" xmlns="http://www.w3.org/2000/svg">
<g clip-path="url(#clip0_84_1184)">
<path d="M1.94465 0H75.8371C76.3528 0 76.8475 0.204661 77.2122 0.568961C77.5768 0.933261 77.7817 1.42736 77.7817 1.94256V49.8564C77.7817 50.3716 77.5768 50.8657 77.2122 51.23C76.8475 51.5943 76.3528 51.7989 75.8371 51.7989H1.94465C1.68923 51.7989 1.43632 51.7487 1.20036 51.651C0.964388 51.5534 0.749991 51.4103 0.569407 51.2298C0.388823 51.0494 0.245591 50.8352 0.147891 50.5994C0.0501915 50.3637 -6.23296e-05 50.1111 5.80171e-08 49.8559V1.94256C5.80171e-08 1.42736 0.204882 0.933261 0.569575 0.568961C0.934268 0.204661 1.4289 0 1.94465 0Z" fill="white"/>
<path d="M1.94465 0.647677C1.60097 0.648053 1.27148 0.784599 1.02846 1.02735C0.785445 1.27011 0.648752 1.59925 0.648375 1.94256V49.8564C0.649129 50.1995 0.785988 50.5282 1.02896 50.7707C1.27194 51.0131 1.60122 51.1495 1.94465 51.1498H75.8371C76.1808 51.1495 76.5102 51.0129 76.7533 50.7702C76.9963 50.5274 77.133 50.1983 77.1334 49.855V1.94256C77.133 1.59925 76.9963 1.27011 76.7533 1.02735C76.5102 0.784599 76.1808 0.648053 75.8371 0.647677H1.94465ZM1.94465 0H75.8371C76.3528 0 76.8475 0.204661 77.2122 0.568961C77.5768 0.933261 77.7817 1.42736 77.7817 1.94256V49.8564C77.7817 50.3716 77.5768 50.8657 77.2122 51.23C76.8475 51.5943 76.3528 51.7989 75.8371 51.7989H1.94465C1.68923 51.7989 1.43632 51.7487 1.20036 51.651C0.964388 51.5534 0.749991 51.4103 0.569407 51.2298C0.388823 51.0494 0.245591 50.8352 0.147891 50.5994C0.0501915 50.3637 -6.23296e-05 50.1111 5.80171e-08 49.8559V1.94256C5.80171e-08 1.42736 0.204882 0.933261 0.569575 0.568961C0.934268 0.204661 1.4289 0 1.94465 0Z" fill="#090814"/>
<path d="M1.94471 0.647705H75.8371C76.0074 0.647705 76.1759 0.681198 76.3332 0.746272C76.4905 0.811346 76.6334 0.906726 76.7537 1.02697C76.8741 1.14721 76.9696 1.28995 77.0347 1.44706C77.0999 1.60416 77.1334 1.77254 77.1334 1.94258V8.41745H0.648438V1.94258C0.648437 1.59916 0.785009 1.2698 1.02811 1.02697C1.27121 0.784129 1.60092 0.647705 1.94471 0.647705Z" fill="#ED862D"/>
<path d="M9.72297 16.1873H22.6867C23.2024 16.1873 23.6971 16.3919 24.0617 16.7562C24.4264 17.1205 24.6313 17.6146 24.6313 18.1298C24.6313 18.645 24.4264 19.1391 24.0617 19.5034C23.6971 19.8677 23.2024 20.0724 22.6867 20.0724H9.72297C9.20722 20.0724 8.71259 19.8677 8.3479 19.5034C7.9832 19.1391 7.77832 18.645 7.77832 18.1298C7.77832 17.6146 7.9832 17.1205 8.3479 16.7562C8.71259 16.3919 9.20722 16.1873 9.72297 16.1873Z" fill="#090814"/>
<path d="M34.3533 16.1873H69.3551C69.8709 16.1873 70.3655 16.3919 70.7302 16.7562C71.0949 17.1205 71.2998 17.6146 71.2998 18.1298C71.2998 18.645 71.0949 19.1391 70.7302 19.5034C70.3655 19.8677 69.8709 20.0724 69.3551 20.0724H34.3533C33.8376 20.0724 33.343 19.8677 32.9783 19.5034C32.6136 19.1391 32.4087 18.645 32.4087 18.1298C32.4087 17.6146 32.6136 17.1205 32.9783 16.7562C33.343 16.3919 33.8376 16.1873 34.3533 16.1873Z" fill="#E6E6E6"/>
<path d="M9.72297 27.8416H22.6867C23.2024 27.8416 23.6971 28.0462 24.0617 28.4105C24.4264 28.7748 24.6313 29.2689 24.6313 29.7841C24.6313 30.2993 24.4264 30.7934 24.0617 31.1577C23.6971 31.522 23.2024 31.7267 22.6867 31.7267H9.72297C9.20722 31.7267 8.71259 31.522 8.3479 31.1577C7.9832 30.7934 7.77832 30.2993 7.77832 29.7841C7.77832 29.2689 7.9832 28.7748 8.3479 28.4105C8.71259 28.0462 9.20722 27.8416 9.72297 27.8416Z" fill="#090814"/>
<path d="M34.3533 27.8416H69.3551C69.8709 27.8416 70.3655 28.0462 70.7302 28.4105C71.0949 28.7748 71.2998 29.2689 71.2998 29.7841C71.2998 30.2993 71.0949 30.7934 70.7302 31.1577C70.3655 31.522 69.8709 31.7267 69.3551 31.7267H34.3533C33.8376 31.7267 33.343 31.522 32.9783 31.1577C32.6136 30.7934 32.4087 30.2993 32.4087 29.7841C32.4087 29.2689 32.6136 28.7748 32.9783 28.4105C33.343 28.0462 33.8376 27.8416 34.3533 27.8416Z" fill="#E6E6E6"/>
<path d="M9.72297 39.4963H22.6867C23.2024 39.4963 23.6971 39.701 24.0617 40.0653C24.4264 40.4296 24.6313 40.9237 24.6313 41.4389C24.6313 41.9541 24.4264 42.4482 24.0617 42.8125C23.6971 43.1768 23.2024 43.3814 22.6867 43.3814H9.72297C9.20722 43.3814 8.71259 43.1768 8.3479 42.8125C7.9832 42.4482 7.77832 41.9541 7.77832 41.4389C7.77832 40.9237 7.9832 40.4296 8.3479 40.0653C8.71259 39.701 9.20722 39.4963 9.72297 39.4963Z" fill="#090814"/>
<path d="M34.3533 39.4963H69.3551C69.8709 39.4963 70.3655 39.701 70.7302 40.0653C71.0949 40.4296 71.2998 40.9237 71.2998 41.4389C71.2998 41.9541 71.0949 42.4482 70.7302 42.8125C70.3655 43.1768 69.8709 43.3814 69.3551 43.3814H34.3533C33.8376 43.3814 33.343 43.1768 32.9783 42.8125C32.6136 42.4482 32.4087 41.9541 32.4087 41.4389C32.4087 40.9237 32.6136 40.4296 32.9783 40.0653C33.343 39.701 33.8376 39.4963 34.3533 39.4963Z" fill="#E6E6E6"/>
<path d="M207.1 0.643799H135.375C133.801 0.643799 132.525 1.91841 132.525 3.49073V71.8171C132.525 73.3894 133.801 74.664 135.375 74.664H207.1C208.674 74.664 209.95 73.3894 209.95 71.8171V3.49073C209.95 1.91841 208.674 0.643799 207.1 0.643799Z" fill="white"/>
<path d="M134.173 1.26851C133.837 1.26189 133.511 1.38877 133.268 1.62135C133.025 1.85392 132.885 2.17323 132.877 2.5093V73.2446C132.885 73.5807 133.025 73.9 133.268 74.1325C133.511 74.3651 133.837 74.492 134.173 74.4854H208.066C208.402 74.492 208.727 74.3651 208.97 74.1325C209.213 73.9 209.354 73.5807 209.362 73.2446V2.5093C209.354 2.17323 209.213 1.85392 208.97 1.62135C208.727 1.38877 208.402 1.26189 208.066 1.26851H134.173ZM134.173 0.647878H208.066C208.571 0.63732 209.059 0.827455 209.424 1.1765C209.788 1.52554 209.999 2.00492 210.01 2.5093V73.2446C209.999 73.749 209.788 74.2284 209.424 74.5774C209.059 74.9264 208.571 75.1166 208.066 75.106H134.173C133.668 75.1166 133.18 74.9264 132.815 74.5774C132.45 74.2284 132.239 73.749 132.229 73.2446V2.5093C132.239 2.00492 132.45 1.52554 132.815 1.1765C133.18 0.827455 133.668 0.63732 134.173 0.647878Z" fill="#090814"/>
<path d="M134.173 1.29517H208.066C208.236 1.29517 208.404 1.32866 208.562 1.39373C208.719 1.45881 208.862 1.55419 208.982 1.67443C209.103 1.79467 209.198 1.93741 209.263 2.09452C209.328 2.25162 209.362 2.42 209.362 2.59004V9.06491H132.877V2.59004C132.877 2.24662 133.014 1.91726 133.257 1.67443C133.5 1.43159 133.829 1.29517 134.173 1.29517Z" fill="#ED862D"/>
<path d="M141.951 16.8347H154.915C155.431 16.8347 155.926 17.0394 156.29 17.4037C156.655 17.768 156.86 18.2621 156.86 18.7773C156.86 19.2925 156.655 19.7866 156.29 20.1509C155.926 20.5152 155.431 20.7198 154.915 20.7198H141.951C141.436 20.7198 140.941 20.5152 140.576 20.1509C140.212 19.7866 140.007 19.2925 140.007 18.7773C140.007 18.2621 140.212 17.768 140.576 17.4037C140.941 17.0394 141.436 16.8347 141.951 16.8347Z" fill="#ED862D"/>
<path d="M166.582 16.8347H201.584C202.099 16.8347 202.594 17.0394 202.959 17.4037C203.323 17.768 203.528 18.2621 203.528 18.7773C203.528 19.2925 203.323 19.7866 202.959 20.1509C202.594 20.5152 202.099 20.7198 201.584 20.7198H166.582C166.066 20.7198 165.571 20.5152 165.207 20.1509C164.842 19.7866 164.637 19.2925 164.637 18.7773C164.637 18.2621 164.842 17.768 165.207 17.4037C165.571 17.0394 166.066 16.8347 166.582 16.8347Z" fill="#E6E6E6"/>
<path d="M141.951 28.4893H154.915C155.431 28.4893 155.926 28.6939 156.29 29.0582C156.655 29.4225 156.86 29.9166 156.86 30.4318C156.86 30.947 156.655 31.4411 156.29 31.8054C155.926 32.1697 155.431 32.3744 154.915 32.3744H141.951C141.436 32.3744 140.941 32.1697 140.576 31.8054C140.212 31.4411 140.007 30.947 140.007 30.4318C140.007 29.9166 140.212 29.4225 140.576 29.0582C140.941 28.6939 141.436 28.4893 141.951 28.4893Z" fill="#ED862D"/>
<path d="M166.582 28.4893H201.584C202.099 28.4893 202.594 28.6939 202.959 29.0582C203.323 29.4225 203.528 29.9166 203.528 30.4318C203.528 30.947 203.323 31.4411 202.959 31.8054C202.594 32.1697 202.099 32.3744 201.584 32.3744H166.582C166.066 32.3744 165.571 32.1697 165.207 31.8054C164.842 31.4411 164.637 30.947 164.637 30.4318C164.637 29.9166 164.842 29.4225 165.207 29.0582C165.571 28.6939 166.066 28.4893 166.582 28.4893Z" fill="#E6E6E6"/>
<path d="M141.951 40.144H154.915C155.431 40.144 155.926 40.3487 156.29 40.713C156.655 41.0773 156.86 41.5714 156.86 42.0866C156.86 42.6018 156.655 43.0959 156.29 43.4602C155.926 43.8245 155.431 44.0292 154.915 44.0292H141.951C141.436 44.0292 140.941 43.8245 140.576 43.4602C140.212 43.0959 140.007 42.6018 140.007 42.0866C140.007 41.5714 140.212 41.0773 140.576 40.713C140.941 40.3487 141.436 40.144 141.951 40.144Z" fill="#ED862D"/>
<path d="M166.582 40.144H201.584C202.099 40.144 202.594 40.3487 202.959 40.713C203.323 41.0773 203.528 41.5714 203.528 42.0866C203.528 42.6018 203.323 43.0959 202.959 43.4602C202.594 43.8245 202.099 44.0292 201.584 44.0292H166.582C166.066 44.0292 165.571 43.8245 165.207 43.4602C164.842 43.0959 164.637 42.6018 164.637 42.0866C164.637 41.5714 164.842 41.0773 165.207 40.713C165.571 40.3487 166.066 40.144 166.582 40.144Z" fill="#E6E6E6"/>
<path d="M141.951 51.7988H154.915C155.431 51.7988 155.926 52.0035 156.29 52.3678C156.655 52.7321 156.86 53.2262 156.86 53.7414C156.86 54.2566 156.655 54.7507 156.29 55.115C155.926 55.4793 155.431 55.6839 154.915 55.6839H141.951C141.436 55.6839 140.941 55.4793 140.576 55.115C140.212 54.7507 140.007 54.2566 140.007 53.7414C140.007 53.2262 140.212 52.7321 140.576 52.3678C140.941 52.0035 141.436 51.7988 141.951 51.7988Z" fill="#ED862D"/>
<path d="M166.582 51.7988H201.584C202.099 51.7988 202.594 52.0035 202.959 52.3678C203.323 52.7321 203.528 53.2262 203.528 53.7414C203.528 54.2566 203.323 54.7507 202.959 55.115C202.594 55.4793 202.099 55.6839 201.584 55.6839H166.582C166.066 55.6839 165.571 55.4793 165.207 55.115C164.842 54.7507 164.637 54.2566 164.637 53.7414C164.637 53.2262 164.842 52.7321 165.207 52.3678C165.571 52.0035 166.066 51.7988 166.582 51.7988Z" fill="#E6E6E6"/>
<path d="M141.951 63.4534H154.915C155.431 63.4534 155.926 63.658 156.29 64.0223C156.655 64.3866 156.86 64.8807 156.86 65.3959C156.86 65.9111 156.655 66.4052 156.29 66.7695C155.926 67.1338 155.431 67.3385 154.915 67.3385H141.951C141.436 67.3385 140.941 67.1338 140.576 66.7695C140.212 66.4052 140.007 65.9111 140.007 65.3959C140.007 64.8807 140.212 64.3866 140.576 64.0223C140.941 63.658 141.436 63.4534 141.951 63.4534Z" fill="#ED862D"/>
<path d="M166.582 63.4534H201.584C202.099 63.4534 202.594 63.658 202.959 64.0223C203.323 64.3866 203.528 64.8807 203.528 65.3959C203.528 65.9111 203.323 66.4052 202.959 66.7695C202.594 67.1338 202.099 67.3385 201.584 67.3385H166.582C166.066 67.3385 165.571 67.1338 165.207 66.7695C164.842 66.4052 164.637 65.9111 164.637 65.3959C164.637 64.8807 164.842 64.3866 165.207 64.0223C165.571 63.658 166.066 63.4534 166.582 63.4534Z" fill="#E6E6E6"/>
<path d="M121.6 105.031H49.3998C47.8258 105.031 46.5498 106.305 46.5498 107.878V177.153C46.5498 178.725 47.8258 180 49.3998 180H121.6C123.174 180 124.45 178.725 124.45 177.153V107.878C124.45 106.305 123.174 105.031 121.6 105.031Z" fill="white"/>
<path d="M48.6136 106.16C48.2771 106.153 47.9518 106.28 47.7088 106.513C47.4658 106.746 47.325 107.065 47.3173 107.401V178.136C47.325 178.472 47.4658 178.792 47.7088 179.024C47.9518 179.257 48.2771 179.384 48.6136 179.377H122.506C122.842 179.384 123.168 179.257 123.411 179.024C123.654 178.792 123.795 178.472 123.802 178.136V107.401C123.795 107.065 123.654 106.746 123.411 106.513C123.168 106.28 122.842 106.153 122.506 106.16H48.6136ZM48.6136 105.539H122.506C123.011 105.529 123.499 105.719 123.864 106.068C124.229 106.417 124.44 106.897 124.451 107.401V178.136C124.44 178.641 124.229 179.12 123.864 179.469C123.499 179.818 123.011 180.008 122.506 179.998H48.6136C48.1087 180.008 47.6202 179.818 47.2556 179.469C46.8909 179.12 46.6799 178.641 46.6689 178.136V107.401C46.6799 106.897 46.8909 106.417 47.2556 106.068C47.6202 105.719 48.1087 105.529 48.6136 105.539Z" fill="#090814"/>
<path d="M48.6132 106.187H122.506C122.676 106.187 122.844 106.221 123.002 106.286C123.159 106.351 123.302 106.446 123.422 106.567C123.543 106.687 123.638 106.83 123.703 106.987C123.768 107.144 123.802 107.312 123.802 107.482V113.957H47.3169V107.482C47.3169 107.139 47.4535 106.809 47.6966 106.567C47.9397 106.324 48.2694 106.187 48.6132 106.187Z" fill="#ED862D"/>
<path d="M56.3914 121.727H69.3551C69.8709 121.727 70.3655 121.931 70.7302 122.296C71.0949 122.66 71.2998 123.154 71.2998 123.669C71.2998 124.184 71.0949 124.678 70.7302 125.043C70.3655 125.407 69.8709 125.612 69.3551 125.612H56.3914C55.8757 125.612 55.381 125.407 55.0164 125.043C54.6517 124.678 54.4468 124.184 54.4468 123.669C54.4468 123.154 54.6517 122.66 55.0164 122.296C55.381 121.931 55.8757 121.727 56.3914 121.727Z" fill="#ED862D"/>
<path d="M81.0228 121.727H116.025C116.54 121.727 117.035 121.931 117.4 122.296C117.764 122.66 117.969 123.154 117.969 123.669C117.969 124.184 117.764 124.678 117.4 125.043C117.035 125.407 116.54 125.612 116.025 125.612H81.0228C80.507 125.612 80.0124 125.407 79.6477 125.043C79.283 124.678 79.0781 124.184 79.0781 123.669C79.0781 123.154 79.283 122.66 79.6477 122.296C80.0124 121.931 80.507 121.727 81.0228 121.727Z" fill="#E6E6E6"/>
<path d="M56.3914 133.381H69.3551C69.8709 133.381 70.3655 133.586 70.7302 133.95C71.0949 134.314 71.2998 134.808 71.2998 135.324C71.2998 135.839 71.0949 136.333 70.7302 136.697C70.3655 137.062 69.8709 137.266 69.3551 137.266H56.3914C55.8757 137.266 55.381 137.062 55.0164 136.697C54.6517 136.333 54.4468 135.839 54.4468 135.324C54.4468 134.808 54.6517 134.314 55.0164 133.95C55.381 133.586 55.8757 133.381 56.3914 133.381Z" fill="#ED862D"/>
<path d="M81.0228 133.381H116.025C116.54 133.381 117.035 133.586 117.4 133.95C117.764 134.314 117.969 134.808 117.969 135.324C117.969 135.839 117.764 136.333 117.4 136.697C117.035 137.062 116.54 137.266 116.025 137.266H81.0228C80.507 137.266 80.0124 137.062 79.6477 136.697C79.283 136.333 79.0781 135.839 79.0781 135.324C79.0781 134.808 79.283 134.314 79.6477 133.95C80.0124 133.586 80.507 133.381 81.0228 133.381Z" fill="#E6E6E6"/>
<path d="M56.3914 145.036H69.3551C69.8709 145.036 70.3655 145.241 70.7302 145.605C71.0949 145.969 71.2998 146.463 71.2998 146.978C71.2998 147.494 71.0949 147.988 70.7302 148.352C70.3655 148.716 69.8709 148.921 69.3551 148.921H56.3914C55.8757 148.921 55.381 148.716 55.0164 148.352C54.6517 147.988 54.4468 147.494 54.4468 146.978C54.4468 146.463 54.6517 145.969 55.0164 145.605C55.381 145.241 55.8757 145.036 56.3914 145.036Z" fill="#ED862D"/>
<path d="M81.0228 145.036H116.025C116.54 145.036 117.035 145.241 117.4 145.605C117.764 145.969 117.969 146.463 117.969 146.978C117.969 147.494 117.764 147.988 117.4 148.352C117.035 148.716 116.54 148.921 116.025 148.921H81.0228C80.507 148.921 80.0124 148.716 79.6477 148.352C79.283 147.988 79.0781 147.494 79.0781 146.978C79.0781 146.463 79.283 145.969 79.6477 145.605C80.0124 145.241 80.507 145.036 81.0228 145.036Z" fill="#E6E6E6"/>
<path d="M56.3914 156.691H69.3551C69.8709 156.691 70.3655 156.895 70.7302 157.26C71.0949 157.624 71.2998 158.118 71.2998 158.633C71.2998 159.148 71.0949 159.643 70.7302 160.007C70.3655 160.371 69.8709 160.576 69.3551 160.576H56.3914C55.8757 160.576 55.381 160.371 55.0164 160.007C54.6517 159.643 54.4468 159.148 54.4468 158.633C54.4468 158.118 54.6517 157.624 55.0164 157.26C55.381 156.895 55.8757 156.691 56.3914 156.691Z" fill="#ED862D"/>
<path d="M81.0228 156.691H116.025C116.54 156.691 117.035 156.895 117.4 157.26C117.764 157.624 117.969 158.118 117.969 158.633C117.969 159.148 117.764 159.643 117.4 160.007C117.035 160.371 116.54 160.576 116.025 160.576H81.0228C80.507 160.576 80.0124 160.371 79.6477 160.007C79.283 159.643 79.0781 159.148 79.0781 158.633C79.0781 158.118 79.283 157.624 79.6477 157.26C80.0124 156.895 80.507 156.691 81.0228 156.691Z" fill="#E6E6E6"/>
<path d="M56.3914 168.345H69.3551C69.8709 168.345 70.3655 168.55 70.7302 168.914C71.0949 169.278 71.2998 169.773 71.2998 170.288C71.2998 170.803 71.0949 171.297 70.7302 171.661C70.3655 172.026 69.8709 172.23 69.3551 172.23H56.3914C55.8757 172.23 55.381 172.026 55.0164 171.661C54.6517 171.297 54.4468 170.803 54.4468 170.288C54.4468 169.773 54.6517 169.278 55.0164 168.914C55.381 168.55 55.8757 168.345 56.3914 168.345Z" fill="#ED862D"/>
<path d="M81.0228 168.345H116.025C116.54 168.345 117.035 168.55 117.4 168.914C117.764 169.278 117.969 169.773 117.969 170.288C117.969 170.803 117.764 171.297 117.4 171.661C117.035 172.026 116.54 172.23 116.025 172.23H81.0228C80.507 172.23 80.0124 172.026 79.6477 171.661C79.283 171.297 79.0781 170.803 79.0781 170.288C79.0781 169.773 79.283 169.278 79.6477 168.914C80.0124 168.55 80.507 168.345 81.0228 168.345Z" fill="#E6E6E6"/>
<path d="M219.085 101.979H292.977C293.493 101.979 293.988 102.183 294.352 102.547C294.717 102.912 294.922 103.406 294.922 103.921V151.835C294.922 152.35 294.717 152.844 294.352 153.208C293.988 153.573 293.493 153.777 292.977 153.777H219.085C218.829 153.777 218.576 153.727 218.34 153.63C218.105 153.532 217.89 153.389 217.71 153.208C217.529 153.028 217.386 152.814 217.288 152.578C217.19 152.342 217.14 152.09 217.14 151.834V103.921C217.14 103.406 217.345 102.912 217.71 102.547C218.074 102.183 218.569 101.979 219.085 101.979Z" fill="white"/>
<path d="M219.085 102.626C218.741 102.627 218.412 102.763 218.169 103.006C217.926 103.249 217.789 103.578 217.789 103.921V151.835C217.789 152.178 217.926 152.507 218.169 152.749C218.412 152.992 218.741 153.128 219.085 153.128H292.977C293.321 153.128 293.65 152.991 293.893 152.749C294.136 152.506 294.273 152.177 294.273 151.833V103.921C294.273 103.578 294.136 103.249 293.893 103.006C293.65 102.763 293.321 102.627 292.977 102.626H219.085ZM219.085 101.979H292.977C293.493 101.979 293.988 102.183 294.352 102.547C294.717 102.912 294.922 103.406 294.922 103.921V151.835C294.922 152.35 294.717 152.844 294.352 153.208C293.988 153.573 293.493 153.777 292.977 153.777H219.085C218.829 153.777 218.576 153.727 218.34 153.63C218.105 153.532 217.89 153.389 217.71 153.208C217.529 153.028 217.386 152.814 217.288 152.578C217.19 152.342 217.14 152.09 217.14 151.834V103.921C217.14 103.406 217.345 102.912 217.71 102.547C218.074 102.183 218.569 101.979 219.085 101.979Z" fill="#090814"/>
<path d="M219.085 102.626H292.977C293.148 102.626 293.316 102.659 293.473 102.724C293.631 102.789 293.774 102.885 293.894 103.005C294.014 103.125 294.11 103.268 294.175 103.425C294.24 103.582 294.274 103.751 294.274 103.921V110.395H217.789V103.921C217.789 103.577 217.925 103.248 218.168 103.005C218.411 102.762 218.741 102.626 219.085 102.626Z" fill="#ED862D"/>
<path d="M226.863 118.166H239.826C240.342 118.166 240.837 118.37 241.201 118.734C241.566 119.099 241.771 119.593 241.771 120.108C241.771 120.623 241.566 121.117 241.201 121.482C240.837 121.846 240.342 122.051 239.826 122.051H226.863C226.347 122.051 225.852 121.846 225.488 121.482C225.123 121.117 224.918 120.623 224.918 120.108C224.918 119.593 225.123 119.099 225.488 118.734C225.852 118.37 226.347 118.166 226.863 118.166Z" fill="#090814"/>
<path d="M251.494 118.166H286.496C287.012 118.166 287.506 118.37 287.871 118.734C288.236 119.099 288.44 119.593 288.44 120.108C288.44 120.623 288.236 121.117 287.871 121.482C287.506 121.846 287.012 122.051 286.496 122.051H251.494C250.978 122.051 250.484 121.846 250.119 121.482C249.754 121.117 249.549 120.623 249.549 120.108C249.549 119.593 249.754 119.099 250.119 118.734C250.484 118.37 250.978 118.166 251.494 118.166Z" fill="#E6E6E6"/>
<path d="M226.863 129.82H239.826C240.342 129.82 240.837 130.025 241.201 130.389C241.566 130.753 241.771 131.247 241.771 131.763C241.771 132.278 241.566 132.772 241.201 133.136C240.837 133.501 240.342 133.705 239.826 133.705H226.863C226.347 133.705 225.852 133.501 225.488 133.136C225.123 132.772 224.918 132.278 224.918 131.763C224.918 131.247 225.123 130.753 225.488 130.389C225.852 130.025 226.347 129.82 226.863 129.82Z" fill="#090814"/>
<path d="M251.494 129.82H286.496C287.012 129.82 287.506 130.025 287.871 130.389C288.236 130.753 288.44 131.247 288.44 131.763C288.44 132.278 288.236 132.772 287.871 133.136C287.506 133.501 287.012 133.705 286.496 133.705H251.494C250.978 133.705 250.484 133.501 250.119 133.136C249.754 132.772 249.549 132.278 249.549 131.763C249.549 131.247 249.754 130.753 250.119 130.389C250.484 130.025 250.978 129.82 251.494 129.82Z" fill="#E6E6E6"/>
<path d="M226.863 141.475H239.826C240.342 141.475 240.837 141.68 241.201 142.044C241.566 142.408 241.771 142.902 241.771 143.417C241.771 143.933 241.566 144.427 241.201 144.791C240.837 145.155 240.342 145.36 239.826 145.36H226.863C226.347 145.36 225.852 145.155 225.488 144.791C225.123 144.427 224.918 143.933 224.918 143.417C224.918 142.902 225.123 142.408 225.488 142.044C225.852 141.68 226.347 141.475 226.863 141.475Z" fill="#090814"/>
<path d="M251.494 141.475H286.496C287.012 141.475 287.506 141.68 287.871 142.044C288.236 142.408 288.44 142.902 288.44 143.417C288.44 143.933 288.236 144.427 287.871 144.791C287.506 145.155 287.012 145.36 286.496 145.36H251.494C250.978 145.36 250.484 145.155 250.119 144.791C249.754 144.427 249.549 143.933 249.549 143.417C249.549 142.902 249.754 142.408 250.119 142.044C250.484 141.68 250.978 141.475 251.494 141.475Z" fill="#E6E6E6"/>
<path d="M82.6525 101.107H85.2517V75.7729H38.9629C38.8989 75.7729 38.8355 75.7604 38.7764 75.736C38.7172 75.7116 38.6635 75.6758 38.6182 75.6306C38.5729 75.5855 38.5369 75.5318 38.5124 75.4728C38.4878 75.4138 38.4752 75.3505 38.4751 75.2865V51.9014C38.4751 51.7723 38.5264 51.6484 38.6178 51.5571C38.7092 51.4658 38.8332 51.4146 38.9624 51.4146C39.0917 51.4146 39.2157 51.4658 39.3071 51.5571C39.3985 51.6484 39.4498 51.7723 39.4498 51.9014V74.7983H85.7376C85.867 74.7985 85.991 74.85 86.0824 74.9415C86.1739 75.0329 86.2253 75.1568 86.2254 75.2861V101.107H88.8251L85.7376 105.98L82.6525 101.107Z" fill="#090814"/>
<path d="M123.975 131.602L128.816 128.755V131.152H217.067C217.19 131.149 217.311 131.194 217.401 131.278C217.492 131.362 217.545 131.479 217.55 131.602C217.545 131.726 217.492 131.843 217.401 131.927C217.311 132.011 217.19 132.056 217.067 132.052H128.816V134.449L123.975 131.602Z" fill="#090814"/>
<path d="M255.999 101.701V38.353H214.356V40.9323L209.475 37.869L214.356 34.8066V37.385H256.488C256.617 37.385 256.74 37.4359 256.832 37.5266C256.923 37.6173 256.974 37.7404 256.975 37.869V101.701C256.971 101.828 256.918 101.948 256.827 102.036C256.736 102.125 256.614 102.174 256.487 102.174C256.36 102.174 256.238 102.125 256.147 102.036C256.056 101.948 256.003 101.828 255.999 101.701Z" fill="#090814"/>
<path d="M377.15 0.643799H304.95C303.376 0.643799 302.1 1.91841 302.1 3.49073V71.8171C302.1 73.3894 303.376 74.664 304.95 74.664H377.15C378.724 74.664 380 73.3894 380 71.8171V3.49073C380 1.91841 378.724 0.643799 377.15 0.643799Z" fill="white"/>
<path d="M303.996 1.26851C303.66 1.26189 303.335 1.38877 303.092 1.62135C302.849 1.85392 302.708 2.17323 302.7 2.5093V73.2446C302.708 73.5807 302.849 73.9 303.092 74.1325C303.335 74.3651 303.66 74.492 303.996 74.4854H377.889C378.225 74.492 378.551 74.3651 378.794 74.1325C379.037 73.9 379.177 73.5807 379.185 73.2446V2.5093C379.177 2.17323 379.037 1.85392 378.794 1.62135C378.551 1.38877 378.225 1.26189 377.889 1.26851H303.996ZM303.996 0.647878H377.889C378.394 0.63732 378.882 0.827455 379.247 1.1765C379.612 1.52554 379.823 2.00492 379.833 2.5093V73.2446C379.823 73.749 379.612 74.2284 379.247 74.5774C378.882 74.9264 378.394 75.1166 377.889 75.106H303.996C303.491 75.1166 303.003 74.9264 302.638 74.5774C302.274 74.2284 302.063 73.749 302.052 73.2446V2.5093C302.063 2.00492 302.274 1.52554 302.638 1.1765C303.003 0.827455 303.491 0.63732 303.996 0.647878Z" fill="#090814"/>
<path d="M303.996 1.29517H377.889C378.059 1.29517 378.228 1.32866 378.385 1.39373C378.542 1.45881 378.685 1.55419 378.805 1.67443C378.926 1.79467 379.021 1.93741 379.086 2.09452C379.152 2.25162 379.185 2.42 379.185 2.59004V9.06491H302.7V2.59004C302.7 2.24662 302.837 1.91726 303.08 1.67443C303.323 1.43159 303.653 1.29517 303.996 1.29517Z" fill="#ED862D"/>
<path d="M311.775 16.8347H324.738C325.254 16.8347 325.749 17.0394 326.114 17.4037C326.478 17.768 326.683 18.2621 326.683 18.7773C326.683 19.2925 326.478 19.7866 326.114 20.1509C325.749 20.5152 325.254 20.7198 324.738 20.7198H311.775C311.259 20.7198 310.764 20.5152 310.4 20.1509C310.035 19.7866 309.83 19.2925 309.83 18.7773C309.83 18.2621 310.035 17.768 310.4 17.4037C310.764 17.0394 311.259 16.8347 311.775 16.8347Z" fill="#ED862D"/>
<path d="M336.406 16.8347H371.407C371.923 16.8347 372.418 17.0394 372.782 17.4037C373.147 17.768 373.352 18.2621 373.352 18.7773C373.352 19.2925 373.147 19.7866 372.782 20.1509C372.418 20.5152 371.923 20.7198 371.407 20.7198H336.406C335.89 20.7198 335.395 20.5152 335.031 20.1509C334.666 19.7866 334.461 19.2925 334.461 18.7773C334.461 18.2621 334.666 17.768 335.031 17.4037C335.395 17.0394 335.89 16.8347 336.406 16.8347Z" fill="#E6E6E6"/>
<path d="M311.775 28.4893H324.738C325.254 28.4893 325.749 28.6939 326.114 29.0582C326.478 29.4225 326.683 29.9166 326.683 30.4318C326.683 30.947 326.478 31.4411 326.114 31.8054C325.749 32.1697 325.254 32.3744 324.738 32.3744H311.775C311.259 32.3744 310.764 32.1697 310.4 31.8054C310.035 31.4411 309.83 30.947 309.83 30.4318C309.83 29.9166 310.035 29.4225 310.4 29.0582C310.764 28.6939 311.259 28.4893 311.775 28.4893Z" fill="#ED862D"/>
<path d="M336.406 28.4893H371.407C371.923 28.4893 372.418 28.6939 372.782 29.0582C373.147 29.4225 373.352 29.9166 373.352 30.4318C373.352 30.947 373.147 31.4411 372.782 31.8054C372.418 32.1697 371.923 32.3744 371.407 32.3744H336.406C335.89 32.3744 335.395 32.1697 335.031 31.8054C334.666 31.4411 334.461 30.947 334.461 30.4318C334.461 29.9166 334.666 29.4225 335.031 29.0582C335.395 28.6939 335.89 28.4893 336.406 28.4893Z" fill="#E6E6E6"/>
<path d="M311.775 40.144H324.738C325.254 40.144 325.749 40.3487 326.114 40.713C326.478 41.0773 326.683 41.5714 326.683 42.0866C326.683 42.6018 326.478 43.0959 326.114 43.4602C325.749 43.8245 325.254 44.0292 324.738 44.0292H311.775C311.259 44.0292 310.764 43.8245 310.4 43.4602C310.035 43.0959 309.83 42.6018 309.83 42.0866C309.83 41.5714 310.035 41.0773 310.4 40.713C310.764 40.3487 311.259 40.144 311.775 40.144Z" fill="#ED862D"/>
<path d="M336.406 40.144H371.407C371.923 40.144 372.418 40.3487 372.782 40.713C373.147 41.0773 373.352 41.5714 373.352 42.0866C373.352 42.6018 373.147 43.0959 372.782 43.4602C372.418 43.8245 371.923 44.0292 371.407 44.0292H336.406C335.89 44.0292 335.395 43.8245 335.031 43.4602C334.666 43.0959 334.461 42.6018 334.461 42.0866C334.461 41.5714 334.666 41.0773 335.031 40.713C335.395 40.3487 335.89 40.144 336.406 40.144Z" fill="#E6E6E6"/>
<path d="M311.775 51.7988H324.738C325.254 51.7988 325.749 52.0035 326.114 52.3678C326.478 52.7321 326.683 53.2262 326.683 53.7414C326.683 54.2566 326.478 54.7507 326.114 55.115C325.749 55.4793 325.254 55.6839 324.738 55.6839H311.775C311.259 55.6839 310.764 55.4793 310.4 55.115C310.035 54.7507 309.83 54.2566 309.83 53.7414C309.83 53.2262 310.035 52.7321 310.4 52.3678C310.764 52.0035 311.259 51.7988 311.775 51.7988Z" fill="#ED862D"/>
<path d="M336.406 51.7988H371.407C371.923 51.7988 372.418 52.0035 372.782 52.3678C373.147 52.7321 373.352 53.2262 373.352 53.7414C373.352 54.2566 373.147 54.7507 372.782 55.115C372.418 55.4793 371.923 55.6839 371.407 55.6839H336.406C335.89 55.6839 335.395 55.4793 335.031 55.115C334.666 54.7507 334.461 54.2566 334.461 53.7414C334.461 53.2262 334.666 52.7321 335.031 52.3678C335.395 52.0035 335.89 51.7988 336.406 51.7988Z" fill="#E6E6E6"/>
<path d="M311.775 63.4534H324.738C325.254 63.4534 325.749 63.658 326.114 64.0223C326.478 64.3866 326.683 64.8807 326.683 65.3959C326.683 65.9111 326.478 66.4052 326.114 66.7695C325.749 67.1338 325.254 67.3385 324.738 67.3385H311.775C311.259 67.3385 310.764 67.1338 310.4 66.7695C310.035 66.4052 309.83 65.9111 309.83 65.3959C309.83 64.8807 310.035 64.3866 310.4 64.0223C310.764 63.658 311.259 63.4534 311.775 63.4534Z" fill="#ED862D"/>
<path d="M336.406 63.4534H371.407C371.923 63.4534 372.418 63.658 372.782 64.0223C373.147 64.3866 373.352 64.8807 373.352 65.3959C373.352 65.9111 373.147 66.4052 372.782 66.7695C372.418 67.1338 371.923 67.3385 371.407 67.3385H336.406C335.89 67.3385 335.395 67.1338 335.031 66.7695C334.666 66.4052 334.461 65.9111 334.461 65.3959C334.461 64.8807 334.666 64.3866 335.031 64.0223C335.395 63.658 335.89 63.4534 336.406 63.4534Z" fill="#E6E6E6"/>
<path d="M341.104 132.41C341.04 132.41 340.977 132.397 340.918 132.373C340.859 132.348 340.806 132.313 340.76 132.268C340.669 132.177 340.618 132.053 340.618 131.924V75.2696C340.618 75.1408 340.669 75.0174 340.76 74.9264C340.852 74.8353 340.975 74.7842 341.104 74.7842C341.168 74.7841 341.231 74.7966 341.29 74.821C341.349 74.8454 341.403 74.8811 341.448 74.9262C341.493 74.9713 341.529 75.0248 341.553 75.0837C341.578 75.1426 341.59 75.2058 341.59 75.2696V131.923C341.591 131.987 341.578 132.051 341.554 132.11C341.529 132.169 341.494 132.222 341.448 132.268C341.403 132.313 341.349 132.349 341.29 132.373C341.231 132.397 341.168 132.41 341.104 132.41Z" fill="#090814"/>
<path d="M341.105 132.41H296.38C296.316 132.41 296.253 132.398 296.194 132.373C296.135 132.349 296.081 132.313 296.036 132.268C295.991 132.223 295.955 132.169 295.931 132.11C295.907 132.051 295.894 131.988 295.894 131.924C295.894 131.796 295.945 131.672 296.036 131.581C296.127 131.49 296.251 131.439 296.38 131.439H341.105C341.233 131.439 341.356 131.491 341.447 131.582C341.538 131.673 341.589 131.796 341.589 131.924C341.589 132.053 341.538 132.176 341.447 132.267C341.357 132.358 341.233 132.41 341.105 132.41Z" fill="#090814"/>
<path d="M294.025 131.839L298.775 128.755V134.924L294.025 131.839Z" fill="#090814"/>
</g>
<defs>
<clipPath id="clip0_84_1184">
<rect width="380" height="180" fill="white"/>
</clipPath>
</defs>
</svg>
