<svg width="396" height="328" viewBox="0 0 396 328" fill="none" xmlns="http://www.w3.org/2000/svg">
<g clip-path="url(#clip0_84_830)">
<path d="M395.581 325.37H0.419265C0.187605 325.37 0 325.122 0 324.812C0 324.501 0.187605 324.253 0.419265 324.253H395.581C395.812 324.253 396 324.501 396 324.812C396 325.122 395.812 325.37 395.581 325.37Z" fill="#CBCBCB"/>
<path d="M136.227 34.4163L148.031 37.7167L144.727 49.6687L129.679 47.1833L136.227 34.4163Z" fill="#ED9DA0"/>
<path d="M80.3833 294.418L71.7866 287.927L64.9889 296.969L73.5856 303.46L80.3833 294.418Z" fill="#ED9DA0"/>
<path d="M60.346 306.356L79.5252 320.838C81.1755 322.081 83.0821 322.938 85.1057 323.348L89.9229 324.313C90.4534 324.42 91.0037 324.361 91.5003 324.146C91.9969 323.931 92.4161 323.569 92.7019 323.108C92.9878 322.648 93.1267 322.111 93.1001 321.57C93.0735 321.028 92.8827 320.507 92.5531 320.077L86.781 312.548L79.2427 296.551L79.1975 296.592C78.0737 297.6 76.3693 299.117 76.2401 299.191C73.856 299.694 72.0324 299.379 70.8197 298.254C68.7047 296.292 69.1746 292.492 69.1796 292.454L69.1836 292.424L69.1585 292.409C68.9186 292.243 68.6439 292.134 68.3555 292.092C68.0671 292.049 67.7727 292.073 67.4952 292.163C66.3792 292.558 65.7836 294.014 65.6982 294.237C64.6113 294.378 61.7538 297.592 61.524 297.854C59.8971 298.132 58.7726 298.731 58.1801 299.634C57.9169 300.085 57.7518 300.586 57.6957 301.105C57.6396 301.625 57.6937 302.15 57.8545 302.647C58.2371 304.132 59.1151 305.441 60.3426 306.357L60.346 306.356Z" fill="#090814"/>
<path d="M154.005 302.769H142.753V314.603H154.005V302.769Z" fill="#ED9DA0"/>
<path d="M144.769 325.369H169.871C172.03 325.366 174.161 324.88 176.108 323.945L180.736 321.716C181.246 321.471 181.669 321.075 181.949 320.582C182.228 320.089 182.351 319.523 182.301 318.958C182.25 318.394 182.029 317.858 181.667 317.423C181.305 316.987 180.819 316.673 180.273 316.522L170.727 313.874L154.392 305.271L154.379 305.333C154.074 306.883 153.601 309.225 153.542 309.367C151.867 311.291 150.146 312.177 148.428 312.002C145.431 311.697 143.438 308.228 143.418 308.193L143.403 308.166L143.373 308.17C143.068 308.182 142.771 308.265 142.503 308.411C142.236 308.558 142.005 308.763 141.83 309.013C141.146 310.046 141.563 311.638 141.632 311.878C140.813 312.681 140.444 317.165 140.417 317.529C139.233 318.786 138.67 319.996 138.742 321.123C138.805 321.665 138.982 322.188 139.261 322.656C139.54 323.125 139.915 323.529 140.361 323.842C141.613 324.841 143.167 325.38 144.767 325.371L144.769 325.369Z" fill="#090814"/>
<path d="M336.22 197.797H188.888C187.712 197.795 186.584 197.326 185.752 196.493C184.92 195.659 184.452 194.528 184.451 193.349V143.539C184.452 142.36 184.92 141.23 185.752 140.396C186.584 139.562 187.712 139.093 188.888 139.092H336.22C337.396 139.093 338.524 139.562 339.356 140.396C340.188 141.23 340.656 142.36 340.657 143.539V193.349C340.656 194.528 340.188 195.659 339.356 196.493C338.524 197.326 337.396 197.795 336.22 197.797Z" fill="#ED862D"/>
<path d="M246.579 152.433H207.527V156.88H246.579V152.433Z" fill="#F2F2F2"/>
<path d="M298.056 157.77C299.526 157.77 300.718 156.575 300.718 155.102C300.718 153.628 299.526 152.433 298.056 152.433C296.585 152.433 295.393 153.628 295.393 155.102C295.393 156.575 296.585 157.77 298.056 157.77Z" fill="#F2F2F2"/>
<path d="M306.931 157.77C308.402 157.77 309.594 156.575 309.594 155.102C309.594 153.628 308.402 152.433 306.931 152.433C305.461 152.433 304.269 153.628 304.269 155.102C304.269 156.575 305.461 157.77 306.931 157.77Z" fill="#F2F2F2"/>
<path d="M315.806 157.77C317.277 157.77 318.469 156.575 318.469 155.102C318.469 153.628 317.277 152.433 315.806 152.433C314.336 152.433 313.144 153.628 313.144 155.102C313.144 156.575 314.336 157.77 315.806 157.77Z" fill="#F2F2F2"/>
<path d="M336.22 260.949H188.888C187.712 260.947 186.584 260.478 185.752 259.645C184.92 258.811 184.452 257.68 184.451 256.501V206.691C184.452 205.512 184.92 204.382 185.752 203.548C186.584 202.714 187.712 202.245 188.888 202.244H336.22C337.396 202.245 338.524 202.714 339.356 203.548C340.188 204.382 340.656 205.512 340.657 206.691V256.501C340.656 257.68 340.188 258.811 339.356 259.645C338.524 260.478 337.396 260.947 336.22 260.949Z" fill="#E6E6E6"/>
<path d="M246.579 215.586H207.527V220.033H246.579V215.586Z" fill="#ED862D"/>
<path d="M298.056 220.923C299.526 220.923 300.718 219.728 300.718 218.254C300.718 216.781 299.526 215.586 298.056 215.586C296.585 215.586 295.393 216.781 295.393 218.254C295.393 219.728 296.585 220.923 298.056 220.923Z" fill="#ED862D"/>
<path d="M306.931 220.923C308.402 220.923 309.594 219.728 309.594 218.254C309.594 216.781 308.402 215.586 306.931 215.586C305.461 215.586 304.269 216.781 304.269 218.254C304.269 219.728 305.461 220.923 306.931 220.923Z" fill="#ED862D"/>
<path d="M315.806 220.923C317.277 220.923 318.469 219.728 318.469 218.254C318.469 216.781 317.277 215.586 315.806 215.586C314.336 215.586 313.144 216.781 313.144 218.254C313.144 219.728 314.336 220.923 315.806 220.923Z" fill="#ED862D"/>
<path d="M336.22 324.101H188.888C187.712 324.1 186.584 323.631 185.752 322.797C184.92 321.963 184.452 320.833 184.451 319.654V269.843C184.452 268.664 184.92 267.534 185.752 266.7C186.584 265.866 187.712 265.397 188.888 265.396H336.22C337.396 265.397 338.524 265.866 339.356 266.7C340.188 267.534 340.656 268.664 340.657 269.843V319.654C340.656 320.833 340.188 321.964 339.356 322.797C338.524 323.631 337.396 324.1 336.22 324.101Z" fill="#E6E6E6"/>
<path d="M246.579 278.739H207.527V283.186H246.579V278.739Z" fill="#ED862D"/>
<path d="M298.056 284.075C299.526 284.075 300.718 282.881 300.718 281.407C300.718 279.933 299.526 278.739 298.056 278.739C296.585 278.739 295.393 279.933 295.393 281.407C295.393 282.881 296.585 284.075 298.056 284.075Z" fill="#ED862D"/>
<path d="M306.931 284.075C308.402 284.075 309.594 282.881 309.594 281.407C309.594 279.933 308.402 278.739 306.931 278.739C305.461 278.739 304.269 279.933 304.269 281.407C304.269 282.881 305.461 284.075 306.931 284.075Z" fill="#ED862D"/>
<path d="M315.806 284.075C317.277 284.075 318.469 282.881 318.469 281.407C318.469 279.933 317.277 278.739 315.806 278.739C314.336 278.739 313.144 279.933 313.144 281.407C313.144 282.881 314.336 284.075 315.806 284.075Z" fill="#ED862D"/>
<path d="M280.678 90.4523L280.515 90.3317L280.511 90.3287C280.301 90.1723 280.062 90.0589 279.808 89.995C279.554 89.9311 279.29 89.9179 279.031 89.9563C278.772 89.9946 278.523 90.0836 278.299 90.2184C278.074 90.3531 277.878 90.5309 277.722 90.7415L244.56 135.488H240.911V134.628C240.911 134.416 240.827 134.213 240.677 134.063C240.528 133.913 240.325 133.829 240.114 133.829H237.936C237.724 133.829 237.521 133.913 237.372 134.063C237.222 134.213 237.138 134.416 237.138 134.628V135.488H235.88V134.628C235.88 134.416 235.796 134.213 235.647 134.063C235.497 133.913 235.294 133.829 235.083 133.829H232.905C232.693 133.829 232.491 133.913 232.341 134.063C232.191 134.213 232.107 134.416 232.107 134.628V135.488H230.852V134.628C230.852 134.416 230.768 134.213 230.618 134.063C230.469 133.913 230.266 133.829 230.054 133.829H227.876C227.665 133.829 227.462 133.913 227.312 134.063C227.163 134.213 227.079 134.416 227.079 134.628V135.488H225.819V134.628C225.819 134.416 225.735 134.213 225.585 134.063C225.436 133.913 225.233 133.829 225.022 133.829H222.844C222.632 133.829 222.429 133.913 222.28 134.063C222.13 134.213 222.046 134.416 222.046 134.628V135.488H220.79V134.628C220.79 134.416 220.706 134.213 220.557 134.063C220.407 133.913 220.204 133.829 219.993 133.829H217.815C217.603 133.829 217.4 133.913 217.251 134.063C217.101 134.213 217.017 134.416 217.017 134.628V135.488H215.758V134.628C215.758 134.416 215.674 134.213 215.524 134.063C215.374 133.913 215.172 133.829 214.96 133.829H212.782C212.571 133.829 212.368 133.913 212.218 134.063C212.069 134.213 211.985 134.416 211.985 134.628V135.488H210.725V134.628C210.725 134.416 210.641 134.213 210.491 134.063C210.342 133.913 210.139 133.829 209.927 133.829H207.749C207.538 133.829 207.335 133.913 207.186 134.063C207.036 134.213 206.952 134.416 206.952 134.628V135.488H205.696V134.628C205.696 134.416 205.612 134.213 205.463 134.063C205.313 133.913 205.11 133.829 204.899 133.829H202.721C202.509 133.829 202.306 133.913 202.157 134.063C202.007 134.213 201.923 134.416 201.923 134.628V135.488H200.664V134.628C200.664 134.416 200.58 134.213 200.43 134.063C200.28 133.913 200.078 133.829 199.866 133.829H197.688C197.477 133.829 197.274 133.913 197.124 134.063C196.975 134.213 196.891 134.416 196.891 134.628V135.488H195.635V134.628C195.635 134.416 195.551 134.213 195.401 134.063C195.252 133.913 195.049 133.829 194.837 133.829H192.659C192.448 133.829 192.245 133.913 192.096 134.063C191.946 134.213 191.862 134.416 191.862 134.628V135.488H190.283C189.755 135.488 189.248 135.698 188.874 136.073C188.5 136.447 188.29 136.956 188.29 137.485V139.391C188.29 139.921 188.5 140.429 188.874 140.804C189.248 141.179 189.755 141.389 190.283 141.389H244.229C244.912 141.389 245.574 141.153 246.104 140.721C246.634 140.289 246.998 139.687 247.137 139.017L247.158 139.032L281.087 93.2501L281.09 93.2462C281.405 92.8208 281.538 92.2874 281.461 91.7633C281.384 91.2391 281.102 90.7672 280.678 90.4513V90.4523Z" fill="#090814"/>
<path d="M107.546 79.2503C107.546 79.2503 102.507 75.3809 102.507 84.8322L101.711 116.065L110.597 145.57L115.769 136.001L113.647 115.267L107.546 79.2503Z" fill="#ED862D"/>
<path d="M161.454 164.678C161.454 164.678 167.298 193.199 159.896 216.605L155.905 303.734L140.807 305.429L135.547 238.665L130.482 205.477L119.963 235.738L85.2905 299.767L69.3174 287.274C69.3174 287.274 87.0181 238.871 100.095 228.709L106.653 153.851L161.454 164.678Z" fill="#090814"/>
<path d="M158.682 32.759C163.212 24.4531 160.167 14.0391 151.879 9.49875C143.591 4.95838 133.2 8.01093 128.669 16.3168C124.139 24.6227 127.184 35.0367 135.472 39.577C143.76 44.1174 154.151 41.0648 158.682 32.759Z" fill="#ED9DA0"/>
<path d="M142.465 28.1722C144.516 28.4396 146.062 26.3368 146.779 24.3941C147.496 22.4515 148.043 20.1889 149.825 19.1392C152.261 17.705 155.376 19.4299 158.161 18.9566C161.306 18.4223 163.351 15.0822 163.511 11.8895C163.672 8.69673 162.404 5.62602 161.16 2.68279L160.726 6.34086C160.784 5.10105 160.524 3.86705 159.97 2.75687C159.416 1.6467 158.587 0.697476 157.563 0L158.123 5.36805C158.003 4.62764 157.739 3.91812 157.346 3.28019C156.952 2.64227 156.437 2.0885 155.829 1.65064C155.222 1.21279 154.534 0.899477 153.805 0.728674C153.076 0.557872 152.321 0.532945 151.583 0.655318L151.671 3.85353C148.039 3.42046 144.375 2.98738 140.731 3.31678C137.088 3.64617 133.42 4.80153 130.659 7.20602C126.528 10.8026 125.02 16.7253 125.526 22.1876C126.033 27.6499 128.282 32.7768 130.625 37.7317C131.214 38.9783 132.03 40.3852 133.397 40.5439C134.626 40.6868 135.75 39.6574 136.132 38.4783C136.426 37.2684 136.415 36.0041 136.099 34.7998C135.752 32.9594 135.318 31.0793 135.642 29.2343C135.967 27.3894 137.291 25.5678 139.146 25.3416C141.001 25.1154 142.899 27.2406 142.007 28.8861L142.465 28.1722Z" fill="#090814"/>
<path d="M162.513 172.305L105.426 168.613L109.723 150.773L161.899 162.462L162.513 172.305Z" fill="#CBCBCB"/>
<path d="M127.307 47.3527L130.888 42.3706C130.888 42.3706 134.89 43.7338 145.608 49.0806L146.365 53.7481L164.97 168.43L131.153 166.966L121.946 166.768L118.932 159.997L115.216 166.624L106.223 166.432L97.0723 161.115L106.09 133.471L109.008 108.22L104.497 84.4335C104.497 84.4335 98.8231 62.5873 120.676 50.8084L127.307 47.3527Z" fill="#ED862D"/>
<path d="M209.249 134.168C208.421 134.378 207.556 134.405 206.717 134.245C205.877 134.085 205.083 133.742 204.39 133.241C203.697 132.74 203.122 132.092 202.706 131.345C202.289 130.597 202.041 129.766 201.98 128.912L181.917 123.526L189.987 116.344L207.803 122.559C209.242 122.549 210.636 123.068 211.719 124.02C212.801 124.971 213.498 126.287 213.677 127.719C213.855 129.151 213.503 130.598 212.686 131.787C211.87 132.976 210.647 133.823 209.249 134.168Z" fill="#ED9DA0"/>
<path d="M194.543 131.127C194.121 131.357 193.656 131.496 193.177 131.534C192.698 131.572 192.217 131.509 191.764 131.348L158.759 118.795C150.708 115.934 143.967 110.24 139.79 102.771L126.027 78.1659C124.081 75.9813 123.081 73.1117 123.247 70.1882C123.412 67.2647 124.73 64.5268 126.91 62.5769C129.09 60.627 131.953 59.6248 134.87 59.7907C137.787 59.9566 140.519 61.2771 142.465 63.4617L166.287 101.302L196.267 118.918C196.855 119.304 197.31 119.862 197.571 120.516C197.832 121.17 197.886 121.888 197.726 122.574L196.235 128.906C196.075 129.584 195.713 130.198 195.196 130.665C194.997 130.845 194.779 131 194.544 131.128L194.543 131.127Z" fill="#ED862D"/>
</g>
<defs>
<clipPath id="clip0_84_830">
<rect width="396" height="328" fill="white"/>
</clipPath>
</defs>
</svg>
