<svg width="331" height="300" viewBox="0 0 331 300" fill="none" xmlns="http://www.w3.org/2000/svg">
<g clip-path="url(#clip0_84_1252)">
<path d="M228.734 299.244H134.814C120.727 299.244 109.267 287.789 109.267 273.708V25.5362C109.267 11.4555 120.727 0 134.814 0H228.734C242.821 0 254.281 11.4555 254.281 25.5361C256.029 125.194 259.011 236.796 254.281 273.708C254.281 287.789 242.821 299.244 228.734 299.244Z" fill="#3F3D56"/>
<path d="M255.591 91.2856C254.994 91.2856 254.51 91.7701 254.51 92.3659V126.936C254.51 127.531 254.994 128.016 255.591 128.016C256.187 128.016 256.671 127.531 256.671 126.936V92.3659C256.671 91.7701 256.187 91.2856 255.591 91.2856Z" fill="#3F3D56"/>
<path d="M251.849 25.5364V273.704C251.849 285.96 242.306 295.985 230.239 296.763H230.234C230.055 296.774 229.877 296.785 229.693 296.79C229.374 296.806 229.056 296.812 228.731 296.812C228.731 296.812 227.543 296.725 225.37 296.563C223.176 296.401 219.983 296.158 216 295.839C214.806 295.747 213.546 295.645 212.217 295.537C209.569 295.321 206.662 295.083 203.544 294.813C202.301 294.71 201.015 294.597 199.702 294.483C192.99 293.906 185.473 293.23 177.546 292.463C176.206 292.339 174.855 292.209 173.493 292.074C173.136 292.037 111.698 276.599 111.698 273.704V25.5364C111.698 12.7726 122.047 2.42871 134.816 2.42871H148.618C150.822 2.42871 152.595 4.14639 152.784 6.34481C152.8 6.49066 152.817 6.63648 152.844 6.78234C153.243 8.99157 155.27 10.531 157.518 10.531H206.03C208.278 10.531 210.304 8.99157 210.704 6.78234C210.731 6.63649 210.747 6.49067 210.763 6.34481C210.953 4.14639 212.725 2.42871 214.93 2.42871H228.731C241.501 2.42871 251.849 12.7726 251.849 25.5364Z" fill="white"/>
<path d="M108.726 65.3584C108.13 65.3584 107.646 65.8429 107.646 66.4387V75.0811C107.646 75.6769 108.13 76.1614 108.726 76.1614C109.322 76.1614 109.807 75.6769 109.807 75.0811V66.4387C109.807 65.8429 109.322 65.3584 108.726 65.3584Z" fill="#3F3D56"/>
<path d="M108.726 91.2857C108.13 91.2857 107.646 91.7702 107.646 92.366V109.111C107.646 109.706 108.13 110.191 108.726 110.191C109.322 110.191 109.807 109.706 109.807 109.111V92.3659C109.807 91.7701 109.322 91.2857 108.726 91.2857Z" fill="#3F3D56"/>
<path d="M108.726 115.052C108.13 115.052 107.646 115.537 107.646 116.133V132.878C107.646 133.473 108.13 133.958 108.726 133.958C109.322 133.958 109.807 133.473 109.807 132.878V116.133C109.807 115.537 109.322 115.052 108.726 115.052Z" fill="#3F3D56"/>
<path d="M148.264 6.21191H127.552C127.451 6.21191 127.37 6.29324 127.37 6.39357V8.73101C127.37 8.83134 127.451 8.91267 127.552 8.91267H148.264C148.364 8.91267 148.445 8.83134 148.445 8.73101V6.39357C148.445 6.29324 148.364 6.21191 148.264 6.21191Z" fill="#E6E6E6"/>
<path d="M218.345 8.91252C219.539 8.91252 220.507 7.94519 220.507 6.75192C220.507 5.55865 219.539 4.59131 218.345 4.59131C217.151 4.59131 216.184 5.55865 216.184 6.75192C216.184 7.94519 217.151 8.91252 218.345 8.91252Z" fill="#E6E6E6"/>
<path d="M224.289 8.91252C225.483 8.91252 226.451 7.94519 226.451 6.75192C226.451 5.55865 225.483 4.59131 224.289 4.59131C223.096 4.59131 222.128 5.55865 222.128 6.75192C222.128 7.94519 223.096 8.91252 224.289 8.91252Z" fill="#E6E6E6"/>
<path d="M230.234 8.91252C231.428 8.91252 232.395 7.94519 232.395 6.75192C232.395 5.55865 231.428 4.59131 230.234 4.59131C229.04 4.59131 228.072 5.55865 228.072 6.75192C228.072 7.94519 229.04 8.91252 230.234 8.91252Z" fill="#E6E6E6"/>
<path d="M8.38574 299.303C8.38574 299.69 8.69626 300 9.08295 300H330.302C330.689 300 331 299.69 331 299.303C331 298.917 330.689 298.606 330.302 298.606H9.08295C8.69626 298.606 8.38574 298.917 8.38574 299.303Z" fill="#CCCCCC"/>
<path d="M110.805 294.726L104.218 294.726L101.084 269.329L110.806 269.329L110.805 294.726Z" fill="#FFB6B6"/>
<path d="M88.2362 294.577C88.0311 294.922 87.9229 296.037 87.9229 296.438C87.9229 297.672 88.9238 298.673 90.1586 298.673H110.558C111.401 298.673 112.084 297.99 112.084 297.148V296.299C112.084 296.299 113.093 293.748 111.015 290.603C111.015 290.603 108.433 293.066 104.574 289.209L103.436 287.148L95.1998 293.169L90.6344 293.731C89.6356 293.854 88.75 293.712 88.2362 294.577Z" fill="#2F2E41"/>
<path d="M74.3764 259.451L67.7892 259.429L64.7363 234.022L74.4584 234.054L74.3764 259.451Z" fill="#FFB6B6"/>
<path d="M51.8085 259.23C51.6023 259.574 51.4905 260.689 51.4893 261.09C51.4853 262.324 52.4831 263.328 53.7179 263.332L74.1176 263.397C74.96 263.399 75.645 262.719 75.6477 261.877L75.6504 261.028C75.6504 261.028 76.6677 258.48 74.6 255.328C74.6 255.328 72.0099 257.782 68.1636 253.913L67.0322 251.849L58.7766 257.844L54.2094 258.392C53.2102 258.511 52.325 258.367 51.8085 259.23Z" fill="#2F2E41"/>
<path d="M101.197 140.544L92.9952 141.129C92.9952 141.129 65.2282 156.91 62.8848 160.423C60.5413 163.937 57.3191 168.914 60.2484 174.185C63.1777 179.455 60.9482 243.27 60.9482 243.27L74.946 240.104L83.9144 173.337L102.662 170.702C102.662 170.702 109.106 184.6 106.763 196.097C104.419 207.595 103.248 214.622 103.248 214.622L100.318 282.551L111.743 282.259L121.995 219.307L139.571 169.531L116.722 142.593L101.197 140.544Z" fill="#2F2E41"/>
<path d="M141.621 68.5151L124.632 70.2719L122.874 76.1279L106.47 84.9119L111.743 121.805L107.642 128.246L109.399 134.688C109.399 134.688 104.712 135.273 105.298 138.787L94.7529 140.544C94.7529 140.544 108.74 143.398 111.706 157.489C114.672 171.581 139.278 173.337 139.278 173.337L158.611 113.021L160.369 77.2991L146.894 73.7855L141.621 68.5151Z" fill="#E6E6E6"/>
<path d="M132.668 66.2929C139.962 66.2929 145.875 60.3822 145.875 53.0911C145.875 45.8 139.962 39.8894 132.668 39.8894C125.373 39.8894 119.46 45.8 119.46 53.0911C119.46 60.3822 125.373 66.2929 132.668 66.2929Z" fill="#FFB6B6"/>
<path d="M125.804 65.0014C125.804 65.0014 114.087 64.4158 115.258 55.0462C112.358 45.0686 114.925 38.5903 124.046 36.307C124.046 36.307 126.39 35.7214 126.975 35.7214C134.681 35.7214 138.693 38.0638 138.693 38.0638C138.693 38.0638 138.107 35.7445 138.693 36.3186C139.278 36.8926 139.864 38.0638 139.864 38.0638C139.864 38.0638 145.723 40.9918 145.723 46.8478C145.723 52.7038 145.723 50.3614 145.723 50.3614C145.723 50.3614 144.551 50.3614 143.379 46.8478C142.208 43.3342 134.622 45.6766 134.622 45.6766L135.177 46.8478L133.42 46.2622L131.662 48.019L130.491 47.4334C130.491 47.4334 125.804 47.4334 126.39 47.4334C126.975 47.4334 126.567 51.4131 126.567 51.4131L122.289 56.2174L126.975 65.0014H125.804Z" fill="#2F2E41"/>
<path d="M63.3776 134.895C60.0421 136.715 58.2773 139.91 59.4357 142.031C60.5941 144.153 64.2372 144.398 67.5727 142.578C69.0327 141.782 70.1918 140.722 70.9365 139.603L84.9731 131.716L81.1299 125.211L67.7004 133.677C66.3566 133.698 64.8377 134.099 63.3776 134.895Z" fill="#FFB6B6"/>
<path d="M110.714 85.185C110.714 85.185 105.212 83.0909 103.316 85.6116C101.42 88.1323 88.8963 118.718 88.8963 118.718L70.5215 128.311L75.6886 137.305L99.3498 129.431L114.961 100.892L110.714 85.185Z" fill="#E6E6E6"/>
<path d="M284.228 185.633V247.707C284.228 253.196 279.76 257.662 274.269 257.662H120.774C115.282 257.662 110.814 253.196 110.814 247.707V185.633C110.814 180.144 115.282 175.678 120.774 175.678H274.269C279.76 175.678 284.228 180.144 284.228 185.633Z" fill="white"/>
<path d="M284.228 185.633V247.707C284.228 253.196 279.76 257.662 274.269 257.662H120.774C115.282 257.662 110.814 253.196 110.814 247.707V185.633C110.814 180.144 115.282 175.678 120.774 175.678H274.269C279.76 175.678 284.228 180.144 284.228 185.633ZM274.269 256.491C279.122 256.491 283.056 252.558 283.056 247.707V216.412C283.056 194.562 265.336 176.849 243.476 176.849H120.774C115.921 176.849 111.986 180.782 111.986 185.633V247.707C111.986 252.558 115.921 256.491 120.774 256.491H274.269Z" fill="#3F3D56"/>
<path d="M179.717 213.181H159.669C159.163 213.181 158.752 213.592 158.752 214.097C158.752 214.602 159.163 215.013 159.669 215.013H179.717C180.222 215.013 180.634 214.602 180.634 214.097C180.634 213.592 180.222 213.181 179.717 213.181Z" fill="#ED862D"/>
<path d="M210.182 213.181H190.133C189.628 213.181 189.217 213.592 189.217 214.097C189.217 214.602 189.628 215.013 190.133 215.013H210.182C210.687 215.013 211.098 214.602 211.098 214.097C211.098 213.592 210.687 213.181 210.182 213.181Z" fill="#ED862D"/>
<path d="M179.717 223.198H159.669C159.163 223.198 158.752 223.609 158.752 224.114C158.752 224.62 159.163 225.031 159.669 225.031H179.717C180.222 225.031 180.634 224.62 180.634 224.114C180.634 223.609 180.222 223.198 179.717 223.198Z" fill="#ED862D"/>
<path d="M210.182 223.198H190.133C189.628 223.198 189.217 223.609 189.217 224.114C189.217 224.62 189.628 225.031 190.133 225.031H210.182C210.687 225.031 211.098 224.62 211.098 224.114C211.098 223.609 210.687 223.198 210.182 223.198Z" fill="#ED862D"/>
<path d="M241.562 224.114C241.562 223.609 241.151 223.198 240.646 223.198H220.597C220.092 223.198 219.681 223.609 219.681 224.114C219.681 224.62 220.092 225.031 220.597 225.031H240.646C241.151 225.031 241.562 224.62 241.562 224.114Z" fill="#ED862D"/>
<path d="M168 205.182C168.506 205.182 168.917 204.771 168.917 204.266C168.917 203.761 168.506 203.35 168 203.35H147.952C147.446 203.35 147.035 203.761 147.035 204.266C147.035 204.771 147.446 205.182 147.952 205.182H168Z" fill="#ED862D"/>
<path d="M227.043 204.81H247.091C247.597 204.81 248.008 204.399 248.008 203.893C248.008 203.388 247.597 202.977 247.091 202.977H227.043C226.537 202.977 226.126 203.388 226.126 203.893C226.126 204.399 226.537 204.81 227.043 204.81Z" fill="#ED862D"/>
<path d="M176.446 205.003H218.011C218.516 205.003 218.927 204.591 218.927 204.086C218.927 203.581 218.516 203.17 218.011 203.17H176.446C175.941 203.17 175.529 203.581 175.529 204.086C175.529 204.591 175.941 205.003 176.446 205.003Z" fill="#ED862D"/>
<path d="M192.8 232.299H172.752C172.246 232.299 171.835 232.71 171.835 233.215C171.835 233.721 172.246 234.132 172.752 234.132H192.8C193.305 234.132 193.717 233.721 193.717 233.215C193.717 232.71 193.305 232.299 192.8 232.299Z" fill="#ED862D"/>
<path d="M257.549 185.166V247.239C257.549 252.729 253.082 257.194 247.59 257.194H185.489C179.997 257.194 175.529 252.729 175.529 247.239V185.166C175.529 179.676 179.997 175.21 185.489 175.21H247.59C253.082 175.21 257.549 179.676 257.549 185.166Z" fill="white"/>
<path d="M257.549 185.166V247.239C257.549 252.729 253.082 257.194 247.59 257.194H185.489C179.997 257.194 175.529 252.729 175.529 247.239V185.166C175.529 179.676 179.997 175.21 185.489 175.21H247.59C253.082 175.21 257.549 179.676 257.549 185.166ZM243.737 256.023C250.718 256.023 256.378 250.366 256.378 243.388V215.944C256.378 194.094 238.657 176.382 216.798 176.382H185.489C180.635 176.382 176.701 180.314 176.701 185.166V238.578C176.701 248.213 184.515 256.023 194.153 256.023L243.737 256.023Z" fill="#3F3D56"/>
<path d="M224.806 200.562H204.758C204.252 200.562 203.841 200.151 203.841 199.646C203.841 199.141 204.252 198.73 204.758 198.73H224.806C225.311 198.73 225.722 199.141 225.722 199.646C225.722 200.151 225.311 200.562 224.806 200.562Z" fill="#ED862D"/>
<path d="M224.806 220.1H204.758C204.252 220.1 203.841 219.689 203.841 219.184C203.841 218.678 204.252 218.268 204.758 218.268H224.806C225.311 218.268 225.722 218.678 225.722 219.184C225.722 219.689 225.311 220.1 224.806 220.1Z" fill="#ED862D"/>
<path d="M214.847 247.037H194.799C194.293 247.037 193.882 246.626 193.882 246.121C193.882 245.616 194.293 245.205 194.799 245.205H214.847C215.352 245.205 215.763 245.616 215.763 246.121C215.763 246.626 215.352 247.037 214.847 247.037Z" fill="#ED862D"/>
<path d="M235.564 210.338H194C193.494 210.338 193.083 209.926 193.083 209.421C193.083 208.916 193.494 208.505 194 208.505H235.564C236.07 208.505 236.481 208.916 236.481 209.421C236.481 209.926 236.07 210.338 235.564 210.338Z" fill="#ED862D"/>
<path d="M245.865 150.769C245.865 131.405 229.491 120.753 210.788 115.707C186.808 109.239 169.246 122.328 175.71 150.769C177.175 157.215 180.68 164.743 185.017 171.183H219.439C230.937 163.701 245.865 165.799 245.865 150.769Z" fill="#ED862D"/>
<path d="M210.272 187.375C212.23 183.644 214.713 180.952 217.448 178.903H185.208C193.506 190.751 204.51 198.355 210.272 187.375Z" fill="#ED862D"/>
<path d="M206.553 130.039C208.622 130.039 210.3 131.716 210.3 133.785V141.277H202.805V133.785C202.805 131.716 204.483 130.039 206.553 130.039ZM212.174 141.277V133.785C212.174 130.682 209.657 128.166 206.553 128.166C203.448 128.166 200.931 130.682 200.931 133.785V141.277C198.861 141.277 197.184 142.954 197.184 145.023V154.388C197.184 156.457 198.861 158.134 200.931 158.134H212.174C214.244 158.134 215.922 156.457 215.922 154.388V145.023C215.922 142.954 214.244 141.277 212.174 141.277ZM200.931 143.15H212.174C213.209 143.15 214.048 143.989 214.048 145.023V154.388C214.048 155.422 213.209 156.261 212.174 156.261H200.931C199.896 156.261 199.057 155.422 199.057 154.388V145.023C199.057 143.989 199.896 143.15 200.931 143.15Z" fill="white"/>
<path d="M152.997 173.655C152.545 177.427 154.125 180.717 156.526 181.004C158.927 181.292 161.24 178.468 161.692 174.696C161.89 173.045 161.698 171.487 161.219 170.232L162.933 154.228L155.402 153.584L154.511 169.429C153.749 170.535 153.195 172.005 152.997 173.655Z" fill="#FFB6B6"/>
<path d="M154.803 78.1775C154.803 78.1775 163.005 75.8351 164.763 79.3487C166.52 82.8623 170.621 129.125 170.621 129.125L162.712 166.052L153.632 163.675L158.318 126.197L151.874 98.0878L154.803 78.1775Z" fill="#E6E6E6"/>
<path d="M34.2726 190.518C53.2009 190.518 68.5452 175.181 68.5452 156.261C68.5452 137.341 53.2009 122.003 34.2726 122.003C15.3444 122.003 0 137.341 0 156.261C0 175.181 15.3444 190.518 34.2726 190.518Z" fill="#ED862D"/>
<path d="M34.2728 140.925C36.6938 140.925 38.6565 142.887 38.6565 145.307V154.07H29.889V145.307C29.889 142.887 31.8517 140.925 34.2728 140.925ZM40.8483 154.07V145.307C40.8483 141.677 37.9043 138.734 34.2728 138.734C30.6412 138.734 27.6972 141.677 27.6972 145.307V154.07C25.2761 154.07 23.3135 156.032 23.3135 158.452V169.406C23.3135 171.826 25.2761 173.788 27.6972 173.788H40.8483C43.2694 173.788 45.232 171.826 45.232 169.406V158.452C45.232 156.032 43.2694 154.07 40.8483 154.07ZM27.6972 156.261H40.8483C42.0588 156.261 43.0402 157.242 43.0402 158.452V169.406C43.0402 170.616 42.0588 171.597 40.8483 171.597H27.6972C26.4867 171.597 25.5053 170.616 25.5053 169.406V158.452C25.5053 157.242 26.4867 156.261 27.6972 156.261Z" fill="white"/>
</g>
<defs>
<clipPath id="clip0_84_1252">
<rect width="331" height="300" fill="white"/>
</clipPath>
</defs>
</svg>
