<svg width="282" height="281" viewBox="0 0 282 281" fill="none" xmlns="http://www.w3.org/2000/svg">
<g clip-path="url(#clip0_84_778)">
<path d="M212.226 66.7762H210.679V24.4805C210.679 17.9886 208.098 11.7625 203.502 7.17207C198.907 2.58159 192.674 0.00268555 186.176 0.00268555H96.4692C93.2514 0.00268555 90.065 0.635824 87.0921 1.86595C84.1193 3.09607 81.418 4.89909 79.1427 7.17207C76.8673 9.44504 75.0624 12.1435 73.831 15.1132C72.5996 18.083 71.9658 21.266 71.9658 24.4805V256.521C71.9658 259.735 72.5996 262.918 73.831 265.888C75.0624 268.858 76.8673 271.556 79.1427 273.829C81.418 276.102 84.1193 277.905 87.0921 279.135C90.065 280.366 93.2514 280.999 96.4692 280.999H186.174C192.672 280.999 198.905 278.42 203.5 273.829C208.096 269.239 210.677 263.013 210.677 256.521V96.8835H212.226V66.7762Z" fill="#090814"/>
<path d="M187.165 6.36926H175.456C175.994 7.68803 176.2 9.11882 176.054 10.5356C175.909 11.9524 175.417 13.3117 174.621 14.4938C173.826 15.6758 172.752 16.6444 171.494 17.3142C170.236 17.9839 168.832 18.3343 167.406 18.3344H116.012C114.586 18.3344 113.182 17.984 111.924 17.3143C110.665 16.6446 109.591 15.676 108.796 14.4939C108.001 13.3118 107.509 11.9525 107.363 10.5357C107.218 9.11888 107.423 7.68806 107.961 6.36926H97.0266C92.1731 6.36926 87.5184 8.29528 84.0865 11.7236C80.6546 15.152 78.7266 19.8018 78.7266 24.6502V256.353C78.7266 261.202 80.6546 265.851 84.0865 269.28C87.5184 272.708 92.1731 274.634 97.0266 274.634H187.161C192.015 274.634 196.669 272.708 200.101 269.28C203.533 265.851 205.461 261.202 205.461 256.353V24.6506C205.461 19.8027 203.533 15.1534 200.102 11.7251C196.671 8.29687 192.017 6.37048 187.164 6.36965L187.165 6.36926Z" fill="white"/>
<path d="M92.3765 32.8456H189.451C190.281 32.8456 191.078 33.1752 191.665 33.7618C192.252 34.3484 192.582 35.1441 192.582 35.9737V60.999C192.582 61.8286 192.252 62.6243 191.665 63.2109C191.078 63.7975 190.281 64.1271 189.451 64.1271H92.3765C91.546 64.1271 90.7495 63.7975 90.1623 63.2109C89.575 62.6243 89.2451 61.8286 89.2451 60.999V35.9737C89.2451 35.1441 89.575 34.3484 90.1623 33.7618C90.7495 33.1752 91.546 32.8456 92.3765 32.8456Z" fill="#F2F2F2"/>
<path d="M92.3766 69.366H189.451C190.288 69.3727 191.088 69.7113 191.675 70.3073C192.262 70.9033 192.589 71.7079 192.582 72.5442V255.285C192.589 256.122 192.262 256.926 191.675 257.522C191.088 258.118 190.288 258.457 189.451 258.464H92.3766C91.5395 258.457 90.7393 258.118 90.1521 257.522C89.5649 256.926 89.2386 256.122 89.2452 255.285V72.5442C89.2386 71.7079 89.5649 70.9033 90.1521 70.3073C90.7393 69.7113 91.5395 69.3727 92.3766 69.366Z" fill="#F2F2F2"/>
<path d="M111.717 45.1228H15.3068C11.8479 45.1228 9.04395 47.9238 9.04395 51.3791V65.9692C9.04395 69.4245 11.8479 72.2255 15.3068 72.2255H111.717C115.176 72.2255 117.98 69.4245 117.98 65.9692V51.3791C117.98 47.9238 115.176 45.1228 111.717 45.1228Z" fill="#090814"/>
<path d="M110.875 46.3549H16.1488C12.9061 46.3549 10.2773 48.9808 10.2773 52.2201V65.1285C10.2773 68.3678 12.9061 70.9938 16.1488 70.9938H110.875C114.118 70.9938 116.747 68.3678 116.747 65.1285V52.2201C116.747 48.9808 114.118 46.3549 110.875 46.3549Z" fill="white"/>
<path d="M106.18 62.7031C106.044 62.7029 105.91 62.671 105.788 62.6099C105.666 62.5488 105.56 62.4602 105.479 62.3512L103.331 59.4897C103.191 59.304 103.131 59.0706 103.164 58.8408C103.197 58.611 103.32 58.4037 103.506 58.2644C103.692 58.1251 103.925 58.0653 104.155 58.0982C104.385 58.131 104.593 58.2537 104.732 58.4394L106.138 60.3116L109.748 54.9022C109.877 54.7091 110.077 54.575 110.305 54.5295C110.533 54.4839 110.77 54.5307 110.963 54.6594C111.156 54.7882 111.291 54.9884 111.336 55.216C111.382 55.4436 111.335 55.68 111.206 55.8731L106.909 62.3132C106.832 62.43 106.727 62.5264 106.605 62.5944C106.482 62.6625 106.345 62.7001 106.205 62.7043L106.18 62.7031Z" fill="#ED862D"/>
<path d="M18.9919 50.4196H28.8292C29.6989 50.4196 30.5329 50.7647 31.1478 51.3789C31.7628 51.9932 32.1082 52.8264 32.1082 53.6951V63.5222C32.1082 64.3909 31.7628 65.2241 31.1478 65.8384C30.5329 66.4527 29.6989 66.7978 28.8292 66.7978H18.9919C18.1222 66.7978 17.2882 66.4527 16.6733 65.8384C16.0584 65.2241 15.7129 64.3909 15.7129 63.5222V53.6951C15.7129 52.8264 16.0584 51.9932 16.6733 51.3789C17.2882 50.7647 18.1222 50.4196 18.9919 50.4196Z" fill="#ED862D"/>
<path d="M23.6146 64.0688V63.008C22.8705 62.9956 22.1534 62.727 21.5847 62.2475C21.3287 62.007 21.1257 61.7159 20.9884 61.3928C20.8511 61.0697 20.7827 60.7216 20.7873 60.3706H22.2286C22.2327 60.546 22.273 60.7187 22.3471 60.8777C22.4212 61.0368 22.5274 61.1789 22.6591 61.295C22.9316 61.5191 23.2646 61.6573 23.6158 61.6918V59.1561L23.177 59.0349C22.5838 58.8981 22.0356 58.6118 21.5847 58.2032C21.3932 58.012 21.2435 57.7832 21.1451 57.5313C21.0467 57.2794 21.0016 57.0098 21.0128 56.7396C21.0043 56.3019 21.1213 55.8709 21.3498 55.4973C21.578 55.134 21.8962 54.8357 22.2736 54.6312C22.6878 54.4061 23.1449 54.2709 23.615 54.2343V53.15H24.271V54.2296C24.7538 54.2512 25.2255 54.3805 25.6516 54.6081C26.0277 54.8111 26.3451 55.1073 26.5734 55.4684C26.7986 55.8306 26.9204 56.2475 26.9257 56.6739H25.5079C25.4871 56.3761 25.3516 56.0979 25.1298 55.8977C24.8874 55.6921 24.5876 55.5659 24.271 55.536V57.9295L24.6374 58.0264C25.0372 58.1293 25.4236 58.2787 25.7886 58.4714C26.1457 58.6565 26.4535 58.9239 26.6865 59.2515C26.9293 59.6161 27.0507 60.048 27.0333 60.4855C27.0431 60.812 26.9836 61.1368 26.8586 61.4386C26.7337 61.7404 26.5462 62.0124 26.3084 62.2365C25.7439 62.7279 25.0217 63.0009 24.273 63.006V64.0681L23.6146 64.0688ZM24.2706 61.6871C24.6195 61.6555 24.9495 61.515 25.214 61.2856C25.329 61.1847 25.4206 61.0601 25.4825 60.9203C25.5444 60.7805 25.5752 60.629 25.5725 60.4762C25.5795 60.3357 25.5504 60.1958 25.4882 60.0697C25.4259 59.9436 25.3325 59.8355 25.2167 59.7555C24.927 59.5653 24.6075 59.4247 24.2714 59.3395L24.2706 61.6871ZM23.6146 57.7562V55.5462C23.3047 55.5792 23.014 55.7121 22.7864 55.9247C22.69 56.0186 22.6139 56.1311 22.5626 56.2554C22.5114 56.3798 22.4862 56.5133 22.4885 56.6477C22.4812 56.7872 22.5091 56.9263 22.5697 57.0523C22.6303 57.1782 22.7217 57.2869 22.8353 57.3683C23.0734 57.5382 23.3369 57.6691 23.6162 57.7562H23.6146Z" fill="white"/>
<path d="M40.3058 51.7842H89.4926C89.8514 51.7842 90.2067 51.8548 90.5383 51.992C90.8698 52.1291 91.171 52.3302 91.4248 52.5837C91.6785 52.8372 91.8798 53.1381 92.0171 53.4693C92.1544 53.8005 92.2251 54.1554 92.2251 54.5139C92.2251 54.8724 92.1544 55.2273 92.0171 55.5585C91.8798 55.8897 91.6785 56.1906 91.4248 56.4441C91.171 56.6976 90.8698 56.8986 90.5383 57.0358C90.2067 57.173 89.8514 57.2436 89.4926 57.2436H40.3058C39.5811 57.2436 38.886 56.956 38.3736 56.4441C37.8611 55.9322 37.5732 55.2378 37.5732 54.5139C37.5732 53.7899 37.8611 53.0956 38.3736 52.5837C38.886 52.0718 39.5811 51.7842 40.3058 51.7842Z" fill="#E6E6E6"/>
<path d="M40.3058 59.9738H67.6317C67.9906 59.9738 68.3459 60.0444 68.6774 60.1815C69.009 60.3187 69.3102 60.5198 69.5639 60.7733C69.8177 61.0267 70.019 61.3277 70.1563 61.6588C70.2936 61.99 70.3643 62.345 70.3643 62.7035C70.3643 63.0619 70.2936 63.4169 70.1563 63.7481C70.019 64.0793 69.8177 64.3802 69.5639 64.6337C69.3102 64.8871 69.009 65.0882 68.6774 65.2254C68.3459 65.3626 67.9906 65.4332 67.6317 65.4332H40.3058C39.5811 65.4332 38.886 65.1456 38.3736 64.6337C37.8611 64.1217 37.5732 63.4274 37.5732 62.7035C37.5732 61.9795 37.8611 61.2852 38.3736 60.7733C38.886 60.2613 39.5811 59.9738 40.3058 59.9738Z" fill="#E6E6E6"/>
<path d="M260.938 86.5986H164.117C160.658 86.5986 157.854 89.3997 157.854 92.8549V107.445C157.854 110.9 160.658 113.701 164.117 113.701H260.938C264.397 113.701 267.201 110.9 267.201 107.445V92.8549C267.201 89.3997 264.397 86.5986 260.938 86.5986Z" fill="#090814"/>
<path d="M259.686 87.8307H164.959C161.717 87.8307 159.088 90.4567 159.088 93.696V106.604C159.088 109.844 161.717 112.47 164.959 112.47H259.686C262.929 112.47 265.557 109.844 265.557 106.604V93.696C265.557 90.4567 262.929 87.8307 259.686 87.8307Z" fill="white"/>
<path d="M255.107 104.331C254.971 104.331 254.836 104.299 254.715 104.238C254.593 104.177 254.487 104.088 254.406 103.979L252.257 101.118C252.118 100.932 252.058 100.699 252.091 100.469C252.124 100.239 252.247 100.032 252.432 99.8923C252.618 99.7531 252.852 99.6933 253.082 99.7261C253.312 99.7589 253.52 99.8816 253.659 100.067L255.065 101.94L258.675 96.5302C258.804 96.337 259.004 96.2029 259.232 96.1574C259.46 96.1119 259.696 96.1586 259.89 96.2874C260.083 96.4161 260.217 96.6163 260.263 96.8439C260.308 97.0715 260.262 97.3079 260.133 97.5011L255.836 103.941C255.759 104.058 255.654 104.154 255.531 104.222C255.409 104.29 255.272 104.328 255.132 104.332L255.107 104.331Z" fill="#ED862D"/>
<path d="M167.919 92.0479H177.756C178.626 92.0479 179.46 92.393 180.075 93.0072C180.69 93.6215 181.035 94.4547 181.035 95.3234V105.151C181.035 106.019 180.69 106.852 180.075 107.467C179.46 108.081 178.626 108.426 177.756 108.426H167.919C167.049 108.426 166.215 108.081 165.6 107.467C164.985 106.852 164.64 106.019 164.64 105.151V95.3234C164.64 94.4547 164.985 93.6215 165.6 93.0072C166.215 92.393 167.049 92.0479 167.919 92.0479Z" fill="#ED862D"/>
<path d="M172.541 105.697V104.636C171.797 104.624 171.08 104.355 170.511 103.876C170.255 103.635 170.052 103.344 169.915 103.021C169.778 102.698 169.709 102.35 169.714 101.999H171.155C171.159 102.174 171.2 102.347 171.274 102.506C171.348 102.665 171.454 102.807 171.586 102.923C171.858 103.147 172.191 103.286 172.543 103.32V100.784L172.104 100.663C171.511 100.526 170.962 100.24 170.511 99.8315C170.32 99.6403 170.17 99.4115 170.072 99.1596C169.973 98.9077 169.928 98.6381 169.94 98.3679C169.931 97.9302 170.048 97.4992 170.277 97.1256C170.505 96.7623 170.823 96.464 171.2 96.2595C171.615 96.0344 172.072 95.8992 172.542 95.8626V94.7783H173.198V95.8579C173.681 95.8795 174.152 96.0088 174.578 96.2364C174.954 96.4394 175.272 96.7356 175.5 97.0967C175.725 97.4589 175.847 97.8758 175.852 98.3022H174.435C174.414 98.0044 174.278 97.7262 174.057 97.526C173.814 97.3204 173.514 97.1942 173.198 97.1643V99.5577L173.564 99.6547C173.964 99.7576 174.35 99.907 174.715 100.1C175.072 100.285 175.38 100.552 175.613 100.88C175.856 101.244 175.977 101.676 175.96 102.114C175.97 102.44 175.91 102.765 175.785 103.067C175.66 103.369 175.473 103.641 175.235 103.865C174.671 104.356 173.949 104.629 173.2 104.634V105.696L172.541 105.697ZM173.197 103.315C173.546 103.284 173.876 103.143 174.141 102.914C174.256 102.813 174.347 102.688 174.409 102.549C174.471 102.409 174.502 102.257 174.499 102.104C174.506 101.964 174.477 101.824 174.415 101.698C174.353 101.572 174.259 101.464 174.143 101.384C173.854 101.194 173.534 101.053 173.198 100.968L173.197 103.315ZM172.541 99.3845V97.1745C172.231 97.2075 171.941 97.3404 171.713 97.553C171.617 97.6469 171.541 97.7594 171.489 97.8837C171.438 98.0081 171.413 98.1416 171.415 98.276C171.408 98.4155 171.436 98.5546 171.497 98.6806C171.557 98.8065 171.648 98.9152 171.762 98.9966C172 99.1665 172.264 99.2974 172.543 99.3845H172.541Z" fill="white"/>
<path d="M189.233 93.4125H238.419C238.778 93.4125 239.133 93.4831 239.465 93.6203C239.797 93.7574 240.098 93.9585 240.352 94.212C240.605 94.4655 240.807 94.7664 240.944 95.0976C241.081 95.4288 241.152 95.7837 241.152 96.1422C241.152 96.5006 241.081 96.8556 240.944 97.1868C240.807 97.518 240.605 97.8189 240.352 98.0724C240.098 98.3258 239.797 98.5269 239.465 98.6641C239.133 98.8013 238.778 98.8719 238.419 98.8719H189.233C188.508 98.8719 187.813 98.5843 187.3 98.0724C186.788 97.5605 186.5 96.8661 186.5 96.1422C186.5 95.4182 186.788 94.7239 187.3 94.212C187.813 93.7001 188.508 93.4125 189.233 93.4125Z" fill="#E6E6E6"/>
<path d="M189.233 101.602H216.558C216.917 101.602 217.273 101.672 217.604 101.809C217.936 101.947 218.237 102.148 218.491 102.401C218.744 102.655 218.946 102.956 219.083 103.287C219.22 103.618 219.291 103.973 219.291 104.331C219.291 104.69 219.22 105.045 219.083 105.376C218.946 105.707 218.744 106.008 218.491 106.262C218.237 106.515 217.936 106.716 217.604 106.853C217.273 106.99 216.917 107.061 216.558 107.061H189.233C188.508 107.061 187.813 106.773 187.3 106.262C186.788 105.75 186.5 105.055 186.5 104.331C186.5 103.607 186.788 102.913 187.3 102.401C187.813 101.889 188.508 101.602 189.233 101.602Z" fill="#E6E6E6"/>
<path d="M127.749 128.895H30.9279C27.469 128.895 24.665 131.696 24.665 135.151V149.742C24.665 153.197 27.469 155.998 30.9279 155.998H127.749C131.208 155.998 134.012 153.197 134.012 149.742V135.151C134.012 131.696 131.208 128.895 127.749 128.895Z" fill="#090814"/>
<path d="M126.496 130.127H31.7698C28.5272 130.127 25.8984 132.753 25.8984 135.992V148.901C25.8984 152.14 28.5272 154.766 31.7698 154.766H126.496C129.739 154.766 132.368 152.14 132.368 148.901V135.992C132.368 132.753 129.739 130.127 126.496 130.127Z" fill="white"/>
<path d="M121.893 146.642C121.757 146.642 121.623 146.61 121.501 146.549C121.379 146.488 121.273 146.399 121.192 146.29L119.043 143.429C118.904 143.243 118.844 143.009 118.877 142.78C118.91 142.55 119.033 142.343 119.219 142.203C119.404 142.064 119.638 142.004 119.868 142.037C120.098 142.07 120.306 142.193 120.445 142.378L121.851 144.25L125.461 138.841C125.59 138.648 125.79 138.514 126.018 138.468C126.246 138.423 126.483 138.47 126.676 138.598C126.869 138.727 127.003 138.927 127.049 139.155C127.095 139.382 127.048 139.619 126.919 139.812L122.622 146.252C122.545 146.369 122.44 146.465 122.318 146.533C122.195 146.601 122.058 146.639 121.918 146.643L121.893 146.642Z" fill="#ED862D"/>
<path d="M34.7048 134.358H44.5421C45.4118 134.358 46.2458 134.704 46.8607 135.318C47.4756 135.932 47.8211 136.765 47.8211 137.634V147.461C47.8211 148.33 47.4756 149.163 46.8607 149.777C46.2458 150.392 45.4118 150.737 44.5421 150.737H34.7048C33.8351 150.737 33.0011 150.392 32.3862 149.777C31.7712 149.163 31.4258 148.33 31.4258 147.461V137.634C31.4258 136.765 31.7712 135.932 32.3862 135.318C33.0011 134.704 33.8351 134.358 34.7048 134.358Z" fill="#ED862D"/>
<path d="M39.3275 148.008V146.947C38.5834 146.934 37.8663 146.666 37.2976 146.186C37.0416 145.946 36.8386 145.655 36.7013 145.332C36.564 145.009 36.4956 144.66 36.5002 144.309H37.9415C37.9456 144.485 37.9859 144.657 38.06 144.817C38.1341 144.976 38.2403 145.118 38.372 145.234C38.6444 145.458 38.9774 145.596 39.3287 145.631V143.095L38.8899 142.974C38.2967 142.837 37.7485 142.551 37.2976 142.142C37.1061 141.951 36.9564 141.722 36.858 141.47C36.7595 141.218 36.7145 140.949 36.7257 140.678C36.7172 140.241 36.8342 139.81 37.0627 139.436C37.2909 139.073 37.6091 138.775 37.9865 138.57C38.4007 138.345 38.8578 138.21 39.3279 138.173V137.089H39.9839V138.168C40.4666 138.19 40.9384 138.319 41.3645 138.547C41.7406 138.75 42.058 139.046 42.2863 139.407C42.5115 139.769 42.6333 140.186 42.6386 140.613H41.2208C41.2 140.315 41.0645 140.037 40.8427 139.837C40.6003 139.631 40.3005 139.505 39.9839 139.475V141.868L40.3503 141.965C40.7501 142.068 41.1365 142.218 41.5015 142.41C41.8586 142.595 42.1664 142.863 42.3994 143.19C42.6422 143.555 42.7636 143.987 42.7462 144.424C42.756 144.751 42.6965 145.076 42.5715 145.377C42.4466 145.679 42.2591 145.951 42.0213 146.175C41.4568 146.667 40.7346 146.94 39.9859 146.945V148.007L39.3275 148.008ZM39.9835 145.626C40.3324 145.594 40.6624 145.454 40.9269 145.224C41.0419 145.124 41.1335 144.999 41.1954 144.859C41.2573 144.719 41.288 144.568 41.2854 144.415C41.2924 144.275 41.2633 144.135 41.2011 144.009C41.1388 143.882 41.0454 143.774 40.9296 143.694C40.6398 143.504 40.3204 143.364 39.9843 143.278L39.9835 145.626ZM39.3275 141.695V139.485C39.0176 139.518 38.7269 139.651 38.4992 139.864C38.4029 139.957 38.3267 140.07 38.2755 140.194C38.2243 140.319 38.1991 140.452 38.2014 140.587C38.1941 140.726 38.222 140.865 38.2826 140.991C38.3432 141.117 38.4345 141.226 38.5482 141.307C38.7862 141.477 39.0498 141.608 39.3291 141.695H39.3275Z" fill="white"/>
<path d="M56.0187 135.724H105.205C105.564 135.724 105.92 135.794 106.251 135.931C106.583 136.068 106.884 136.27 107.138 136.523C107.391 136.776 107.593 137.077 107.73 137.409C107.867 137.74 107.938 138.095 107.938 138.453C107.938 138.812 107.867 139.167 107.73 139.498C107.593 139.829 107.391 140.13 107.138 140.383C106.884 140.637 106.583 140.838 106.251 140.975C105.92 141.112 105.564 141.183 105.205 141.183H56.0187C55.294 141.183 54.5989 140.895 54.0865 140.383C53.574 139.871 53.2861 139.177 53.2861 138.453C53.2861 137.729 53.574 137.035 54.0865 136.523C54.5989 136.011 55.294 135.724 56.0187 135.724Z" fill="#E6E6E6"/>
<path d="M56.0187 143.913H83.3446C83.7035 143.913 84.0588 143.983 84.3903 144.12C84.7219 144.258 85.0231 144.459 85.2768 144.712C85.5306 144.966 85.7319 145.267 85.8692 145.598C86.0065 145.929 86.0772 146.284 86.0772 146.642C86.0772 147.001 86.0065 147.356 85.8692 147.687C85.7319 148.018 85.5306 148.319 85.2768 148.572C85.0231 148.826 84.7219 149.027 84.3903 149.164C84.0588 149.301 83.7035 149.372 83.3446 149.372H56.0187C55.294 149.372 54.5989 149.084 54.0865 148.572C53.574 148.061 53.2861 147.366 53.2861 146.642C53.2861 145.918 53.574 145.224 54.0865 144.712C54.5989 144.2 55.294 143.913 56.0187 143.913Z" fill="#E6E6E6"/>
<path d="M275.737 170.371H178.916C175.457 170.371 172.653 173.172 172.653 176.628V191.629C172.653 195.084 175.457 197.885 178.916 197.885H275.737C279.196 197.885 282 195.084 282 191.629V176.628C282 173.172 279.196 170.371 275.737 170.371Z" fill="#090814"/>
<path d="M274.896 172.014H180.169C176.927 172.014 174.298 174.64 174.298 177.879V190.788C174.298 194.027 176.927 196.653 180.169 196.653H274.896C278.139 196.653 280.767 194.027 280.767 190.788V177.879C280.767 174.64 278.139 172.014 274.896 172.014Z" fill="white"/>
<path d="M270.136 188.271C270 188.27 269.866 188.238 269.744 188.177C269.622 188.116 269.517 188.028 269.435 187.919L267.287 185.057C267.147 184.872 267.087 184.638 267.12 184.408C267.153 184.179 267.276 183.971 267.462 183.832C267.648 183.693 267.881 183.633 268.111 183.666C268.341 183.698 268.549 183.821 268.688 184.007L270.094 185.879L273.704 180.47C273.833 180.277 274.033 180.143 274.261 180.097C274.489 180.051 274.726 180.098 274.919 180.227C275.112 180.356 275.247 180.556 275.292 180.783C275.338 181.011 275.291 181.248 275.162 181.441L270.865 187.881C270.788 187.997 270.683 188.094 270.561 188.162C270.438 188.23 270.301 188.268 270.161 188.272L270.136 188.271Z" fill="#ED862D"/>
<path d="M182.948 175.987H192.785C193.655 175.987 194.489 176.332 195.104 176.947C195.719 177.561 196.064 178.394 196.064 179.263V189.09C196.064 189.959 195.719 190.792 195.104 191.406C194.489 192.02 193.655 192.365 192.785 192.365H182.948C182.078 192.365 181.244 192.02 180.629 191.406C180.014 190.792 179.669 189.959 179.669 189.09V179.263C179.669 178.394 180.014 177.561 180.629 176.947C181.244 176.332 182.078 175.987 182.948 175.987Z" fill="#ED862D"/>
<path d="M187.571 189.636V188.576C186.827 188.563 186.11 188.295 185.541 187.815C185.285 187.575 185.082 187.284 184.944 186.96C184.807 186.637 184.739 186.289 184.743 185.938H186.185C186.189 186.114 186.229 186.286 186.303 186.445C186.377 186.604 186.484 186.746 186.615 186.863C186.888 187.087 187.221 187.225 187.572 187.259V184.724L187.133 184.602C186.54 184.466 185.992 184.179 185.541 183.771C185.349 183.58 185.2 183.351 185.101 183.099C185.003 182.847 184.958 182.577 184.969 182.307C184.96 181.869 185.077 181.438 185.306 181.065C185.534 180.702 185.852 180.403 186.23 180.199C186.644 179.974 187.101 179.839 187.571 179.802V178.718H188.227V179.797C188.71 179.819 189.182 179.948 189.608 180.176C189.984 180.379 190.301 180.675 190.529 181.036C190.755 181.398 190.876 181.815 190.882 182.242H189.464C189.443 181.944 189.308 181.666 189.086 181.465C188.843 181.26 188.544 181.134 188.227 181.104V183.497L188.593 183.594C188.993 183.697 189.38 183.846 189.745 184.039C190.102 184.224 190.41 184.492 190.643 184.819C190.885 185.184 191.007 185.616 190.989 186.053C190.999 186.38 190.94 186.704 190.815 187.006C190.69 187.308 190.502 187.58 190.264 187.804C189.7 188.296 188.978 188.569 188.229 188.574V189.636L187.571 189.636ZM188.227 187.255C188.576 187.223 188.906 187.083 189.17 186.853C189.285 186.752 189.377 186.628 189.439 186.488C189.5 186.348 189.531 186.197 189.529 186.044C189.536 185.903 189.506 185.763 189.444 185.637C189.382 185.511 189.289 185.403 189.173 185.323C188.883 185.133 188.564 184.992 188.227 184.907L188.227 187.255ZM187.571 183.324V181.114C187.261 181.147 186.97 181.28 186.742 181.492C186.646 181.586 186.57 181.699 186.519 181.823C186.467 181.947 186.442 182.081 186.445 182.215C186.437 182.355 186.465 182.494 186.526 182.62C186.586 182.746 186.678 182.854 186.791 182.936C187.029 183.106 187.293 183.237 187.572 183.324H187.571Z" fill="white"/>
<path d="M204.262 177.352H253.449C253.807 177.352 254.163 177.423 254.494 177.56C254.826 177.697 255.127 177.898 255.381 178.152C255.635 178.405 255.836 178.706 255.973 179.037C256.111 179.368 256.181 179.723 256.181 180.082C256.181 180.44 256.111 180.795 255.973 181.126C255.836 181.458 255.635 181.759 255.381 182.012C255.127 182.266 254.826 182.467 254.494 182.604C254.163 182.741 253.807 182.812 253.449 182.812H204.262C203.537 182.812 202.842 182.524 202.33 182.012C201.817 181.5 201.529 180.806 201.529 180.082C201.529 179.358 201.817 178.664 202.33 178.152C202.842 177.64 203.537 177.352 204.262 177.352Z" fill="#E6E6E6"/>
<path d="M204.262 185.541H231.588C231.947 185.541 232.302 185.612 232.633 185.749C232.965 185.886 233.266 186.087 233.52 186.341C233.774 186.594 233.975 186.895 234.112 187.226C234.25 187.558 234.32 187.912 234.32 188.271C234.32 188.629 234.25 188.984 234.112 189.316C233.975 189.647 233.774 189.948 233.52 190.201C233.266 190.455 232.965 190.656 232.633 190.793C232.302 190.93 231.947 191.001 231.588 191.001H204.262C203.537 191.001 202.842 190.713 202.33 190.201C201.817 189.689 201.529 188.995 201.529 188.271C201.529 187.547 201.817 186.853 202.33 186.341C202.842 185.829 203.537 185.541 204.262 185.541Z" fill="#E6E6E6"/>
<path d="M103.084 212.258H6.26284C2.80397 212.258 0 215.059 0 218.514V233.104C0 236.559 2.80397 239.36 6.26284 239.36H103.084C106.543 239.36 109.347 236.559 109.347 233.104V218.514C109.347 215.059 106.543 212.258 103.084 212.258Z" fill="#090814"/>
<path d="M102.242 213.49H7.10481C3.86212 213.49 1.2334 216.116 1.2334 219.355V232.263C1.2334 235.503 3.86212 238.129 7.10481 238.129H102.242C105.485 238.129 108.114 235.503 108.114 232.263V219.355C108.114 216.116 105.485 213.49 102.242 213.49Z" fill="white"/>
<path d="M97.2993 229.9C97.1631 229.899 97.0288 229.868 96.9071 229.806C96.7854 229.745 96.6796 229.657 96.5982 229.548L94.4497 226.686C94.3102 226.501 94.2504 226.267 94.2832 226.037C94.3161 225.808 94.439 225.6 94.6248 225.461C94.8107 225.322 95.0444 225.262 95.2744 225.295C95.5044 225.328 95.7119 225.45 95.8514 225.636L97.257 227.508L100.867 222.099C100.996 221.906 101.196 221.772 101.424 221.726C101.652 221.68 101.889 221.727 102.082 221.856C102.275 221.985 102.41 222.185 102.455 222.413C102.501 222.64 102.454 222.877 102.325 223.07L98.0285 229.51C97.9509 229.627 97.8465 229.723 97.7239 229.791C97.6013 229.859 97.4641 229.897 97.3239 229.901L97.2993 229.9Z" fill="#ED862D"/>
<path d="M10.111 217.616H19.9484C20.818 217.616 21.652 217.961 22.267 218.575C22.8819 219.19 23.2274 220.023 23.2274 220.892V230.719C23.2274 231.587 22.8819 232.421 22.267 233.035C21.652 233.649 20.818 233.994 19.9484 233.994H10.111C9.24138 233.994 8.40735 233.649 7.79242 233.035C7.1775 232.421 6.83203 231.587 6.83203 230.719V220.892C6.83203 220.023 7.1775 219.19 7.79242 218.575C8.40735 217.961 9.24138 217.616 10.111 217.616Z" fill="#ED862D"/>
<path d="M14.7338 231.265V230.205C13.9896 230.192 13.2726 229.923 12.7038 229.444C12.4479 229.204 12.2448 228.912 12.1076 228.589C11.9703 228.266 11.9018 227.918 11.9065 227.567H13.3477C13.3518 227.743 13.3922 227.915 13.4663 228.074C13.5404 228.233 13.6466 228.375 13.7783 228.491C14.0507 228.716 14.3837 228.854 14.7349 228.888V226.353L14.2961 226.231C13.7029 226.095 13.1547 225.808 12.7038 225.4C12.5123 225.209 12.3627 224.98 12.2642 224.728C12.1658 224.476 12.1207 224.206 12.1319 223.936C12.1235 223.498 12.2404 223.067 12.469 222.694C12.6972 222.331 13.0154 222.032 13.3927 221.828C13.8069 221.603 14.264 221.467 14.7341 221.431V220.347H15.3902V221.426C15.8729 221.448 16.3446 221.577 16.7707 221.805C17.1468 222.008 17.4643 222.304 17.6926 222.665C17.9178 223.027 18.0396 223.444 18.0448 223.87H16.6271C16.6062 223.573 16.4707 223.294 16.249 223.094C16.0065 222.889 15.7068 222.762 15.3902 222.733V225.126L15.7566 225.223C16.1564 225.326 16.5427 225.475 16.9077 225.668C17.2648 225.853 17.5726 226.12 17.8057 226.448C18.0485 226.813 18.1698 227.245 18.1525 227.682C18.1623 228.009 18.1027 228.333 17.9778 228.635C17.8528 228.937 17.6653 229.209 17.4276 229.433C16.863 229.924 16.1409 230.197 15.3921 230.203V231.265L14.7338 231.265ZM15.3898 228.884C15.7386 228.852 16.0686 228.712 16.3331 228.482C16.4481 228.381 16.5398 228.257 16.6017 228.117C16.6636 227.977 16.6943 227.826 16.6917 227.673C16.6986 227.532 16.6696 227.392 16.6073 227.266C16.5451 227.14 16.4516 227.032 16.3359 226.952C16.0461 226.762 15.7266 226.621 15.3906 226.536L15.3898 228.884ZM14.7338 224.953V222.743C14.4239 222.776 14.1331 222.909 13.9055 223.121C13.8091 223.215 13.733 223.328 13.6818 223.452C13.6305 223.576 13.6053 223.71 13.6076 223.844C13.6003 223.984 13.6283 224.123 13.6889 224.249C13.7495 224.375 13.8408 224.483 13.9544 224.565C14.1925 224.735 14.4561 224.866 14.7353 224.953H14.7338Z" fill="white"/>
<path d="M31.4249 218.981H80.6117C80.9706 218.981 81.3259 219.051 81.6574 219.189C81.9889 219.326 82.2902 219.527 82.5439 219.78C82.7977 220.034 82.9989 220.335 83.1363 220.666C83.2736 220.997 83.3443 221.352 83.3443 221.711C83.3443 222.069 83.2736 222.424 83.1363 222.755C82.9989 223.086 82.7977 223.387 82.5439 223.641C82.2902 223.894 81.9889 224.095 81.6574 224.232C81.3259 224.37 80.9706 224.44 80.6117 224.44H31.4249C30.7002 224.44 30.0052 224.153 29.4927 223.641C28.9803 223.129 28.6924 222.435 28.6924 221.711C28.6924 220.987 28.9803 220.292 29.4927 219.78C30.0052 219.268 30.7002 218.981 31.4249 218.981Z" fill="#E6E6E6"/>
<path d="M31.4249 227.17H58.7509C59.1097 227.17 59.4651 227.241 59.7966 227.378C60.1281 227.515 60.4293 227.716 60.6831 227.97C60.9368 228.223 61.1381 228.524 61.2754 228.855C61.4128 229.187 61.4834 229.542 61.4834 229.9C61.4834 230.258 61.4128 230.613 61.2754 230.945C61.1381 231.276 60.9368 231.577 60.6831 231.83C60.4293 232.084 60.1281 232.285 59.7966 232.422C59.4651 232.559 59.1097 232.63 58.7509 232.63H31.4249C30.7002 232.63 30.0052 232.342 29.4927 231.83C28.9803 231.318 28.6924 230.624 28.6924 229.9C28.6924 229.176 28.9803 228.482 29.4927 227.97C30.0052 227.458 30.7002 227.17 31.4249 227.17Z" fill="#E6E6E6"/>
</g>
<defs>
<clipPath id="clip0_84_778">
<rect width="282" height="281" fill="white"/>
</clipPath>
</defs>
</svg>
