<svg width="589" height="442" viewBox="0 0 589 442" fill="none" xmlns="http://www.w3.org/2000/svg">
<g clip-path="url(#clip0_84_509)">
<path d="M334.393 275.294C324.978 288.019 342.044 261.439 299.717 327.011L316.251 335.155L352.899 277.395C352.899 277.395 335.196 274.21 334.393 275.294Z" fill="#ED9DA0"/>
<path d="M308.336 330.502C308.336 330.502 308.426 318.813 298.652 323.209L279.106 332.007C279.106 332.007 257.228 327.29 263.568 338.513C269.908 349.736 299.853 353.321 299.853 353.321C299.853 353.321 322.646 355.315 321.93 350.224C321.215 345.133 322.342 328.537 319.188 330.711C316.034 332.884 308.336 330.502 308.336 330.502Z" fill="#090814"/>
<path d="M379.613 334.056C385.629 347.865 371.823 321.16 405.777 387.223L420.367 377.484L390.153 319.818C390.153 319.818 379.1 332.878 379.613 334.056Z" fill="#ED9DA0"/>
<path d="M58.4473 266.836C58.4473 262.661 59.85 259.274 61.5729 259.267H531.195C532.925 259.275 534.321 262.662 534.329 266.836V438.666C534.329 439.054 534.473 439.428 534.734 439.715C534.994 440.002 535.353 440.182 535.739 440.219C536.999 440.34 538.259 440.453 539.52 440.557C539.551 440.557 539.583 440.565 539.614 440.565C540.3 440.627 540.986 440.673 541.674 440.728H541.68C542.033 440.076 542.382 439.419 542.727 438.756C542.843 438.532 542.904 438.284 542.904 438.032V257.019C542.904 255.866 542.857 254.706 542.78 253.563C542.669 251.991 542.474 250.426 542.196 248.875C540.878 241.64 537.9 236.742 534.518 236.726H58.2596C57.7659 236.729 57.2778 236.833 56.8252 237.03C56.1615 237.324 55.5616 237.745 55.0589 238.268C54.3752 238.978 53.7904 239.777 53.3205 240.643C51.6528 243.579 50.4598 247.956 50.0388 253.049C50.0388 253.096 50.0307 253.142 50.0307 253.189C49.9218 254.451 49.8673 255.736 49.8747 257.021L49.7658 273.712L49.6922 283.664L49.4817 314.892L49.4037 325.982L49.0607 439.836C49.0607 440.249 49.225 440.645 49.5173 440.937C49.8096 441.229 50.206 441.393 50.6194 441.393H56.8862C57.2997 441.393 57.6962 441.229 57.9885 440.937C58.2808 440.645 58.4451 440.249 58.4451 439.836L58.4473 266.836Z" fill="#E6E6E6"/>
<path d="M186.059 158.633H236.662C237.377 158.635 238.063 158.92 238.569 159.426C239.074 159.932 239.358 160.618 239.357 161.333V241.198H183.356V161.334C183.356 160.98 183.426 160.628 183.562 160.301C183.697 159.973 183.896 159.675 184.147 159.425C184.398 159.174 184.696 158.975 185.024 158.839C185.352 158.704 185.704 158.634 186.059 158.634V158.633ZM211.19 204.011C212.772 204.004 214.288 203.373 215.407 202.255C216.526 201.137 217.158 199.623 217.165 198.042V188.83C217.165 187.247 216.535 185.729 215.415 184.609C214.294 183.49 212.774 182.861 211.19 182.861C209.605 182.861 208.085 183.49 206.964 184.609C205.844 185.729 205.214 187.247 205.214 188.83V198.042C205.222 199.623 205.854 201.137 206.973 202.255C208.092 203.373 209.607 204.005 211.19 204.012V204.011Z" fill="#2F2E41"/>
<path d="M239.531 238.644V246.349C239.53 246.748 239.371 247.131 239.089 247.413C238.806 247.696 238.423 247.855 238.023 247.856H184.69C184.29 247.854 183.908 247.694 183.626 247.412C183.343 247.13 183.184 246.748 183.182 246.349V238.644H239.531Z" fill="#3F3D56"/>
<path d="M304.547 47.4148C305.129 48.8795 306.026 50.1989 307.174 51.2799C308.322 52.361 309.693 53.1774 311.191 53.6717C312.689 54.166 314.278 54.3261 315.844 54.1409C317.411 53.9556 318.918 53.4294 320.259 52.5993L391.688 102.314L393.66 82.5023L323.429 37.042C321.884 34.8831 319.6 33.3655 317.009 32.7768C314.419 32.1882 311.703 32.5694 309.375 33.8482C307.048 35.127 305.27 37.2145 304.38 39.7151C303.49 42.2157 303.55 44.9556 304.547 47.4155V47.4148Z" fill="#FFB6B6"/>
<path d="M464.472 78.7612C464.472 78.7612 472.206 90.1788 460.069 100.283C447.932 110.388 398.74 108.377 390.801 108.291C382.862 108.204 346.439 70.5597 346.439 70.5597L346.676 48.8177L390.652 74.8876L464.472 78.7612Z" fill="#F6821F"/>
<path d="M468.852 154.566L468.072 169.363C468.072 169.363 470.373 182.469 468.481 185.298C466.603 188.112 415.034 192.299 415.034 192.299C415.034 192.299 416.653 170.232 413.734 154.27L468.852 154.566Z" fill="#ED9DA0"/>
<path d="M310.583 305.219L330.434 322.58L369.339 243.083C407.92 249.713 444.317 251.833 475.799 243.819C486.458 241.141 492.973 230.142 490.352 219.26C490.229 218.751 490.087 218.248 489.926 217.75C486.159 206.264 476.296 198.138 468.525 185.506L411.767 186.367L418.106 208.221L362.969 201.092C351.881 199.658 341.754 207.678 340.35 219.002C340.276 219.6 340.227 220.2 340.203 220.803L310.583 305.219Z" fill="#090814"/>
<path d="M446.688 54.992C433.96 54.992 423.642 44.683 423.642 31.9662C423.642 19.2495 433.96 8.94046 446.688 8.94046C459.417 8.94046 469.735 19.2495 469.735 31.9662C469.735 44.683 459.417 54.992 446.688 54.992Z" fill="#ED9DA0"/>
<path d="M460.2 63.306L439.068 65.7898C438.177 65.8946 437.341 66.2745 436.676 66.8766C436.011 67.4787 435.551 68.2729 435.36 69.1487L431.999 84.5163L411.05 109.164C411.05 109.164 403.527 123.256 406.348 139.227C408.045 148.845 410.982 158.202 415.085 167.066C415.085 167.066 466.603 188.118 468.486 185.302C470.368 182.486 470.977 169.681 470.977 169.681L477.604 96.0031C477.984 92.1215 477.499 88.2041 476.184 84.5318C474.869 80.8595 472.758 77.5234 470 74.7626C468.328 73.1192 466.677 71.9685 465.334 71.9685C462.3 71.8634 462.688 65.0428 460.2 63.306Z" fill="#F6821F"/>
<path d="M391.364 368.049L411.511 360.407L383.86 277.434C421.425 266.431 449.761 248.706 474.502 227.668C482.892 220.578 489.189 211.474 482.041 202.85C481.707 202.446 481.358 202.056 480.994 201.68C472.553 193.022 451.132 194.688 438.591 186.759L410.546 216.675L412.303 224.69L359.65 242.522C349.061 246.109 343.498 257.761 347.224 268.548C347.42 269.117 347.641 269.678 347.886 270.229L391.364 368.049Z" fill="#090814"/>
<path d="M448.151 243.43C449.473 242.569 450.59 241.43 451.423 240.091C452.257 238.753 452.786 237.248 452.974 235.684C453.163 234.119 453.005 232.531 452.513 231.034C452.021 229.536 451.207 228.165 450.127 227.016L484.757 147.221L464.929 149.213L434.235 226.993C432.423 228.934 431.386 231.471 431.322 234.124C431.257 236.777 432.169 239.361 433.885 241.388C435.6 243.414 438 244.741 440.63 245.117C443.259 245.494 445.935 244.893 448.151 243.43Z" fill="#ED9DA0"/>
<path d="M447.237 80.6075C447.237 80.6075 456.907 70.7722 469.224 80.6575C481.54 90.5428 489.309 139.113 490.796 146.908C492.282 154.702 462.562 197.822 462.562 197.822L441.185 201.894L458.054 153.666L447.237 80.6075Z" fill="#F6821F"/>
<path d="M102.265 33.9964H318.572C320.431 33.9993 322.212 34.7382 323.526 36.0511C324.841 37.3641 325.58 39.144 325.583 41.0008V186.832C325.581 188.689 324.842 190.47 323.528 191.783C322.213 193.096 320.431 193.835 318.572 193.836H102.265C100.406 193.835 98.6237 193.096 97.3093 191.783C95.9949 190.47 95.2557 188.689 95.254 186.832V41.0008C95.2569 39.144 95.9965 37.3641 97.3106 36.0511C98.6248 34.7382 100.406 33.9993 102.265 33.9964Z" fill="#3F3D56"/>
<path d="M104.071 39.0559H316.767C317.761 39.0581 318.714 39.454 319.417 40.1569C320.119 40.8598 320.515 41.8124 320.516 42.8059V185.026C320.514 186.019 320.119 186.971 319.416 187.673C318.713 188.375 317.761 188.77 316.767 188.772H104.071C103.077 188.77 102.125 188.375 101.422 187.673C100.719 186.971 100.324 186.019 100.322 185.026V42.8089C100.323 41.8154 100.719 40.8628 101.421 40.1599C102.124 39.4569 103.077 39.061 104.071 39.0589V39.0559Z" fill="white"/>
<path d="M145.501 250.536H272.042C272.388 250.537 272.731 250.46 273.044 250.311C273.357 250.163 273.633 249.946 273.852 249.678C274.07 249.409 274.226 249.095 274.308 248.758C274.389 248.421 274.395 248.071 274.323 247.732L272.36 238.415C272.248 237.894 271.961 237.426 271.547 237.09C271.132 236.755 270.615 236.571 270.082 236.569H147.469C146.936 236.571 146.419 236.755 146.005 237.091C145.59 237.427 145.303 237.894 145.191 238.415L143.228 247.732C143.157 248.071 143.162 248.421 143.243 248.758C143.325 249.095 143.481 249.409 143.7 249.678C143.918 249.946 144.194 250.163 144.507 250.311C144.82 250.46 145.163 250.537 145.509 250.536H145.501Z" fill="#2F2E41"/>
<path d="M265.641 238.246H268.821C269.019 238.246 269.18 238.407 269.18 238.605V240.223C269.18 240.421 269.019 240.582 268.821 240.582H265.641C265.443 240.582 265.282 240.421 265.282 240.223V238.605C265.282 238.407 265.443 238.246 265.641 238.246Z" fill="#3F3D56"/>
<path d="M257.846 238.246H261.026C261.224 238.246 261.385 238.407 261.385 238.605V240.223C261.385 240.421 261.224 240.582 261.026 240.582H257.846C257.648 240.582 257.487 240.421 257.487 240.223V238.605C257.487 238.407 257.648 238.246 257.846 238.246Z" fill="#3F3D56"/>
<path d="M250.051 238.246H253.231C253.429 238.246 253.59 238.407 253.59 238.605V240.223C253.59 240.421 253.429 240.582 253.231 240.582H250.051C249.853 240.582 249.692 240.421 249.692 240.223V238.605C249.692 238.407 249.853 238.246 250.051 238.246Z" fill="#3F3D56"/>
<path d="M242.256 238.246H245.436C245.634 238.246 245.795 238.407 245.795 238.605V240.223C245.795 240.421 245.634 240.582 245.436 240.582H242.256C242.058 240.582 241.897 240.421 241.897 240.223V238.605C241.897 238.407 242.058 238.246 242.256 238.246Z" fill="#3F3D56"/>
<path d="M234.462 238.246H237.642C237.84 238.246 238.001 238.407 238.001 238.605V240.223C238.001 240.421 237.84 240.582 237.642 240.582H234.462C234.264 240.582 234.103 240.421 234.103 240.223V238.605C234.103 238.407 234.264 238.246 234.462 238.246Z" fill="#3F3D56"/>
<path d="M226.668 238.246H229.847C230.045 238.246 230.206 238.407 230.206 238.605V240.223C230.206 240.421 230.045 240.582 229.847 240.582H226.668C226.469 240.582 226.308 240.421 226.308 240.223V238.605C226.308 238.407 226.469 238.246 226.668 238.246Z" fill="#3F3D56"/>
<path d="M218.873 238.246H222.052C222.25 238.246 222.411 238.407 222.411 238.605V240.223C222.411 240.421 222.25 240.582 222.052 240.582H218.873C218.674 240.582 218.513 240.421 218.513 240.223V238.605C218.513 238.407 218.674 238.246 218.873 238.246Z" fill="#3F3D56"/>
<path d="M211.079 238.246H214.258C214.456 238.246 214.617 238.407 214.617 238.605V240.223C214.617 240.421 214.456 240.582 214.258 240.582H211.079C210.88 240.582 210.719 240.421 210.719 240.223V238.605C210.719 238.407 210.88 238.246 211.079 238.246Z" fill="#3F3D56"/>
<path d="M203.284 238.246H206.463C206.661 238.246 206.822 238.407 206.822 238.605V240.223C206.822 240.421 206.661 240.582 206.463 240.582H203.284C203.085 240.582 202.925 240.421 202.925 240.223V238.605C202.925 238.407 203.085 238.246 203.284 238.246Z" fill="#3F3D56"/>
<path d="M195.489 238.246H198.668C198.867 238.246 199.027 238.407 199.027 238.605V240.223C199.027 240.421 198.867 240.582 198.668 240.582H195.489C195.29 240.582 195.13 240.421 195.13 240.223V238.605C195.13 238.407 195.29 238.246 195.489 238.246Z" fill="#3F3D56"/>
<path d="M187.694 238.246H190.873C191.072 238.246 191.232 238.407 191.232 238.605V240.223C191.232 240.421 191.072 240.582 190.873 240.582H187.694C187.496 240.582 187.335 240.421 187.335 240.223V238.605C187.335 238.407 187.496 238.246 187.694 238.246Z" fill="#3F3D56"/>
<path d="M179.9 238.246H183.079C183.278 238.246 183.438 238.407 183.438 238.605V240.223C183.438 240.421 183.278 240.582 183.079 240.582H179.9C179.702 240.582 179.541 240.421 179.541 240.223V238.605C179.541 238.407 179.702 238.246 179.9 238.246Z" fill="#3F3D56"/>
<path d="M172.104 238.246H175.283C175.482 238.246 175.643 238.407 175.643 238.605V240.223C175.643 240.421 175.482 240.582 175.283 240.582H172.104C171.906 240.582 171.745 240.421 171.745 240.223V238.605C171.745 238.407 171.906 238.246 172.104 238.246Z" fill="#3F3D56"/>
<path d="M164.31 238.246H167.489C167.688 238.246 167.849 238.407 167.849 238.605V240.223C167.849 240.421 167.688 240.582 167.489 240.582H164.31C164.112 240.582 163.951 240.421 163.951 240.223V238.605C163.951 238.407 164.112 238.246 164.31 238.246Z" fill="#3F3D56"/>
<path d="M156.515 238.246H159.695C159.893 238.246 160.054 238.407 160.054 238.605V240.223C160.054 240.421 159.893 240.582 159.695 240.582H156.515C156.317 240.582 156.156 240.421 156.156 240.223V238.605C156.156 238.407 156.317 238.246 156.515 238.246Z" fill="#3F3D56"/>
<path d="M148.72 238.246H151.9C152.098 238.246 152.259 238.407 152.259 238.605V240.223C152.259 240.421 152.098 240.582 151.9 240.582H148.72C148.522 240.582 148.361 240.421 148.361 240.223V238.605C148.361 238.407 148.522 238.246 148.72 238.246Z" fill="#3F3D56"/>
<path d="M265.733 242.14H268.912C269.111 242.14 269.271 242.301 269.271 242.499V244.117C269.271 244.316 269.111 244.476 268.912 244.476H265.733C265.535 244.476 265.374 244.316 265.374 244.117V242.499C265.374 242.301 265.535 242.14 265.733 242.14Z" fill="#3F3D56"/>
<path d="M257.938 242.14H261.117C261.316 242.14 261.477 242.301 261.477 242.499V244.117C261.477 244.316 261.316 244.476 261.117 244.476H257.938C257.74 244.476 257.579 244.316 257.579 244.117V242.499C257.579 242.301 257.74 242.14 257.938 242.14Z" fill="#3F3D56"/>
<path d="M250.143 242.14H253.322C253.521 242.14 253.682 242.301 253.682 242.499V244.117C253.682 244.316 253.521 244.476 253.322 244.476H250.143C249.945 244.476 249.784 244.316 249.784 244.117V242.499C249.784 242.301 249.945 242.14 250.143 242.14Z" fill="#3F3D56"/>
<path d="M242.349 242.14H245.529C245.727 242.14 245.888 242.301 245.888 242.499V244.117C245.888 244.316 245.727 244.476 245.529 244.476H242.349C242.151 244.476 241.99 244.316 241.99 244.117V242.499C241.99 242.301 242.151 242.14 242.349 242.14Z" fill="#3F3D56"/>
<path d="M234.554 242.14H237.734C237.932 242.14 238.093 242.301 238.093 242.499V244.117C238.093 244.316 237.932 244.476 237.734 244.476H234.554C234.356 244.476 234.195 244.316 234.195 244.117V242.499C234.195 242.301 234.356 242.14 234.554 242.14Z" fill="#3F3D56"/>
<path d="M226.759 242.14H229.939C230.137 242.14 230.298 242.301 230.298 242.499V244.117C230.298 244.316 230.137 244.476 229.939 244.476H226.759C226.561 244.476 226.4 244.316 226.4 244.117V242.499C226.4 242.301 226.561 242.14 226.759 242.14Z" fill="#3F3D56"/>
<path d="M218.965 242.14H222.145C222.343 242.14 222.504 242.301 222.504 242.499V244.117C222.504 244.316 222.343 244.476 222.145 244.476H218.965C218.767 244.476 218.606 244.316 218.606 244.117V242.499C218.606 242.301 218.767 242.14 218.965 242.14Z" fill="#3F3D56"/>
<path d="M211.17 242.14H214.35C214.548 242.14 214.709 242.301 214.709 242.499V244.117C214.709 244.316 214.548 244.476 214.35 244.476H211.17C210.972 244.476 210.811 244.316 210.811 244.117V242.499C210.811 242.301 210.972 242.14 211.17 242.14Z" fill="#3F3D56"/>
<path d="M203.376 242.14H206.555C206.753 242.14 206.914 242.301 206.914 242.499V244.117C206.914 244.316 206.753 244.476 206.555 244.476H203.376C203.177 244.476 203.016 244.316 203.016 244.117V242.499C203.016 242.301 203.177 242.14 203.376 242.14Z" fill="#3F3D56"/>
<path d="M195.581 242.14H198.76C198.958 242.14 199.119 242.301 199.119 242.499V244.117C199.119 244.316 198.958 244.476 198.76 244.476H195.581C195.382 244.476 195.221 244.316 195.221 244.117V242.499C195.221 242.301 195.382 242.14 195.581 242.14Z" fill="#3F3D56"/>
<path d="M187.787 242.14H190.966C191.164 242.14 191.325 242.301 191.325 242.499V244.117C191.325 244.316 191.164 244.476 190.966 244.476H187.787C187.588 244.476 187.428 244.316 187.428 244.117V242.499C187.428 242.301 187.588 242.14 187.787 242.14Z" fill="#3F3D56"/>
<path d="M179.992 242.14H183.171C183.369 242.14 183.53 242.301 183.53 242.499V244.117C183.53 244.316 183.369 244.476 183.171 244.476H179.992C179.793 244.476 179.633 244.316 179.633 244.117V242.499C179.633 242.301 179.793 242.14 179.992 242.14Z" fill="#3F3D56"/>
<path d="M172.197 242.14H175.376C175.575 242.14 175.735 242.301 175.735 242.499V244.117C175.735 244.316 175.575 244.476 175.376 244.476H172.197C171.998 244.476 171.838 244.316 171.838 244.117V242.499C171.838 242.301 171.998 242.14 172.197 242.14Z" fill="#3F3D56"/>
<path d="M164.402 242.14H167.581C167.78 242.14 167.94 242.301 167.94 242.499V244.117C167.94 244.316 167.78 244.476 167.581 244.476H164.402C164.204 244.476 164.043 244.316 164.043 244.117V242.499C164.043 242.301 164.204 242.14 164.402 242.14Z" fill="#3F3D56"/>
<path d="M156.607 242.14H159.786C159.985 242.14 160.146 242.301 160.146 242.499V244.117C160.146 244.316 159.985 244.476 159.786 244.476H156.607C156.409 244.476 156.248 244.316 156.248 244.117V242.499C156.248 242.301 156.409 242.14 156.607 242.14Z" fill="#3F3D56"/>
<path d="M148.812 242.14H151.991C152.19 242.14 152.351 242.301 152.351 242.499V244.117C152.351 244.316 152.19 244.476 151.991 244.476H148.812C148.614 244.476 148.453 244.316 148.453 244.117V242.499C148.453 242.301 148.614 242.14 148.812 242.14Z" fill="#3F3D56"/>
<path d="M201.037 246.813H231.497C231.696 246.813 231.856 246.974 231.856 247.172V248.79C231.856 248.988 231.696 249.149 231.497 249.149H201.037C200.839 249.149 200.678 248.988 200.678 248.79V247.172C200.678 246.974 200.839 246.813 201.037 246.813Z" fill="#3F3D56"/>
<path d="M2.52142 441.76L586.479 442C587.871 442 589 441.585 589 441.073C589 440.561 587.871 440.146 586.479 440.146L2.52142 439.907C1.12897 439.907 0 440.322 0 440.834C0 441.346 1.12897 441.76 2.52142 441.76Z" fill="#F2F2F2"/>
<path d="M100.322 42.8089V185.026C100.323 186.019 100.718 186.971 101.421 187.673C102.124 188.375 103.077 188.77 104.071 188.772H179.071C187.368 181.084 194.175 171.934 199.151 161.78C199.478 161.126 199.79 160.464 200.086 159.794C204.62 149.966 207.365 139.408 208.193 128.618C208.247 127.956 208.294 127.294 208.325 126.624C208.427 124.911 208.473 123.174 208.473 121.43C208.487 109.829 206.295 98.3299 202.011 87.5465C201.753 86.8766 201.481 86.2149 201.201 85.5531C192.58 65.3156 177.001 48.8236 157.278 39.0537H104.071C103.076 39.0559 102.123 39.4518 101.421 40.1547C100.718 40.8576 100.323 41.8103 100.322 42.8038V42.8089Z" fill="#F6821F"/>
<path d="M114.763 58.6472H313.78C313.99 58.6472 314.191 58.5639 314.339 58.4156C314.488 58.2672 314.571 58.0661 314.571 57.8564C314.571 57.6466 314.488 57.4455 314.339 57.2972C314.191 57.1489 313.99 57.0656 313.78 57.0656H114.763C114.553 57.0656 114.351 57.1489 114.203 57.2972C114.054 57.4455 113.971 57.6466 113.971 57.8564C113.971 58.0661 114.054 58.2672 114.203 58.4156C114.351 58.5639 114.553 58.6472 114.763 58.6472Z" fill="#CACACA"/>
<path d="M300.232 53.0324C297.67 53.0324 295.594 50.9114 295.594 48.2949C295.594 45.6785 297.67 43.5574 300.232 43.5574C302.794 43.5574 304.87 45.6785 304.87 48.2949C304.87 50.9114 302.794 53.0324 300.232 53.0324Z" fill="#090814"/>
<path d="M284.21 53.0324C281.648 53.0324 279.571 50.9114 279.571 48.2949C279.571 45.6785 281.648 43.5574 284.21 43.5574C286.771 43.5574 288.848 45.6785 288.848 48.2949C288.848 50.9114 286.771 53.0324 284.21 53.0324Z" fill="#090814"/>
<path d="M268.186 53.0324C265.625 53.0324 263.548 50.9114 263.548 48.2949C263.548 45.6785 265.625 43.5574 268.186 43.5574C270.748 43.5574 272.824 45.6785 272.824 48.2949C272.824 50.9114 270.748 53.0324 268.186 53.0324Z" fill="#090814"/>
<path d="M124.41 44.7309H135.79C136.018 44.7309 136.237 44.8217 136.399 44.9831C136.561 45.1446 136.651 45.3636 136.651 45.592C136.651 45.8203 136.561 46.0393 136.399 46.2008C136.237 46.3623 136.018 46.453 135.79 46.453H124.408C124.179 46.453 123.96 46.3623 123.798 46.2008C123.637 46.0393 123.546 45.8203 123.546 45.592C123.546 45.3636 123.637 45.1446 123.798 44.9831C123.96 44.8217 124.179 44.7309 124.408 44.7309H124.41Z" fill="#090814"/>
<path d="M124.41 47.9626H135.79C136.018 47.9626 136.237 48.0533 136.399 48.2148C136.561 48.3762 136.651 48.5952 136.651 48.8236C136.651 49.052 136.561 49.271 136.399 49.4325C136.237 49.5939 136.018 49.6846 135.79 49.6846H124.408C124.179 49.6846 123.96 49.5939 123.798 49.4325C123.637 49.271 123.546 49.052 123.546 48.8236C123.546 48.5952 123.637 48.3762 123.798 48.2148C123.96 48.0533 124.179 47.9626 124.408 47.9626H124.41Z" fill="#090814"/>
<path d="M124.41 51.1905H135.79C136.018 51.1905 136.237 51.2812 136.399 51.4427C136.561 51.6042 136.651 51.8232 136.651 52.0516C136.651 52.2799 136.561 52.4989 136.399 52.6604C136.237 52.8219 136.018 52.9126 135.79 52.9126H124.408C124.179 52.9126 123.96 52.8219 123.798 52.6604C123.637 52.4989 123.546 52.2799 123.546 52.0516C123.546 51.8232 123.637 51.6042 123.798 51.4427C123.96 51.2812 124.179 51.1905 124.408 51.1905H124.41Z" fill="#090814"/>
<path d="M254.135 104.844H279.381C281.144 104.844 282.574 106.272 282.574 108.034V108.411C282.574 110.173 281.144 111.602 279.381 111.602H254.135C252.371 111.602 250.942 110.173 250.942 108.411V108.034C250.942 106.272 252.371 104.844 254.135 104.844Z" fill="#F6821F"/>
<path d="M238.071 118.36H295.446C297.21 118.36 298.64 119.789 298.64 121.551V121.928C298.64 123.69 297.21 125.119 295.446 125.119H238.071C236.307 125.119 234.877 123.69 234.877 121.928V121.551C234.877 119.789 236.307 118.36 238.071 118.36Z" fill="#E6E6E6"/>
<path d="M238.071 131.876H295.446C297.21 131.876 298.64 133.304 298.64 135.066V135.444C298.64 137.206 297.21 138.634 295.446 138.634H238.071C236.307 138.634 234.877 137.206 234.877 135.444V135.066C234.877 133.304 236.307 131.876 238.071 131.876Z" fill="#E6E6E6"/>
<path d="M293.435 180.618C293.43 183.402 293.927 186.163 294.9 188.772H316.765C317.759 188.77 318.712 188.375 319.414 187.673C320.117 186.971 320.513 186.019 320.514 185.026V157.551C319.292 157.354 318.057 157.256 316.819 157.257C313.748 157.257 310.707 157.861 307.87 159.035C305.033 160.209 302.455 161.93 300.283 164.1C298.112 166.27 296.39 168.845 295.215 171.68C294.04 174.515 293.435 177.553 293.435 180.621V180.618Z" fill="#F6821F"/>
<path opacity="0.2" d="M100.126 87.5509V85.5575H133.573V62.4501H135.56V85.556H173.896V62.4501H175.883V85.556H201.2C201.48 86.2178 201.754 86.8796 202.01 87.5494H175.883V126.627H208.324C208.293 127.297 208.246 127.959 208.192 128.621H175.883V159.797H200.086C199.791 160.467 199.48 161.129 199.15 161.783H175.883V187.988H173.896V161.78H135.562V187.986H133.575V161.78H100.128V159.795H133.573V128.619H100.126V126.625H133.573V87.5509H100.126ZM135.561 159.796H173.896V128.619H135.561V159.796ZM135.561 126.629H173.896V87.5509H135.561V126.629Z" fill="black"/>
<path d="M127.057 174.017C127.483 174.037 127.906 173.925 128.267 173.697C128.628 173.469 128.91 173.135 129.075 172.741C129.239 172.347 129.279 171.912 129.188 171.495C129.097 171.078 128.88 170.699 128.566 170.41L128.423 169.843L128.48 169.707C128.91 168.692 129.63 167.827 130.55 167.221C131.47 166.614 132.549 166.292 133.652 166.296C134.754 166.301 135.831 166.63 136.747 167.244C137.662 167.857 138.376 168.728 138.798 169.745C140.486 173.806 142.634 177.874 143.163 182.167C143.396 184.065 143.298 185.989 142.873 187.853C146.836 179.215 148.894 169.826 148.908 160.323C148.908 157.938 148.776 155.555 148.51 153.186C148.291 151.243 147.986 149.314 147.597 147.399C145.472 137.008 140.911 127.268 134.287 118.98C131.082 117.233 128.489 114.545 126.859 111.28C126.269 110.107 125.851 108.854 125.62 107.56C125.981 107.608 126.349 107.634 126.711 107.661L127.054 107.679H127.097C127.495 107.697 127.889 107.601 128.233 107.4C128.577 107.199 128.855 106.903 129.034 106.548C129.213 106.193 129.286 105.793 129.242 105.398C129.199 105.003 129.042 104.628 128.79 104.32L128.321 103.744C128.084 103.45 127.84 103.156 127.603 102.862C127.577 102.834 127.553 102.804 127.53 102.773C127.257 102.435 126.984 102.104 126.711 101.766C127.209 100.994 127.879 100.348 128.668 99.8766C131.401 98.2774 135.171 99.3847 137.145 101.855C139.119 104.324 139.5 107.789 138.812 110.875C138.135 113.501 137.017 115.993 135.503 118.244C135.651 118.433 135.806 118.616 135.954 118.806C138.663 122.287 141.025 126.024 143.004 129.965C142.523 125.55 143.097 121.084 144.681 116.934C146.285 113.066 149.293 109.81 151.942 106.466C155.124 102.45 161.647 104.203 162.207 109.294C162.213 109.343 162.218 109.392 162.223 109.441C161.831 109.662 161.446 109.897 161.068 110.147C160.595 110.462 160.228 110.914 160.016 111.442C159.804 111.969 159.756 112.549 159.879 113.104C160.003 113.659 160.291 114.164 160.706 114.553C161.121 114.942 161.645 115.197 162.207 115.283L162.265 115.292C162.124 116.709 161.877 118.112 161.524 119.491C160.5 123.341 158.692 126.938 156.212 130.057C153.732 133.176 150.634 135.749 147.112 137.616C146.881 137.734 146.655 137.852 146.424 137.965C148.413 143.596 149.661 149.462 150.136 155.414C150.405 158.926 150.389 162.454 150.088 165.963L150.106 165.839C150.865 161.936 152.948 158.415 156.004 155.87C160.544 152.144 166.957 150.772 171.854 147.778C172.375 147.444 172.98 147.266 173.599 147.264C174.217 147.263 174.823 147.438 175.346 147.769C175.868 148.101 176.284 148.574 176.546 149.134C176.807 149.695 176.903 150.318 176.821 150.93C176.815 150.974 176.808 151.018 176.801 151.061C176.071 151.358 175.361 151.701 174.673 152.086C174.281 152.308 173.895 152.543 173.518 152.792C173.044 153.108 172.678 153.56 172.466 154.087C172.253 154.615 172.206 155.195 172.329 155.75C172.452 156.305 172.74 156.81 173.156 157.199C173.571 157.588 174.094 157.842 174.657 157.929L174.714 157.938L174.833 157.955C173.585 160.931 171.835 163.67 169.657 166.052C166.968 168.935 163.717 171.24 160.104 172.823C156.491 174.407 152.592 175.237 148.647 175.262H148.641C147.57 179.912 146.019 184.437 144.011 188.766H127.471C127.411 188.583 127.358 188.393 127.305 188.21C128.836 188.306 130.373 188.215 131.882 187.938C130.655 186.433 129.427 184.917 128.202 183.413C128.176 183.385 128.151 183.355 128.128 183.324C127.506 182.554 126.877 181.79 126.255 181.02C126.223 178.66 126.495 176.305 127.065 174.014L127.057 174.017ZM145.998 136.791L145.989 136.78L145.998 136.803V136.791ZM149.66 169.789L149.802 169.469C149.797 169.238 149.797 169.007 149.802 168.769C149.802 168.704 149.814 168.639 149.814 168.574C149.761 168.983 149.713 169.391 149.654 169.8L149.66 169.789Z" fill="#090814"/>
<path d="M458.902 64.4928L459.086 62.6939L456.621 50.3079L438.76 51.4404L438.264 67.608L458.902 64.4928Z" fill="#ED9DA0"/>
<path d="M423.88 30.3103C425.505 22.3655 426.285 18.2956 432.196 12.675C433.598 12.8736 431.828 20.1383 439.556 30.2581C450.793 44.9692 449.672 31.4809 452.995 36.0126C453.717 36.9964 453.873 40.5457 453.636 41.767C452.699 46.592 447.159 41.881 452.995 58.3913C453.864 59.6751 454.888 59.3633 456.195 59.3472C456.296 59.3472 455.634 59.22 458.115 58.7075C459.3 58.4633 460.958 58.1744 462.945 57.8398C486.032 53.9538 494.185 24.8493 476.34 9.70737C472.279 6.26251 468.295 3.65148 464.835 2.44118C454.412 -1.19927 430.672 1.16765 426.116 12.9949C423.969 18.4984 423.202 24.4429 423.882 30.3103H423.88Z" fill="#090814" stroke="black" stroke-width="2"/>
<path d="M471.431 77.0288C462.337 77.0288 454.965 69.6636 454.965 60.5781C454.965 51.4925 462.337 44.1273 471.431 44.1273C480.524 44.1273 487.896 51.4925 487.896 60.5781C487.896 69.6636 480.524 77.0288 471.431 77.0288Z" fill="#090814" stroke="black" stroke-width="2"/>
<path d="M449.63 56.4501C447.183 56.4501 444.836 55.4788 443.105 53.75C441.375 52.0211 440.403 49.6763 440.403 47.2313C440.403 44.7863 441.375 42.4415 443.105 40.7127C444.836 38.9838 447.183 38.0126 449.63 38.0126V39.2427C447.651 39.2443 445.743 39.9798 444.275 41.3068C442.808 42.6337 441.886 44.4575 441.688 46.4249C441.489 48.3922 442.029 50.3631 443.202 51.9556C444.376 53.548 446.099 54.6488 448.038 55.0445C449.977 55.4402 451.994 55.1027 453.698 54.0974C455.402 53.0922 456.672 51.4906 457.262 49.6032C457.852 47.7157 457.72 45.6767 456.891 43.8812C456.062 42.0857 454.595 40.6615 452.775 39.8846L453.26 38.7537C455.215 39.5892 456.821 41.0732 457.806 42.9549C458.792 44.8366 459.097 47.0006 458.671 49.0812C458.244 51.1617 457.111 53.0313 455.464 54.374C453.817 55.7166 451.756 56.45 449.631 56.4501H449.63Z" fill="#F6821F"/>
<path d="M412.762 381.771C412.762 381.771 403.154 376.135 402.134 386.277L400.093 406.566C400.093 406.566 385.788 422.345 398.067 422.463C410.347 422.581 427.557 399.618 427.557 399.618C427.557 399.618 440.051 381.788 435.509 379.955C430.967 378.121 417.806 369.294 418.099 372.927C418.392 376.56 412.762 381.771 412.762 381.771Z" fill="#090814"/>
</g>
<defs>
<clipPath id="clip0_84_509">
<rect width="589" height="442" fill="white" transform="matrix(-1 0 0 1 589 0)"/>
</clipPath>
</defs>
</svg>
