<svg width="355" height="269" viewBox="0 0 355 269" fill="none" xmlns="http://www.w3.org/2000/svg">
<g clip-path="url(#clip0_84_949)">
<path d="M256.08 26.8086H351.589C352.494 26.8086 353.361 27.1457 354.001 27.7458C354.641 28.3459 355 29.1599 355 30.0086V49.2075C355 50.0561 354.641 50.8701 354.001 51.4702C353.361 52.0703 352.494 52.4074 351.589 52.4074H256.08C255.175 52.4074 254.308 52.0703 253.668 51.4702C253.028 50.8701 252.669 50.0561 252.669 49.2075V30.0086C252.669 29.1599 253.028 28.3459 253.668 27.7458C254.308 27.1457 255.175 26.8086 256.08 26.8086Z" fill="#090814"/>
<path d="M256.08 27.6089H351.588C352.267 27.6089 352.918 27.8618 353.397 28.3119C353.877 28.762 354.147 29.3725 354.147 30.0091V49.2088C354.147 49.8454 353.877 50.4559 353.397 50.906C352.918 51.3561 352.267 51.609 351.588 51.609H256.08C255.401 51.609 254.751 51.3561 254.271 50.906C253.791 50.4559 253.521 49.8454 253.521 49.2088V30.0091C253.521 29.3725 253.791 28.762 254.271 28.3119C254.751 27.8618 255.401 27.6089 256.08 27.6089Z" fill="#F2F2F2"/>
<path d="M294.183 34.2085H264.933C263.571 34.2085 262.468 35.2438 262.468 36.5208V36.5212C262.468 37.7983 263.571 38.8336 264.933 38.8336H294.183C295.544 38.8336 296.648 37.7983 296.648 36.5212V36.5208C296.648 35.2438 295.544 34.2085 294.183 34.2085Z" fill="#090814"/>
<path d="M328.138 34.0088C328.644 34.0088 329.138 34.1496 329.559 34.4133C329.98 34.677 330.308 35.0519 330.501 35.4905C330.695 35.929 330.746 36.4116 330.647 36.8772C330.548 37.3428 330.304 37.7705 329.947 38.1061C329.589 38.4418 329.133 38.6704 328.637 38.763C328.14 38.8556 327.626 38.8081 327.158 38.6264C326.691 38.4448 326.291 38.1371 326.01 37.7424C325.729 37.3477 325.579 36.8837 325.579 36.409C325.579 35.7724 325.849 35.1619 326.328 34.7118C326.808 34.2617 327.459 34.0088 328.138 34.0088Z" fill="#ED862D"/>
<path d="M334.96 34.0088C335.466 34.0088 335.96 34.1496 336.381 34.4133C336.802 34.677 337.13 35.0519 337.323 35.4905C337.517 35.929 337.568 36.4116 337.469 36.8772C337.37 37.3428 337.127 37.7705 336.769 38.1061C336.411 38.4418 335.955 38.6704 335.459 38.763C334.963 38.8556 334.448 38.8081 333.981 38.6264C333.513 38.4448 333.114 38.1371 332.833 37.7424C332.551 37.3477 332.401 36.8837 332.401 36.409C332.401 35.7724 332.671 35.1619 333.151 34.7118C333.631 34.2617 334.281 34.0088 334.96 34.0088Z" fill="#ED862D"/>
<path d="M341.782 34.0088C342.288 34.0088 342.783 34.1496 343.203 34.4133C343.624 34.677 343.952 35.0519 344.146 35.4905C344.339 35.929 344.39 36.4116 344.291 36.8772C344.193 37.3428 343.949 37.7705 343.591 38.1061C343.233 38.4418 342.777 38.6704 342.281 38.763C341.785 38.8556 341.27 38.8081 340.803 38.6264C340.336 38.4448 339.936 38.1371 339.655 37.7424C339.374 37.3477 339.224 36.8837 339.224 36.409C339.224 35.7724 339.493 35.1619 339.973 34.7118C340.453 34.2617 341.104 34.0088 341.782 34.0088Z" fill="#ED862D"/>
<path d="M59.803 232.11L57.7549 269C57.7549 269 144.385 191.647 155.177 169.015C165.968 146.383 145.654 90.3975 145.654 90.3975L100.579 113.625L59.803 232.11Z" fill="#ED9DA0"/>
<path d="M192.636 74.9131L205.968 76.1042C205.968 76.1042 212.951 90.3983 191.367 91.589L192.636 74.9131Z" fill="#ED9DA0"/>
<path d="M192.636 96.9487L205.968 98.1407C205.968 98.1407 212.951 112.435 191.367 113.625L192.636 96.9487Z" fill="#ED9DA0"/>
<path d="M192.636 120.772L205.968 121.964C205.968 121.964 212.951 136.258 191.367 137.448L192.636 120.772Z" fill="#ED9DA0"/>
<path d="M188.826 144.596L202.158 145.787C202.158 145.787 209.142 160.081 187.558 161.272L188.826 144.596Z" fill="#ED9DA0"/>
<path d="M199.126 80.6544H198.115V54.6559C198.115 50.6651 196.425 46.8378 193.417 44.0159C190.409 41.194 186.329 39.6086 182.075 39.6086H123.362C119.108 39.6088 115.029 41.1941 112.021 44.016C109.013 46.8379 107.323 50.6652 107.323 54.6559V197.285C107.323 201.276 109.013 205.103 112.021 207.925C115.029 210.747 119.109 212.332 123.363 212.332H182.076C184.182 212.332 186.268 211.943 188.214 211.187C190.16 210.431 191.928 209.322 193.417 207.925C194.907 206.528 196.088 204.869 196.894 203.043C197.7 201.218 198.115 199.261 198.115 197.285V99.1605H199.127L199.126 80.6544Z" fill="#3F3D56"/>
<path d="M182.722 43.6237H175.058C175.41 44.4342 175.545 45.3136 175.45 46.1845C175.354 47.0553 175.032 47.8907 174.512 48.6173C173.991 49.3438 173.289 49.9392 172.465 50.3509C171.642 50.7626 170.723 50.9781 169.79 50.9782H136.155C135.222 50.9781 134.303 50.7628 133.479 50.3511C132.656 49.9394 131.953 49.344 131.432 48.6173C130.912 47.8907 130.59 47.0552 130.494 46.1843C130.399 45.3134 130.534 44.4339 130.886 43.6232H123.728C120.551 43.6232 117.505 44.8071 115.258 46.9143C113.012 49.0215 111.75 51.8796 111.75 54.8597V197.28C111.75 198.756 112.06 200.217 112.662 201.58C113.264 202.944 114.146 204.182 115.258 205.226C116.37 206.269 117.691 207.097 119.144 207.662C120.597 208.227 122.155 208.517 123.728 208.517H182.722C185.899 208.517 188.946 207.333 191.192 205.226C193.438 203.119 194.7 200.261 194.7 197.28V54.8589C194.7 51.8787 193.438 49.0205 191.192 46.9131C188.946 44.8057 185.899 43.6217 182.722 43.6216V43.6237Z" fill="#ED862D"/>
<path d="M0 251.323L3.92575 247.121L71.0592 175.269L73.6003 126.431L100.264 84.7392L107.882 66.8713C107.882 66.8713 125.657 68.6582 111.056 102.605L105.025 120.77C110.462 131.755 113.279 143.721 113.279 155.833V197.46C113.279 207.261 63.4908 260.651 57.6954 268.806L0 251.323Z" fill="#ED9DA0"/>
<path opacity="0.2" d="M105.791 88.2724L100.49 85.8285L100.671 85.4842L105.568 87.7428L112.962 69.5564L113.345 69.6934L105.791 88.2724Z" fill="black"/>
<path opacity="0.2" d="M198.044 78.6367L198.186 78.9973L206.038 76.2836L205.897 75.923L198.044 78.6367Z" fill="black"/>
<path opacity="0.2" d="M198.044 100.924L198.186 101.285L206.038 98.5712L205.897 98.2106L198.044 100.924Z" fill="black"/>
<path opacity="0.2" d="M198.044 124.75L198.186 125.11L206.038 122.396L205.897 122.036L198.044 124.75Z" fill="black"/>
<path opacity="0.2" d="M197.959 147.589L198.136 147.935L201.959 146.214L201.782 145.867L197.959 147.589Z" fill="black"/>
<path d="M153.225 146.617C165.379 146.617 175.232 137.373 175.232 125.97C175.232 114.567 165.379 105.324 153.225 105.324C141.07 105.324 131.217 114.567 131.217 125.97C131.217 137.373 141.07 146.617 153.225 146.617Z" fill="#F2F2F2"/>
<path d="M148.425 136.637L140.355 126.903L145.048 123.478L148.869 128.087L161.778 115.303L166.095 119.14L148.425 136.637Z" fill="#ED862D"/>
<path d="M256.08 51.803H351.589C352.494 51.803 353.361 52.1401 354.001 52.7402C354.641 53.3403 355 54.1543 355 55.0029V74.2018C355 75.0505 354.641 75.8645 354.001 76.4646C353.361 77.0647 352.494 77.4018 351.589 77.4018H256.08C255.175 77.4018 254.308 77.0647 253.668 76.4646C253.028 75.8645 252.669 75.0505 252.669 74.2018V55.0029C252.669 54.1543 253.028 53.3403 253.668 52.7402C254.308 52.1401 255.175 51.803 256.08 51.803Z" fill="#090814"/>
<path d="M256.08 52.6033H351.588C352.267 52.6033 352.918 52.8561 353.397 53.3063C353.877 53.7564 354.147 54.3669 354.147 55.0034V74.2032C354.147 74.8398 353.877 75.4503 353.397 75.9004C352.918 76.3505 352.267 76.6034 351.588 76.6034H256.08C255.401 76.6034 254.751 76.3505 254.271 75.9004C253.791 75.4503 253.521 74.8398 253.521 74.2032V55.0034C253.521 54.3669 253.791 53.7564 254.271 53.3063C254.751 52.8561 255.401 52.6033 256.08 52.6033Z" fill="#F2F2F2"/>
<path d="M294.107 59.0996H265.141C263.733 59.0996 262.593 60.1697 262.593 61.4898V61.4902C262.593 62.8103 263.733 63.8804 265.141 63.8804H294.107C295.514 63.8804 296.654 62.8103 296.654 61.4902V61.4898C296.654 60.1697 295.514 59.0996 294.107 59.0996Z" fill="#090814"/>
<path d="M328.138 59.0032C328.644 59.0032 329.138 59.1439 329.559 59.4077C329.98 59.6714 330.308 60.0463 330.501 60.4848C330.695 60.9234 330.746 61.406 330.647 61.8716C330.548 62.3372 330.304 62.7649 329.947 63.1005C329.589 63.4362 329.133 63.6648 328.637 63.7574C328.14 63.85 327.626 63.8025 327.158 63.6208C326.691 63.4392 326.291 63.1315 326.01 62.7368C325.729 62.3421 325.579 61.8781 325.579 61.4033C325.579 60.7668 325.849 60.1563 326.328 59.7062C326.808 59.256 327.459 59.0032 328.138 59.0032Z" fill="#ED862D"/>
<path d="M334.96 59.0032C335.466 59.0032 335.96 59.1439 336.381 59.4077C336.802 59.6714 337.13 60.0463 337.323 60.4848C337.517 60.9234 337.568 61.406 337.469 61.8716C337.37 62.3372 337.127 62.7649 336.769 63.1005C336.411 63.4362 335.955 63.6648 335.459 63.7574C334.963 63.85 334.448 63.8025 333.981 63.6208C333.513 63.4392 333.114 63.1315 332.833 62.7368C332.551 62.3421 332.401 61.8781 332.401 61.4033C332.401 60.7668 332.671 60.1563 333.151 59.7062C333.631 59.256 334.281 59.0032 334.96 59.0032Z" fill="#ED862D"/>
<path d="M341.782 59.0032C342.288 59.0032 342.783 59.1439 343.203 59.4077C343.624 59.6714 343.952 60.0463 344.146 60.4848C344.339 60.9234 344.39 61.406 344.291 61.8716C344.193 62.3372 343.949 62.7649 343.591 63.1005C343.233 63.4362 342.777 63.6648 342.281 63.7574C341.785 63.85 341.27 63.8025 340.803 63.6208C340.336 63.4392 339.936 63.1315 339.655 62.7368C339.374 62.3421 339.224 61.8781 339.224 61.4033C339.224 60.7668 339.493 60.1563 339.973 59.7062C340.453 59.256 341.104 59.0032 341.782 59.0032Z" fill="#ED862D"/>
<path d="M256.08 76.9036H351.589C352.494 76.9036 353.361 77.2407 354.001 77.8408C354.641 78.4409 355 79.2548 355 80.1035V99.3024C355 100.151 354.641 100.965 354.001 101.565C353.361 102.165 352.494 102.502 351.589 102.502H256.08C255.175 102.502 254.308 102.165 253.668 101.565C253.028 100.965 252.669 100.151 252.669 99.3024V80.1035C252.669 79.2548 253.028 78.4409 253.668 77.8408C254.308 77.2407 255.175 76.9036 256.08 76.9036Z" fill="#090814"/>
<path d="M256.08 77.7039H351.588C352.267 77.7039 352.918 77.9567 353.397 78.4069C353.877 78.857 354.147 79.4675 354.147 80.104V99.3038C354.147 99.9403 353.877 100.551 353.397 101.001C352.918 101.451 352.267 101.704 351.588 101.704H256.08C255.401 101.704 254.751 101.451 254.271 101.001C253.791 100.551 253.521 99.9403 253.521 99.3038V80.104C253.521 79.4675 253.791 78.857 254.271 78.4069C254.751 77.9567 255.401 77.7039 256.08 77.7039Z" fill="#F2F2F2"/>
<path d="M294.107 84.2002H265.141C263.733 84.2002 262.593 85.2703 262.593 86.5904V86.5908C262.593 87.9109 263.733 88.981 265.141 88.981H294.107C295.514 88.981 296.654 87.9109 296.654 86.5908V86.5904C296.654 85.2703 295.514 84.2002 294.107 84.2002Z" fill="#090814"/>
<path d="M328.138 84.1038C328.644 84.1038 329.138 84.2445 329.559 84.5083C329.98 84.772 330.308 85.1469 330.501 85.5854C330.695 86.024 330.746 86.5066 330.647 86.9722C330.548 87.4378 330.304 87.8654 329.947 88.2011C329.589 88.5368 329.133 88.7654 328.637 88.858C328.14 88.9506 327.626 88.9031 327.158 88.7214C326.691 88.5397 326.291 88.2321 326.01 87.8374C325.729 87.4427 325.579 86.9786 325.579 86.5039C325.579 85.8674 325.849 85.2569 326.328 84.8068C326.808 84.3566 327.459 84.1038 328.138 84.1038Z" fill="#ED862D"/>
<path d="M334.96 84.1038C335.466 84.1038 335.96 84.2445 336.381 84.5083C336.802 84.772 337.13 85.1469 337.323 85.5854C337.517 86.024 337.568 86.5066 337.469 86.9722C337.37 87.4378 337.127 87.8654 336.769 88.2011C336.411 88.5368 335.955 88.7654 335.459 88.858C334.963 88.9506 334.448 88.9031 333.981 88.7214C333.513 88.5397 333.114 88.2321 332.833 87.8374C332.551 87.4427 332.401 86.9786 332.401 86.5039C332.401 85.8674 332.671 85.2569 333.151 84.8068C333.631 84.3566 334.281 84.1038 334.96 84.1038Z" fill="#ED862D"/>
<path d="M341.782 84.1038C342.288 84.1038 342.783 84.2445 343.203 84.5083C343.624 84.772 343.952 85.1469 344.146 85.5854C344.339 86.024 344.39 86.5066 344.291 86.9722C344.193 87.4378 343.949 87.8654 343.591 88.2011C343.233 88.5368 342.777 88.7654 342.281 88.858C341.785 88.9506 341.27 88.9031 340.803 88.7214C340.336 88.5397 339.936 88.2321 339.655 87.8374C339.374 87.4427 339.224 86.9786 339.224 86.5039C339.224 85.8674 339.493 85.2569 339.973 84.8068C340.453 84.3566 341.104 84.1038 341.782 84.1038Z" fill="#ED862D"/>
<path d="M149.083 28.0577H148.426V24.3556H149.083V28.0577ZM149.083 20.6578H148.426V16.9578H149.083V20.6578ZM279.23 16.9578H278.573V13.2578H279.23V16.9578ZM149.083 13.2578H148.426V9.55824H149.083V13.2578ZM279.23 9.55782H278.573V5.85826H279.23V9.55782ZM149.083 5.85826H148.426V2.15829H149.083V5.85826ZM279.23 2.15829H278.573V0.617842H276.931V0H279.232L279.23 2.15829ZM272.986 0.617842H269.042V0H272.986V0.617842ZM265.098 0.617842H261.154V0H265.098V0.617842ZM257.21 0.617842H253.266V0H257.21V0.617842ZM249.322 0.617842H245.378V0H249.322V0.617842ZM241.434 0.617842H237.49V0H241.434V0.617842ZM233.546 0.617842H229.603V0H233.547L233.546 0.617842ZM225.659 0.617842H221.715V0H225.659V0.617842ZM217.771 0.617842H213.827V0H217.771V0.617842ZM209.883 0.617842H205.939V0H209.883V0.617842ZM201.995 0.617842H198.051V0H201.995V0.617842ZM194.107 0.617842H190.163V0H194.109L194.107 0.617842ZM186.219 0.617842H182.275V0H186.219V0.617842ZM178.331 0.617842H174.387V0H178.331V0.617842ZM170.443 0.617842H166.499V0H170.443V0.617842ZM162.556 0.617842H158.612V0H162.556L162.556 0.617842ZM154.668 0.617842H150.724V0H154.668V0.617842Z" fill="#090814"/>
<path d="M279.231 137.449H277.916V136.832H278.574V134.366H279.231V137.449ZM273.972 137.449H270.028V136.832H273.972L273.972 137.449ZM266.085 137.449H262.141V136.832H266.085V137.449ZM258.197 137.449H254.253V136.832H258.197V137.449ZM250.309 137.449H246.365V136.832H250.309V137.449ZM242.421 137.449H238.477V136.832H242.421V137.449ZM234.533 137.449H230.589V136.832H234.533V137.449ZM226.645 137.449H222.702V136.832H226.646L226.645 137.449ZM279.23 130.666H278.573V126.966H279.23V130.666ZM279.23 123.266H278.573V119.566H279.23V123.266ZM279.23 115.866H278.573V112.166H279.23V115.866Z" fill="#090814"/>
</g>
<defs>
<clipPath id="clip0_84_949">
<rect width="355" height="269" fill="white"/>
</clipPath>
</defs>
</svg>
