<svg width="289" height="455" viewBox="0 0 289 455" fill="none" xmlns="http://www.w3.org/2000/svg">
<path d="M203.149 295.015C202.834 299.731 202.519 304.443 202.204 309.151C201.773 319.01 200.699 328.832 198.991 338.551C197.39 346.683 194.845 354.75 190.294 361.673C185.742 368.583 178.987 374.297 170.985 376.399C166.072 377.579 160.964 377.69 156.004 376.727C146.651 371.407 140.315 378.212 149.655 385.135C151.774 386.704 153.977 388.155 156.254 389.483L160.491 454.999L81.7835 437.921L97.1444 350.77C94.7915 348.629 92.6398 346.276 90.7165 343.741C81.9145 332.036 78.8848 316.783 79.4617 302.149C80.052 287.501 83.948 273.221 87.8178 259.098C88.8046 255.267 89.9957 251.491 91.386 247.787C93.104 248.497 94.8489 249.141 96.6199 249.679C107.94 253.119 119.97 253.397 131.801 253.384C152.855 253.371 173.883 252.548 194.884 250.914C199.71 258.872 202.641 267.835 203.45 277.11C203.789 283.078 203.688 289.063 203.149 295.016V295.015Z" fill="#CCCCCC"/>
<path d="M202.718 282.969C200.554 295.815 202.455 309.018 208.155 320.728C210.265 325.035 212.877 330.224 210.309 334.274C209.588 335.286 208.65 336.124 207.564 336.727C206.479 337.329 205.272 337.681 204.033 337.757C201.554 337.888 199.072 337.566 196.709 336.807" fill="#CCCCCC"/>
<path d="M119.825 295.383C119.835 298.793 119.398 302.19 118.526 305.486V305.499C118.513 305.565 118.486 305.63 118.474 305.696C115.824 315.457 109.502 322.313 102.114 322.313C94.7682 322.313 88.4718 315.508 85.7827 305.826C85.5988 305.156 85.4416 304.485 85.2972 303.79C85.1132 303.015 84.9694 302.216 84.8513 301.386C84.7465 300.729 84.6673 300.059 84.6021 299.376C84.5101 298.431 84.4449 297.484 84.4315 296.499V296.486C84.4053 296.118 84.4053 295.75 84.4053 295.382V295.054L84.4187 295.04C84.4202 293.375 84.5298 291.712 84.7465 290.061C84.8385 289.365 84.9432 288.695 85.0742 288.025C85.2314 287.209 85.402 286.409 85.6122 285.621C85.7828 284.925 85.9795 284.255 86.1897 283.585C86.4808 282.692 86.7934 281.825 87.1474 280.997C87.3704 280.458 87.6067 279.933 87.8425 279.423C91.0696 272.776 96.2638 268.453 102.115 268.453C110.207 268.453 117.03 276.717 119.141 287.985C119.168 288.156 119.207 288.327 119.22 288.498V288.511C119.625 290.779 119.827 293.079 119.825 295.383Z" fill="#E6E6E6"/>
<path d="M88.0151 280C88.0078 280.24 87.9176 280.471 87.7598 280.653C87.6021 280.835 87.3865 280.957 87.1494 280.998C87.3724 280.459 87.6082 279.934 87.8445 279.424C87.9537 279.596 88.0127 279.795 88.0151 280Z" fill="#ED862D"/>
<path d="M104.091 278.803H91.4123C91.1625 278.803 90.96 279.006 90.96 279.256V280.393C90.96 280.643 91.1625 280.846 91.4123 280.846H104.091C104.34 280.846 104.543 280.643 104.543 280.393V279.256C104.543 279.006 104.34 278.803 104.091 278.803Z" fill="#ED862D"/>
<path d="M87.6616 284.597C87.6613 284.869 87.5534 285.13 87.3615 285.322C87.1696 285.514 86.9095 285.622 86.6381 285.622H85.6152C85.7858 284.926 85.9826 284.256 86.1922 283.586H86.6381C86.9073 283.586 87.1658 283.692 87.3575 283.881C87.5491 284.07 87.6584 284.328 87.6616 284.597Z" fill="#ED862D"/>
<path d="M93.2303 283.583H90.2385C89.9887 283.583 89.7861 283.786 89.7861 284.037V285.173C89.7861 285.423 89.9887 285.626 90.2385 285.626H93.2303C93.4802 285.626 93.6827 285.423 93.6827 285.173V284.037C93.6827 283.786 93.4802 283.583 93.2303 283.583Z" fill="#ED862D"/>
<path d="M109.756 283.414H97.0774C96.8275 283.414 96.625 283.617 96.625 283.867V285.003C96.625 285.254 96.8275 285.456 97.0774 285.456H109.756C110.005 285.456 110.208 285.254 110.208 285.003V283.867C110.208 283.617 110.005 283.414 109.756 283.414Z" fill="#ED862D"/>
<path d="M92.8749 288.191H89.883C89.6332 288.191 89.4307 288.394 89.4307 288.644V289.781C89.4307 290.031 89.6332 290.234 89.883 290.234H92.8749C93.1247 290.234 93.3272 290.031 93.3272 289.781V288.644C93.3272 288.394 93.1247 288.191 92.8749 288.191Z" fill="#ED862D"/>
<path d="M98.8944 288.191H95.9026C95.6527 288.191 95.4502 288.394 95.4502 288.644V289.781C95.4502 290.031 95.6527 290.234 95.9026 290.234H98.8944C99.1442 290.234 99.3468 290.031 99.3468 289.781V288.644C99.3468 288.394 99.1442 288.191 98.8944 288.191Z" fill="#ED862D"/>
<path d="M87.5554 289.038C87.555 289.31 87.4471 289.57 87.2552 289.762C87.0634 289.955 86.8032 290.063 86.5319 290.063H84.748C84.84 289.367 84.9449 288.697 85.0758 288.027H86.5313C86.665 288.026 86.7976 288.051 86.9215 288.101C87.0454 288.151 87.1582 288.225 87.2534 288.319C87.3485 288.413 87.4241 288.525 87.4758 288.649C87.5276 288.772 87.5544 288.905 87.5548 289.039L87.5554 289.038Z" fill="#ED862D"/>
<path d="M115.421 288.022H102.742C102.493 288.022 102.29 288.225 102.29 288.475V289.612C102.29 289.862 102.493 290.065 102.742 290.065H115.421C115.67 290.065 115.873 289.862 115.873 289.612V288.475C115.873 288.225 115.67 288.022 115.421 288.022Z" fill="#ED862D"/>
<path d="M88.015 295.764C88.0145 295.898 87.9877 296.03 87.9359 296.154C87.8841 296.277 87.8086 296.389 87.7134 296.483C87.6183 296.577 87.5055 296.651 87.3816 296.701C87.2578 296.752 87.1252 296.777 86.9915 296.775H85.1419C84.8794 296.777 84.6262 296.678 84.4334 296.5V296.486C84.4072 296.118 84.4072 295.75 84.4072 295.383V295.054L84.4206 295.04C84.5147 294.944 84.627 294.868 84.7509 294.816C84.8747 294.765 85.0077 294.738 85.1419 294.738H86.9915C87.263 294.739 87.5232 294.847 87.7151 295.039C87.907 295.231 88.0148 295.492 88.015 295.764Z" fill="#CCCCCC"/>
<path d="M104.091 294.568H91.4123C91.1625 294.568 90.96 294.77 90.96 295.021V296.157C90.96 296.407 91.1625 296.61 91.4123 296.61H104.091C104.34 296.61 104.543 296.407 104.543 296.157V295.021C104.543 294.77 104.34 294.568 104.091 294.568Z" fill="#CCCCCC"/>
<path d="M87.6619 300.362C87.6616 300.634 87.5537 300.894 87.3618 301.086C87.1699 301.278 86.9098 301.387 86.6385 301.387H84.8546C84.7498 300.73 84.6713 300.06 84.6055 299.377C84.6641 299.356 84.7266 299.347 84.7889 299.351H86.6385C86.9076 299.35 87.1661 299.456 87.3578 299.646C87.5494 299.835 87.6587 300.092 87.6619 300.362Z" fill="#CCCCCC"/>
<path d="M93.2303 299.348H90.2385C89.9887 299.348 89.7861 299.551 89.7861 299.801V300.937C89.7861 301.187 89.9887 301.39 90.2385 301.39H93.2303C93.4802 301.39 93.6827 301.187 93.6827 300.937V299.801C93.6827 299.551 93.4802 299.348 93.2303 299.348Z" fill="#CCCCCC"/>
<path d="M109.756 299.178H97.0774C96.8275 299.178 96.625 299.381 96.625 299.631V300.768C96.625 301.018 96.8275 301.221 97.0774 301.221H109.756C110.005 301.221 110.208 301.018 110.208 300.768V299.631C110.208 299.381 110.005 299.178 109.756 299.178Z" fill="#CCCCCC"/>
<path d="M92.8749 303.956H89.883C89.6332 303.956 89.4307 304.159 89.4307 304.409V305.546C89.4307 305.796 89.6332 305.999 89.883 305.999H92.8749C93.1247 305.999 93.3272 305.796 93.3272 305.546V304.409C93.3272 304.159 93.1247 303.956 92.8749 303.956Z" fill="#CCCCCC"/>
<path d="M98.8944 303.956H95.9026C95.6527 303.956 95.4502 304.159 95.4502 304.409V305.546C95.4502 305.796 95.6527 305.999 95.9026 305.999H98.8944C99.1442 305.999 99.3468 305.796 99.3468 305.546V304.409C99.3468 304.159 99.1442 303.956 98.8944 303.956Z" fill="#CCCCCC"/>
<path d="M87.5548 304.802C87.5545 305.074 87.4466 305.334 87.2549 305.527C87.0631 305.719 86.8031 305.827 86.5319 305.827H85.7844C85.601 305.157 85.4432 304.486 85.2988 303.791H86.5337C86.6673 303.79 86.7999 303.815 86.9237 303.865C87.0476 303.916 87.1604 303.99 87.2555 304.084C87.3507 304.178 87.4263 304.29 87.478 304.413C87.5298 304.537 87.5567 304.669 87.5571 304.803L87.5548 304.802Z" fill="#CCCCCC"/>
<path d="M115.421 303.787H102.742C102.493 303.787 102.29 303.99 102.29 304.24V305.376C102.29 305.626 102.493 305.829 102.742 305.829H115.421C115.67 305.829 115.873 305.626 115.873 305.376V304.24C115.873 303.99 115.67 303.787 115.421 303.787Z" fill="#CCCCCC"/>
<path d="M188.607 94.1221H106.431L65.3428 165.394L106.431 236.666H188.607L229.695 165.394L188.607 94.1221Z" fill="#ED862D"/>
<path d="M113.308 224.735H181.728L215.938 165.395L181.728 106.054H113.308L79.0996 165.394L113.308 224.735Z" fill="white"/>
<path d="M121.99 105.965H121.1V142.765H121.99V105.965Z" fill="#3F3D56"/>
<path d="M121.545 147.418C122.945 147.418 124.079 146.282 124.079 144.88C124.079 143.479 122.945 142.342 121.545 142.342C120.145 142.342 119.011 143.479 119.011 144.88C119.011 146.282 120.145 147.418 121.545 147.418Z" fill="#ED862D"/>
<path d="M140.996 105.965H140.105V142.765H140.996V105.965Z" fill="#3F3D56"/>
<path d="M140.551 147.418C141.95 147.418 143.085 146.282 143.085 144.88C143.085 143.479 141.95 142.342 140.551 142.342C139.151 142.342 138.017 143.479 138.017 144.88C138.017 146.282 139.151 147.418 140.551 147.418Z" fill="#3F3D56"/>
<path d="M174.361 105.965H173.471V142.765H174.361V105.965Z" fill="#3F3D56"/>
<path d="M173.917 147.418C175.317 147.418 176.451 146.282 176.451 144.88C176.451 143.479 175.317 142.342 173.917 142.342C172.517 142.342 171.383 143.479 171.383 144.88C171.383 146.282 172.517 147.418 173.917 147.418Z" fill="#3F3D56"/>
<path d="M159.979 183.794C161.378 183.794 162.513 182.658 162.513 181.256C162.513 179.854 161.378 178.718 159.979 178.718C158.579 178.718 157.444 179.854 157.444 181.256C157.444 182.658 158.579 183.794 159.979 183.794Z" fill="#3F3D56"/>
<path d="M108.451 160.53C109.851 160.53 110.985 159.394 110.985 157.992C110.985 156.591 109.851 155.454 108.451 155.454C107.052 155.454 105.917 156.591 105.917 157.992C105.917 159.394 107.052 160.53 108.451 160.53Z" fill="#3F3D56"/>
<path d="M160.424 179.141H159.534V134.798H140.55V133.906H160.423L160.424 179.141Z" fill="#3F3D56"/>
<path d="M127.458 199.868C128.858 199.868 129.992 198.731 129.992 197.33C129.992 195.928 128.858 194.792 127.458 194.792C126.058 194.792 124.924 195.928 124.924 197.33C124.924 198.731 126.058 199.868 127.458 199.868Z" fill="#ED862D"/>
<path d="M127.903 195.214H127.013V150.87H108.029V149.979H127.903V195.214Z" fill="#3F3D56"/>
<path d="M186.165 179.987C187.565 179.987 188.699 178.85 188.699 177.449C188.699 176.047 187.565 174.911 186.165 174.911C184.765 174.911 183.631 176.047 183.631 177.449C183.631 178.85 184.765 179.987 186.165 179.987Z" fill="#ED862D"/>
<path d="M186.61 175.334H185.72V130.991H173.494V130.099H186.61L186.61 175.334Z" fill="#3F3D56"/>
<path d="M108.897 155.454H108.007V133.406H121.545V134.298H108.897V155.454Z" fill="#3F3D56"/>
<path d="M140.762 209.807C142.161 209.807 143.296 208.671 143.296 207.269C143.296 205.868 142.161 204.731 140.762 204.731C139.362 204.731 138.228 205.868 138.228 207.269C138.228 208.671 139.362 209.807 140.762 209.807Z" fill="#3F3D56"/>
<path d="M141.206 204.731H140.316V183.575H127.668V182.682H141.206V204.731Z" fill="#3F3D56"/>
<path d="M173.072 190.985C174.472 190.985 175.607 189.848 175.607 188.447C175.607 187.045 174.472 185.909 173.072 185.909C171.673 185.909 170.538 187.045 170.538 188.447C170.538 189.848 171.673 190.985 173.072 190.985Z" fill="#3F3D56"/>
<path d="M173.518 185.909H172.628V163.861H186.166V164.753H173.518V185.909Z" fill="#3F3D56"/>
<path d="M58.8957 37.1008C58.6205 37.101 58.3566 37.2106 58.1619 37.4055C57.9673 37.6004 57.8579 37.8647 57.8577 38.1404V71.398C57.8544 71.5365 57.8788 71.6743 57.9295 71.8033C57.9802 71.9322 58.0561 72.0498 58.1528 72.1489C58.2495 72.2481 58.365 72.3269 58.4925 72.3806C58.6201 72.4344 58.7571 72.4622 58.8955 72.4622C59.0338 72.4622 59.1708 72.4344 59.2984 72.3806C59.4259 72.3269 59.5414 72.2481 59.6381 72.1489C59.7348 72.0498 59.8107 71.9322 59.8614 71.8033C59.912 71.6743 59.9365 71.5365 59.9332 71.398V38.1404C59.933 37.8648 59.8237 37.6006 59.6292 37.4057C59.4347 37.2108 59.1709 37.1011 58.8957 37.1008Z" fill="#3F3D56"/>
<path d="M65.9303 86.7186H22.2996C21.1674 86.7173 20.082 86.2663 19.2814 85.4646C18.4808 84.6628 18.0305 83.5758 18.0293 82.4419V39.2766C18.0305 38.1428 18.4808 37.0557 19.2814 36.254C20.082 35.4522 21.1674 35.0012 22.2996 35H65.9303C67.0624 35.0012 68.1479 35.4522 68.9485 36.254C69.7491 37.0557 70.1994 38.1428 70.2006 39.2766V82.4419C70.1994 83.5758 69.7491 84.6628 68.9485 85.4646C68.1479 86.2663 67.0624 86.7173 65.9303 86.7186Z" fill="#090814"/>
<path d="M30.4246 36.2739C28.9637 36.2739 27.5172 36.5621 26.1675 37.122C24.8179 37.6819 23.5916 38.5025 22.5587 39.537C21.5257 40.5716 20.7064 41.7997 20.1474 43.1514C19.5884 44.5031 19.3007 45.9518 19.3008 47.4148V81.5265C19.3008 82.5656 19.713 83.5622 20.4467 84.297C21.1803 85.0318 22.1755 85.4446 23.2131 85.4446H49.894C54.943 85.4446 59.7853 83.4359 63.3555 79.8604C66.9257 76.2849 68.9314 71.4355 68.9314 66.379V40.192C68.9314 39.6775 68.8302 39.168 68.6336 38.6926C68.437 38.2173 68.1488 37.7853 67.7855 37.4215C67.4223 37.0577 66.991 36.7691 66.5163 36.5722C66.0417 36.3753 65.5329 36.2739 65.0191 36.2739H30.4246Z" fill="white"/>
<path d="M55.8022 48.8183H32.3402C32.1287 48.8126 31.9277 48.7245 31.78 48.5726C31.6324 48.4208 31.5498 48.2172 31.5498 48.0052C31.5498 47.7933 31.6324 47.5897 31.78 47.4379C31.9277 47.286 32.1287 47.1979 32.3402 47.1922H55.8022C55.9107 47.1893 56.0186 47.2082 56.1196 47.2477C56.2207 47.2873 56.3128 47.3467 56.3905 47.4225C56.4683 47.4983 56.53 47.5889 56.5722 47.689C56.6144 47.7891 56.6361 47.8966 56.6361 48.0052C56.6361 48.1139 56.6144 48.2214 56.5722 48.3215C56.53 48.4216 56.4683 48.5122 56.3905 48.588C56.3128 48.6638 56.2207 48.7232 56.1196 48.7628C56.0186 48.8023 55.9107 48.8212 55.8022 48.8183Z" fill="#D6D6E3"/>
<path d="M55.8022 66.1557H32.3402C32.1287 66.15 31.9277 66.0619 31.78 65.91C31.6324 65.7582 31.5498 65.5546 31.5498 65.3426C31.5498 65.1307 31.6324 64.9271 31.78 64.7753C31.9277 64.6234 32.1287 64.5353 32.3402 64.5296H55.8022C55.9107 64.5267 56.0186 64.5456 56.1196 64.5851C56.2207 64.6247 56.3128 64.6841 56.3905 64.7599C56.4683 64.8357 56.53 64.9263 56.5722 65.0264C56.6144 65.1265 56.6361 65.234 56.6361 65.3426C56.6361 65.4513 56.6144 65.5588 56.5722 65.6589C56.53 65.759 56.4683 65.8496 56.3905 65.9254C56.3128 66.0012 56.2207 66.0606 56.1196 66.1002C56.0186 66.1397 55.9107 66.1586 55.8022 66.1557Z" fill="#D6D6E3"/>
<path d="M65.3293 57.4929H22.8095C22.701 57.4958 22.5931 57.4769 22.4921 57.4373C22.391 57.3978 22.2989 57.3384 22.2212 57.2626C22.1435 57.1868 22.0817 57.0962 22.0395 56.9961C21.9973 56.896 21.9756 56.7884 21.9756 56.6798C21.9756 56.5712 21.9973 56.4636 22.0395 56.3635C22.0817 56.2634 22.1435 56.1728 22.2212 56.097C22.2989 56.0212 22.391 55.9618 22.4921 55.9223C22.5931 55.8827 22.701 55.8638 22.8095 55.8667H65.3293C65.5409 55.8724 65.7419 55.9606 65.8895 56.1124C66.0371 56.2643 66.1197 56.4679 66.1197 56.6798C66.1197 56.8917 66.0371 57.0953 65.8895 57.2472C65.7419 57.399 65.5409 57.4872 65.3293 57.4929Z" fill="#D6D6E3"/>
<path d="M65.7642 73.2053H50.4032C50.2948 73.2082 50.1869 73.1893 50.0858 73.1497C49.9848 73.1102 49.8927 73.0508 49.8149 72.975C49.7372 72.8992 49.6754 72.8086 49.6333 72.7085C49.5911 72.6084 49.5693 72.5009 49.5693 72.3922C49.5693 72.2836 49.5911 72.176 49.6333 72.0759C49.6754 71.9758 49.7372 71.8852 49.8149 71.8094C49.8927 71.7336 49.9848 71.6742 50.0858 71.6347C50.1869 71.5951 50.2948 71.5762 50.4032 71.5791H65.7642C65.9757 71.5848 66.1767 71.673 66.3243 71.8248C66.472 71.9767 66.5546 72.1803 66.5546 72.3922C66.5546 72.6042 66.472 72.8077 66.3243 72.9596C66.1767 73.1114 65.9757 73.1996 65.7642 73.2053Z" fill="#D6D6E3"/>
<path d="M19.2645 91.6574C23.2766 91.6574 26.529 88.4002 26.529 84.3822C26.529 80.3642 23.2766 77.1069 19.2645 77.1069C15.2524 77.1069 12 80.3642 12 84.3822C12 88.4002 15.2524 91.6574 19.2645 91.6574Z" fill="#ED862D"/>
<path d="M55.2708 222.526H29.6471C28.9824 222.525 28.3451 222.26 27.8751 221.789C27.405 221.319 27.1406 220.68 27.1396 220.015V194.665C27.1406 194 27.405 193.362 27.8751 192.891C28.3451 192.42 28.9824 192.155 29.6471 192.154H55.2708C55.9355 192.155 56.5728 192.42 57.0428 192.891C57.5129 193.362 57.7773 194 57.7783 194.665V220.014C57.7773 220.68 57.5129 221.318 57.0428 221.789C56.5728 222.259 55.9355 222.525 55.2708 222.526Z" fill="#090814"/>
<path d="M34.4194 192.902C33.5614 192.902 32.7118 193.071 31.9191 193.4C31.1264 193.729 30.4061 194.211 29.7995 194.819C29.1928 195.426 28.7117 196.148 28.3835 196.942C28.0553 197.736 27.8865 198.587 27.8867 199.446V219.478C27.8867 220.088 28.1287 220.673 28.5595 221.105C28.9904 221.536 29.5747 221.779 30.184 221.779H45.8512C48.8158 221.779 51.6589 220.6 53.7552 218.5C55.8515 216.401 57.0291 213.553 57.0291 210.584V195.205C57.0291 194.903 56.9697 194.603 56.8542 194.324C56.7387 194.045 56.5694 193.791 56.3561 193.578C56.1427 193.364 55.8893 193.195 55.6106 193.079C55.3318 192.964 55.033 192.904 54.7312 192.904H34.4194V192.902Z" fill="white"/>
<path d="M49.3224 200.271H35.5432C35.4168 200.271 35.2955 200.22 35.2061 200.131C35.1166 200.041 35.0664 199.92 35.0664 199.793C35.0664 199.667 35.1166 199.545 35.2061 199.456C35.2955 199.366 35.4168 199.316 35.5432 199.316H49.3224C49.4488 199.316 49.5701 199.366 49.6595 199.456C49.7489 199.545 49.7992 199.667 49.7992 199.793C49.7992 199.92 49.7489 200.041 49.6595 200.131C49.5701 200.22 49.4488 200.271 49.3224 200.271Z" fill="#D6D6E3"/>
<path d="M49.3224 210.45H35.5432C35.4168 210.45 35.2955 210.399 35.2061 210.31C35.1166 210.22 35.0664 210.099 35.0664 209.972C35.0664 209.845 35.1166 209.724 35.2061 209.634C35.2955 209.545 35.4168 209.495 35.5432 209.495H49.3224C49.4488 209.495 49.5701 209.545 49.6595 209.634C49.7489 209.724 49.7992 209.845 49.7992 209.972C49.7992 210.099 49.7489 210.22 49.6595 210.31C49.5701 210.399 49.4488 210.45 49.3224 210.45Z" fill="#D6D6E3"/>
<path d="M54.9184 205.364H29.9485C29.822 205.364 29.7008 205.313 29.6113 205.224C29.5219 205.134 29.4717 205.013 29.4717 204.886C29.4717 204.76 29.5219 204.638 29.6113 204.549C29.7008 204.459 29.822 204.409 29.9485 204.409H54.9184C55.0448 204.409 55.1661 204.459 55.2555 204.549C55.345 204.638 55.3952 204.76 55.3952 204.886C55.3952 205.013 55.345 205.134 55.2555 205.224C55.1661 205.313 55.0448 205.364 54.9184 205.364Z" fill="#D6D6E3"/>
<path d="M55.1739 214.59H46.1536C46.0271 214.59 45.9058 214.539 45.8164 214.45C45.727 214.36 45.6768 214.239 45.6768 214.112C45.6768 213.986 45.727 213.864 45.8164 213.775C45.9058 213.685 46.0271 213.635 46.1536 213.635H55.1739C55.3004 213.635 55.4217 213.685 55.5111 213.775C55.6005 213.864 55.6507 213.986 55.6507 214.112C55.6507 214.239 55.6005 214.36 55.5111 214.45C55.4217 214.539 55.3004 214.59 55.1739 214.59Z" fill="#D6D6E3"/>
<path d="M56.8892 227.985C59.755 227.985 62.0782 225.658 62.0782 222.788C62.0782 219.918 59.755 217.591 56.8892 217.591C54.0234 217.591 51.7002 219.918 51.7002 222.788C51.7002 225.658 54.0234 227.985 56.8892 227.985Z" fill="#ED862D"/>
<path d="M271.248 138.961H236.6C235.701 138.96 234.839 138.602 234.203 137.965C233.567 137.329 233.21 136.465 233.209 135.565V101.289C233.21 100.389 233.567 99.5255 234.203 98.8888C234.839 98.2521 235.701 97.894 236.6 97.8931H271.248C272.147 97.894 273.009 98.2521 273.645 98.8888C274.281 99.5255 274.639 100.389 274.64 101.289V135.565C274.639 136.466 274.281 137.329 273.645 137.966C273.009 138.603 272.147 138.96 271.248 138.961Z" fill="#090814"/>
<path d="M243.053 98.9053C240.71 98.9053 238.464 99.8373 236.807 101.496C235.15 103.155 234.22 105.406 234.22 107.752V134.839C234.22 135.664 234.547 136.455 235.13 137.039C235.712 137.622 236.502 137.95 237.326 137.95H258.513C262.522 137.95 266.367 136.355 269.201 133.516C272.036 130.677 273.629 126.826 273.629 122.811V102.017C273.629 101.192 273.302 100.401 272.719 99.8171C272.136 99.2336 271.346 98.9059 270.522 98.9059H243.053V98.9053Z" fill="white"/>
<path d="M263.204 108.865H244.574C244.488 108.868 244.402 108.853 244.321 108.822C244.241 108.791 244.167 108.743 244.105 108.683C244.043 108.623 243.994 108.551 243.96 108.471C243.927 108.391 243.909 108.306 243.909 108.219C243.909 108.133 243.927 108.047 243.96 107.967C243.994 107.887 244.043 107.815 244.105 107.755C244.167 107.695 244.241 107.648 244.321 107.616C244.402 107.585 244.488 107.57 244.574 107.573H263.204C263.29 107.57 263.377 107.585 263.457 107.616C263.538 107.648 263.611 107.695 263.673 107.755C263.735 107.815 263.784 107.887 263.818 107.967C263.852 108.047 263.869 108.133 263.869 108.219C263.869 108.306 263.852 108.391 263.818 108.471C263.784 108.551 263.735 108.623 263.673 108.683C263.611 108.743 263.538 108.791 263.457 108.822C263.377 108.853 263.29 108.868 263.204 108.865Z" fill="#D6D6E3"/>
<path d="M263.203 122.633H244.574C244.406 122.628 244.246 122.558 244.13 122.437C244.013 122.316 243.947 122.155 243.947 121.987C243.947 121.819 244.013 121.657 244.13 121.536C244.246 121.416 244.406 121.345 244.574 121.34H263.203C263.29 121.338 263.376 121.353 263.456 121.384C263.537 121.415 263.61 121.462 263.672 121.523C263.734 121.583 263.784 121.655 263.817 121.735C263.851 121.814 263.868 121.9 263.868 121.987C263.868 122.073 263.851 122.159 263.817 122.239C263.784 122.318 263.734 122.39 263.672 122.451C263.61 122.511 263.537 122.558 263.456 122.589C263.376 122.621 263.29 122.636 263.203 122.633Z" fill="#D6D6E3"/>
<path d="M270.771 115.754H237.004C236.918 115.757 236.831 115.742 236.751 115.711C236.67 115.679 236.597 115.632 236.535 115.572C236.473 115.512 236.424 115.439 236.39 115.36C236.356 115.28 236.339 115.194 236.339 115.108C236.339 115.021 236.356 114.936 236.39 114.856C236.424 114.776 236.473 114.704 236.535 114.644C236.597 114.583 236.67 114.536 236.751 114.505C236.831 114.474 236.918 114.459 237.004 114.461H270.771C270.857 114.459 270.943 114.474 271.024 114.505C271.104 114.536 271.178 114.583 271.24 114.644C271.302 114.704 271.351 114.776 271.385 114.856C271.418 114.936 271.436 115.021 271.436 115.108C271.436 115.194 271.418 115.28 271.385 115.36C271.351 115.439 271.302 115.512 271.24 115.572C271.178 115.632 271.104 115.679 271.024 115.711C270.943 115.742 270.857 115.757 270.771 115.754Z" fill="#D6D6E3"/>
<path d="M271.116 128.23H258.921C258.835 128.233 258.748 128.218 258.668 128.187C258.587 128.156 258.514 128.108 258.452 128.048C258.39 127.988 258.341 127.916 258.307 127.836C258.273 127.756 258.256 127.671 258.256 127.584C258.256 127.498 258.273 127.412 258.307 127.332C258.341 127.252 258.39 127.18 258.452 127.12C258.514 127.06 258.587 127.013 258.668 126.981C258.748 126.95 258.835 126.935 258.921 126.938H271.116C271.203 126.935 271.289 126.95 271.369 126.981C271.45 127.013 271.523 127.06 271.585 127.12C271.648 127.18 271.697 127.252 271.73 127.332C271.764 127.412 271.782 127.498 271.782 127.584C271.782 127.671 271.764 127.756 271.73 127.836C271.697 127.916 271.648 127.988 271.585 128.048C271.523 128.108 271.45 128.156 271.369 128.187C271.289 128.218 271.203 128.233 271.116 128.23Z" fill="#D6D6E3"/>
<path d="M272.543 104.13C275.982 104.13 278.769 101.338 278.769 97.8939C278.769 94.45 275.982 91.6582 272.543 91.6582C269.104 91.6582 266.316 94.45 266.316 97.8939C266.316 101.338 269.104 104.13 272.543 104.13Z" fill="#ED862D"/>
<path d="M255.026 148.658C256.745 148.658 258.139 147.262 258.139 145.54C258.139 143.817 256.745 142.421 255.026 142.421C253.306 142.421 251.912 143.817 251.912 145.54C251.912 147.262 253.306 148.658 255.026 148.658Z" fill="#090814"/>
<path d="M229.699 157.476H255.514V145.539H254.476V156.436H229.696L229.699 157.476Z" fill="#090814"/>
<path d="M67.4592 96.1657C69.1788 96.1657 70.5727 94.7697 70.5727 93.0476C70.5727 91.3255 69.1788 89.9294 67.4592 89.9294C65.7397 89.9294 64.3457 91.3255 64.3457 93.0476C64.3457 94.7697 65.7397 96.1657 67.4592 96.1657Z" fill="#090814"/>
<path d="M92.4799 104.984H66.6641V93.0474H67.7021V103.945H92.4816L92.4799 104.984Z" fill="#090814"/>
<path d="M44.8733 188.875C46.5928 188.875 47.9868 187.479 47.9868 185.757C47.9868 184.034 46.5928 182.638 44.8733 182.638C43.1537 182.638 41.7598 184.034 41.7598 185.757C41.7598 187.479 43.1537 188.875 44.8733 188.875Z" fill="#090814"/>
<path d="M70.201 173.821H44.3857V185.757H45.4238V174.861H70.2033L70.201 173.821Z" fill="#090814"/>
</svg>
