<svg width="302" height="301" viewBox="0 0 302 301" fill="none" xmlns="http://www.w3.org/2000/svg">
<g clip-path="url(#clip0_84_734)">
<path d="M267.348 42.1608L37.1192 0.0636618C36.6505 -0.0263157 36.1684 -0.0206784 35.7019 0.0802351C35.2789 0.1727 34.8817 0.357846 34.5391 0.622278C34.2041 0.883275 33.9346 1.21859 33.7521 1.60164C33.5578 2.01492 33.459 2.46651 33.463 2.92302V208.771C33.4588 209.227 33.5573 209.679 33.7514 210.092C33.9337 210.475 34.2029 210.811 34.5376 211.072C34.88 211.336 35.277 211.522 35.7 211.614C36.1664 211.716 36.6485 211.722 37.1173 211.632L267.348 169.535C267.539 169.495 267.716 169.406 267.86 169.275C268.028 169.125 268.169 168.947 268.275 168.748C268.4 168.522 268.494 168.28 268.556 168.029C268.624 167.756 268.659 167.476 268.659 167.194V44.5078C268.659 44.2257 268.624 43.9446 268.556 43.6709C268.494 43.4199 268.4 43.178 268.276 42.9514C268.169 42.753 268.028 42.5746 267.86 42.4241C267.716 42.2935 267.539 42.2039 267.349 42.1645L267.348 42.1608Z" fill="#E4E4E4"/>
<path d="M270.869 42.1608L40.6407 0.063654C40.172 -0.0263131 39.6899 -0.0206758 39.2234 0.0802274C38.8003 0.172692 38.4032 0.357838 38.0606 0.62227C37.7256 0.883277 37.4561 1.21859 37.2736 1.60163C37.0793 2.01492 36.9805 2.4665 36.9845 2.92301V208.771C36.9802 209.227 37.0788 209.679 37.2729 210.092C37.4552 210.475 37.7243 210.811 38.0591 211.072C38.4015 211.336 38.7985 211.522 39.2215 211.614C39.6879 211.716 40.17 211.722 40.6388 211.632L270.87 169.535C271.06 169.495 271.237 169.406 271.382 169.275C271.549 169.125 271.69 168.947 271.797 168.748C271.921 168.522 272.016 168.28 272.077 168.029C272.145 167.756 272.18 167.476 272.18 167.194V44.5078C272.18 44.2257 272.146 43.9446 272.078 43.6709C272.016 43.4198 271.922 43.178 271.797 42.9514C271.69 42.753 271.55 42.5746 271.382 42.4241C271.238 42.2935 271.061 42.2039 270.87 42.1645L270.869 42.1608Z" fill="white"/>
<path d="M270.869 42.1608L40.6407 0.063654C40.172 -0.0263131 39.6899 -0.0206758 39.2234 0.0802274C38.8003 0.172692 38.4032 0.357838 38.0606 0.62227C37.7256 0.883277 37.4561 1.21859 37.2736 1.60163C37.0793 2.01492 36.9805 2.4665 36.9845 2.92301V208.771C36.9802 209.227 37.0788 209.679 37.2729 210.092C37.4552 210.475 37.7243 210.811 38.0591 211.072C38.4015 211.336 38.7985 211.522 39.2215 211.614C39.6879 211.716 40.17 211.722 40.6388 211.632L270.87 169.535C271.06 169.495 271.237 169.406 271.382 169.275C271.549 169.125 271.69 168.947 271.797 168.748C271.921 168.522 272.016 168.28 272.077 168.029C272.145 167.756 272.18 167.476 272.18 167.194V44.5078C272.18 44.2257 272.146 43.9446 272.078 43.6709C272.016 43.4198 271.922 43.178 271.797 42.9514C271.69 42.753 271.55 42.5746 271.382 42.4241C271.238 42.2935 271.061 42.2039 270.87 42.1645L270.869 42.1608ZM271.744 167.268C271.744 167.456 271.721 167.644 271.676 167.826C271.634 167.994 271.571 168.156 271.487 168.307C271.415 168.439 271.321 168.558 271.209 168.658C271.113 168.745 270.996 168.804 270.869 168.83L40.6418 210.461C40.3296 210.52 40.0086 210.515 39.6982 210.447C39.4167 210.385 39.1526 210.262 38.9249 210.085C38.7023 209.911 38.5234 209.688 38.4021 209.433C38.2734 209.158 38.2079 208.858 38.2104 208.555V3.13961C38.2077 2.83622 38.2731 2.53609 38.4018 2.26119C38.5228 2.00612 38.7016 1.78263 38.9241 1.60841C39.1517 1.43188 39.4157 1.30799 39.6971 1.24567C40.0075 1.17766 40.3284 1.17304 40.6407 1.23211L270.87 42.8644C270.997 42.8905 271.114 42.95 271.21 43.0365C271.322 43.1367 271.416 43.2556 271.488 43.388C271.572 43.5389 271.635 43.7001 271.677 43.8675C271.722 44.0502 271.745 44.2378 271.745 44.4261V167.267L271.744 167.268Z" fill="#CACACA"/>
<path d="M0.000298731 64.2503C-0.0107875 62.846 0.28682 61.4563 0.872156 60.1792C1.41926 58.9994 2.22781 57.959 3.23674 57.1367C4.25256 56.3145 5.43849 55.7275 6.70908 55.418C8.08331 55.0871 9.51134 55.0441 10.9031 55.2918C12.3628 55.5455 13.7635 56.0643 15.0355 56.8226C16.2922 57.5689 17.4171 58.5166 18.3652 59.6277C19.3052 60.7231 20.0564 61.9667 20.5879 63.3079C21.1176 64.6387 21.3926 66.0569 21.3986 67.489C21.4085 68.8432 21.1322 70.1843 20.5879 71.4249C20.0766 72.5776 19.3178 73.6041 18.3652 74.4319C17.3995 75.2657 16.2632 75.8791 15.0355 76.2294C13.6924 76.6078 12.2851 76.7033 10.9031 76.5097C9.43092 76.3073 8.00944 75.833 6.71134 75.111C5.40706 74.3888 4.23396 73.4524 3.24127 72.3413C2.24434 71.2325 1.44452 69.9619 0.876308 68.5844C0.306672 67.2097 0.00955837 65.7378 0.00142751 64.2503H0.000298731Z" fill="#090814"/>
<path d="M0.000298731 106.859C-0.0107875 105.455 0.28682 104.065 0.872156 102.788C1.41925 101.608 2.2278 100.568 3.23674 99.7454C4.25256 98.9232 5.4385 98.3362 6.70908 98.0266C8.08331 97.6957 9.51134 97.6528 10.9031 97.9004C12.3628 98.1541 13.7635 98.6729 15.0355 99.4312C16.2922 100.178 17.4171 101.125 18.3652 102.236C19.3052 103.332 20.0564 104.575 20.5879 105.917C21.1176 107.247 21.3926 108.666 21.3986 110.098C21.4085 111.452 21.1322 112.793 20.5879 114.034C20.0766 115.186 19.3178 116.213 18.3652 117.041C17.3995 117.874 16.2632 118.488 15.0355 118.838C13.6924 119.216 12.2851 119.312 10.9031 119.118C9.43092 118.916 8.00944 118.442 6.71134 117.72C5.40706 116.997 4.23396 116.061 3.24127 114.95C2.24433 113.841 1.44451 112.571 0.876308 111.193C0.306275 109.818 0.00877918 108.347 0.000298731 106.859Z" fill="#090814"/>
<path d="M0.000298731 149.467C-0.0107875 148.063 0.28682 146.673 0.872156 145.396C1.41925 144.216 2.2278 143.176 3.23674 142.354C4.25256 141.531 5.43849 140.944 6.70908 140.635C8.08331 140.304 9.51134 140.261 10.9031 140.509C12.3628 140.762 13.7635 141.281 15.0355 142.04C16.2922 142.786 17.4171 143.733 18.3652 144.845C19.3052 145.94 20.0564 147.184 20.5879 148.525C21.1176 149.856 21.3926 151.274 21.3986 152.706C21.4085 154.06 21.1322 155.401 20.5879 156.642C20.0766 157.795 19.3179 158.821 18.3652 159.649C17.3995 160.483 16.2632 161.096 15.0355 161.447C13.6924 161.825 12.2851 161.921 10.9031 161.727C9.43092 161.525 8.00944 161.05 6.71134 160.328C5.40706 159.606 4.23396 158.67 3.24127 157.559C2.24432 156.45 1.4445 155.179 0.876308 153.802C0.306672 152.427 0.00955837 150.955 0.00142751 149.468L0.000298731 149.467Z" fill="#090814"/>
<path d="M2.64092 64.2503C2.62984 62.846 2.92745 61.4563 3.51278 60.1792C4.05989 58.9994 4.86843 57.959 5.87737 57.1367C6.89318 56.3145 8.07913 55.7275 9.34971 55.418C10.7239 55.0871 12.152 55.0441 13.5437 55.2918C15.0034 55.5455 16.4041 56.0643 17.6761 56.8226C18.9328 57.5689 20.0578 58.5166 21.0058 59.6277C21.9459 60.7231 22.697 61.9667 23.2285 63.3079C23.7582 64.6387 24.0332 66.0569 24.0392 67.489C24.0491 68.8432 23.7728 70.1843 23.2285 71.4249C22.7172 72.5776 21.9584 73.6041 21.0058 74.4319C20.0402 75.2657 18.9038 75.8791 17.6761 76.2294C16.333 76.6078 14.9257 76.7033 13.5437 76.5097C12.0716 76.3072 10.6501 75.833 9.35197 75.111C8.04769 74.3888 6.87459 73.4524 5.8819 72.3413C4.88496 71.2326 4.08513 69.962 3.51693 68.5844C2.94729 67.2097 2.65018 65.7378 2.64206 64.2503H2.64092Z" fill="#ED862D"/>
<path d="M2.64074 106.568C2.63397 105.143 2.93117 103.733 3.5126 102.431C4.06479 101.205 4.87062 100.109 5.87718 99.2161C6.88421 98.3232 8.06687 97.65 9.34952 97.2393C10.703 96.8094 12.1304 96.6612 13.5435 96.8039C14.9869 96.945 16.3897 97.3612 17.676 98.0299C18.9286 98.6809 20.0559 99.5481 21.0056 100.591C21.949 101.622 22.7015 102.812 23.2283 104.105C23.7616 105.416 24.0365 106.817 24.0379 108.231C24.044 109.605 23.7681 110.965 23.2272 112.228C22.7082 113.43 21.9476 114.513 20.9922 115.41C20.0369 116.307 18.9073 116.998 17.6733 117.441C16.3507 117.915 14.9448 118.114 13.5424 118.025C12.0877 117.935 10.6642 117.566 9.35065 116.935C6.72827 115.677 4.65454 113.509 3.51675 110.836C2.94335 109.486 2.64579 108.034 2.64149 106.567L2.64074 106.568Z" fill="#ED862D"/>
<path d="M2.64063 148.887C2.63886 147.469 2.92469 146.066 3.48091 144.761C4.03713 143.456 4.85222 142.278 5.87708 141.296C7.13733 140.092 8.6724 139.212 10.3497 138.732C12.027 138.253 13.796 138.188 15.504 138.544C17.2119 138.899 18.8074 139.665 20.1527 140.773C21.498 141.882 22.5525 143.301 23.2252 144.908C23.8863 146.507 24.145 148.243 23.9786 149.965C23.8121 151.686 23.2257 153.341 22.2704 154.785C21.3151 156.228 20.0202 157.416 18.4987 158.244C16.9773 159.072 15.2757 159.516 13.5426 159.537C11.421 159.568 9.33738 158.973 7.55355 157.826C5.76973 156.679 4.36518 155.032 3.51627 153.091C2.93897 151.764 2.64105 150.333 2.64101 148.887H2.64063Z" fill="#ED862D"/>
<path d="M9.29089 64.2021L12.4873 64.6917V61.5465C12.4858 61.4103 12.5137 61.2754 12.5692 61.151C12.6213 61.0359 12.6987 60.9341 12.7957 60.853C12.8934 60.7717 13.008 60.713 13.1312 60.6813C13.2654 60.647 13.4052 60.6409 13.5419 60.6635C13.6866 60.6869 13.8258 60.7367 13.9525 60.8104C14.0789 60.8836 14.1923 60.9772 14.288 61.0873C14.3835 61.1964 14.4601 61.3207 14.5145 61.4549C14.5689 61.5882 14.5975 61.7306 14.5987 61.8746V65.0153L17.7343 65.4956C17.8768 65.518 18.0139 65.5666 18.1386 65.6391C18.3884 65.7839 18.5826 66.0078 18.6904 66.2753C18.7434 66.4071 18.771 66.5476 18.7719 66.6896C18.7728 66.8244 18.7451 66.9578 18.6904 67.081C18.6398 67.1947 18.5647 67.2958 18.4703 67.3771C18.3746 67.4582 18.2621 67.5172 18.1408 67.55C18.0092 67.585 17.8716 67.5922 17.737 67.5711L14.5971 67.1025V70.2361C14.5982 70.3721 14.57 70.5069 14.5145 70.6312C14.4623 70.7471 14.385 70.8501 14.288 70.9325C14.1907 71.0146 14.0766 71.0745 13.9536 71.1081C13.82 71.1442 13.6803 71.1523 13.5434 71.1318C13.3988 71.1108 13.2594 71.0631 13.1324 70.9913C13.0059 70.9199 12.8923 70.8279 12.7964 70.7189C12.7008 70.6108 12.6242 70.4873 12.57 70.3536C12.516 70.22 12.4882 70.0773 12.4881 69.9332V66.7879L9.29165 66.3092C9.14474 66.2867 9.00323 66.2374 8.87421 66.1638C8.74639 66.0908 8.6316 65.9971 8.53453 65.8866C8.43761 65.7777 8.35977 65.6533 8.3043 65.5185C8.24901 65.3837 8.2203 65.2394 8.21975 65.0937C8.21869 64.9563 8.24754 64.8203 8.3043 64.6951C8.35743 64.5787 8.43611 64.4757 8.53453 64.3938C8.63354 64.3112 8.74949 64.2513 8.87421 64.2183C9.01052 64.1844 9.15236 64.1788 9.29089 64.2021Z" fill="white"/>
<path d="M11.5342 110.225L20.4101 110.866H20.4426L16.2803 103.323C16.2545 103.276 16.2174 103.235 16.1724 103.206C16.1503 103.191 16.1264 103.179 16.1014 103.17C16.0764 103.161 16.0502 103.155 16.0237 103.153C15.9979 103.15 15.9718 103.152 15.9463 103.156C15.9217 103.161 15.8978 103.169 15.8754 103.18C15.8305 103.202 15.793 103.237 15.7674 103.28L12.9367 107.926L12.8004 108.15L11.5342 110.225Z" fill="white"/>
<path d="M6.46875 109.858L14.2996 110.423L12.7986 108.15L12.6903 107.986L10.722 105.003C10.6872 104.957 10.6437 104.918 10.594 104.888C10.5701 104.873 10.5449 104.861 10.5185 104.85C10.4912 104.841 10.4628 104.834 10.434 104.83C10.4061 104.826 10.3779 104.825 10.3498 104.827C10.3226 104.829 10.2957 104.833 10.2694 104.841C10.2432 104.848 10.2179 104.858 10.194 104.872C10.1702 104.885 10.1481 104.9 10.1279 104.918L10.1215 104.926L10.1132 104.934L10.1068 104.942L10.1004 104.951L6.46875 109.858Z" fill="white"/>
<path d="M12.3906 102.084C12.5712 102.1 12.7472 102.15 12.9088 102.232C13.0672 102.312 13.2101 102.42 13.3308 102.55C13.4512 102.68 13.5475 102.83 13.615 102.993C13.6835 103.158 13.7189 103.335 13.7192 103.514C13.72 103.687 13.6845 103.858 13.615 104.017C13.549 104.167 13.4522 104.302 13.3308 104.412C13.2088 104.523 13.0651 104.607 12.9088 104.66C12.7421 104.715 12.5657 104.736 12.3906 104.721C12.2099 104.706 12.0337 104.656 11.8717 104.574C11.7125 104.494 11.5688 104.387 11.4474 104.257C11.3261 104.127 11.2291 103.977 11.161 103.813C11.0918 103.647 11.056 103.469 11.0557 103.289C11.055 103.115 11.0909 102.943 11.161 102.784C11.2276 102.634 11.3252 102.499 11.4474 102.389C11.5703 102.278 11.7148 102.195 11.8717 102.143C12.0387 102.088 12.2154 102.068 12.3906 102.083V102.084Z" fill="white"/>
<path d="M108.17 132.149L196.057 48.9282L196.434 49.587L108.719 132.853L108.17 132.149Z" fill="#E6E6E6"/>
<path d="M108.184 37.8253L108.735 37.1665L196.425 128.017L196.048 128.643L108.184 37.8253Z" fill="#E6E6E6"/>
<path d="M195.167 47.713L109.736 35.9984C109.341 35.9421 108.939 35.9764 108.559 36.0986C108.197 36.2175 107.868 36.4163 107.594 36.6801C107.311 36.9531 107.088 37.2824 106.94 37.6467C106.778 38.0485 106.697 38.4778 106.699 38.9108V130.692C106.698 131.131 106.78 131.566 106.94 131.974C107.089 132.354 107.311 132.702 107.593 132.997C107.866 133.281 108.194 133.506 108.558 133.656C108.931 133.808 109.333 133.875 109.736 133.853L195.167 129.157C195.455 129.138 195.735 129.048 195.979 128.893C196.238 128.73 196.462 128.518 196.639 128.269C196.835 127.997 196.985 127.695 197.084 127.375C197.192 127.027 197.248 126.665 197.247 126.3V50.7389C197.247 50.3701 197.192 50.0033 197.084 49.6507C196.983 49.3199 196.833 49.0062 196.639 48.7203C196.461 48.4565 196.238 48.2268 195.979 48.0422C195.738 47.8699 195.46 47.7571 195.167 47.713ZM109.736 132.908C109.449 132.923 109.162 132.875 108.896 132.765C108.636 132.658 108.401 132.497 108.207 132.293C108.006 132.082 107.848 131.833 107.742 131.561C107.627 131.27 107.569 130.96 107.569 130.648V39.0257C107.568 38.7171 107.626 38.4111 107.741 38.1247C107.846 37.8642 108.005 37.6286 108.207 37.4331C108.402 37.2452 108.637 37.1036 108.895 37.0188C109.166 36.9309 109.453 36.9058 109.735 36.9453L195.166 48.5003C195.375 48.5312 195.574 48.6112 195.747 48.7338C195.932 48.8652 196.092 49.029 196.219 49.2171C196.358 49.4217 196.465 49.6461 196.537 49.8827C196.615 50.1348 196.654 50.3969 196.654 50.6605V126.331C196.655 126.591 196.615 126.85 196.537 127.099C196.466 127.328 196.359 127.545 196.219 127.74C196.092 127.918 195.932 128.069 195.747 128.185C195.572 128.295 195.372 128.358 195.166 128.371L109.736 132.908Z" fill="#E6E6E6"/>
<path d="M106.906 143.545C106.679 143.569 106.463 143.653 106.278 143.788C106.075 143.937 105.902 144.124 105.769 144.338C105.617 144.577 105.503 144.837 105.429 145.11C105.348 145.408 105.308 145.716 105.312 146.024C105.314 146.32 105.358 146.614 105.444 146.897C105.519 147.146 105.635 147.381 105.787 147.591C105.92 147.776 106.093 147.93 106.292 148.041C106.481 148.144 106.694 148.192 106.909 148.179L256.469 135.819C256.588 135.809 256.7 135.758 256.785 135.675C256.894 135.571 256.982 135.447 257.045 135.311C257.125 135.143 257.184 134.966 257.221 134.784C257.266 134.573 257.289 134.358 257.29 134.143C257.292 133.93 257.273 133.718 257.232 133.509C257.198 133.331 257.141 133.158 257.063 132.995C257.003 132.865 256.917 132.748 256.81 132.653C256.724 132.576 256.611 132.535 256.496 132.537H256.469L106.906 143.545Z" fill="#E6E6E6"/>
<path d="M106.906 157.61C106.678 157.641 106.462 157.731 106.278 157.87C106.075 158.024 105.902 158.214 105.769 158.431C105.618 158.674 105.503 158.937 105.429 159.213C105.347 159.513 105.308 159.823 105.312 160.133C105.313 160.428 105.358 160.721 105.444 161.003C105.518 161.249 105.634 161.48 105.787 161.687C105.92 161.869 106.092 162.018 106.291 162.123C106.481 162.221 106.695 162.263 106.908 162.245L256.469 145.778C256.589 145.765 256.7 145.711 256.785 145.625C256.894 145.518 256.982 145.393 257.045 145.254C257.124 145.084 257.183 144.904 257.22 144.72C257.265 144.509 257.288 144.293 257.289 144.077C257.292 143.865 257.272 143.652 257.231 143.444C257.197 143.268 257.14 143.097 257.062 142.935C257.002 142.807 256.916 142.693 256.808 142.602C256.721 142.527 256.608 142.488 256.493 142.494H256.467L106.906 157.61Z" fill="#E6E6E6"/>
<path d="M106.906 171.447C106.677 171.486 106.461 171.581 106.278 171.725C106.075 171.885 105.902 172.08 105.769 172.301C105.618 172.547 105.504 172.813 105.429 173.092C105.348 173.392 105.308 173.703 105.312 174.015C105.313 174.308 105.358 174.6 105.444 174.881C105.518 175.125 105.634 175.353 105.787 175.557C105.92 175.734 106.093 175.879 106.291 175.979C106.482 176.072 106.696 176.108 106.908 176.084L256.469 155.578C256.589 155.561 256.701 155.504 256.785 155.416C256.893 155.307 256.981 155.179 257.045 155.039C257.124 154.867 257.183 154.686 257.22 154.5C257.265 154.288 257.288 154.072 257.289 153.856C257.292 153.644 257.272 153.432 257.231 153.224C257.197 153.049 257.14 152.88 257.062 152.72C257.002 152.594 256.916 152.482 256.808 152.393C256.72 152.32 256.607 152.285 256.493 152.293H256.467L106.906 171.447Z" fill="#E6E6E6"/>
<path d="M17.8095 144.428L9.27172 144.326C9.12931 144.321 8.98711 144.341 8.85164 144.385C8.72071 144.428 8.59815 144.493 8.48932 144.577C8.38088 144.661 8.28789 144.763 8.21454 144.879C8.13943 144.997 8.0865 145.129 8.05829 145.267C8.03007 145.431 8.03857 145.6 8.0832 145.76C8.10552 145.841 8.13652 145.918 8.17567 145.992C8.25539 146.142 8.36693 146.273 8.50252 146.375C8.70596 146.529 8.95377 146.614 9.20907 146.616L11.7756 146.639C11.8964 146.64 12.0143 146.676 12.1148 146.743C12.2154 146.81 12.2942 146.905 12.3417 147.016C12.3737 147.091 12.3902 147.172 12.39 147.253V152.28C12.3837 152.558 12.4764 152.829 12.6516 153.044C12.8268 153.261 13.0728 153.408 13.3464 153.462C13.5944 153.503 13.8492 153.462 14.0718 153.345C14.2944 153.229 14.4724 153.042 14.5787 152.815C14.6487 152.665 14.6851 152.502 14.6852 152.336V147.269C14.6852 147.109 14.7488 146.956 14.862 146.843C14.9753 146.73 15.1289 146.667 15.2891 146.667H15.2947L17.748 146.686C18.0218 146.695 18.2899 146.606 18.5044 146.436C18.719 146.266 18.8663 146.026 18.9199 145.758C18.9468 145.595 18.9383 145.429 18.8949 145.271C18.8516 145.112 18.7744 144.964 18.6686 144.838C18.5628 144.712 18.431 144.61 18.2822 144.539C18.1333 144.469 17.9709 144.431 17.8061 144.429L17.8095 144.428Z" fill="white"/>
<path d="M17.8094 151.203C18.0526 151.203 18.2893 151.281 18.4845 151.426C18.6797 151.57 18.823 151.774 18.8932 152.006C18.9633 152.239 18.9567 152.488 18.8741 152.716C18.7916 152.944 18.6376 153.14 18.4349 153.274C18.2322 153.408 17.9917 153.474 17.7488 153.461C17.5059 153.448 17.2737 153.357 17.0864 153.203C16.8992 153.048 16.7669 152.837 16.7091 152.601C16.6514 152.365 16.6713 152.117 16.7658 151.893C16.8524 151.689 16.9975 151.514 17.1832 151.391C17.3688 151.268 17.5866 151.202 17.8094 151.203Z" fill="white"/>
<path d="M206.474 57.6939L121.043 45.9792C120.648 45.9229 120.245 45.9572 119.866 46.0794C119.504 46.1984 119.174 46.3972 118.9 46.661C118.617 46.9339 118.395 47.263 118.247 47.6272C118.085 48.029 118.003 48.4583 118.006 48.8913V140.672C118.005 141.111 118.086 141.546 118.247 141.955C118.396 142.335 118.618 142.682 118.9 142.977C119.172 143.262 119.501 143.486 119.865 143.636C120.238 143.788 120.64 143.856 121.043 143.833L206.474 139.137C206.762 139.118 207.042 139.028 207.286 138.874C207.545 138.711 207.769 138.498 207.946 138.249C208.142 137.977 208.292 137.675 208.391 137.355C208.499 137.007 208.554 136.645 208.554 136.281V60.719C208.554 60.3502 208.498 59.9835 208.39 59.6308C208.29 59.2998 208.14 58.9859 207.946 58.6996C207.768 58.4359 207.545 58.2062 207.286 58.0216C207.045 57.8501 206.767 57.7381 206.474 57.6946V57.6939Z" fill="#ED862D"/>
<path opacity="0.2" d="M206.474 57.6939L121.043 45.9792C120.648 45.9229 120.245 45.9572 119.866 46.0794C119.504 46.1984 119.174 46.3972 118.9 46.661C118.617 46.9339 118.395 47.263 118.247 47.6272C118.085 48.029 118.003 48.4583 118.006 48.8913V140.672C118.005 141.111 118.086 141.546 118.247 141.955C118.396 142.335 118.618 142.682 118.9 142.977C119.172 143.262 119.501 143.486 119.865 143.636C120.238 143.788 120.64 143.856 121.043 143.833L206.474 139.137C206.762 139.118 207.042 139.028 207.286 138.874C207.545 138.711 207.769 138.498 207.946 138.249C208.142 137.977 208.292 137.675 208.391 137.355C208.499 137.007 208.554 136.645 208.554 136.281V60.719C208.554 60.3502 208.498 59.9835 208.39 59.6308C208.29 59.2998 208.14 58.9859 207.946 58.6996C207.768 58.4359 207.545 58.2062 207.286 58.0216C207.045 57.8501 206.767 57.7381 206.474 57.6946V57.6939Z" fill="black"/>
<path d="M209.995 57.6939L124.565 45.9792C124.17 45.9229 123.767 45.9572 123.387 46.0794C123.026 46.1984 122.696 46.3972 122.422 46.661C122.139 46.9339 121.916 47.2631 121.768 47.6272C121.607 48.029 121.525 48.4583 121.527 48.8913V140.672C121.526 141.111 121.608 141.546 121.768 141.955C121.917 142.335 122.139 142.682 122.422 142.977C122.694 143.262 123.022 143.486 123.387 143.636C123.759 143.788 124.162 143.856 124.564 143.833L209.995 139.137C210.283 139.118 210.562 139.028 210.807 138.874C211.066 138.711 211.29 138.498 211.467 138.249C211.662 137.977 211.813 137.675 211.912 137.355C212.02 137.007 212.075 136.645 212.075 136.281V60.719C212.075 60.3502 212.02 59.9835 211.912 59.6308C211.811 59.2998 211.661 58.9858 211.467 58.6996C211.29 58.4359 211.066 58.2062 210.807 58.0216C210.566 57.8499 210.288 57.7376 209.995 57.6939Z" fill="#ED862D"/>
<path d="M216.692 121.967L225.046 129.501L229.454 124.633L221.1 117.1C221.045 116.187 220.808 115.295 220.404 114.475C219.999 113.654 219.435 112.923 218.745 112.322C216.141 109.973 212.451 109.813 210.503 111.964C208.556 114.115 209.088 117.762 211.692 120.111C212.36 120.736 213.146 121.222 214.005 121.541C214.863 121.86 215.777 122.005 216.692 121.967Z" fill="#ED9DA0"/>
<path d="M252.733 140.97L223.973 116.28L216.505 124.895L249.358 157.005" fill="#E6E6E6"/>
<path d="M260.528 155.385L264.699 171.835L235.899 171.48L239.195 156.45L260.528 155.385Z" fill="#ED9DA0"/>
<path d="M265.856 211.585L272.109 238.885L283.617 293.547L278.284 294.612L241.626 213.145L265.856 211.585Z" fill="#ED9DA0"/>
<path d="M253.817 217.803L242.268 243.327L225.306 294.612L218.195 292.838L233.568 204.433L253.817 217.803Z" fill="#ED9DA0"/>
<path d="M263.082 165.769C263.082 165.769 275.94 200.654 273.595 239.188C273.595 239.188 254.639 261.304 224.186 240.832L236.721 163.764L263.081 165.771L263.082 165.769Z" fill="#090814"/>
<path d="M284.508 300.065C284.779 299.872 285.006 299.625 285.175 299.338C285.344 299.052 285.451 298.733 285.489 298.403C285.534 297.714 285.193 296.976 284.476 296.207C284.458 295.986 284.236 293.245 283.739 292.754C283.781 292.608 284.034 291.635 283.619 291.003C283.514 290.851 283.375 290.726 283.212 290.636C283.05 290.547 282.869 290.496 282.684 290.488L282.666 290.486L282.657 290.502C282.644 290.524 281.437 292.644 279.62 292.83C278.578 292.936 277.535 292.395 276.52 291.22C276.482 291.133 276.196 289.702 276.012 288.754L276.004 288.717L266.105 293.975L260.318 295.594C259.987 295.69 259.692 295.884 259.473 296.15C259.254 296.416 259.12 296.743 259.09 297.086C259.059 297.429 259.134 297.773 259.303 298.074C259.472 298.374 259.728 298.617 260.038 298.769L262.843 300.131C264.021 300.702 265.313 300.999 266.622 301.002H281.836C282.808 301.006 283.751 300.676 284.507 300.067L284.508 300.065Z" fill="#090814"/>
<path d="M227.974 300.065C228.245 299.872 228.472 299.625 228.641 299.338C228.81 299.052 228.917 298.733 228.955 298.403C229 297.714 228.659 296.976 227.942 296.207C227.924 295.986 227.702 293.245 227.205 292.754C227.247 292.608 227.5 291.635 227.085 291.003C226.98 290.851 226.84 290.726 226.678 290.636C226.516 290.547 226.335 290.496 226.15 290.488L226.131 290.486L226.122 290.502C226.11 290.524 224.903 292.644 223.086 292.83C222.044 292.936 221.001 292.395 219.986 291.22C219.948 291.133 219.662 289.702 219.477 288.754L219.47 288.717L209.571 293.975L203.784 295.594C203.453 295.69 203.158 295.884 202.939 296.15C202.719 296.416 202.586 296.743 202.555 297.086C202.525 297.429 202.599 297.773 202.769 298.074C202.938 298.374 203.194 298.617 203.504 298.769L206.309 300.131C207.486 300.702 208.778 300.999 210.088 301.002H225.302C226.274 301.006 227.217 300.676 227.973 300.067L227.974 300.065Z" fill="#090814"/>
<path d="M256.39 104.341C256.39 102.198 255.794 100.097 254.67 98.2718C253.545 96.4464 251.936 94.9677 250.02 93.9999C248.105 93.0321 245.958 92.6131 243.818 92.7894C241.678 92.9658 239.629 93.7305 237.898 94.9987C236.168 96.267 234.823 97.9891 234.014 99.9739C233.205 101.959 232.962 104.128 233.314 106.242C233.666 108.356 234.598 110.331 236.006 111.949C237.415 113.566 239.245 114.762 241.293 115.404L243.539 130.216L254.987 120.695C253.426 118.645 252.148 116.395 251.186 114.006C252.787 112.95 254.1 111.514 255.008 109.828C255.916 108.141 256.391 106.256 256.39 104.341Z" fill="#ED9DA0"/>
<path d="M256.077 115.785L242.395 124.514L236.08 135.645C234.252 138.867 233.634 142.635 234.338 146.272L237.24 161.253H267.492L262.712 129.997C262.102 126.008 260.58 122.213 258.263 118.905L256.077 115.785Z" fill="#E6E6E6"/>
<path d="M260.12 119.573C260.12 119.573 259.577 123.679 254.552 123.815L244.357 124.087C244.357 124.087 252.975 103.155 249.431 105.513C245.888 107.871 236.438 97.9852 236.438 97.9852L233.65 103.204C233.65 103.204 226.988 100.797 234.371 94.9013C234.371 94.9013 243.179 88.1049 252.531 92.1862C261.882 96.2675 260.12 119.573 260.12 119.573L260.12 119.573Z" fill="#090814"/>
<path d="M253.736 193.95L253.98 182.715L247.407 182.573L247.163 193.808C246.508 194.446 245.986 195.209 245.629 196.051C245.273 196.893 245.087 197.797 245.084 198.711C245.008 202.214 247.3 205.103 250.204 205.166C253.109 205.229 255.526 202.441 255.602 198.939C255.638 198.025 255.492 197.114 255.171 196.257C254.851 195.401 254.363 194.617 253.736 193.95Z" fill="#ED9DA0"/>
<path d="M244.661 137.717V192.175H256.076L259.45 138.177" fill="#E6E6E6"/>
<path d="M199.547 300.578C199.547 300.812 199.678 301 199.842 301H301.705C301.869 301 302 300.812 302 300.578C302 300.344 301.869 300.156 301.705 300.156H199.842C199.678 300.156 199.547 300.343 199.547 300.578Z" fill="#F2F2F2"/>
</g>
<defs>
<clipPath id="clip0_84_734">
<rect width="302" height="301" fill="white"/>
</clipPath>
</defs>
</svg>
