<svg width="362" height="318" viewBox="0 0 362 318" fill="none" xmlns="http://www.w3.org/2000/svg">
<g clip-path="url(#clip0_84_689)">
<path d="M315.378 306.492V274.979C315.378 274.979 327.659 297.32 315.378 306.492Z" fill="#F1F1F1"/>
<path d="M316.137 306.486L292.923 285.175C292.923 285.175 317.686 291.237 316.137 306.486Z" fill="#F1F1F1"/>
<path d="M46.3756 306.492V274.979C46.3756 274.979 34.0948 297.32 46.3756 306.492Z" fill="#F1F1F1"/>
<path d="M45.6171 306.486L68.8311 285.175C68.8311 285.175 44.0682 291.237 45.6171 306.486Z" fill="#F1F1F1"/>
<path d="M257.345 72.77H255.662V26.6773C255.662 23.174 254.972 19.705 253.632 16.4683C252.291 13.2317 250.326 10.2908 247.849 7.8136C245.372 5.33638 242.431 3.37135 239.194 2.03069C235.958 0.690033 232.489 2.8604e-06 228.985 0H131.332C127.829 -7.43683e-06 124.36 0.690012 121.124 2.03066C117.887 3.37131 114.946 5.33633 112.469 7.81354C109.992 10.2907 108.027 13.2316 106.686 16.4682C105.345 19.7049 104.655 23.1739 104.655 26.6772V279.546C104.655 286.621 107.466 293.406 112.469 298.409C117.472 303.412 124.257 306.223 131.332 306.223H228.985C236.061 306.223 242.846 303.412 247.849 298.409C252.852 293.406 255.662 286.621 255.662 279.546V105.58H257.345V72.77Z" fill="#3F3D56"/>
<path d="M230.062 6.94044H217.315C217.901 8.37762 218.125 9.93691 217.966 11.4809C217.808 13.025 217.272 14.5064 216.406 15.7946C215.541 17.0829 214.371 18.1384 213.002 18.8683C211.632 19.5982 210.103 19.98 208.551 19.9801H152.607C151.055 19.98 149.527 19.5982 148.157 18.8683C146.787 18.1384 145.618 17.0829 144.752 15.7946C143.886 14.5064 143.351 13.025 143.192 11.4809C143.034 9.9369 143.258 8.37761 143.844 6.94043H131.938C126.655 6.94043 121.587 9.03937 117.851 12.7755C114.115 16.5117 112.016 21.579 112.016 26.8627V279.36C112.016 281.976 112.531 284.567 113.533 286.984C114.534 289.401 116.001 291.597 117.851 293.447C119.701 295.297 121.897 296.765 124.314 297.766C126.731 298.767 129.322 299.282 131.938 299.282H230.062C232.678 299.282 235.268 298.767 237.685 297.766C240.103 296.765 242.299 295.297 244.149 293.447C245.999 291.597 247.466 289.401 248.467 286.984C249.468 284.567 249.984 281.976 249.984 279.36V26.8627C249.984 24.2465 249.468 21.6558 248.467 19.2388C247.466 16.8217 245.999 14.6255 244.149 12.7755C242.299 10.9256 240.103 9.45811 237.685 8.45692C235.268 7.45574 232.678 6.94044 230.062 6.94044Z" fill="white"/>
<path d="M227.604 294.947H134.396C123.687 294.947 114.974 287.17 114.974 277.611V265.061C114.974 257.442 121.913 251.243 130.442 251.243H231.559C240.088 251.243 247.027 257.442 247.027 265.061V277.611C247.027 287.17 238.314 294.947 227.604 294.947Z" fill="#E5E5E5"/>
<path d="M144.194 84.0077H123.403C123.031 84.0072 122.674 83.8591 122.41 83.5957C122.147 83.3324 121.999 82.9753 121.999 82.6029V61.8117C121.999 61.4392 122.147 61.0822 122.41 60.8188C122.674 60.5554 123.031 60.4073 123.403 60.4069H144.194C144.567 60.4073 144.924 60.5554 145.187 60.8188C145.451 61.0822 145.599 61.4392 145.599 61.8117V82.6029C145.599 82.9753 145.451 83.3324 145.187 83.5957C144.924 83.8591 144.567 84.0072 144.194 84.0077Z" fill="#ED862D"/>
<path d="M175.662 84.0077H154.871C154.498 84.0072 154.141 83.8591 153.878 83.5957C153.614 83.3324 153.466 82.9753 153.466 82.6029V61.8117C153.466 61.4392 153.614 61.0822 153.878 60.8188C154.141 60.5554 154.498 60.4073 154.871 60.4069H175.662C176.034 60.4073 176.391 60.5554 176.655 60.8188C176.918 61.0822 177.066 61.4392 177.066 61.8117V82.6029C177.066 82.9753 176.918 83.3324 176.655 83.5957C176.391 83.8591 176.034 84.0072 175.662 84.0077Z" fill="#E5E5E5"/>
<path d="M207.129 84.0077H186.338C185.966 84.0072 185.609 83.8591 185.346 83.5957C185.082 83.3324 184.934 82.9753 184.934 82.6029V61.8117C184.934 61.4392 185.082 61.0822 185.346 60.8188C185.609 60.5554 185.966 60.4073 186.338 60.4069H207.129C207.502 60.4073 207.859 60.5554 208.122 60.8188C208.386 61.0822 208.534 61.4392 208.534 61.8117V82.6029C208.534 82.9753 208.386 83.3324 208.122 83.5957C207.859 83.8591 207.502 84.0072 207.129 84.0077Z" fill="#E5E5E5"/>
<path d="M238.597 84.0077H217.806C217.433 84.0072 217.076 83.8591 216.813 83.5957C216.549 83.3324 216.401 82.9753 216.401 82.6029V61.8117C216.401 61.4392 216.549 61.0822 216.813 60.8188C217.076 60.5554 217.433 60.4073 217.806 60.4069H238.597C238.969 60.4073 239.326 60.5554 239.59 60.8188C239.853 61.0822 240.001 61.4392 240.002 61.8117V82.6029C240.001 82.9753 239.853 83.3324 239.59 83.5957C239.326 83.8591 238.969 84.0072 238.597 84.0077Z" fill="#E5E5E5"/>
<path d="M144.12 122.499H123.329C122.956 122.499 122.599 122.351 122.336 122.088C122.072 121.824 121.924 121.467 121.924 121.095V100.304C121.924 99.9311 122.072 99.574 122.336 99.3106C122.599 99.0473 122.956 98.8991 123.329 98.8987H144.12C144.492 98.8991 144.849 99.0473 145.113 99.3106C145.376 99.574 145.524 99.9311 145.524 100.304V121.095C145.524 121.467 145.376 121.824 145.113 122.088C144.849 122.351 144.492 122.499 144.12 122.499Z" fill="#E5E5E5"/>
<path d="M175.587 122.499H154.796C154.424 122.499 154.067 122.351 153.804 122.088C153.54 121.824 153.392 121.467 153.392 121.095V100.304C153.392 99.9311 153.54 99.574 153.804 99.3106C154.067 99.0473 154.424 98.8991 154.796 98.8987H175.587C175.96 98.8991 176.317 99.0473 176.58 99.3106C176.844 99.574 176.992 99.9311 176.992 100.304V121.095C176.992 121.467 176.844 121.824 176.58 122.088C176.317 122.351 175.96 122.499 175.587 122.499Z" fill="#E5E5E5"/>
<path d="M207.055 122.499H186.264C185.891 122.499 185.534 122.351 185.271 122.088C185.007 121.824 184.859 121.467 184.859 121.095V100.304C184.859 99.9311 185.007 99.574 185.271 99.3106C185.534 99.0473 185.891 98.8991 186.264 98.8987H207.055C207.427 98.8991 207.784 99.0473 208.048 99.3106C208.311 99.574 208.459 99.9311 208.46 100.304V121.095C208.459 121.467 208.311 121.824 208.048 122.088C207.784 122.351 207.427 122.499 207.055 122.499Z" fill="#ED862D"/>
<path d="M238.523 122.499H217.731C217.359 122.499 217.002 122.351 216.739 122.088C216.475 121.824 216.327 121.467 216.327 121.095V100.304C216.327 99.9311 216.475 99.574 216.739 99.3106C217.002 99.0473 217.359 98.8991 217.731 98.8987H238.523C238.895 98.8991 239.252 99.0473 239.515 99.3106C239.779 99.574 239.927 99.9311 239.927 100.304V121.095C239.927 121.467 239.779 121.824 239.515 122.088C239.252 122.351 238.895 122.499 238.523 122.499Z" fill="#ED862D"/>
<path d="M144.045 160.991H123.254C122.882 160.991 122.525 160.843 122.262 160.579C121.998 160.316 121.85 159.959 121.85 159.586V138.795C121.85 138.423 121.998 138.066 122.262 137.802C122.525 137.539 122.882 137.391 123.254 137.39H144.045C144.418 137.391 144.775 137.539 145.038 137.802C145.302 138.066 145.45 138.423 145.45 138.795V159.586C145.45 159.959 145.302 160.316 145.038 160.579C144.775 160.843 144.418 160.991 144.045 160.991Z" fill="#E5E5E5"/>
<path d="M175.513 160.991H154.722C154.35 160.991 153.993 160.843 153.729 160.579C153.466 160.316 153.318 159.959 153.317 159.586V138.795C153.318 138.423 153.466 138.066 153.729 137.802C153.993 137.539 154.35 137.391 154.722 137.39H175.513C175.886 137.391 176.243 137.539 176.506 137.802C176.769 138.066 176.918 138.423 176.918 138.795V159.586C176.918 159.959 176.769 160.316 176.506 160.579C176.243 160.843 175.886 160.991 175.513 160.991Z" fill="#E5E5E5"/>
<path d="M206.98 160.991H186.189C185.817 160.991 185.46 160.843 185.197 160.579C184.933 160.316 184.785 159.959 184.785 159.586V138.795C184.785 138.423 184.933 138.066 185.197 137.802C185.46 137.539 185.817 137.391 186.189 137.39H206.981C207.353 137.391 207.71 137.539 207.973 137.802C208.237 138.066 208.385 138.423 208.385 138.795V159.586C208.385 159.959 208.237 160.316 207.973 160.579C207.71 160.843 207.353 160.991 206.98 160.991Z" fill="#E5E5E5"/>
<path d="M238.448 160.991H217.657C217.285 160.991 216.928 160.843 216.664 160.579C216.401 160.316 216.253 159.959 216.252 159.586V138.795C216.253 138.423 216.401 138.066 216.664 137.802C216.928 137.539 217.285 137.391 217.657 137.39H238.448C238.821 137.391 239.178 137.539 239.441 137.802C239.705 138.066 239.853 138.423 239.853 138.795V159.586C239.853 159.959 239.705 160.316 239.441 160.579C239.178 160.843 238.821 160.991 238.448 160.991Z" fill="#E5E5E5"/>
<path d="M143.971 199.483H123.18C122.808 199.483 122.451 199.334 122.187 199.071C121.924 198.808 121.776 198.451 121.775 198.078V177.287C121.776 176.915 121.924 176.558 122.187 176.294C122.451 176.031 122.808 175.883 123.18 175.882H143.971C144.344 175.883 144.701 176.031 144.964 176.294C145.227 176.558 145.376 176.915 145.376 177.287V198.078C145.376 198.451 145.227 198.808 144.964 199.071C144.701 199.334 144.344 199.483 143.971 199.483Z" fill="#E5E5E5"/>
<path d="M175.439 199.483H154.647C154.275 199.483 153.918 199.334 153.655 199.071C153.391 198.808 153.243 198.451 153.243 198.078V177.287C153.243 176.915 153.391 176.558 153.655 176.294C153.918 176.031 154.275 175.883 154.647 175.882H175.439C175.811 175.883 176.168 176.031 176.431 176.294C176.695 176.558 176.843 176.915 176.843 177.287V198.078C176.843 198.451 176.695 198.808 176.431 199.071C176.168 199.334 175.811 199.483 175.439 199.483Z" fill="#E5E5E5"/>
<path d="M206.906 199.483H186.115C185.743 199.483 185.386 199.334 185.122 199.071C184.859 198.808 184.711 198.451 184.71 198.078V177.287C184.711 176.915 184.859 176.558 185.122 176.294C185.386 176.031 185.743 175.883 186.115 175.882H206.906C207.279 175.883 207.636 176.031 207.899 176.294C208.163 176.558 208.311 176.915 208.311 177.287V198.078C208.311 198.451 208.163 198.808 207.899 199.071C207.636 199.334 207.279 199.483 206.906 199.483Z" fill="#E5E5E5"/>
<path d="M238.374 199.483H217.583C217.21 199.483 216.853 199.334 216.59 199.071C216.326 198.808 216.178 198.451 216.178 198.078V177.287C216.178 176.915 216.326 176.558 216.59 176.294C216.853 176.031 217.21 175.883 217.583 175.882H238.374C238.746 175.883 239.103 176.031 239.366 176.294C239.63 176.558 239.778 176.915 239.778 177.287V198.078C239.778 198.451 239.63 198.808 239.366 199.071C239.103 199.334 238.746 199.483 238.374 199.483Z" fill="#E5E5E5"/>
<path d="M144.194 285.457H123.403C123.031 285.457 122.674 285.309 122.41 285.045C122.147 284.782 121.999 284.425 121.999 284.053V263.261C121.999 262.889 122.147 262.532 122.41 262.269C122.674 262.005 123.031 261.857 123.403 261.857H144.194C144.567 261.857 144.924 262.005 145.187 262.269C145.451 262.532 145.599 262.889 145.599 263.261V284.053C145.599 284.425 145.451 284.782 145.187 285.045C144.924 285.309 144.567 285.457 144.194 285.457Z" fill="white"/>
<path d="M175.662 285.457H154.871C154.498 285.457 154.141 285.309 153.878 285.045C153.614 284.782 153.466 284.425 153.466 284.053V263.261C153.466 262.889 153.614 262.532 153.878 262.268C154.141 262.005 154.498 261.857 154.871 261.857H175.662C176.034 261.857 176.391 262.005 176.655 262.268C176.918 262.532 177.066 262.889 177.066 263.261V284.053C177.066 284.425 176.918 284.782 176.655 285.045C176.391 285.309 176.034 285.457 175.662 285.457Z" fill="white"/>
<path d="M207.129 285.457H186.338C185.966 285.457 185.609 285.309 185.346 285.045C185.082 284.782 184.934 284.425 184.934 284.053V263.261C184.934 262.889 185.082 262.532 185.346 262.268C185.609 262.005 185.966 261.857 186.338 261.857H207.129C207.502 261.857 207.859 262.005 208.122 262.268C208.386 262.532 208.534 262.889 208.534 263.261V284.053C208.534 284.425 208.386 284.782 208.122 285.045C207.859 285.309 207.502 285.457 207.129 285.457Z" fill="white"/>
<path d="M238.597 285.457H217.806C217.433 285.457 217.076 285.309 216.813 285.045C216.549 284.782 216.401 284.425 216.401 284.053V263.261C216.401 262.889 216.549 262.532 216.813 262.269C217.076 262.005 217.433 261.857 217.806 261.857H238.597C238.969 261.857 239.326 262.005 239.59 262.269C239.853 262.532 240.001 262.889 240.002 263.261V284.053C240.001 284.425 239.853 284.782 239.59 285.045C239.326 285.309 238.969 285.457 238.597 285.457Z" fill="white"/>
<path d="M170.811 241.627C172.363 241.627 173.621 240.369 173.621 238.818C173.621 237.266 172.363 236.008 170.811 236.008C169.259 236.008 168.001 237.266 168.001 238.818C168.001 240.369 169.259 241.627 170.811 241.627Z" fill="#E5E5E5"/>
<path d="M180.926 241.627C182.478 241.627 183.735 240.369 183.735 238.818C183.735 237.266 182.478 236.008 180.926 236.008C179.374 236.008 178.116 237.266 178.116 238.818C178.116 240.369 179.374 241.627 180.926 241.627Z" fill="#E5E5E5"/>
<path d="M191.04 241.627C192.592 241.627 193.85 240.369 193.85 238.818C193.85 237.266 192.592 236.008 191.04 236.008C189.488 236.008 188.23 237.266 188.23 238.818C188.23 240.369 189.488 241.627 191.04 241.627Z" fill="#E5E5E5"/>
<path d="M361.564 306.678H0.43562C0.320086 306.678 0.209284 306.632 0.12759 306.551C0.0458952 306.469 0 306.358 0 306.243C0 306.127 0.0458952 306.016 0.12759 305.935C0.209284 305.853 0.320086 305.807 0.43562 305.807H361.564C361.68 305.807 361.791 305.853 361.872 305.935C361.954 306.016 362 306.127 362 306.243C362 306.358 361.954 306.469 361.872 306.551C361.791 306.632 361.68 306.678 361.564 306.678Z" fill="#CBCBCB"/>
<path d="M142.171 220.905C142.758 220.318 143.21 219.608 143.494 218.827C143.778 218.046 143.887 217.213 143.814 216.385C143.741 215.557 143.488 214.755 143.071 214.036C142.655 213.317 142.086 212.698 141.404 212.222L146.891 192.781L136.887 195.962L133.21 213.937C132.488 215.135 132.229 216.556 132.485 217.932C132.74 219.307 133.491 220.542 134.595 221.401C135.7 222.26 137.081 222.684 138.477 222.592C139.873 222.501 141.187 221.901 142.171 220.905Z" fill="#FFB7B7"/>
<path d="M145.015 208.988C144.836 209.023 144.655 209.038 144.473 209.034L134.876 208.842C134.515 208.835 134.159 208.751 133.833 208.595C133.507 208.44 133.218 208.217 132.985 207.941C132.751 207.665 132.58 207.343 132.481 206.996C132.382 206.648 132.358 206.284 132.411 205.926L142.146 140.151C142.436 138.249 143.398 136.513 144.856 135.257C146.315 134.002 148.174 133.309 150.099 133.305C151.314 133.308 152.513 133.587 153.604 134.121C154.696 134.655 155.652 135.431 156.4 136.388C157.148 137.346 157.669 138.461 157.923 139.649C158.177 140.838 158.157 142.068 157.866 143.248L150.966 171.196L147.052 206.769C146.996 207.309 146.767 207.816 146.4 208.215C146.033 208.615 145.548 208.886 145.015 208.988Z" fill="#3F3D56"/>
<path d="M149.028 312.823H154.368L156.909 292.223L149.027 292.224L149.028 312.823Z" fill="#FFB7B7"/>
<path d="M147.666 311.08L158.183 311.079H158.184C159.961 311.079 161.666 311.785 162.923 313.042C164.18 314.299 164.886 316.004 164.886 317.782V318L147.666 318L147.666 311.08Z" fill="#2F2E41"/>
<path d="M171.801 311.088L177.108 311.683L181.929 291.495L174.096 290.617L171.801 311.088Z" fill="#FFB7B7"/>
<path d="M170.641 309.204L181.093 310.375C182.86 310.574 184.476 311.466 185.585 312.855C186.694 314.244 187.206 316.017 187.008 317.783L186.983 318L169.87 316.081L170.641 309.204Z" fill="#2F2E41"/>
<path d="M144.015 198.189C144.015 198.189 136.693 214.398 143.159 224.926L147.011 306.896H155.856L164.436 240.682L179.683 260.285L170.394 306.037L181.211 306.644L196.236 260.285C196.236 260.285 184.693 209.165 180.881 207.934L178.376 196.248L144.015 198.189Z" fill="#2F2E41"/>
<path d="M140.756 212.419C140.756 212.419 134.16 219.989 151.585 222.603C169.01 225.217 187.306 221.296 187.742 216.069C188.177 210.841 140.756 212.419 140.756 212.419Z" fill="#CBCBCB"/>
<path d="M228.106 118.512C228.079 119.251 227.89 119.976 227.553 120.634C227.216 121.292 226.738 121.868 226.155 122.322C225.571 122.776 224.894 123.096 224.173 123.26C223.452 123.424 222.704 123.428 221.981 123.272L215.395 132.77L208.646 130.175L218.136 116.892C218.479 115.695 219.25 114.666 220.301 113.999C221.352 113.333 222.612 113.075 223.841 113.274C225.07 113.474 226.182 114.118 226.968 115.083C227.755 116.048 228.159 117.269 228.106 118.512Z" fill="#FFB7B7"/>
<path d="M172.402 130.733L163.09 126.52L151.158 127.373C151.158 127.373 136.774 144.191 142.437 160.309L138.952 216.505C161.169 222.603 171.268 211.165 187.306 216.069L182.352 153.614L172.402 130.733Z" fill="#3F3D56"/>
<path d="M166.179 134.825L172.403 130.733C172.403 130.733 181.048 129.426 184.504 132.779C184.504 132.779 196.234 133.761 199.067 136.689L202.186 137.392L212.548 123.974L218.889 127.42L209.741 152.25L182.352 153.614L166.179 134.825Z" fill="#3F3D56"/>
<path d="M168.326 121.795C175.45 117.9 178.068 108.969 174.174 101.845C170.28 94.7212 161.348 92.1032 154.224 95.9973C147.101 99.8915 144.483 108.823 148.377 115.947C152.271 123.071 161.202 125.689 168.326 121.795Z" fill="#FFB7B7"/>
<path d="M148.561 97.4032C151.185 92.6839 154.464 89.6281 159.862 89.7384C165.261 89.8486 169.931 89.6352 172.36 94.4578C173.002 93.2558 173.323 91.9087 173.293 90.5463C174.027 91.0225 174.605 91.7029 174.956 92.5037C175.308 93.3044 175.417 94.1905 175.271 95.0527C175.743 94.776 176.139 94.3851 176.421 93.9159C176.703 93.4466 176.863 92.914 176.886 92.367C178.688 92.9666 179.156 95.5057 178.244 97.1714C177.333 98.8371 175.545 99.8003 173.829 100.615C172.114 101.429 172.906 105.735 171.786 107.269C171.004 108.339 170.646 109.65 170.119 110.866C170.097 110.914 170.06 110.953 170.013 110.978C168.805 111.651 168.043 112.854 168.256 114.221C168.281 114.323 168.275 114.431 168.239 114.53C166.709 117.411 165.059 120.425 162.287 122.144C160.063 123.487 157.399 123.899 154.874 123.29C152.041 122.612 149.591 120.734 147.825 118.418C146.059 116.101 144.923 113.363 144.07 110.578C143.312 108.108 142.762 105.466 143.362 102.953C143.962 100.439 145.996 98.1121 148.573 97.9179" fill="#2F2E41"/>
</g>
<defs>
<clipPath id="clip0_84_689">
<rect width="362" height="318" fill="white"/>
</clipPath>
</defs>
</svg>
