<svg width="343" height="328" viewBox="0 0 343 328" fill="none" xmlns="http://www.w3.org/2000/svg">
<g clip-path="url(#clip0_84_1135)">
<path d="M162.812 187.902L145.93 188.371L144.523 170.087L160.936 169.618L162.812 187.902Z" fill="#ED9DA0"/>
<path d="M207.831 40.7979C207.526 40.7981 207.233 40.9196 207.017 41.1356C206.801 41.3516 206.679 41.6445 206.679 41.95V81.2421C206.679 81.5476 206.801 81.8405 207.017 82.0564C207.233 82.2724 207.526 82.3939 207.831 82.3942H341.847C342.153 82.3933 342.445 82.2717 342.661 82.0558C342.877 81.8399 342.999 81.5474 343 81.2421V41.95C342.999 41.6445 342.878 41.3516 342.662 41.1356C342.446 40.9196 342.153 40.7981 341.847 40.7979H207.831Z" fill="#E6E6E6"/>
<path d="M209.567 79.5085H340.11V43.6846H209.567V79.5085Z" fill="white"/>
<path d="M323.633 72.0757C323.127 72.0757 322.642 72.2768 322.284 72.6346C321.926 72.9925 321.725 73.4779 321.725 73.984C321.725 74.4902 321.926 74.9756 322.284 75.3335C322.642 75.6914 323.127 75.8924 323.633 75.8924H331.269C331.775 75.8924 332.26 75.6914 332.618 75.3335C332.976 74.9756 333.177 74.4902 333.177 73.984C333.177 73.4779 332.976 72.9925 332.618 72.6346C332.26 72.2768 331.775 72.0757 331.269 72.0757H323.633Z" fill="#ED862D"/>
<path d="M333.179 68.374H245.039V68.8761H333.179V68.374Z" fill="#E6E6E6"/>
<path d="M226.615 72.7107C232.755 72.7107 237.732 67.7344 237.732 61.5959C237.732 55.4574 232.755 50.4812 226.615 50.4812C220.475 50.4812 215.497 55.4574 215.497 61.5959C215.497 67.7344 220.475 72.7107 226.615 72.7107Z" fill="#ED862D"/>
<path d="M245.178 65.5709L244.899 65.153L254.058 59.0481L260.339 62.062L269.373 56.2918L287.343 63.9555L301.654 56.9273L315.548 62.5603L333.01 47.0989L333.343 47.4746L315.648 63.1425L301.672 57.4771L287.355 64.5075L269.417 56.8576L260.371 62.6349L254.096 59.624L245.178 65.5709Z" fill="#3F3D56"/>
<path d="M246.67 72.3381C246.237 72.3381 245.822 72.5101 245.516 72.8161C245.21 73.1221 245.038 73.5372 245.038 73.97C245.038 74.4027 245.21 74.8178 245.516 75.1238C245.822 75.4298 246.237 75.6018 246.67 75.6018H263.746C264.179 75.6018 264.594 75.4298 264.9 75.1238C265.206 74.8178 265.378 74.4027 265.378 73.97C265.378 73.5372 265.206 73.1221 264.9 72.8161C264.594 72.5101 264.179 72.3381 263.746 72.3381H246.67Z" fill="#E6E6E6"/>
<path d="M230.861 56.6238H232.598L228.982 60.202C228.351 60.8242 227.5 61.173 226.613 61.173C225.726 61.173 224.875 60.8242 224.244 60.202L220.63 56.6238H222.367L225.113 59.3406C225.513 59.7348 226.052 59.9558 226.614 59.9558C227.175 59.9558 227.714 59.7348 228.114 59.3406L230.861 56.6238ZM222.346 66.5685H220.608L224.245 62.9702C224.877 62.3479 225.728 61.9991 226.614 61.9991C227.501 61.9991 228.352 62.3479 228.984 62.9702L232.62 66.5685H230.883L228.115 63.8297C227.715 63.4355 227.176 63.2145 226.614 63.2145C226.053 63.2145 225.514 63.4355 225.114 63.8297L222.346 66.5685Z" fill="white"/>
<path d="M94.7657 75.2292C94.4601 75.2295 94.1672 75.351 93.9511 75.567C93.7351 75.783 93.6136 76.0759 93.6133 76.3813V115.674C93.6136 115.979 93.7351 116.272 93.9511 116.488C94.1672 116.704 94.4601 116.825 94.7657 116.826H228.781C229.086 116.825 229.379 116.704 229.595 116.488C229.811 116.272 229.933 115.979 229.933 115.674V76.3821C229.933 76.0766 229.811 75.7838 229.595 75.5678C229.379 75.3518 229.086 75.2303 228.781 75.23L94.7657 75.2292Z" fill="#E6E6E6"/>
<path d="M96.501 113.939H227.045V78.1165H96.501V113.939Z" fill="white"/>
<path d="M210.567 106.507C210.061 106.507 209.575 106.708 209.217 107.066C208.859 107.424 208.658 107.909 208.658 108.415C208.658 108.922 208.859 109.407 209.217 109.765C209.575 110.123 210.061 110.324 210.567 110.324H218.202C218.708 110.324 219.194 110.123 219.552 109.765C219.91 109.407 220.111 108.922 220.111 108.415C220.111 107.909 219.91 107.424 219.552 107.066C219.194 106.708 218.708 106.507 218.202 106.507H210.567Z" fill="#ED862D"/>
<path d="M220.111 102.805H131.972V103.307H220.111V102.805Z" fill="#E6E6E6"/>
<path d="M113.548 107.142C119.688 107.142 124.666 102.166 124.666 96.0273C124.666 89.8888 119.688 84.9126 113.548 84.9126C107.408 84.9126 102.431 89.8888 102.431 96.0273C102.431 102.166 107.408 107.142 113.548 107.142Z" fill="#ED862D"/>
<path d="M132.112 100.002L131.833 99.5841L140.992 93.4799L147.272 96.4938L156.306 90.7236L156.428 90.7754L174.277 98.3872L188.588 91.3591L202.484 96.9914L219.945 81.5295L220.278 81.9052L202.584 97.5732L188.607 91.9078L174.291 98.9381L156.353 91.2894L147.308 97.0667L141.032 94.0554L132.112 100.002Z" fill="#3F3D56"/>
<path d="M133.604 106.77C133.171 106.77 132.756 106.942 132.45 107.248C132.144 107.554 131.972 107.969 131.972 108.402C131.972 108.834 132.144 109.249 132.45 109.555C132.756 109.861 133.171 110.033 133.604 110.033H150.679C151.112 110.033 151.527 109.861 151.833 109.555C152.14 109.249 152.312 108.834 152.312 108.402C152.312 107.969 152.14 107.554 151.833 107.248C151.527 106.942 151.112 106.77 150.679 106.77H133.604Z" fill="#E6E6E6"/>
<path d="M118.022 94.7299C118.229 93.3389 117.17 92.5912 115.722 92.0925L116.191 90.2083L115.044 89.9224L114.586 91.757C114.285 91.6825 113.975 91.6109 113.668 91.5408L114.128 89.6943L112.982 89.4084L112.512 91.2918C112.262 91.2352 112.017 91.18 111.779 91.1196V91.1137L110.197 90.7186L109.892 91.9434C109.892 91.9434 110.743 92.1383 110.725 92.1506C110.884 92.1696 111.029 92.2502 111.129 92.3749C111.229 92.4997 111.276 92.6587 111.26 92.8178L110.725 94.9643C110.765 94.9741 110.805 94.9866 110.844 95.0016L110.723 94.9714L109.973 97.9782C109.956 98.0307 109.93 98.0794 109.894 98.1215C109.859 98.1636 109.816 98.1984 109.767 98.2237C109.718 98.249 109.665 98.2644 109.61 98.2691C109.555 98.2737 109.5 98.2674 109.447 98.2507C109.459 98.2674 108.613 98.0427 108.613 98.0427L108.044 99.3558L109.537 99.7285C109.815 99.7982 110.087 99.8709 110.355 99.9395L109.88 101.846L111.026 102.131L111.497 100.246C111.809 100.331 112.113 100.409 112.41 100.483L111.942 102.36L113.089 102.646L113.564 100.745C115.52 101.115 116.991 100.966 117.61 99.1974C118.108 97.7732 117.585 96.9517 116.556 96.4157C116.952 96.3357 117.31 96.1271 117.575 95.8224C117.84 95.5177 117.997 95.134 118.021 94.731L118.022 94.7299ZM115.4 98.4046C115.045 99.8288 112.647 99.0591 111.869 98.8657L112.499 96.3408C113.277 96.535 115.77 96.9189 115.401 98.4042L115.4 98.4046ZM115.755 94.7094C115.431 96.005 113.435 95.3467 112.787 95.1853L113.358 92.8953C114.006 93.0567 116.092 93.3579 115.755 94.7094Z" fill="white"/>
<path d="M1.15241 20C0.846861 20.0003 0.553905 20.1218 0.337851 20.3378C0.121797 20.5538 0.00029612 20.8466 0 21.1521V60.4443C0.00029612 60.7497 0.121797 61.0426 0.337851 61.2586C0.553905 61.4746 0.846861 61.5961 1.15241 61.5964H135.167C135.473 61.5961 135.766 61.4746 135.982 61.2586C136.198 61.0426 136.319 60.7497 136.32 60.4443V21.1521C136.319 20.8468 136.197 20.5543 135.981 20.3384C135.765 20.1226 135.473 20.0009 135.167 20H1.15241Z" fill="#E6E6E6"/>
<path d="M2.8877 58.7093H133.432V22.8872H2.8877V58.7093Z" fill="white"/>
<path d="M116.955 51.2778C116.704 51.2778 116.456 51.3272 116.224 51.4231C115.993 51.519 115.782 51.6596 115.605 51.8368C115.428 52.014 115.287 52.2244 115.191 52.4559C115.095 52.6874 115.046 52.9356 115.046 53.1862C115.046 53.4368 115.095 53.685 115.191 53.9165C115.287 54.148 115.428 54.3584 115.605 54.5356C115.782 54.7128 115.993 54.8534 116.224 54.9493C116.456 55.0452 116.704 55.0946 116.955 55.0946H124.59C125.096 55.0946 125.582 54.8935 125.94 54.5356C126.298 54.1777 126.499 53.6923 126.499 53.1862C126.499 52.6801 126.298 52.1947 125.94 51.8368C125.582 51.4789 125.096 51.2778 124.59 51.2778H116.955Z" fill="#ED862D"/>
<path d="M126.499 47.5762H38.3594V48.0782H126.499V47.5762Z" fill="#E6E6E6"/>
<path d="M19.9351 51.9128C26.0752 51.9128 31.0527 46.9366 31.0527 40.7981C31.0527 34.6596 26.0752 29.6833 19.9351 29.6833C13.7949 29.6833 8.81738 34.6596 8.81738 40.7981C8.81738 46.9366 13.7949 51.9128 19.9351 51.9128Z" fill="#ED862D"/>
<path d="M38.4982 44.7727L38.2197 44.3548L47.3786 38.2507L53.6596 41.2646L62.6932 35.4944L62.8154 35.5462L80.6637 43.158L94.9747 36.1299L108.871 41.7618L126.332 26.3003L126.665 26.6764L108.971 42.344L94.9944 36.6785L80.6779 43.7089L62.7401 36.059L53.6939 41.8363L47.4192 38.8269L38.4982 44.7727Z" fill="#3F3D56"/>
<path d="M39.9916 51.5405C39.5587 51.5405 39.1435 51.7124 38.8374 52.0185C38.5313 52.3245 38.3594 52.7395 38.3594 53.1723C38.3594 53.6051 38.5313 54.0202 38.8374 54.3262C39.1435 54.6322 39.5587 54.8041 39.9916 54.8041H57.067C57.4999 54.8041 57.9151 54.6322 58.2212 54.3262C58.5273 54.0202 58.6993 53.6051 58.6993 53.1723C58.6993 52.7395 58.5273 52.3245 58.2212 52.0185C57.9151 51.7124 57.4999 51.5405 57.067 51.5405H39.9916Z" fill="#E6E6E6"/>
<path d="M19.9337 48.1237L24.4344 41.7874L19.9337 44.4441L15.4355 41.7874L19.9333 48.1237H19.9337Z" fill="white"/>
<path d="M19.9333 43.5921L24.4311 40.9342L19.9333 33.4729L15.4355 40.9342L19.9333 43.5921Z" fill="white"/>
<path d="M143.142 250.019C140.46 250.022 137.888 251.088 135.992 252.984C134.095 254.88 133.028 257.45 133.024 260.132V337.883C133.027 340.564 134.094 343.135 135.991 345.031C137.888 346.928 140.459 347.994 143.142 347.997H192.309C194.992 347.994 197.563 346.928 199.46 345.031C201.357 343.135 202.424 340.564 202.427 337.883V260.132C202.424 257.45 201.357 254.879 199.46 252.983C197.563 251.087 194.992 250.02 192.309 250.017L143.142 250.019Z" fill="#E6E6E6"/>
<path d="M191.588 241.814C193.426 238.688 194.396 235.127 194.395 231.501H144.571C144.571 235.128 145.54 238.69 147.38 241.817L137.244 241.815C137.244 247.252 141.837 251.66 147.502 251.66H160.056C162.165 252.284 164.353 252.599 166.553 252.597H172.414C174.614 252.599 176.802 252.283 178.911 251.659H191.464C197.131 251.659 201.722 247.251 201.722 241.814H191.588Z" fill="#090814"/>
<path d="M154.801 312.839C154.893 313.839 154.681 314.843 154.191 315.719C153.701 316.595 152.957 317.302 152.057 317.748L152.032 317.761C147.342 320.436 143.505 322.535 138.95 322.148C138.491 322.108 138.048 321.962 137.654 321.722C137.261 321.482 136.928 321.154 136.683 320.765C136.437 320.375 136.284 319.934 136.237 319.476C136.189 319.018 136.248 318.555 136.409 318.123L142.887 305.807C146.651 301.423 149.303 301.419 153.907 305.103L154.801 312.839Z" fill="#090814"/>
<path d="M181.588 312.839C181.495 313.839 181.708 314.843 182.197 315.719C182.687 316.595 183.431 317.302 184.331 317.748L184.356 317.761C189.046 320.436 192.883 322.535 197.438 322.148C197.897 322.108 198.341 321.962 198.734 321.722C199.127 321.482 199.46 321.154 199.705 320.764C199.951 320.375 200.104 319.934 200.151 319.476C200.199 319.017 200.14 318.554 199.979 318.123L193.5 305.807C189.737 301.424 187.085 301.419 182.48 305.103L181.588 312.839Z" fill="#090814"/>
<path d="M162.787 167.742H144.761C143.944 167.744 143.149 167.482 142.492 166.996C141.836 166.51 141.354 165.826 141.118 165.044C140.563 163.195 139.846 161.4 139.835 159.773C139.79 153.456 140.105 149.435 142.883 146.88C152.14 139.863 158.847 141.154 165.158 148.52C167.372 152.636 166.804 158.779 165.605 165.381C165.486 166.042 165.139 166.641 164.624 167.072C164.109 167.504 163.459 167.741 162.787 167.742Z" fill="#090814"/>
<path d="M153.433 175.712C160.167 175.712 165.626 170.255 165.626 163.523C165.626 156.791 160.167 151.334 153.433 151.334C146.7 151.334 141.241 156.791 141.241 163.523C141.241 170.255 146.7 175.712 153.433 175.712Z" fill="#ED9DA0"/>
<path d="M191.412 231.5L179.763 236.891C177.811 241.52 175.121 241.387 171.717 236.657C168.468 242.346 161.471 238.937 158.052 236.452C155.848 235.33 153.411 234.742 150.937 234.737C148.464 234.732 146.024 235.309 143.815 236.423L131.389 181.338C135.219 178.046 140.323 175.978 145.221 174.54L154.834 186.495L161.399 174.774C165.962 171.107 172.371 171.1 179.22 171.961L183.219 193.33C180.581 210.186 184.546 218.64 191.412 231.5Z" fill="#ED862D"/>
<path d="M152.974 304.166L143.126 305.104L128.537 240.645C128.206 239.153 128.214 237.605 128.561 236.116C128.908 234.627 129.585 233.235 130.542 232.042C131.499 230.85 132.712 229.887 134.091 229.226C135.469 228.564 136.979 228.221 138.508 228.22C139.962 228.221 141.4 228.531 142.724 229.132C144.049 229.732 145.23 230.608 146.188 231.701C147.147 232.794 147.861 234.079 148.283 235.471C148.705 236.862 148.824 238.327 148.634 239.769L146.878 253.067L152.974 304.166Z" fill="#090814"/>
<path d="M182.477 305.104L192.324 304.635L206.912 240.645C207.244 239.153 207.235 237.605 206.888 236.116C206.541 234.627 205.865 233.235 204.908 232.043C203.951 230.85 202.738 229.888 201.36 229.226C199.981 228.565 198.471 228.221 196.942 228.22C195.488 228.221 194.051 228.531 192.726 229.132C191.402 229.732 190.221 230.608 189.262 231.701C188.304 232.794 187.59 234.079 187.168 235.471C186.746 236.862 186.626 238.327 186.816 239.769L188.573 253.067L182.477 305.104Z" fill="#090814"/>
<path d="M214.479 212.598L206.153 234.079C201.6 230.6 197.93 230.124 192.88 231.97C191.484 231.776 190.444 228.707 190.444 227.298C190.444 226.571 190.725 225.872 191.227 225.347C191.729 224.822 192.414 224.51 193.141 224.477L200.761 224.131C202.155 220.481 203.003 216.646 203.276 212.748C206.931 211.712 210.797 211.66 214.479 212.598Z" fill="#ED9DA0"/>
<path d="M215.299 213.217L217.329 205.644C218.215 202.875 218.128 199.885 217.082 197.172C216.036 194.458 214.093 192.184 211.577 190.726L179.191 171.962L178.722 192.589L202.637 202.903C203.298 206.412 203.513 209.991 203.276 213.555C207.007 212.447 211.559 212.211 215.299 213.217Z" fill="#ED862D"/>
<path d="M165.39 156.726L152.729 159.07C150.366 159.07 148.099 158.131 146.428 156.461C144.757 154.79 143.818 152.524 143.818 150.162H165.858L165.39 156.726Z" fill="#090814"/>
<path d="M142.186 161.414C142.833 161.414 143.358 160.364 143.358 159.07C143.358 157.775 142.833 156.726 142.186 156.726C141.538 156.726 141.014 157.775 141.014 159.07C141.014 160.364 141.538 161.414 142.186 161.414Z" fill="#ED9DA0"/>
<path d="M180.85 196.378H180.714V192.649C180.714 192.076 180.487 191.527 180.082 191.122C179.677 190.718 179.128 190.49 178.555 190.49H170.651C170.079 190.49 169.529 190.718 169.125 191.122C168.72 191.527 168.492 192.076 168.492 192.649V213.11C168.492 213.682 168.72 214.231 169.125 214.635C169.53 215.04 170.079 215.267 170.651 215.267H178.555C179.128 215.267 179.677 215.04 180.082 214.635C180.487 214.23 180.714 213.681 180.714 213.108V199.033H180.85V196.378Z" fill="#E6E6E6"/>
<path d="M174.286 198.45C175.322 198.45 176.162 197.61 176.162 196.574C176.162 195.539 175.322 194.699 174.286 194.699C173.25 194.699 172.41 195.539 172.41 196.574C172.41 197.61 173.25 198.45 174.286 198.45Z" fill="#ED862D"/>
<path d="M172.652 213.686C163.006 221.256 153.335 227.557 146.158 228.454L144.985 215.561C151.879 214.568 161.096 210.027 170.777 204.778L175.512 202.318C176.275 201.922 177.125 201.72 177.986 201.732C178.846 201.744 179.69 201.969 180.442 202.387C181.195 202.805 181.831 203.403 182.296 204.127C182.761 204.851 183.038 205.679 183.104 206.537C183.198 207.754 182.861 208.965 182.152 209.958C181.443 210.952 180.408 211.665 179.227 211.972L172.652 213.686Z" fill="#ED9DA0"/>
<path d="M154.381 228.688L135.155 229.157C128.686 216.469 126.338 202.93 127.652 188.634C127.652 187.106 128.022 185.601 128.731 184.248C129.441 182.895 130.467 181.734 131.724 180.864L133.748 179.463C142.403 192.308 147.771 204.235 145.939 214.155L151.566 213.686C147.923 218.603 149.61 223.617 154.381 228.688Z" fill="#ED862D"/>
</g>
<defs>
<clipPath id="clip0_84_1135">
<rect width="343" height="328" fill="white"/>
</clipPath>
</defs>
</svg>
