<svg width="372" height="268" viewBox="0 0 372 268" fill="none" xmlns="http://www.w3.org/2000/svg">
<g clip-path="url(#clip0_84_1309)">
<path d="M371.462 265.945H0.537572C0.394999 265.945 0.258265 265.888 0.157451 265.788C0.0566365 265.687 0 265.551 0 265.408C0 265.266 0.0566365 265.13 0.157451 265.029C0.258265 264.929 0.394999 264.872 0.537572 264.872H371.462C371.605 264.872 371.742 264.929 371.843 265.029C371.943 265.13 372 265.266 372 265.408C372 265.551 371.943 265.687 371.843 265.788C371.742 265.888 371.605 265.945 371.462 265.945Z" fill="#CCCCCC"/>
<path d="M334.749 172.442H116.494C115.567 172.442 114.679 172.81 114.023 173.463C113.368 174.117 113 175.003 113 175.927C113 176.851 113.368 177.738 114.023 178.391C114.679 179.045 115.567 179.412 116.494 179.412H122.676V262.781C122.676 263.705 123.044 264.591 123.7 265.245C124.355 265.898 125.244 266.266 126.171 266.266C127.097 266.266 127.986 265.898 128.641 265.245C129.297 264.591 129.665 263.705 129.665 262.781L129.718 179.412H321.04V262.781C321.04 263.705 321.409 264.591 322.064 265.245C322.719 265.898 323.608 266.266 324.535 266.266C325.461 266.266 326.35 265.898 327.005 265.245C327.661 264.591 328.029 263.705 328.029 262.781V181.25L329.046 179.412H334.749C335.675 179.412 336.564 179.045 337.219 178.391C337.875 177.738 338.243 176.851 338.243 175.927C338.243 175.003 337.875 174.117 337.219 173.463C336.564 172.81 335.675 172.442 334.749 172.442Z" fill="#CCCCCC"/>
<path d="M237.497 174.266H171.385C170.105 174.265 168.878 173.757 167.972 172.854C167.067 171.951 166.558 170.727 166.557 169.451V133.15C166.558 131.873 167.067 130.649 167.972 129.746C168.878 128.843 170.105 128.336 171.385 128.334H237.497C238.777 128.336 240.004 128.843 240.909 129.746C241.814 130.649 242.324 131.873 242.325 133.15V169.451C242.324 170.727 241.814 171.951 240.909 172.854C240.004 173.757 238.777 174.265 237.497 174.266Z" fill="#3F3D56"/>
<path d="M237.496 132.04H171.385C171.09 132.041 170.808 132.158 170.599 132.366C170.39 132.574 170.273 132.856 170.272 133.15V169.452C170.273 169.746 170.39 170.028 170.599 170.236C170.808 170.444 171.09 170.561 171.385 170.561H237.496C237.791 170.561 238.074 170.444 238.282 170.236C238.491 170.028 238.608 169.746 238.609 169.452V133.15C238.608 132.856 238.491 132.574 238.282 132.366C238.074 132.158 237.791 132.041 237.496 132.04Z" fill="white"/>
<path d="M210.079 157.741C210.079 157.741 202.165 155.923 197.812 159.257C193.459 162.592 203.352 170.17 203.352 170.17L210.079 157.741Z" fill="#2F2E41"/>
<path d="M204.828 154.305C208.951 154.305 212.293 150.972 212.293 146.86C212.293 142.748 208.951 139.414 204.828 139.414C200.705 139.414 197.362 142.748 197.362 146.86C197.362 150.972 200.705 154.305 204.828 154.305Z" fill="#A0616A"/>
<path d="M199.055 136.408C199.553 135.566 200.275 134.876 201.14 134.417C202.006 133.958 202.983 133.746 203.961 133.805C204.985 133.933 205.985 134.212 206.926 134.633L211.807 136.531C213.069 137.022 214.452 137.624 215 138.861C215.509 140.008 215.13 141.334 214.745 142.529L212.92 148.208C212.717 146.923 212.37 145.664 211.885 144.456C211.392 143.24 210.5 142.227 209.356 141.58C208.088 140.932 206.594 140.945 205.171 141.014C203.156 141.11 200.964 141.366 199.532 142.784C198.772 143.589 198.257 144.593 198.046 145.679C197.839 146.759 197.735 147.856 197.735 148.955C196.908 147.538 196.212 146.05 195.655 144.508C195.196 143.36 194.935 142.143 194.882 140.908C194.834 139.662 195.248 138.443 196.045 137.484C196.45 137.015 196.978 136.668 197.57 136.482C198.162 136.296 198.794 136.279 199.395 136.432L199.055 136.408Z" fill="#2F2E41"/>
<path d="M222.653 164.198C222.583 163.946 222.44 163.721 222.242 163.55C222.045 163.379 221.8 163.271 221.541 163.238C221.524 163.226 221.506 163.215 221.487 163.206L210.342 156.977C210.024 156.799 209.649 156.75 209.296 156.841C208.943 156.932 208.638 157.155 208.446 157.464L205.398 162.385L200.807 157.807L200.734 157.734C200.498 157.499 200.187 157.354 199.855 157.325C199.523 157.297 199.192 157.385 198.919 157.576L189.759 163.972C189.743 163.972 189.727 163.978 189.711 163.978C189.273 164.051 188.873 164.27 188.576 164.601C188.28 164.931 188.106 165.353 188.082 165.795L187.846 170.561H224.422L222.653 164.198Z" fill="#ED862D"/>
<path d="M243.067 169.821H236.01C236.01 169.624 235.932 169.436 235.793 169.297C235.653 169.158 235.464 169.08 235.267 169.08H233.039C232.842 169.08 232.653 169.158 232.514 169.297C232.374 169.436 232.296 169.624 232.296 169.821H230.067C230.067 169.624 229.989 169.436 229.85 169.297C229.711 169.158 229.522 169.08 229.325 169.08H227.096C226.899 169.08 226.71 169.158 226.571 169.297C226.432 169.436 226.353 169.624 226.353 169.821H224.125C224.125 169.624 224.047 169.436 223.907 169.297C223.768 169.158 223.579 169.08 223.382 169.08H221.154C220.957 169.08 220.768 169.158 220.628 169.297C220.489 169.436 220.411 169.624 220.411 169.821H218.182C218.182 169.624 218.104 169.436 217.965 169.297C217.825 169.158 217.636 169.08 217.439 169.08H215.211C215.014 169.08 214.825 169.158 214.686 169.297C214.546 169.436 214.468 169.624 214.468 169.821H212.24C212.24 169.624 212.161 169.436 212.022 169.297C211.883 169.158 211.694 169.08 211.497 169.08H209.268C209.071 169.08 208.882 169.158 208.743 169.297C208.604 169.436 208.526 169.624 208.526 169.821H206.297C206.297 169.624 206.219 169.436 206.079 169.297C205.94 169.158 205.751 169.08 205.554 169.08H203.326C203.129 169.08 202.94 169.158 202.8 169.297C202.661 169.436 202.583 169.624 202.583 169.821H200.354C200.354 169.624 200.276 169.436 200.137 169.297C199.997 169.158 199.809 169.08 199.612 169.08H197.383C197.186 169.08 196.997 169.158 196.858 169.297C196.719 169.436 196.64 169.624 196.64 169.821H194.412C194.412 169.624 194.334 169.436 194.194 169.297C194.055 169.158 193.866 169.08 193.669 169.08H191.44C191.243 169.08 191.054 169.158 190.915 169.297C190.776 169.436 190.698 169.624 190.698 169.821H188.469C188.469 169.624 188.391 169.436 188.252 169.297C188.112 169.158 187.923 169.08 187.726 169.08H185.498C185.301 169.08 185.112 169.158 184.973 169.297C184.833 169.436 184.755 169.624 184.755 169.821H182.527C182.527 169.624 182.448 169.436 182.309 169.297C182.17 169.158 181.981 169.08 181.784 169.08H179.555C179.358 169.08 179.169 169.158 179.03 169.297C178.891 169.436 178.812 169.624 178.812 169.821H176.584C176.584 169.624 176.506 169.436 176.366 169.297C176.227 169.158 176.038 169.08 175.841 169.08H173.613C173.416 169.08 173.227 169.158 173.087 169.297C172.948 169.436 172.87 169.624 172.87 169.821H165.813C165.222 169.822 164.657 170.056 164.239 170.473C163.822 170.89 163.588 171.455 163.588 172.043C163.588 172.632 163.822 173.197 164.239 173.614C164.657 174.03 165.222 174.265 165.813 174.266H243.067C243.658 174.266 244.225 174.032 244.643 173.615C245.061 173.198 245.295 172.633 245.295 172.043C245.295 171.454 245.061 170.889 244.643 170.472C244.225 170.055 243.658 169.821 243.067 169.821Z" fill="#3F3D56"/>
<path d="M154.325 156.914V171.672H117.253C116.26 171.706 115.27 171.541 114.342 171.185C113.414 170.83 112.568 170.292 111.853 169.604C111.138 168.915 110.569 168.09 110.181 167.177C109.793 166.265 109.593 165.284 109.593 164.293C109.593 163.302 109.793 162.321 110.181 161.408C110.569 160.496 111.138 159.671 111.853 158.982C112.568 158.294 113.414 157.756 114.342 157.4C115.27 157.045 116.26 156.88 117.253 156.914H154.325Z" fill="#F2F2F2"/>
<path d="M155.236 171.558C155.236 171.709 155.176 171.853 155.069 171.959C154.962 172.066 154.818 172.126 154.667 172.126H116.593C114.525 172.126 112.542 171.307 111.08 169.848C109.617 168.39 108.796 166.412 108.796 164.35C108.796 162.287 109.617 160.31 111.08 158.851C112.542 157.393 114.525 156.574 116.593 156.574H154.667C154.818 156.574 154.962 156.634 155.069 156.74C155.176 156.846 155.236 156.991 155.236 157.141C155.236 157.292 155.176 157.436 155.069 157.543C154.962 157.649 154.818 157.709 154.667 157.709H116.593C114.828 157.71 113.136 158.411 111.888 159.656C110.641 160.901 109.94 162.59 109.94 164.35C109.94 166.11 110.641 167.798 111.888 169.043C113.136 170.289 114.828 170.989 116.593 170.991H154.667C154.818 170.991 154.962 171.05 155.069 171.157C155.176 171.263 155.236 171.408 155.236 171.558Z" fill="#ED862D"/>
<path d="M154.326 160.32H114.488C114.473 160.32 114.458 160.317 114.444 160.311C114.43 160.306 114.417 160.297 114.407 160.287C114.396 160.276 114.388 160.264 114.382 160.25C114.376 160.236 114.373 160.221 114.373 160.206C114.373 160.191 114.376 160.176 114.382 160.163C114.388 160.149 114.396 160.136 114.407 160.126C114.417 160.115 114.43 160.107 114.444 160.101C114.458 160.096 114.473 160.093 114.488 160.093H154.326C154.356 160.093 154.385 160.105 154.406 160.126C154.427 160.148 154.439 160.176 154.439 160.206C154.439 160.236 154.427 160.265 154.406 160.286C154.385 160.308 154.356 160.32 154.326 160.32Z" fill="#CCCCCC"/>
<path d="M154.326 163.044H114.488C114.473 163.044 114.458 163.041 114.444 163.036C114.43 163.03 114.417 163.022 114.407 163.011C114.396 163.001 114.388 162.988 114.382 162.974C114.376 162.96 114.373 162.946 114.373 162.931C114.373 162.916 114.376 162.901 114.382 162.887C114.388 162.873 114.396 162.861 114.407 162.85C114.417 162.84 114.43 162.831 114.444 162.826C114.458 162.82 114.473 162.817 114.488 162.817H154.326C154.356 162.817 154.385 162.829 154.406 162.851C154.427 162.872 154.439 162.901 154.439 162.931C154.439 162.961 154.427 162.989 154.406 163.011C154.385 163.032 154.356 163.044 154.326 163.044Z" fill="#CCCCCC"/>
<path d="M154.326 165.769H114.488C114.473 165.769 114.458 165.766 114.444 165.76C114.43 165.755 114.417 165.746 114.407 165.736C114.396 165.725 114.388 165.713 114.382 165.699C114.376 165.685 114.373 165.67 114.373 165.655C114.373 165.64 114.376 165.625 114.382 165.612C114.388 165.598 114.396 165.585 114.407 165.575C114.417 165.564 114.43 165.556 114.444 165.55C114.458 165.545 114.473 165.542 114.488 165.542H154.326C154.356 165.542 154.385 165.554 154.406 165.575C154.427 165.597 154.439 165.625 154.439 165.655C154.439 165.685 154.427 165.714 154.406 165.735C154.385 165.757 154.356 165.769 154.326 165.769Z" fill="#CCCCCC"/>
<path d="M154.326 168.493H114.488C114.473 168.493 114.458 168.49 114.444 168.485C114.43 168.479 114.417 168.471 114.407 168.46C114.396 168.45 114.388 168.437 114.382 168.423C114.376 168.409 114.373 168.395 114.373 168.38C114.373 168.365 114.376 168.35 114.382 168.336C114.388 168.322 114.396 168.31 114.407 168.299C114.417 168.289 114.43 168.28 114.444 168.275C114.458 168.269 114.473 168.266 114.488 168.266H154.326C154.356 168.266 154.385 168.278 154.406 168.3C154.427 168.321 154.439 168.35 154.439 168.38C154.439 168.41 154.427 168.438 154.406 168.46C154.385 168.481 154.356 168.493 154.326 168.493Z" fill="#CCCCCC"/>
<path d="M147.337 141.367V156.124H110.265C109.272 156.158 108.282 155.993 107.354 155.638C106.426 155.282 105.579 154.745 104.865 154.056C104.15 153.367 103.581 152.542 103.193 151.63C102.805 150.717 102.604 149.736 102.604 148.745C102.604 147.754 102.805 146.773 103.193 145.861C103.581 144.948 104.15 144.123 104.865 143.435C105.579 142.746 106.426 142.208 107.354 141.853C108.282 141.497 109.272 141.332 110.265 141.367H147.337Z" fill="#F2F2F2"/>
<path d="M148.248 156.01C148.248 156.161 148.188 156.305 148.081 156.412C147.974 156.518 147.829 156.578 147.679 156.578H109.605C108.581 156.578 107.567 156.377 106.621 155.986C105.675 155.595 104.815 155.022 104.091 154.3C103.367 153.578 102.793 152.721 102.401 151.778C102.009 150.834 101.808 149.823 101.808 148.802C101.808 147.781 102.009 146.77 102.401 145.826C102.793 144.883 103.367 144.025 104.091 143.303C104.815 142.581 105.675 142.009 106.621 141.618C107.567 141.227 108.581 141.026 109.605 141.026H147.679C147.829 141.026 147.974 141.086 148.081 141.192C148.188 141.299 148.248 141.443 148.248 141.593C148.248 141.744 148.188 141.888 148.081 141.995C147.974 142.101 147.829 142.161 147.679 142.161H109.605C107.84 142.163 106.147 142.863 104.9 144.108C103.653 145.353 102.952 147.042 102.952 148.802C102.952 150.562 103.653 152.25 104.9 153.496C106.147 154.741 107.84 155.441 109.605 155.443H147.679C147.829 155.443 147.974 155.503 148.081 155.609C148.188 155.715 148.248 155.86 148.248 156.01Z" fill="#3F3D56"/>
<path d="M147.338 144.772H107.499C107.484 144.772 107.469 144.769 107.456 144.764C107.442 144.758 107.429 144.75 107.418 144.739C107.408 144.728 107.399 144.716 107.394 144.702C107.388 144.688 107.385 144.673 107.385 144.658C107.385 144.643 107.388 144.629 107.394 144.615C107.399 144.601 107.408 144.588 107.418 144.578C107.429 144.567 107.442 144.559 107.456 144.553C107.469 144.548 107.484 144.545 107.499 144.545H147.338C147.368 144.545 147.396 144.557 147.418 144.578C147.439 144.6 147.451 144.628 147.451 144.658C147.451 144.688 147.439 144.717 147.418 144.738C147.396 144.76 147.368 144.772 147.338 144.772Z" fill="#CCCCCC"/>
<path d="M147.338 147.496H107.499C107.484 147.496 107.469 147.494 107.456 147.488C107.442 147.482 107.429 147.474 107.418 147.463C107.408 147.453 107.399 147.44 107.394 147.426C107.388 147.413 107.385 147.398 107.385 147.383C107.385 147.368 107.388 147.353 107.394 147.339C107.399 147.325 107.408 147.313 107.418 147.302C107.429 147.292 107.442 147.283 107.456 147.278C107.469 147.272 107.484 147.269 107.499 147.269H147.338C147.368 147.269 147.396 147.282 147.418 147.303C147.439 147.324 147.451 147.353 147.451 147.383C147.451 147.413 147.439 147.442 147.418 147.463C147.396 147.484 147.368 147.496 147.338 147.496Z" fill="#CCCCCC"/>
<path d="M147.338 150.221H107.499C107.484 150.221 107.469 150.218 107.456 150.213C107.442 150.207 107.429 150.199 107.418 150.188C107.408 150.177 107.399 150.165 107.394 150.151C107.388 150.137 107.385 150.122 107.385 150.107C107.385 150.092 107.388 150.078 107.394 150.064C107.399 150.05 107.408 150.037 107.418 150.027C107.429 150.016 107.442 150.008 107.456 150.002C107.469 149.997 107.484 149.994 107.499 149.994H147.338C147.368 149.994 147.396 150.006 147.418 150.027C147.439 150.049 147.451 150.077 147.451 150.107C147.451 150.137 147.439 150.166 147.418 150.187C147.396 150.209 147.368 150.221 147.338 150.221Z" fill="#CCCCCC"/>
<path d="M147.338 152.945H107.499C107.484 152.945 107.469 152.943 107.456 152.937C107.442 152.931 107.429 152.923 107.418 152.912C107.408 152.902 107.399 152.889 107.394 152.875C107.388 152.862 107.385 152.847 107.385 152.832C107.385 152.817 107.388 152.802 107.394 152.788C107.399 152.774 107.408 152.762 107.418 152.751C107.429 152.741 107.442 152.732 107.456 152.727C107.469 152.721 107.484 152.718 107.499 152.718H147.338C147.368 152.718 147.396 152.731 147.418 152.752C147.439 152.773 147.451 152.802 147.451 152.832C147.451 152.862 147.439 152.891 147.418 152.912C147.396 152.933 147.368 152.945 147.338 152.945Z" fill="#CCCCCC"/>
<path d="M190.464 224.126V211.259C190.464 210.691 190.237 210.145 189.834 209.743C189.431 209.341 188.884 209.115 188.314 209.115H139.394C138.824 209.115 138.277 209.341 137.874 209.743C137.471 210.145 137.244 210.691 137.244 211.259V224.126H190.464Z" fill="#CCCCCC"/>
<path d="M190.464 228.952H137.244V245.572H190.464V228.952Z" fill="#CCCCCC"/>
<path d="M137.244 250.397V263.264C137.244 263.833 137.471 264.378 137.874 264.78C138.277 265.182 138.824 265.408 139.394 265.408H188.314C188.884 265.408 189.431 265.182 189.834 264.78C190.237 264.378 190.464 263.833 190.464 263.264V250.397H137.244Z" fill="#CCCCCC"/>
<path d="M163.585 218.765C164.476 218.765 165.198 218.045 165.198 217.157C165.198 216.268 164.476 215.548 163.585 215.548C162.695 215.548 161.973 216.268 161.973 217.157C161.973 218.045 162.695 218.765 163.585 218.765Z" fill="white"/>
<path d="M163.585 240.21C164.476 240.21 165.198 239.49 165.198 238.602C165.198 237.714 164.476 236.994 163.585 236.994C162.695 236.994 161.973 237.714 161.973 238.602C161.973 239.49 162.695 240.21 163.585 240.21Z" fill="white"/>
<path d="M163.671 261.201C164.562 261.201 165.284 260.481 165.284 259.593C165.284 258.705 164.562 257.985 163.671 257.985C162.781 257.985 162.059 258.705 162.059 259.593C162.059 260.481 162.781 261.201 163.671 261.201Z" fill="white"/>
<path d="M184.43 194.443V209.201H147.358C146.364 209.235 145.374 209.07 144.447 208.715C143.519 208.359 142.672 207.821 141.957 207.133C141.242 206.444 140.674 205.619 140.286 204.707C139.897 203.794 139.697 202.813 139.697 201.822C139.697 200.831 139.897 199.85 140.286 198.938C140.674 198.025 141.242 197.2 141.957 196.511C142.672 195.823 143.519 195.285 144.447 194.93C145.374 194.574 146.364 194.409 147.358 194.443H184.43Z" fill="#F2F2F2"/>
<path d="M185.34 209.087C185.34 209.238 185.28 209.382 185.173 209.489C185.067 209.595 184.922 209.655 184.771 209.655H146.697C145.672 209.656 144.658 209.455 143.711 209.065C142.764 208.675 141.904 208.102 141.179 207.38C140.455 206.658 139.88 205.8 139.488 204.856C139.095 203.912 138.894 202.901 138.894 201.879C138.894 200.857 139.095 199.846 139.488 198.902C139.88 197.958 140.455 197.1 141.179 196.378C141.904 195.656 142.764 195.083 143.711 194.693C144.658 194.303 145.672 194.102 146.697 194.103H184.771C184.922 194.103 185.067 194.163 185.173 194.269C185.28 194.376 185.34 194.52 185.34 194.671C185.34 194.821 185.28 194.966 185.173 195.072C185.067 195.178 184.922 195.238 184.771 195.238H146.697C144.932 195.24 143.24 195.94 141.992 197.185C140.745 198.431 140.044 200.119 140.044 201.879C140.044 203.639 140.745 205.327 141.992 206.573C143.24 207.818 144.932 208.518 146.697 208.52H184.771C184.922 208.52 185.067 208.58 185.173 208.686C185.28 208.793 185.34 208.937 185.34 209.087Z" fill="#3F3D56"/>
<path d="M184.429 197.849H144.591C144.576 197.849 144.561 197.846 144.547 197.841C144.533 197.835 144.521 197.827 144.51 197.816C144.5 197.806 144.491 197.793 144.485 197.779C144.48 197.765 144.477 197.751 144.477 197.736C144.477 197.721 144.48 197.706 144.485 197.692C144.491 197.678 144.5 197.666 144.51 197.655C144.521 197.645 144.533 197.636 144.547 197.63C144.561 197.625 144.576 197.622 144.591 197.622H184.429C184.459 197.622 184.488 197.634 184.509 197.656C184.531 197.677 184.542 197.706 184.542 197.736C184.542 197.766 184.531 197.794 184.509 197.816C184.488 197.837 184.459 197.849 184.429 197.849Z" fill="#CCCCCC"/>
<path d="M184.429 200.573H144.591C144.576 200.574 144.561 200.571 144.547 200.565C144.533 200.559 144.521 200.551 144.51 200.54C144.5 200.53 144.491 200.517 144.485 200.504C144.48 200.49 144.477 200.475 144.477 200.46C144.477 200.445 144.48 200.43 144.485 200.416C144.491 200.403 144.5 200.39 144.51 200.379C144.521 200.369 144.533 200.361 144.547 200.355C144.561 200.349 144.576 200.346 144.591 200.346H184.429C184.459 200.347 184.488 200.359 184.509 200.38C184.531 200.401 184.542 200.43 184.542 200.46C184.542 200.49 184.531 200.519 184.509 200.54C184.488 200.561 184.459 200.573 184.429 200.573Z" fill="#CCCCCC"/>
<path d="M184.429 203.298H144.591C144.576 203.298 144.561 203.295 144.547 203.29C144.533 203.284 144.521 203.276 144.51 203.265C144.5 203.255 144.491 203.242 144.485 203.228C144.48 203.214 144.477 203.2 144.477 203.185C144.477 203.17 144.48 203.155 144.485 203.141C144.491 203.127 144.5 203.115 144.51 203.104C144.521 203.093 144.533 203.085 144.547 203.079C144.561 203.074 144.576 203.071 144.591 203.071H184.429C184.459 203.071 184.488 203.083 184.509 203.105C184.531 203.126 184.542 203.155 184.542 203.185C184.542 203.215 184.531 203.243 184.509 203.265C184.488 203.286 184.459 203.298 184.429 203.298Z" fill="#CCCCCC"/>
<path d="M184.429 206.022H144.591C144.576 206.023 144.561 206.02 144.547 206.014C144.533 206.008 144.521 206 144.51 205.989C144.5 205.979 144.491 205.966 144.485 205.953C144.48 205.939 144.477 205.924 144.477 205.909C144.477 205.894 144.48 205.879 144.485 205.865C144.491 205.851 144.5 205.839 144.51 205.828C144.521 205.818 144.533 205.809 144.547 205.804C144.561 205.798 144.576 205.795 144.591 205.795H184.429C184.459 205.796 184.488 205.808 184.509 205.829C184.531 205.85 184.542 205.879 184.542 205.909C184.542 205.939 184.531 205.968 184.509 205.989C184.488 206.01 184.459 206.022 184.429 206.022Z" fill="#CCCCCC"/>
<path d="M134.452 98.1237V4.03249C134.453 2.96338 134.88 1.93841 135.638 1.18243C136.396 0.426461 137.423 0.00121608 138.495 0H213.072C214.144 0.00122316 215.172 0.426471 215.93 1.18244C216.688 1.93841 217.114 2.96338 217.115 4.03249V98.1237C217.114 99.1928 216.688 100.218 215.93 100.974C215.172 101.73 214.144 102.155 213.072 102.156H138.495C137.423 102.155 136.396 101.73 135.638 100.974C134.88 100.218 134.453 99.1928 134.452 98.1237ZM138.495 0.896109C137.662 0.89704 136.862 1.22778 136.273 1.81576C135.683 2.40374 135.352 3.20095 135.351 4.03249V98.1237C135.352 98.9552 135.683 99.7524 136.273 100.34C136.862 100.928 137.662 101.259 138.495 101.26H213.072C213.906 101.259 214.705 100.928 215.295 100.34C215.884 99.7524 216.216 98.9552 216.217 98.1237V4.03249C216.216 3.20095 215.884 2.40374 215.295 1.81576C214.705 1.22778 213.906 0.897041 213.072 0.896109H138.495Z" fill="#E6E6E6"/>
<path d="M179.966 43.2111V23.8912C179.966 23.3567 180.18 22.8442 180.559 22.4662C180.938 22.0882 181.451 21.8756 181.987 21.875H198.403C198.939 21.8756 199.453 22.0882 199.832 22.4662C200.211 22.8442 200.424 23.3567 200.425 23.8912V43.2111C200.424 43.7457 200.211 44.2582 199.832 44.6362C199.453 45.0142 198.939 45.2268 198.403 45.2274H181.987C181.451 45.2268 180.938 45.0142 180.559 44.6362C180.18 44.2582 179.966 43.7457 179.966 43.2111Z" fill="#ED862D"/>
<path d="M148.068 52.172V32.8522C148.069 32.3176 148.282 31.8051 148.661 31.4271C149.04 31.0491 149.554 30.8365 150.09 30.8359H166.506C167.042 30.8365 167.556 31.0491 167.935 31.4271C168.314 31.8051 168.527 32.3176 168.528 32.8522V52.1721C168.527 52.7066 168.314 53.2191 167.935 53.5971C167.556 53.9751 167.042 54.1877 166.506 54.1883H150.09C149.554 54.1877 149.04 53.9751 148.661 53.5971C148.282 53.2191 148.069 52.7066 148.068 52.172Z" fill="#CCCCCC"/>
<path d="M173.677 79.5034V60.1835C173.677 59.6489 173.891 59.1364 174.27 58.7584C174.649 58.3804 175.162 58.1678 175.698 58.1672H192.114C192.65 58.1678 193.164 58.3804 193.543 58.7584C193.922 59.1364 194.135 59.6489 194.136 60.1835V79.5034C194.135 80.0379 193.922 80.5504 193.543 80.9284C193.164 81.3064 192.65 81.519 192.114 81.5196H175.698C175.162 81.519 174.649 81.3064 174.27 80.9284C173.891 80.5504 173.677 80.0379 173.677 79.5034Z" fill="#FF6584"/>
<path d="M271.776 167.833H254.886C254.725 167.832 254.567 167.869 254.424 167.94L250.16 170.068C250.02 170.128 249.901 170.227 249.816 170.354C249.732 170.481 249.688 170.629 249.688 170.781C249.688 170.933 249.732 171.082 249.816 171.209C249.901 171.336 250.02 171.435 250.16 171.494L254.424 173.623C254.567 173.693 254.725 173.73 254.886 173.73H271.776C272.009 173.743 272.238 173.665 272.413 173.511C272.588 173.358 272.695 173.142 272.712 172.91V168.653C272.695 168.421 272.588 168.205 272.413 168.051C272.238 167.898 272.009 167.819 271.776 167.833Z" fill="#3F3D56"/>
<path d="M272.712 168.653V172.91C272.695 173.142 272.588 173.358 272.413 173.511C272.238 173.665 272.009 173.743 271.776 173.73H268.411V167.833H271.776C272.009 167.819 272.238 167.898 272.413 168.051C272.588 168.205 272.695 168.421 272.712 168.653Z" fill="#ED862D"/>
<path d="M271.65 135.986C272.415 135.657 273.241 135.493 274.074 135.504C274.907 135.515 275.729 135.702 276.484 136.052C277.24 136.402 277.913 136.907 278.46 137.535C279.006 138.162 279.413 138.898 279.654 139.693C279.73 139.946 279.787 140.203 279.827 140.463L303.446 152.144L308.913 148.531L315.714 156.34L307.368 163.101C306.364 163.907 305.126 164.37 303.838 164.419C302.55 164.469 301.28 164.103 300.217 163.376L276.253 146.848C276.074 146.923 275.892 146.989 275.707 147.046C274.909 147.287 274.07 147.357 273.243 147.251C272.417 147.145 271.622 146.867 270.911 146.434C270.2 146 269.588 145.422 269.117 144.737C268.646 144.051 268.325 143.274 268.175 142.457C268.131 142.219 268.102 141.979 268.088 141.738C268.022 140.532 268.327 139.333 268.964 138.305C269.601 137.277 270.538 136.467 271.65 135.986Z" fill="#FFB8B8"/>
<path d="M320.845 207.907H295.037C295.037 208.647 268.438 209.248 268.438 209.248C268.02 209.561 267.64 209.921 267.303 210.32C266.293 211.522 265.741 213.041 265.744 214.609V215.681C265.745 217.459 266.453 219.163 267.713 220.419C268.973 221.676 270.682 222.382 272.464 222.383H320.845C322.627 222.381 324.335 221.675 325.595 220.418C326.855 219.162 327.563 217.458 327.565 215.681V214.609C327.562 212.832 326.854 211.129 325.594 209.873C324.334 208.617 322.627 207.91 320.845 207.907Z" fill="#3F3D56"/>
<path d="M292.771 267.152H299.76V222.117H292.771V267.152Z" fill="#3F3D56"/>
<path d="M272.881 266.907C272.881 267.66 283.471 267.199 296.534 267.199C309.597 267.199 320.187 267.66 320.187 266.907C320.187 266.154 309.597 260.182 296.534 260.182C283.471 260.182 272.881 266.154 272.881 266.907Z" fill="#3F3D56"/>
<path d="M279.19 261.629L272.6 261.628L269.464 244.581L279.191 244.581L279.19 261.629Z" fill="#FFB8B8"/>
<path d="M280.871 268L259.62 267.999V267.731C259.62 266.648 259.834 265.575 260.25 264.574C260.665 263.574 261.275 262.664 262.043 261.898C262.811 261.132 263.723 260.525 264.726 260.11C265.73 259.695 266.805 259.482 267.891 259.482H267.892L280.871 259.483L280.871 268Z" fill="#2F2E41"/>
<path d="M269.333 251.057L256.194 221.673C255.097 219.196 254.976 216.399 255.854 213.837C256.733 211.275 258.547 209.137 260.935 207.849L289.433 192.608L302.438 191.505L314.434 190.418L314.52 190.564C314.631 190.75 317.21 195.193 315.467 200.065C314.144 203.76 310.704 206.647 305.243 208.644C292.494 213.306 277.768 217.29 272.028 218.787C271.774 218.851 271.537 218.969 271.332 219.131C271.127 219.294 270.959 219.498 270.839 219.73C270.719 219.959 270.647 220.211 270.629 220.469C270.611 220.728 270.647 220.987 270.734 221.231L282.94 248.581C283.068 248.928 283.114 249.3 283.074 249.667C283.035 250.034 282.912 250.388 282.714 250.7C282.516 251.013 282.249 251.275 281.933 251.468C281.617 251.661 281.261 251.78 280.892 251.814L271.772 252.476C271.694 252.483 271.617 252.487 271.54 252.487C271.073 252.487 270.616 252.352 270.224 252.098C269.833 251.844 269.523 251.483 269.333 251.057Z" fill="#2F2E41"/>
<path d="M282.415 261.629L275.825 261.628L272.689 244.581L282.416 244.581L282.415 261.629Z" fill="#FFB8B8"/>
<path d="M284.096 268L262.846 267.999V267.731C262.846 266.648 263.06 265.575 263.475 264.574C263.891 263.574 264.5 262.664 265.268 261.898C266.036 261.132 266.948 260.525 267.952 260.11C268.955 259.695 270.031 259.482 271.117 259.482H271.118L284.097 259.483L284.096 268Z" fill="#2F2E41"/>
<path d="M273.096 252.666L259.957 223.281C258.86 220.805 258.739 218.007 259.617 215.445C260.496 212.883 262.31 210.746 264.698 209.458L293.196 194.217L306.201 193.114L318.196 192.026L318.283 192.172C318.393 192.359 320.973 196.802 319.229 201.673C317.907 205.369 314.467 208.255 309.005 210.253C296.257 214.914 281.53 218.899 275.791 220.395C275.537 220.46 275.3 220.577 275.095 220.74C274.89 220.903 274.722 221.107 274.602 221.339C274.481 221.568 274.41 221.82 274.392 222.078C274.374 222.336 274.409 222.595 274.496 222.839L286.703 250.19C286.83 250.537 286.876 250.908 286.837 251.275C286.798 251.643 286.674 251.996 286.477 252.309C286.279 252.621 286.012 252.884 285.696 253.077C285.38 253.27 285.024 253.388 284.655 253.422L275.534 254.085C275.457 254.092 275.38 254.096 275.303 254.096C274.836 254.095 274.379 253.96 273.987 253.706C273.595 253.453 273.286 253.091 273.096 252.666Z" fill="#2F2E41"/>
<path d="M266.547 162.901C261.026 155.577 256.661 147.453 253.605 138.811C253.428 138.295 253.44 137.732 253.64 137.223C253.84 136.715 254.215 136.294 254.697 136.035L273.59 125.938C273.896 125.774 274.235 125.681 274.582 125.667C274.929 125.653 275.275 125.718 275.593 125.857C275.917 125.998 276.204 126.21 276.434 126.478C276.663 126.746 276.828 127.062 276.916 127.404C279.115 135.73 283.248 143.424 288.982 149.862C289.218 150.125 289.391 150.437 289.488 150.776C289.584 151.114 289.602 151.471 289.54 151.818C289.48 152.159 289.343 152.482 289.139 152.762C288.935 153.043 288.67 153.273 288.363 153.436L269.47 163.532C268.987 163.789 268.428 163.867 267.892 163.751C267.357 163.635 266.88 163.334 266.547 162.901Z" fill="#CCCCCC"/>
<path d="M267.836 161.934C267.938 162.061 268.081 162.148 268.24 162.181C268.399 162.214 268.565 162.19 268.708 162.114L287.602 152.018C287.693 151.97 287.773 151.902 287.834 151.818C287.895 151.735 287.935 151.638 287.953 151.537C287.972 151.429 287.967 151.319 287.936 151.214C287.906 151.109 287.852 151.012 287.778 150.932C281.875 144.304 277.62 136.384 275.356 127.811C275.33 127.705 275.28 127.607 275.209 127.524C275.138 127.44 275.049 127.375 274.949 127.331C274.854 127.289 274.751 127.269 274.647 127.274C274.544 127.278 274.443 127.306 274.352 127.356L255.459 137.452C255.316 137.529 255.204 137.654 255.143 137.804C255.083 137.955 255.076 138.122 255.126 138.276C258.128 146.763 262.414 154.741 267.836 161.934Z" fill="white"/>
<path d="M329.313 160.207L314.516 165.815L310.904 155.807C310.424 154.478 310.431 153.023 310.923 151.699C311.415 150.374 312.361 149.266 313.593 148.57C314.839 147.865 316.297 147.629 317.703 147.902C319.109 148.176 320.371 148.942 321.26 150.063L329.313 160.207Z" fill="#ED862D"/>
<path d="M291.678 199.86C291.366 199.64 291.105 199.357 290.912 199.029C290.719 198.701 290.598 198.335 290.558 197.957C288.662 180.313 289.982 166.505 294.593 155.745C295.405 153.889 296.628 152.241 298.17 150.924C299.713 149.607 301.534 148.656 303.498 148.143L315.459 147.541L315.521 147.57C318.22 148.889 320.421 151.04 321.798 153.704C323.175 156.368 323.654 159.404 323.165 162.361C319.318 172.475 316.097 183.004 318.553 191.498C318.656 191.853 318.686 192.225 318.642 192.592C318.597 192.959 318.478 193.314 318.293 193.634C318.114 193.943 317.872 194.213 317.584 194.426C317.296 194.639 316.967 194.79 316.618 194.872L293.837 200.276C293.468 200.364 293.084 200.372 292.712 200.3C292.34 200.228 291.987 200.078 291.678 199.86Z" fill="#ED862D"/>
<path d="M311.467 143.085C318.759 143.085 324.67 137.19 324.67 129.917C324.67 122.645 318.759 116.749 311.467 116.749C304.175 116.749 298.264 122.645 298.264 129.917C298.264 137.19 304.175 143.085 311.467 143.085Z" fill="#FFB8B8"/>
<path d="M274.83 140.347L264.54 144.877C264.149 145.049 263.705 145.058 263.307 144.904C262.908 144.75 262.587 144.445 262.414 144.055L262.159 143.48C261.987 143.09 261.977 142.647 262.132 142.249C262.286 141.852 262.592 141.532 262.983 141.359L273.273 136.829C273.665 136.657 274.108 136.647 274.507 136.801C274.906 136.955 275.227 137.261 275.4 137.651L275.654 138.226C275.827 138.616 275.837 139.059 275.682 139.456C275.528 139.854 275.221 140.174 274.83 140.347Z" fill="#CCCCCC"/>
<path d="M278.593 147.316L268.303 151.846C267.912 152.018 267.468 152.028 267.069 151.874C266.671 151.72 266.35 151.414 266.176 151.025L265.922 150.45C265.75 150.059 265.74 149.617 265.894 149.219C266.049 148.822 266.355 148.501 266.746 148.329L277.036 143.799C277.427 143.627 277.871 143.617 278.27 143.771C278.668 143.925 278.99 144.23 279.163 144.62L279.417 145.195C279.589 145.586 279.599 146.028 279.445 146.426C279.29 146.823 278.984 147.144 278.593 147.316Z" fill="#CCCCCC"/>
<path d="M286.529 174.54L263.588 156.49C263.406 156.554 263.22 156.609 263.031 156.654C262.222 156.843 261.381 156.86 260.565 156.704C259.748 156.547 258.973 156.222 258.291 155.747C257.604 155.273 257.027 154.657 256.598 153.942C256.17 153.227 255.899 152.429 255.804 151.601C255.65 150.278 255.949 148.941 256.653 147.809C257.356 146.676 258.423 145.814 259.679 145.362C260.464 145.081 261.299 144.969 262.129 145.032C262.96 145.096 263.768 145.334 264.5 145.731C265.233 146.127 265.872 146.674 266.378 147.334C266.884 147.995 267.244 148.755 267.435 149.563C267.494 149.82 267.535 150.08 267.558 150.342L290.395 163.481L296.078 160.218L302.373 168.438L293.549 174.71C292.516 175.439 291.275 175.815 290.011 175.785C288.746 175.754 287.525 175.317 286.529 174.54Z" fill="#FFB8B8"/>
<path d="M305.172 170.998L292.083 162.121L298.234 153.432C299.051 152.278 300.251 151.449 301.621 151.092C302.991 150.735 304.444 150.873 305.722 151.48C307.015 152.095 308.045 153.151 308.627 154.457C309.208 155.763 309.301 157.233 308.891 158.602L305.172 170.998Z" fill="#ED862D"/>
<path d="M306.626 127.956C303.233 130.272 298.777 132.654 295.311 130.187C293.035 128.567 292.318 125.568 293.241 122.936C294.901 118.202 299.46 116.119 303.821 114.521C309.489 112.445 315.661 110.793 321.513 112.28C327.364 113.767 332.536 119.417 331.48 125.347C330.63 130.116 326.12 134.083 326.76 138.884C327.405 143.716 332.853 146.259 337.663 147.123C342.473 147.986 347.856 148.264 351.312 151.709C355.722 156.105 354.621 163.962 350.472 168.603C346.322 173.244 340.061 175.347 333.993 176.777C325.954 178.672 317.259 179.668 309.624 176.523C301.989 173.379 296.047 164.914 298.259 156.976C299.193 153.623 301.394 150.79 303.521 148.031C305.648 145.272 307.802 142.388 308.613 139.003C309.289 136.183 308.789 132.908 306.913 130.792C306.572 130.422 306.357 129.954 306.3 129.454C306.243 128.954 306.345 128.449 306.594 128.012L306.626 127.956Z" fill="#2F2E41"/>
<path d="M58.6346 191.935C55.2323 193.127 51.5794 193.426 48.0278 192.802C44.4762 192.178 41.1455 190.652 38.3567 188.372C31.2543 182.427 29.0275 172.632 27.2156 163.563C25.4292 154.621 23.6428 145.679 21.8564 136.737L33.0765 144.442C41.1452 149.983 49.3958 155.701 54.9826 163.727C60.5694 171.753 63.008 182.709 58.5192 191.393" fill="#E6E6E6"/>
<path d="M57.6754 224.413C58.8111 216.163 59.9788 207.807 59.1822 199.469C58.4747 192.064 56.2095 184.831 51.5977 178.901C49.1497 175.759 46.171 173.067 42.7956 170.946C41.9153 170.392 41.1052 171.783 41.9816 172.335C47.8222 176.016 52.3396 181.452 54.8827 187.859C57.6914 194.984 58.1425 202.751 57.6585 210.319C57.3658 214.897 56.7454 219.444 56.1203 223.985C56.071 224.19 56.1018 224.407 56.2063 224.59C56.3109 224.774 56.4814 224.911 56.6835 224.974C56.8897 225.03 57.1094 225.002 57.2951 224.897C57.4808 224.791 57.6175 224.617 57.6754 224.413Z" fill="#F2F2F2"/>
<path d="M46.7368 209.815C45.2777 212.026 43.2719 213.826 40.9129 215.04C38.5539 216.255 35.9211 216.843 33.2681 216.747C26.45 216.425 20.7659 211.679 15.6491 207.173L0.514648 193.846L10.5311 193.368C17.7344 193.025 25.1235 192.704 31.9843 194.919C38.8452 197.135 45.1726 202.466 46.4272 209.549" fill="#E6E6E6"/>
<path d="M60.8842 229.155C55.4183 219.509 49.0784 208.789 37.7499 205.363C34.6 204.414 31.2972 204.073 28.0193 204.361C26.9862 204.45 27.2442 206.038 28.2754 205.949C33.7699 205.494 39.2539 206.941 43.804 210.047C48.1824 213.019 51.5915 217.151 54.477 221.533C56.2444 224.218 57.8276 227.016 59.411 229.81C59.917 230.703 61.3961 230.058 60.8842 229.155Z" fill="#F2F2F2"/>
<path d="M69.6423 239.308C69.4582 237.18 68.692 235.142 67.4272 233.418C66.1625 231.694 64.4477 230.35 62.4696 229.53V223.954H53.0917V229.706C51.211 230.566 49.5924 231.907 48.401 233.594C47.2095 235.281 46.4879 237.252 46.3096 239.308L44.1045 264.872H71.8475L69.6423 239.308Z" fill="#F2F2F2"/>
</g>
<defs>
<clipPath id="clip0_84_1309">
<rect width="372" height="268" fill="white"/>
</clipPath>
</defs>
</svg>
